%TF.GenerationSoftware,KiCad,Pcbnew,8.0.0*%
%TF.CreationDate,2024-04-22T22:36:35-07:00*%
%TF.ProjectId,rat-v2,7261742d-7632-42e6-9b69-6361645f7063,rev?*%
%TF.SameCoordinates,Original*%
%TF.FileFunction,Legend,Top*%
%TF.FilePolarity,Positive*%
%FSLAX46Y46*%
G04 Gerber Fmt 4.6, Leading zero omitted, Abs format (unit mm)*
G04 Created by KiCad (PCBNEW 8.0.0) date 2024-04-22 22:36:35*
%MOMM*%
%LPD*%
G01*
G04 APERTURE LIST*
%ADD10C,0.150000*%
%ADD11C,0.250000*%
%ADD12C,0.500000*%
%ADD13C,0.120000*%
G04 APERTURE END LIST*
D10*
X96125000Y-137750000D02*
X96125000Y-139500000D01*
X94375000Y-137750000D02*
X96125000Y-137750000D01*
X67750000Y-140250000D02*
X67750000Y-138500000D01*
X69500000Y-140250000D02*
X67750000Y-140250000D01*
D11*
X92000000Y-116500000D02*
X92000000Y-120750000D01*
X97500000Y-116500000D02*
X92000000Y-116500000D01*
X97500000Y-120750000D02*
X97500000Y-116500000D01*
X92000000Y-120750000D02*
X97500000Y-120750000D01*
X66750000Y-116500000D02*
X66750000Y-120750000D01*
X74000000Y-116500000D02*
X66750000Y-116500000D01*
X74000000Y-120750000D02*
X74000000Y-116500000D01*
X66750000Y-120750000D02*
X74000000Y-120750000D01*
X88148810Y-138910511D02*
X88565476Y-138910511D01*
X88744048Y-139565273D02*
X88148810Y-139565273D01*
X88148810Y-139565273D02*
X88148810Y-138315273D01*
X88148810Y-138315273D02*
X88744048Y-138315273D01*
X89696428Y-138910511D02*
X89279762Y-138910511D01*
X89279762Y-139565273D02*
X89279762Y-138315273D01*
X89279762Y-138315273D02*
X89875000Y-138315273D01*
X90767857Y-138910511D02*
X90351191Y-138910511D01*
X90351191Y-139565273D02*
X90351191Y-138315273D01*
X90351191Y-138315273D02*
X90946429Y-138315273D01*
X91422620Y-138910511D02*
X91839286Y-138910511D01*
X92017858Y-139565273D02*
X91422620Y-139565273D01*
X91422620Y-139565273D02*
X91422620Y-138315273D01*
X91422620Y-138315273D02*
X92017858Y-138315273D01*
X93267857Y-139446226D02*
X93208333Y-139505750D01*
X93208333Y-139505750D02*
X93029762Y-139565273D01*
X93029762Y-139565273D02*
X92910714Y-139565273D01*
X92910714Y-139565273D02*
X92732143Y-139505750D01*
X92732143Y-139505750D02*
X92613095Y-139386702D01*
X92613095Y-139386702D02*
X92553572Y-139267654D01*
X92553572Y-139267654D02*
X92494048Y-139029559D01*
X92494048Y-139029559D02*
X92494048Y-138850988D01*
X92494048Y-138850988D02*
X92553572Y-138612892D01*
X92553572Y-138612892D02*
X92613095Y-138493845D01*
X92613095Y-138493845D02*
X92732143Y-138374797D01*
X92732143Y-138374797D02*
X92910714Y-138315273D01*
X92910714Y-138315273D02*
X93029762Y-138315273D01*
X93029762Y-138315273D02*
X93208333Y-138374797D01*
X93208333Y-138374797D02*
X93267857Y-138434321D01*
X93625000Y-138315273D02*
X94339286Y-138315273D01*
X93982143Y-139565273D02*
X93982143Y-138315273D01*
X94696429Y-139505750D02*
X94875000Y-139565273D01*
X94875000Y-139565273D02*
X95172619Y-139565273D01*
X95172619Y-139565273D02*
X95291667Y-139505750D01*
X95291667Y-139505750D02*
X95351191Y-139446226D01*
X95351191Y-139446226D02*
X95410714Y-139327178D01*
X95410714Y-139327178D02*
X95410714Y-139208130D01*
X95410714Y-139208130D02*
X95351191Y-139089083D01*
X95351191Y-139089083D02*
X95291667Y-139029559D01*
X95291667Y-139029559D02*
X95172619Y-138970035D01*
X95172619Y-138970035D02*
X94934524Y-138910511D01*
X94934524Y-138910511D02*
X94815476Y-138850988D01*
X94815476Y-138850988D02*
X94755953Y-138791464D01*
X94755953Y-138791464D02*
X94696429Y-138672416D01*
X94696429Y-138672416D02*
X94696429Y-138553369D01*
X94696429Y-138553369D02*
X94755953Y-138434321D01*
X94755953Y-138434321D02*
X94815476Y-138374797D01*
X94815476Y-138374797D02*
X94934524Y-138315273D01*
X94934524Y-138315273D02*
X95232143Y-138315273D01*
X95232143Y-138315273D02*
X95410714Y-138374797D01*
X68797618Y-138910511D02*
X68976190Y-138970035D01*
X68976190Y-138970035D02*
X69035713Y-139029559D01*
X69035713Y-139029559D02*
X69095237Y-139148607D01*
X69095237Y-139148607D02*
X69095237Y-139327178D01*
X69095237Y-139327178D02*
X69035713Y-139446226D01*
X69035713Y-139446226D02*
X68976190Y-139505750D01*
X68976190Y-139505750D02*
X68857142Y-139565273D01*
X68857142Y-139565273D02*
X68380952Y-139565273D01*
X68380952Y-139565273D02*
X68380952Y-138315273D01*
X68380952Y-138315273D02*
X68797618Y-138315273D01*
X68797618Y-138315273D02*
X68916666Y-138374797D01*
X68916666Y-138374797D02*
X68976190Y-138434321D01*
X68976190Y-138434321D02*
X69035713Y-138553369D01*
X69035713Y-138553369D02*
X69035713Y-138672416D01*
X69035713Y-138672416D02*
X68976190Y-138791464D01*
X68976190Y-138791464D02*
X68916666Y-138850988D01*
X68916666Y-138850988D02*
X68797618Y-138910511D01*
X68797618Y-138910511D02*
X68380952Y-138910511D01*
X70226190Y-139565273D02*
X69630952Y-139565273D01*
X69630952Y-139565273D02*
X69630952Y-138315273D01*
X70583333Y-139208130D02*
X71178571Y-139208130D01*
X70464285Y-139565273D02*
X70880952Y-138315273D01*
X70880952Y-138315273D02*
X71297618Y-139565273D01*
X72428571Y-139446226D02*
X72369047Y-139505750D01*
X72369047Y-139505750D02*
X72190476Y-139565273D01*
X72190476Y-139565273D02*
X72071428Y-139565273D01*
X72071428Y-139565273D02*
X71892857Y-139505750D01*
X71892857Y-139505750D02*
X71773809Y-139386702D01*
X71773809Y-139386702D02*
X71714286Y-139267654D01*
X71714286Y-139267654D02*
X71654762Y-139029559D01*
X71654762Y-139029559D02*
X71654762Y-138850988D01*
X71654762Y-138850988D02*
X71714286Y-138612892D01*
X71714286Y-138612892D02*
X71773809Y-138493845D01*
X71773809Y-138493845D02*
X71892857Y-138374797D01*
X71892857Y-138374797D02*
X72071428Y-138315273D01*
X72071428Y-138315273D02*
X72190476Y-138315273D01*
X72190476Y-138315273D02*
X72369047Y-138374797D01*
X72369047Y-138374797D02*
X72428571Y-138434321D01*
X72964286Y-139565273D02*
X72964286Y-138315273D01*
X73678571Y-139565273D02*
X73142857Y-138850988D01*
X73678571Y-138315273D02*
X72964286Y-139029559D01*
X74839285Y-138910511D02*
X75017857Y-138970035D01*
X75017857Y-138970035D02*
X75077380Y-139029559D01*
X75077380Y-139029559D02*
X75136904Y-139148607D01*
X75136904Y-139148607D02*
X75136904Y-139327178D01*
X75136904Y-139327178D02*
X75077380Y-139446226D01*
X75077380Y-139446226D02*
X75017857Y-139505750D01*
X75017857Y-139505750D02*
X74898809Y-139565273D01*
X74898809Y-139565273D02*
X74422619Y-139565273D01*
X74422619Y-139565273D02*
X74422619Y-138315273D01*
X74422619Y-138315273D02*
X74839285Y-138315273D01*
X74839285Y-138315273D02*
X74958333Y-138374797D01*
X74958333Y-138374797D02*
X75017857Y-138434321D01*
X75017857Y-138434321D02*
X75077380Y-138553369D01*
X75077380Y-138553369D02*
X75077380Y-138672416D01*
X75077380Y-138672416D02*
X75017857Y-138791464D01*
X75017857Y-138791464D02*
X74958333Y-138850988D01*
X74958333Y-138850988D02*
X74839285Y-138910511D01*
X74839285Y-138910511D02*
X74422619Y-138910511D01*
X75910714Y-138315273D02*
X76148809Y-138315273D01*
X76148809Y-138315273D02*
X76267857Y-138374797D01*
X76267857Y-138374797D02*
X76386904Y-138493845D01*
X76386904Y-138493845D02*
X76446428Y-138731940D01*
X76446428Y-138731940D02*
X76446428Y-139148607D01*
X76446428Y-139148607D02*
X76386904Y-139386702D01*
X76386904Y-139386702D02*
X76267857Y-139505750D01*
X76267857Y-139505750D02*
X76148809Y-139565273D01*
X76148809Y-139565273D02*
X75910714Y-139565273D01*
X75910714Y-139565273D02*
X75791666Y-139505750D01*
X75791666Y-139505750D02*
X75672619Y-139386702D01*
X75672619Y-139386702D02*
X75613095Y-139148607D01*
X75613095Y-139148607D02*
X75613095Y-138731940D01*
X75613095Y-138731940D02*
X75672619Y-138493845D01*
X75672619Y-138493845D02*
X75791666Y-138374797D01*
X75791666Y-138374797D02*
X75910714Y-138315273D01*
X76863095Y-138315273D02*
X77696428Y-139565273D01*
X77696428Y-138315273D02*
X76863095Y-139565273D01*
D12*
X92817042Y-117418047D02*
X93650375Y-119918047D01*
X93650375Y-119918047D02*
X94483708Y-117418047D01*
X95197994Y-117656142D02*
X95317042Y-117537095D01*
X95317042Y-117537095D02*
X95555137Y-117418047D01*
X95555137Y-117418047D02*
X96150375Y-117418047D01*
X96150375Y-117418047D02*
X96388470Y-117537095D01*
X96388470Y-117537095D02*
X96507518Y-117656142D01*
X96507518Y-117656142D02*
X96626565Y-117894238D01*
X96626565Y-117894238D02*
X96626565Y-118132333D01*
X96626565Y-118132333D02*
X96507518Y-118489476D01*
X96507518Y-118489476D02*
X95078946Y-119918047D01*
X95078946Y-119918047D02*
X96626565Y-119918047D01*
X69102756Y-119918047D02*
X68269423Y-118727571D01*
X67674185Y-119918047D02*
X67674185Y-117418047D01*
X67674185Y-117418047D02*
X68626566Y-117418047D01*
X68626566Y-117418047D02*
X68864661Y-117537095D01*
X68864661Y-117537095D02*
X68983708Y-117656142D01*
X68983708Y-117656142D02*
X69102756Y-117894238D01*
X69102756Y-117894238D02*
X69102756Y-118251380D01*
X69102756Y-118251380D02*
X68983708Y-118489476D01*
X68983708Y-118489476D02*
X68864661Y-118608523D01*
X68864661Y-118608523D02*
X68626566Y-118727571D01*
X68626566Y-118727571D02*
X67674185Y-118727571D01*
X70055137Y-119203761D02*
X71245613Y-119203761D01*
X69817042Y-119918047D02*
X70650375Y-117418047D01*
X70650375Y-117418047D02*
X71483708Y-119918047D01*
X71959899Y-117418047D02*
X73388470Y-117418047D01*
X72674184Y-119918047D02*
X72674184Y-117418047D01*
D10*
X101500000Y-105000000D02*
X101500000Y-115500000D01*
X110250000Y-113937500D02*
X110250000Y-115437500D01*
X64500000Y-105062500D02*
X64500000Y-115500000D01*
X62700000Y-102375000D02*
X62700000Y-103000000D01*
X74000000Y-106250000D02*
X74000000Y-115500000D01*
X101500000Y-105000000D02*
X103250000Y-103100000D01*
X55750000Y-114000000D02*
X55750000Y-115500000D01*
X55750000Y-91750000D02*
X69500000Y-91750000D01*
X103250000Y-102437500D02*
X103250000Y-103062500D01*
X74000000Y-115500000D02*
X55750000Y-115500000D01*
X92000000Y-106250000D02*
X92000000Y-115500000D01*
X110250000Y-91750000D02*
X110250000Y-106250000D01*
X96750000Y-101500000D02*
X96750000Y-91750000D01*
X110250000Y-115437500D02*
X92000000Y-115500000D01*
X62700000Y-103000000D02*
X64500000Y-105062500D01*
X55750000Y-106250000D02*
X55750000Y-91750000D01*
X69500000Y-93250000D02*
X69500000Y-101750000D01*
X96750000Y-91750000D02*
X110250000Y-91750000D01*
X92000000Y-106250000D02*
X96750000Y-101500000D01*
X69500000Y-101750000D02*
X74000000Y-106250000D01*
X67797618Y-104869819D02*
X67321428Y-104869819D01*
X67321428Y-104869819D02*
X67321428Y-103869819D01*
X68130952Y-104346009D02*
X68464285Y-104346009D01*
X68607142Y-104869819D02*
X68130952Y-104869819D01*
X68130952Y-104869819D02*
X68130952Y-103869819D01*
X68130952Y-103869819D02*
X68607142Y-103869819D01*
X69369047Y-104346009D02*
X69035714Y-104346009D01*
X69035714Y-104869819D02*
X69035714Y-103869819D01*
X69035714Y-103869819D02*
X69511904Y-103869819D01*
X69750000Y-103869819D02*
X70321428Y-103869819D01*
X70035714Y-104869819D02*
X70035714Y-103869819D01*
X105047618Y-104619819D02*
X104571428Y-104619819D01*
X104571428Y-104619819D02*
X104571428Y-103619819D01*
X105380952Y-104096009D02*
X105714285Y-104096009D01*
X105857142Y-104619819D02*
X105380952Y-104619819D01*
X105380952Y-104619819D02*
X105380952Y-103619819D01*
X105380952Y-103619819D02*
X105857142Y-103619819D01*
X106619047Y-104096009D02*
X106285714Y-104096009D01*
X106285714Y-104619819D02*
X106285714Y-103619819D01*
X106285714Y-103619819D02*
X106761904Y-103619819D01*
X107000000Y-103619819D02*
X107571428Y-103619819D01*
X107285714Y-104619819D02*
X107285714Y-103619819D01*
X58666666Y-104869819D02*
X58333333Y-104393628D01*
X58095238Y-104869819D02*
X58095238Y-103869819D01*
X58095238Y-103869819D02*
X58476190Y-103869819D01*
X58476190Y-103869819D02*
X58571428Y-103917438D01*
X58571428Y-103917438D02*
X58619047Y-103965057D01*
X58619047Y-103965057D02*
X58666666Y-104060295D01*
X58666666Y-104060295D02*
X58666666Y-104203152D01*
X58666666Y-104203152D02*
X58619047Y-104298390D01*
X58619047Y-104298390D02*
X58571428Y-104346009D01*
X58571428Y-104346009D02*
X58476190Y-104393628D01*
X58476190Y-104393628D02*
X58095238Y-104393628D01*
X59095238Y-104869819D02*
X59095238Y-103869819D01*
X60095237Y-103917438D02*
X59999999Y-103869819D01*
X59999999Y-103869819D02*
X59857142Y-103869819D01*
X59857142Y-103869819D02*
X59714285Y-103917438D01*
X59714285Y-103917438D02*
X59619047Y-104012676D01*
X59619047Y-104012676D02*
X59571428Y-104107914D01*
X59571428Y-104107914D02*
X59523809Y-104298390D01*
X59523809Y-104298390D02*
X59523809Y-104441247D01*
X59523809Y-104441247D02*
X59571428Y-104631723D01*
X59571428Y-104631723D02*
X59619047Y-104726961D01*
X59619047Y-104726961D02*
X59714285Y-104822200D01*
X59714285Y-104822200D02*
X59857142Y-104869819D01*
X59857142Y-104869819D02*
X59952380Y-104869819D01*
X59952380Y-104869819D02*
X60095237Y-104822200D01*
X60095237Y-104822200D02*
X60142856Y-104774580D01*
X60142856Y-104774580D02*
X60142856Y-104441247D01*
X60142856Y-104441247D02*
X59952380Y-104441247D01*
X60571428Y-104869819D02*
X60571428Y-103869819D01*
X60571428Y-104346009D02*
X61142856Y-104346009D01*
X61142856Y-104869819D02*
X61142856Y-103869819D01*
X61476190Y-103869819D02*
X62047618Y-103869819D01*
X61761904Y-104869819D02*
X61761904Y-103869819D01*
X96666666Y-104619819D02*
X96333333Y-104143628D01*
X96095238Y-104619819D02*
X96095238Y-103619819D01*
X96095238Y-103619819D02*
X96476190Y-103619819D01*
X96476190Y-103619819D02*
X96571428Y-103667438D01*
X96571428Y-103667438D02*
X96619047Y-103715057D01*
X96619047Y-103715057D02*
X96666666Y-103810295D01*
X96666666Y-103810295D02*
X96666666Y-103953152D01*
X96666666Y-103953152D02*
X96619047Y-104048390D01*
X96619047Y-104048390D02*
X96571428Y-104096009D01*
X96571428Y-104096009D02*
X96476190Y-104143628D01*
X96476190Y-104143628D02*
X96095238Y-104143628D01*
X97095238Y-104619819D02*
X97095238Y-103619819D01*
X98095237Y-103667438D02*
X97999999Y-103619819D01*
X97999999Y-103619819D02*
X97857142Y-103619819D01*
X97857142Y-103619819D02*
X97714285Y-103667438D01*
X97714285Y-103667438D02*
X97619047Y-103762676D01*
X97619047Y-103762676D02*
X97571428Y-103857914D01*
X97571428Y-103857914D02*
X97523809Y-104048390D01*
X97523809Y-104048390D02*
X97523809Y-104191247D01*
X97523809Y-104191247D02*
X97571428Y-104381723D01*
X97571428Y-104381723D02*
X97619047Y-104476961D01*
X97619047Y-104476961D02*
X97714285Y-104572200D01*
X97714285Y-104572200D02*
X97857142Y-104619819D01*
X97857142Y-104619819D02*
X97952380Y-104619819D01*
X97952380Y-104619819D02*
X98095237Y-104572200D01*
X98095237Y-104572200D02*
X98142856Y-104524580D01*
X98142856Y-104524580D02*
X98142856Y-104191247D01*
X98142856Y-104191247D02*
X97952380Y-104191247D01*
X98571428Y-104619819D02*
X98571428Y-103619819D01*
X98571428Y-104096009D02*
X99142856Y-104096009D01*
X99142856Y-104619819D02*
X99142856Y-103619819D01*
X99476190Y-103619819D02*
X100047618Y-103619819D01*
X99761904Y-104619819D02*
X99761904Y-103619819D01*
X84386779Y-99869819D02*
X84386779Y-98869819D01*
X84958207Y-99869819D02*
X84529636Y-99298390D01*
X84958207Y-98869819D02*
X84386779Y-99441247D01*
X97750000Y-93369819D02*
X97750000Y-92369819D01*
X97750000Y-92846009D02*
X98321428Y-92846009D01*
X98321428Y-93369819D02*
X98321428Y-92369819D01*
X98750000Y-93084104D02*
X99226190Y-93084104D01*
X98654762Y-93369819D02*
X98988095Y-92369819D01*
X98988095Y-92369819D02*
X99321428Y-93369819D01*
X100226190Y-93369819D02*
X99892857Y-92893628D01*
X99654762Y-93369819D02*
X99654762Y-92369819D01*
X99654762Y-92369819D02*
X100035714Y-92369819D01*
X100035714Y-92369819D02*
X100130952Y-92417438D01*
X100130952Y-92417438D02*
X100178571Y-92465057D01*
X100178571Y-92465057D02*
X100226190Y-92560295D01*
X100226190Y-92560295D02*
X100226190Y-92703152D01*
X100226190Y-92703152D02*
X100178571Y-92798390D01*
X100178571Y-92798390D02*
X100130952Y-92846009D01*
X100130952Y-92846009D02*
X100035714Y-92893628D01*
X100035714Y-92893628D02*
X99654762Y-92893628D01*
X100654762Y-93369819D02*
X100654762Y-92369819D01*
X100654762Y-92369819D02*
X100892857Y-92369819D01*
X100892857Y-92369819D02*
X101035714Y-92417438D01*
X101035714Y-92417438D02*
X101130952Y-92512676D01*
X101130952Y-92512676D02*
X101178571Y-92607914D01*
X101178571Y-92607914D02*
X101226190Y-92798390D01*
X101226190Y-92798390D02*
X101226190Y-92941247D01*
X101226190Y-92941247D02*
X101178571Y-93131723D01*
X101178571Y-93131723D02*
X101130952Y-93226961D01*
X101130952Y-93226961D02*
X101035714Y-93322200D01*
X101035714Y-93322200D02*
X100892857Y-93369819D01*
X100892857Y-93369819D02*
X100654762Y-93369819D01*
X102988095Y-93274580D02*
X102940476Y-93322200D01*
X102940476Y-93322200D02*
X102797619Y-93369819D01*
X102797619Y-93369819D02*
X102702381Y-93369819D01*
X102702381Y-93369819D02*
X102559524Y-93322200D01*
X102559524Y-93322200D02*
X102464286Y-93226961D01*
X102464286Y-93226961D02*
X102416667Y-93131723D01*
X102416667Y-93131723D02*
X102369048Y-92941247D01*
X102369048Y-92941247D02*
X102369048Y-92798390D01*
X102369048Y-92798390D02*
X102416667Y-92607914D01*
X102416667Y-92607914D02*
X102464286Y-92512676D01*
X102464286Y-92512676D02*
X102559524Y-92417438D01*
X102559524Y-92417438D02*
X102702381Y-92369819D01*
X102702381Y-92369819D02*
X102797619Y-92369819D01*
X102797619Y-92369819D02*
X102940476Y-92417438D01*
X102940476Y-92417438D02*
X102988095Y-92465057D01*
X103892857Y-93369819D02*
X103416667Y-93369819D01*
X103416667Y-93369819D02*
X103416667Y-92369819D01*
X104226191Y-93369819D02*
X104226191Y-92369819D01*
X104702381Y-93369819D02*
X104702381Y-92369819D01*
X104702381Y-92369819D02*
X105083333Y-92369819D01*
X105083333Y-92369819D02*
X105178571Y-92417438D01*
X105178571Y-92417438D02*
X105226190Y-92465057D01*
X105226190Y-92465057D02*
X105273809Y-92560295D01*
X105273809Y-92560295D02*
X105273809Y-92703152D01*
X105273809Y-92703152D02*
X105226190Y-92798390D01*
X105226190Y-92798390D02*
X105178571Y-92846009D01*
X105178571Y-92846009D02*
X105083333Y-92893628D01*
X105083333Y-92893628D02*
X104702381Y-92893628D01*
X105702381Y-93369819D02*
X105702381Y-92369819D01*
X105702381Y-92369819D02*
X106083333Y-92369819D01*
X106083333Y-92369819D02*
X106178571Y-92417438D01*
X106178571Y-92417438D02*
X106226190Y-92465057D01*
X106226190Y-92465057D02*
X106273809Y-92560295D01*
X106273809Y-92560295D02*
X106273809Y-92703152D01*
X106273809Y-92703152D02*
X106226190Y-92798390D01*
X106226190Y-92798390D02*
X106178571Y-92846009D01*
X106178571Y-92846009D02*
X106083333Y-92893628D01*
X106083333Y-92893628D02*
X105702381Y-92893628D01*
X106702381Y-93369819D02*
X106702381Y-92369819D01*
X107178571Y-93369819D02*
X107178571Y-92369819D01*
X107178571Y-92369819D02*
X107749999Y-93369819D01*
X107749999Y-93369819D02*
X107749999Y-92369819D01*
X108749999Y-92417438D02*
X108654761Y-92369819D01*
X108654761Y-92369819D02*
X108511904Y-92369819D01*
X108511904Y-92369819D02*
X108369047Y-92417438D01*
X108369047Y-92417438D02*
X108273809Y-92512676D01*
X108273809Y-92512676D02*
X108226190Y-92607914D01*
X108226190Y-92607914D02*
X108178571Y-92798390D01*
X108178571Y-92798390D02*
X108178571Y-92941247D01*
X108178571Y-92941247D02*
X108226190Y-93131723D01*
X108226190Y-93131723D02*
X108273809Y-93226961D01*
X108273809Y-93226961D02*
X108369047Y-93322200D01*
X108369047Y-93322200D02*
X108511904Y-93369819D01*
X108511904Y-93369819D02*
X108607142Y-93369819D01*
X108607142Y-93369819D02*
X108749999Y-93322200D01*
X108749999Y-93322200D02*
X108797618Y-93274580D01*
X108797618Y-93274580D02*
X108797618Y-92941247D01*
X108797618Y-92941247D02*
X108607142Y-92941247D01*
X57395238Y-93322200D02*
X57538095Y-93369819D01*
X57538095Y-93369819D02*
X57776190Y-93369819D01*
X57776190Y-93369819D02*
X57871428Y-93322200D01*
X57871428Y-93322200D02*
X57919047Y-93274580D01*
X57919047Y-93274580D02*
X57966666Y-93179342D01*
X57966666Y-93179342D02*
X57966666Y-93084104D01*
X57966666Y-93084104D02*
X57919047Y-92988866D01*
X57919047Y-92988866D02*
X57871428Y-92941247D01*
X57871428Y-92941247D02*
X57776190Y-92893628D01*
X57776190Y-92893628D02*
X57585714Y-92846009D01*
X57585714Y-92846009D02*
X57490476Y-92798390D01*
X57490476Y-92798390D02*
X57442857Y-92750771D01*
X57442857Y-92750771D02*
X57395238Y-92655533D01*
X57395238Y-92655533D02*
X57395238Y-92560295D01*
X57395238Y-92560295D02*
X57442857Y-92465057D01*
X57442857Y-92465057D02*
X57490476Y-92417438D01*
X57490476Y-92417438D02*
X57585714Y-92369819D01*
X57585714Y-92369819D02*
X57823809Y-92369819D01*
X57823809Y-92369819D02*
X57966666Y-92417438D01*
X58585714Y-92369819D02*
X58776190Y-92369819D01*
X58776190Y-92369819D02*
X58871428Y-92417438D01*
X58871428Y-92417438D02*
X58966666Y-92512676D01*
X58966666Y-92512676D02*
X59014285Y-92703152D01*
X59014285Y-92703152D02*
X59014285Y-93036485D01*
X59014285Y-93036485D02*
X58966666Y-93226961D01*
X58966666Y-93226961D02*
X58871428Y-93322200D01*
X58871428Y-93322200D02*
X58776190Y-93369819D01*
X58776190Y-93369819D02*
X58585714Y-93369819D01*
X58585714Y-93369819D02*
X58490476Y-93322200D01*
X58490476Y-93322200D02*
X58395238Y-93226961D01*
X58395238Y-93226961D02*
X58347619Y-93036485D01*
X58347619Y-93036485D02*
X58347619Y-92703152D01*
X58347619Y-92703152D02*
X58395238Y-92512676D01*
X58395238Y-92512676D02*
X58490476Y-92417438D01*
X58490476Y-92417438D02*
X58585714Y-92369819D01*
X59776190Y-92846009D02*
X59442857Y-92846009D01*
X59442857Y-93369819D02*
X59442857Y-92369819D01*
X59442857Y-92369819D02*
X59919047Y-92369819D01*
X60157143Y-92369819D02*
X60728571Y-92369819D01*
X60442857Y-93369819D02*
X60442857Y-92369819D01*
X62395238Y-93274580D02*
X62347619Y-93322200D01*
X62347619Y-93322200D02*
X62204762Y-93369819D01*
X62204762Y-93369819D02*
X62109524Y-93369819D01*
X62109524Y-93369819D02*
X61966667Y-93322200D01*
X61966667Y-93322200D02*
X61871429Y-93226961D01*
X61871429Y-93226961D02*
X61823810Y-93131723D01*
X61823810Y-93131723D02*
X61776191Y-92941247D01*
X61776191Y-92941247D02*
X61776191Y-92798390D01*
X61776191Y-92798390D02*
X61823810Y-92607914D01*
X61823810Y-92607914D02*
X61871429Y-92512676D01*
X61871429Y-92512676D02*
X61966667Y-92417438D01*
X61966667Y-92417438D02*
X62109524Y-92369819D01*
X62109524Y-92369819D02*
X62204762Y-92369819D01*
X62204762Y-92369819D02*
X62347619Y-92417438D01*
X62347619Y-92417438D02*
X62395238Y-92465057D01*
X63300000Y-93369819D02*
X62823810Y-93369819D01*
X62823810Y-93369819D02*
X62823810Y-92369819D01*
X63633334Y-93369819D02*
X63633334Y-92369819D01*
X64109524Y-93369819D02*
X64109524Y-92369819D01*
X64109524Y-92369819D02*
X64490476Y-92369819D01*
X64490476Y-92369819D02*
X64585714Y-92417438D01*
X64585714Y-92417438D02*
X64633333Y-92465057D01*
X64633333Y-92465057D02*
X64680952Y-92560295D01*
X64680952Y-92560295D02*
X64680952Y-92703152D01*
X64680952Y-92703152D02*
X64633333Y-92798390D01*
X64633333Y-92798390D02*
X64585714Y-92846009D01*
X64585714Y-92846009D02*
X64490476Y-92893628D01*
X64490476Y-92893628D02*
X64109524Y-92893628D01*
X65109524Y-93369819D02*
X65109524Y-92369819D01*
X65109524Y-92369819D02*
X65490476Y-92369819D01*
X65490476Y-92369819D02*
X65585714Y-92417438D01*
X65585714Y-92417438D02*
X65633333Y-92465057D01*
X65633333Y-92465057D02*
X65680952Y-92560295D01*
X65680952Y-92560295D02*
X65680952Y-92703152D01*
X65680952Y-92703152D02*
X65633333Y-92798390D01*
X65633333Y-92798390D02*
X65585714Y-92846009D01*
X65585714Y-92846009D02*
X65490476Y-92893628D01*
X65490476Y-92893628D02*
X65109524Y-92893628D01*
X66109524Y-93369819D02*
X66109524Y-92369819D01*
X66585714Y-93369819D02*
X66585714Y-92369819D01*
X66585714Y-92369819D02*
X67157142Y-93369819D01*
X67157142Y-93369819D02*
X67157142Y-92369819D01*
X68157142Y-92417438D02*
X68061904Y-92369819D01*
X68061904Y-92369819D02*
X67919047Y-92369819D01*
X67919047Y-92369819D02*
X67776190Y-92417438D01*
X67776190Y-92417438D02*
X67680952Y-92512676D01*
X67680952Y-92512676D02*
X67633333Y-92607914D01*
X67633333Y-92607914D02*
X67585714Y-92798390D01*
X67585714Y-92798390D02*
X67585714Y-92941247D01*
X67585714Y-92941247D02*
X67633333Y-93131723D01*
X67633333Y-93131723D02*
X67680952Y-93226961D01*
X67680952Y-93226961D02*
X67776190Y-93322200D01*
X67776190Y-93322200D02*
X67919047Y-93369819D01*
X67919047Y-93369819D02*
X68014285Y-93369819D01*
X68014285Y-93369819D02*
X68157142Y-93322200D01*
X68157142Y-93322200D02*
X68204761Y-93274580D01*
X68204761Y-93274580D02*
X68204761Y-92941247D01*
X68204761Y-92941247D02*
X68014285Y-92941247D01*
X60038095Y-136502438D02*
X59942857Y-136454819D01*
X59942857Y-136454819D02*
X59800000Y-136454819D01*
X59800000Y-136454819D02*
X59657143Y-136502438D01*
X59657143Y-136502438D02*
X59561905Y-136597676D01*
X59561905Y-136597676D02*
X59514286Y-136692914D01*
X59514286Y-136692914D02*
X59466667Y-136883390D01*
X59466667Y-136883390D02*
X59466667Y-137026247D01*
X59466667Y-137026247D02*
X59514286Y-137216723D01*
X59514286Y-137216723D02*
X59561905Y-137311961D01*
X59561905Y-137311961D02*
X59657143Y-137407200D01*
X59657143Y-137407200D02*
X59800000Y-137454819D01*
X59800000Y-137454819D02*
X59895238Y-137454819D01*
X59895238Y-137454819D02*
X60038095Y-137407200D01*
X60038095Y-137407200D02*
X60085714Y-137359580D01*
X60085714Y-137359580D02*
X60085714Y-137026247D01*
X60085714Y-137026247D02*
X59895238Y-137026247D01*
X60514286Y-137454819D02*
X60514286Y-136454819D01*
X60514286Y-136454819D02*
X61085714Y-137454819D01*
X61085714Y-137454819D02*
X61085714Y-136454819D01*
X61561905Y-137454819D02*
X61561905Y-136454819D01*
X61561905Y-136454819D02*
X61800000Y-136454819D01*
X61800000Y-136454819D02*
X61942857Y-136502438D01*
X61942857Y-136502438D02*
X62038095Y-136597676D01*
X62038095Y-136597676D02*
X62085714Y-136692914D01*
X62085714Y-136692914D02*
X62133333Y-136883390D01*
X62133333Y-136883390D02*
X62133333Y-137026247D01*
X62133333Y-137026247D02*
X62085714Y-137216723D01*
X62085714Y-137216723D02*
X62038095Y-137311961D01*
X62038095Y-137311961D02*
X61942857Y-137407200D01*
X61942857Y-137407200D02*
X61800000Y-137454819D01*
X61800000Y-137454819D02*
X61561905Y-137454819D01*
X106454819Y-111238094D02*
X105454819Y-111238094D01*
X105454819Y-111238094D02*
X105454819Y-110999999D01*
X105454819Y-110999999D02*
X105502438Y-110857142D01*
X105502438Y-110857142D02*
X105597676Y-110761904D01*
X105597676Y-110761904D02*
X105692914Y-110714285D01*
X105692914Y-110714285D02*
X105883390Y-110666666D01*
X105883390Y-110666666D02*
X106026247Y-110666666D01*
X106026247Y-110666666D02*
X106216723Y-110714285D01*
X106216723Y-110714285D02*
X106311961Y-110761904D01*
X106311961Y-110761904D02*
X106407200Y-110857142D01*
X106407200Y-110857142D02*
X106454819Y-110999999D01*
X106454819Y-110999999D02*
X106454819Y-111238094D01*
X105454819Y-109809523D02*
X105454819Y-109999999D01*
X105454819Y-109999999D02*
X105502438Y-110095237D01*
X105502438Y-110095237D02*
X105550057Y-110142856D01*
X105550057Y-110142856D02*
X105692914Y-110238094D01*
X105692914Y-110238094D02*
X105883390Y-110285713D01*
X105883390Y-110285713D02*
X106264342Y-110285713D01*
X106264342Y-110285713D02*
X106359580Y-110238094D01*
X106359580Y-110238094D02*
X106407200Y-110190475D01*
X106407200Y-110190475D02*
X106454819Y-110095237D01*
X106454819Y-110095237D02*
X106454819Y-109904761D01*
X106454819Y-109904761D02*
X106407200Y-109809523D01*
X106407200Y-109809523D02*
X106359580Y-109761904D01*
X106359580Y-109761904D02*
X106264342Y-109714285D01*
X106264342Y-109714285D02*
X106026247Y-109714285D01*
X106026247Y-109714285D02*
X105931009Y-109761904D01*
X105931009Y-109761904D02*
X105883390Y-109809523D01*
X105883390Y-109809523D02*
X105835771Y-109904761D01*
X105835771Y-109904761D02*
X105835771Y-110095237D01*
X105835771Y-110095237D02*
X105883390Y-110190475D01*
X105883390Y-110190475D02*
X105931009Y-110238094D01*
X105931009Y-110238094D02*
X106026247Y-110285713D01*
X70238095Y-81502438D02*
X70142857Y-81454819D01*
X70142857Y-81454819D02*
X70000000Y-81454819D01*
X70000000Y-81454819D02*
X69857143Y-81502438D01*
X69857143Y-81502438D02*
X69761905Y-81597676D01*
X69761905Y-81597676D02*
X69714286Y-81692914D01*
X69714286Y-81692914D02*
X69666667Y-81883390D01*
X69666667Y-81883390D02*
X69666667Y-82026247D01*
X69666667Y-82026247D02*
X69714286Y-82216723D01*
X69714286Y-82216723D02*
X69761905Y-82311961D01*
X69761905Y-82311961D02*
X69857143Y-82407200D01*
X69857143Y-82407200D02*
X70000000Y-82454819D01*
X70000000Y-82454819D02*
X70095238Y-82454819D01*
X70095238Y-82454819D02*
X70238095Y-82407200D01*
X70238095Y-82407200D02*
X70285714Y-82359580D01*
X70285714Y-82359580D02*
X70285714Y-82026247D01*
X70285714Y-82026247D02*
X70095238Y-82026247D01*
X70714286Y-82454819D02*
X70714286Y-81454819D01*
X70714286Y-81454819D02*
X71285714Y-82454819D01*
X71285714Y-82454819D02*
X71285714Y-81454819D01*
X71761905Y-82454819D02*
X71761905Y-81454819D01*
X71761905Y-81454819D02*
X72000000Y-81454819D01*
X72000000Y-81454819D02*
X72142857Y-81502438D01*
X72142857Y-81502438D02*
X72238095Y-81597676D01*
X72238095Y-81597676D02*
X72285714Y-81692914D01*
X72285714Y-81692914D02*
X72333333Y-81883390D01*
X72333333Y-81883390D02*
X72333333Y-82026247D01*
X72333333Y-82026247D02*
X72285714Y-82216723D01*
X72285714Y-82216723D02*
X72238095Y-82311961D01*
X72238095Y-82311961D02*
X72142857Y-82407200D01*
X72142857Y-82407200D02*
X72000000Y-82454819D01*
X72000000Y-82454819D02*
X71761905Y-82454819D01*
X74857142Y-102454819D02*
X74523809Y-101978628D01*
X74285714Y-102454819D02*
X74285714Y-101454819D01*
X74285714Y-101454819D02*
X74666666Y-101454819D01*
X74666666Y-101454819D02*
X74761904Y-101502438D01*
X74761904Y-101502438D02*
X74809523Y-101550057D01*
X74809523Y-101550057D02*
X74857142Y-101645295D01*
X74857142Y-101645295D02*
X74857142Y-101788152D01*
X74857142Y-101788152D02*
X74809523Y-101883390D01*
X74809523Y-101883390D02*
X74761904Y-101931009D01*
X74761904Y-101931009D02*
X74666666Y-101978628D01*
X74666666Y-101978628D02*
X74285714Y-101978628D01*
X75809523Y-102454819D02*
X75238095Y-102454819D01*
X75523809Y-102454819D02*
X75523809Y-101454819D01*
X75523809Y-101454819D02*
X75428571Y-101597676D01*
X75428571Y-101597676D02*
X75333333Y-101692914D01*
X75333333Y-101692914D02*
X75238095Y-101740533D01*
X76428571Y-101454819D02*
X76523809Y-101454819D01*
X76523809Y-101454819D02*
X76619047Y-101502438D01*
X76619047Y-101502438D02*
X76666666Y-101550057D01*
X76666666Y-101550057D02*
X76714285Y-101645295D01*
X76714285Y-101645295D02*
X76761904Y-101835771D01*
X76761904Y-101835771D02*
X76761904Y-102073866D01*
X76761904Y-102073866D02*
X76714285Y-102264342D01*
X76714285Y-102264342D02*
X76666666Y-102359580D01*
X76666666Y-102359580D02*
X76619047Y-102407200D01*
X76619047Y-102407200D02*
X76523809Y-102454819D01*
X76523809Y-102454819D02*
X76428571Y-102454819D01*
X76428571Y-102454819D02*
X76333333Y-102407200D01*
X76333333Y-102407200D02*
X76285714Y-102359580D01*
X76285714Y-102359580D02*
X76238095Y-102264342D01*
X76238095Y-102264342D02*
X76190476Y-102073866D01*
X76190476Y-102073866D02*
X76190476Y-101835771D01*
X76190476Y-101835771D02*
X76238095Y-101645295D01*
X76238095Y-101645295D02*
X76285714Y-101550057D01*
X76285714Y-101550057D02*
X76333333Y-101502438D01*
X76333333Y-101502438D02*
X76428571Y-101454819D01*
X90451410Y-123748335D02*
X90356172Y-123700716D01*
X90356172Y-123700716D02*
X90260934Y-123605478D01*
X90260934Y-123605478D02*
X90118077Y-123462620D01*
X90118077Y-123462620D02*
X90022839Y-123415001D01*
X90022839Y-123415001D02*
X89927601Y-123415001D01*
X89975220Y-123653097D02*
X89879982Y-123605478D01*
X89879982Y-123605478D02*
X89784744Y-123510239D01*
X89784744Y-123510239D02*
X89737125Y-123319763D01*
X89737125Y-123319763D02*
X89737125Y-122986430D01*
X89737125Y-122986430D02*
X89784744Y-122795954D01*
X89784744Y-122795954D02*
X89879982Y-122700716D01*
X89879982Y-122700716D02*
X89975220Y-122653097D01*
X89975220Y-122653097D02*
X90165696Y-122653097D01*
X90165696Y-122653097D02*
X90260934Y-122700716D01*
X90260934Y-122700716D02*
X90356172Y-122795954D01*
X90356172Y-122795954D02*
X90403791Y-122986430D01*
X90403791Y-122986430D02*
X90403791Y-123319763D01*
X90403791Y-123319763D02*
X90356172Y-123510239D01*
X90356172Y-123510239D02*
X90260934Y-123605478D01*
X90260934Y-123605478D02*
X90165696Y-123653097D01*
X90165696Y-123653097D02*
X89975220Y-123653097D01*
X91356172Y-123653097D02*
X90784744Y-123653097D01*
X91070458Y-123653097D02*
X91070458Y-122653097D01*
X91070458Y-122653097D02*
X90975220Y-122795954D01*
X90975220Y-122795954D02*
X90879982Y-122891192D01*
X90879982Y-122891192D02*
X90784744Y-122938811D01*
X68109580Y-135916666D02*
X68157200Y-135964285D01*
X68157200Y-135964285D02*
X68204819Y-136107142D01*
X68204819Y-136107142D02*
X68204819Y-136202380D01*
X68204819Y-136202380D02*
X68157200Y-136345237D01*
X68157200Y-136345237D02*
X68061961Y-136440475D01*
X68061961Y-136440475D02*
X67966723Y-136488094D01*
X67966723Y-136488094D02*
X67776247Y-136535713D01*
X67776247Y-136535713D02*
X67633390Y-136535713D01*
X67633390Y-136535713D02*
X67442914Y-136488094D01*
X67442914Y-136488094D02*
X67347676Y-136440475D01*
X67347676Y-136440475D02*
X67252438Y-136345237D01*
X67252438Y-136345237D02*
X67204819Y-136202380D01*
X67204819Y-136202380D02*
X67204819Y-136107142D01*
X67204819Y-136107142D02*
X67252438Y-135964285D01*
X67252438Y-135964285D02*
X67300057Y-135916666D01*
X68204819Y-134964285D02*
X68204819Y-135535713D01*
X68204819Y-135249999D02*
X67204819Y-135249999D01*
X67204819Y-135249999D02*
X67347676Y-135345237D01*
X67347676Y-135345237D02*
X67442914Y-135440475D01*
X67442914Y-135440475D02*
X67490533Y-135535713D01*
X57454819Y-110892857D02*
X56978628Y-111226190D01*
X57454819Y-111464285D02*
X56454819Y-111464285D01*
X56454819Y-111464285D02*
X56454819Y-111083333D01*
X56454819Y-111083333D02*
X56502438Y-110988095D01*
X56502438Y-110988095D02*
X56550057Y-110940476D01*
X56550057Y-110940476D02*
X56645295Y-110892857D01*
X56645295Y-110892857D02*
X56788152Y-110892857D01*
X56788152Y-110892857D02*
X56883390Y-110940476D01*
X56883390Y-110940476D02*
X56931009Y-110988095D01*
X56931009Y-110988095D02*
X56978628Y-111083333D01*
X56978628Y-111083333D02*
X56978628Y-111464285D01*
X57454819Y-109940476D02*
X57454819Y-110511904D01*
X57454819Y-110226190D02*
X56454819Y-110226190D01*
X56454819Y-110226190D02*
X56597676Y-110321428D01*
X56597676Y-110321428D02*
X56692914Y-110416666D01*
X56692914Y-110416666D02*
X56740533Y-110511904D01*
X56788152Y-109083333D02*
X57454819Y-109083333D01*
X56407200Y-109321428D02*
X57121485Y-109559523D01*
X57121485Y-109559523D02*
X57121485Y-108940476D01*
X89857142Y-102454819D02*
X89523809Y-101978628D01*
X89285714Y-102454819D02*
X89285714Y-101454819D01*
X89285714Y-101454819D02*
X89666666Y-101454819D01*
X89666666Y-101454819D02*
X89761904Y-101502438D01*
X89761904Y-101502438D02*
X89809523Y-101550057D01*
X89809523Y-101550057D02*
X89857142Y-101645295D01*
X89857142Y-101645295D02*
X89857142Y-101788152D01*
X89857142Y-101788152D02*
X89809523Y-101883390D01*
X89809523Y-101883390D02*
X89761904Y-101931009D01*
X89761904Y-101931009D02*
X89666666Y-101978628D01*
X89666666Y-101978628D02*
X89285714Y-101978628D01*
X90809523Y-102454819D02*
X90238095Y-102454819D01*
X90523809Y-102454819D02*
X90523809Y-101454819D01*
X90523809Y-101454819D02*
X90428571Y-101597676D01*
X90428571Y-101597676D02*
X90333333Y-101692914D01*
X90333333Y-101692914D02*
X90238095Y-101740533D01*
X91761904Y-102454819D02*
X91190476Y-102454819D01*
X91476190Y-102454819D02*
X91476190Y-101454819D01*
X91476190Y-101454819D02*
X91380952Y-101597676D01*
X91380952Y-101597676D02*
X91285714Y-101692914D01*
X91285714Y-101692914D02*
X91190476Y-101740533D01*
X71261905Y-89204819D02*
X71261905Y-88204819D01*
X71261905Y-88204819D02*
X71500000Y-88204819D01*
X71500000Y-88204819D02*
X71642857Y-88252438D01*
X71642857Y-88252438D02*
X71738095Y-88347676D01*
X71738095Y-88347676D02*
X71785714Y-88442914D01*
X71785714Y-88442914D02*
X71833333Y-88633390D01*
X71833333Y-88633390D02*
X71833333Y-88776247D01*
X71833333Y-88776247D02*
X71785714Y-88966723D01*
X71785714Y-88966723D02*
X71738095Y-89061961D01*
X71738095Y-89061961D02*
X71642857Y-89157200D01*
X71642857Y-89157200D02*
X71500000Y-89204819D01*
X71500000Y-89204819D02*
X71261905Y-89204819D01*
X72214286Y-88300057D02*
X72261905Y-88252438D01*
X72261905Y-88252438D02*
X72357143Y-88204819D01*
X72357143Y-88204819D02*
X72595238Y-88204819D01*
X72595238Y-88204819D02*
X72690476Y-88252438D01*
X72690476Y-88252438D02*
X72738095Y-88300057D01*
X72738095Y-88300057D02*
X72785714Y-88395295D01*
X72785714Y-88395295D02*
X72785714Y-88490533D01*
X72785714Y-88490533D02*
X72738095Y-88633390D01*
X72738095Y-88633390D02*
X72166667Y-89204819D01*
X72166667Y-89204819D02*
X72785714Y-89204819D01*
X56704819Y-130166666D02*
X56228628Y-130499999D01*
X56704819Y-130738094D02*
X55704819Y-130738094D01*
X55704819Y-130738094D02*
X55704819Y-130357142D01*
X55704819Y-130357142D02*
X55752438Y-130261904D01*
X55752438Y-130261904D02*
X55800057Y-130214285D01*
X55800057Y-130214285D02*
X55895295Y-130166666D01*
X55895295Y-130166666D02*
X56038152Y-130166666D01*
X56038152Y-130166666D02*
X56133390Y-130214285D01*
X56133390Y-130214285D02*
X56181009Y-130261904D01*
X56181009Y-130261904D02*
X56228628Y-130357142D01*
X56228628Y-130357142D02*
X56228628Y-130738094D01*
X55800057Y-129785713D02*
X55752438Y-129738094D01*
X55752438Y-129738094D02*
X55704819Y-129642856D01*
X55704819Y-129642856D02*
X55704819Y-129404761D01*
X55704819Y-129404761D02*
X55752438Y-129309523D01*
X55752438Y-129309523D02*
X55800057Y-129261904D01*
X55800057Y-129261904D02*
X55895295Y-129214285D01*
X55895295Y-129214285D02*
X55990533Y-129214285D01*
X55990533Y-129214285D02*
X56133390Y-129261904D01*
X56133390Y-129261904D02*
X56704819Y-129833332D01*
X56704819Y-129833332D02*
X56704819Y-129214285D01*
X110204819Y-119666666D02*
X109728628Y-119999999D01*
X110204819Y-120238094D02*
X109204819Y-120238094D01*
X109204819Y-120238094D02*
X109204819Y-119857142D01*
X109204819Y-119857142D02*
X109252438Y-119761904D01*
X109252438Y-119761904D02*
X109300057Y-119714285D01*
X109300057Y-119714285D02*
X109395295Y-119666666D01*
X109395295Y-119666666D02*
X109538152Y-119666666D01*
X109538152Y-119666666D02*
X109633390Y-119714285D01*
X109633390Y-119714285D02*
X109681009Y-119761904D01*
X109681009Y-119761904D02*
X109728628Y-119857142D01*
X109728628Y-119857142D02*
X109728628Y-120238094D01*
X109204819Y-119333332D02*
X109204819Y-118666666D01*
X109204819Y-118666666D02*
X110204819Y-119095237D01*
X79083333Y-122609580D02*
X79035714Y-122657200D01*
X79035714Y-122657200D02*
X78892857Y-122704819D01*
X78892857Y-122704819D02*
X78797619Y-122704819D01*
X78797619Y-122704819D02*
X78654762Y-122657200D01*
X78654762Y-122657200D02*
X78559524Y-122561961D01*
X78559524Y-122561961D02*
X78511905Y-122466723D01*
X78511905Y-122466723D02*
X78464286Y-122276247D01*
X78464286Y-122276247D02*
X78464286Y-122133390D01*
X78464286Y-122133390D02*
X78511905Y-121942914D01*
X78511905Y-121942914D02*
X78559524Y-121847676D01*
X78559524Y-121847676D02*
X78654762Y-121752438D01*
X78654762Y-121752438D02*
X78797619Y-121704819D01*
X78797619Y-121704819D02*
X78892857Y-121704819D01*
X78892857Y-121704819D02*
X79035714Y-121752438D01*
X79035714Y-121752438D02*
X79083333Y-121800057D01*
X79940476Y-121704819D02*
X79750000Y-121704819D01*
X79750000Y-121704819D02*
X79654762Y-121752438D01*
X79654762Y-121752438D02*
X79607143Y-121800057D01*
X79607143Y-121800057D02*
X79511905Y-121942914D01*
X79511905Y-121942914D02*
X79464286Y-122133390D01*
X79464286Y-122133390D02*
X79464286Y-122514342D01*
X79464286Y-122514342D02*
X79511905Y-122609580D01*
X79511905Y-122609580D02*
X79559524Y-122657200D01*
X79559524Y-122657200D02*
X79654762Y-122704819D01*
X79654762Y-122704819D02*
X79845238Y-122704819D01*
X79845238Y-122704819D02*
X79940476Y-122657200D01*
X79940476Y-122657200D02*
X79988095Y-122609580D01*
X79988095Y-122609580D02*
X80035714Y-122514342D01*
X80035714Y-122514342D02*
X80035714Y-122276247D01*
X80035714Y-122276247D02*
X79988095Y-122181009D01*
X79988095Y-122181009D02*
X79940476Y-122133390D01*
X79940476Y-122133390D02*
X79845238Y-122085771D01*
X79845238Y-122085771D02*
X79654762Y-122085771D01*
X79654762Y-122085771D02*
X79559524Y-122133390D01*
X79559524Y-122133390D02*
X79511905Y-122181009D01*
X79511905Y-122181009D02*
X79464286Y-122276247D01*
X100454819Y-111238094D02*
X99454819Y-111238094D01*
X99454819Y-111238094D02*
X99454819Y-110999999D01*
X99454819Y-110999999D02*
X99502438Y-110857142D01*
X99502438Y-110857142D02*
X99597676Y-110761904D01*
X99597676Y-110761904D02*
X99692914Y-110714285D01*
X99692914Y-110714285D02*
X99883390Y-110666666D01*
X99883390Y-110666666D02*
X100026247Y-110666666D01*
X100026247Y-110666666D02*
X100216723Y-110714285D01*
X100216723Y-110714285D02*
X100311961Y-110761904D01*
X100311961Y-110761904D02*
X100407200Y-110857142D01*
X100407200Y-110857142D02*
X100454819Y-110999999D01*
X100454819Y-110999999D02*
X100454819Y-111238094D01*
X99788152Y-109809523D02*
X100454819Y-109809523D01*
X99407200Y-110047618D02*
X100121485Y-110285713D01*
X100121485Y-110285713D02*
X100121485Y-109666666D01*
X99109580Y-135916666D02*
X99157200Y-135964285D01*
X99157200Y-135964285D02*
X99204819Y-136107142D01*
X99204819Y-136107142D02*
X99204819Y-136202380D01*
X99204819Y-136202380D02*
X99157200Y-136345237D01*
X99157200Y-136345237D02*
X99061961Y-136440475D01*
X99061961Y-136440475D02*
X98966723Y-136488094D01*
X98966723Y-136488094D02*
X98776247Y-136535713D01*
X98776247Y-136535713D02*
X98633390Y-136535713D01*
X98633390Y-136535713D02*
X98442914Y-136488094D01*
X98442914Y-136488094D02*
X98347676Y-136440475D01*
X98347676Y-136440475D02*
X98252438Y-136345237D01*
X98252438Y-136345237D02*
X98204819Y-136202380D01*
X98204819Y-136202380D02*
X98204819Y-136107142D01*
X98204819Y-136107142D02*
X98252438Y-135964285D01*
X98252438Y-135964285D02*
X98300057Y-135916666D01*
X99204819Y-135440475D02*
X99204819Y-135249999D01*
X99204819Y-135249999D02*
X99157200Y-135154761D01*
X99157200Y-135154761D02*
X99109580Y-135107142D01*
X99109580Y-135107142D02*
X98966723Y-135011904D01*
X98966723Y-135011904D02*
X98776247Y-134964285D01*
X98776247Y-134964285D02*
X98395295Y-134964285D01*
X98395295Y-134964285D02*
X98300057Y-135011904D01*
X98300057Y-135011904D02*
X98252438Y-135059523D01*
X98252438Y-135059523D02*
X98204819Y-135154761D01*
X98204819Y-135154761D02*
X98204819Y-135345237D01*
X98204819Y-135345237D02*
X98252438Y-135440475D01*
X98252438Y-135440475D02*
X98300057Y-135488094D01*
X98300057Y-135488094D02*
X98395295Y-135535713D01*
X98395295Y-135535713D02*
X98633390Y-135535713D01*
X98633390Y-135535713D02*
X98728628Y-135488094D01*
X98728628Y-135488094D02*
X98776247Y-135440475D01*
X98776247Y-135440475D02*
X98823866Y-135345237D01*
X98823866Y-135345237D02*
X98823866Y-135154761D01*
X98823866Y-135154761D02*
X98776247Y-135059523D01*
X98776247Y-135059523D02*
X98728628Y-135011904D01*
X98728628Y-135011904D02*
X98633390Y-134964285D01*
X68109580Y-124916666D02*
X68157200Y-124964285D01*
X68157200Y-124964285D02*
X68204819Y-125107142D01*
X68204819Y-125107142D02*
X68204819Y-125202380D01*
X68204819Y-125202380D02*
X68157200Y-125345237D01*
X68157200Y-125345237D02*
X68061961Y-125440475D01*
X68061961Y-125440475D02*
X67966723Y-125488094D01*
X67966723Y-125488094D02*
X67776247Y-125535713D01*
X67776247Y-125535713D02*
X67633390Y-125535713D01*
X67633390Y-125535713D02*
X67442914Y-125488094D01*
X67442914Y-125488094D02*
X67347676Y-125440475D01*
X67347676Y-125440475D02*
X67252438Y-125345237D01*
X67252438Y-125345237D02*
X67204819Y-125202380D01*
X67204819Y-125202380D02*
X67204819Y-125107142D01*
X67204819Y-125107142D02*
X67252438Y-124964285D01*
X67252438Y-124964285D02*
X67300057Y-124916666D01*
X67538152Y-124059523D02*
X68204819Y-124059523D01*
X67157200Y-124297618D02*
X67871485Y-124535713D01*
X67871485Y-124535713D02*
X67871485Y-123916666D01*
X88583333Y-109609580D02*
X88535714Y-109657200D01*
X88535714Y-109657200D02*
X88392857Y-109704819D01*
X88392857Y-109704819D02*
X88297619Y-109704819D01*
X88297619Y-109704819D02*
X88154762Y-109657200D01*
X88154762Y-109657200D02*
X88059524Y-109561961D01*
X88059524Y-109561961D02*
X88011905Y-109466723D01*
X88011905Y-109466723D02*
X87964286Y-109276247D01*
X87964286Y-109276247D02*
X87964286Y-109133390D01*
X87964286Y-109133390D02*
X88011905Y-108942914D01*
X88011905Y-108942914D02*
X88059524Y-108847676D01*
X88059524Y-108847676D02*
X88154762Y-108752438D01*
X88154762Y-108752438D02*
X88297619Y-108704819D01*
X88297619Y-108704819D02*
X88392857Y-108704819D01*
X88392857Y-108704819D02*
X88535714Y-108752438D01*
X88535714Y-108752438D02*
X88583333Y-108800057D01*
X88916667Y-108704819D02*
X89583333Y-108704819D01*
X89583333Y-108704819D02*
X89154762Y-109704819D01*
X103454819Y-110738094D02*
X102454819Y-110738094D01*
X102454819Y-110738094D02*
X102454819Y-110499999D01*
X102454819Y-110499999D02*
X102502438Y-110357142D01*
X102502438Y-110357142D02*
X102597676Y-110261904D01*
X102597676Y-110261904D02*
X102692914Y-110214285D01*
X102692914Y-110214285D02*
X102883390Y-110166666D01*
X102883390Y-110166666D02*
X103026247Y-110166666D01*
X103026247Y-110166666D02*
X103216723Y-110214285D01*
X103216723Y-110214285D02*
X103311961Y-110261904D01*
X103311961Y-110261904D02*
X103407200Y-110357142D01*
X103407200Y-110357142D02*
X103454819Y-110499999D01*
X103454819Y-110499999D02*
X103454819Y-110738094D01*
X102454819Y-109261904D02*
X102454819Y-109738094D01*
X102454819Y-109738094D02*
X102931009Y-109785713D01*
X102931009Y-109785713D02*
X102883390Y-109738094D01*
X102883390Y-109738094D02*
X102835771Y-109642856D01*
X102835771Y-109642856D02*
X102835771Y-109404761D01*
X102835771Y-109404761D02*
X102883390Y-109309523D01*
X102883390Y-109309523D02*
X102931009Y-109261904D01*
X102931009Y-109261904D02*
X103026247Y-109214285D01*
X103026247Y-109214285D02*
X103264342Y-109214285D01*
X103264342Y-109214285D02*
X103359580Y-109261904D01*
X103359580Y-109261904D02*
X103407200Y-109309523D01*
X103407200Y-109309523D02*
X103454819Y-109404761D01*
X103454819Y-109404761D02*
X103454819Y-109642856D01*
X103454819Y-109642856D02*
X103407200Y-109738094D01*
X103407200Y-109738094D02*
X103359580Y-109785713D01*
X69474801Y-111803746D02*
X68474801Y-111803746D01*
X68474801Y-111803746D02*
X68474801Y-111565651D01*
X68474801Y-111565651D02*
X68522420Y-111422794D01*
X68522420Y-111422794D02*
X68617658Y-111327556D01*
X68617658Y-111327556D02*
X68712896Y-111279937D01*
X68712896Y-111279937D02*
X68903372Y-111232318D01*
X68903372Y-111232318D02*
X69046229Y-111232318D01*
X69046229Y-111232318D02*
X69236705Y-111279937D01*
X69236705Y-111279937D02*
X69331943Y-111327556D01*
X69331943Y-111327556D02*
X69427182Y-111422794D01*
X69427182Y-111422794D02*
X69474801Y-111565651D01*
X69474801Y-111565651D02*
X69474801Y-111803746D01*
X69474801Y-110279937D02*
X69474801Y-110851365D01*
X69474801Y-110565651D02*
X68474801Y-110565651D01*
X68474801Y-110565651D02*
X68617658Y-110660889D01*
X68617658Y-110660889D02*
X68712896Y-110756127D01*
X68712896Y-110756127D02*
X68760515Y-110851365D01*
X68474801Y-109660889D02*
X68474801Y-109565651D01*
X68474801Y-109565651D02*
X68522420Y-109470413D01*
X68522420Y-109470413D02*
X68570039Y-109422794D01*
X68570039Y-109422794D02*
X68665277Y-109375175D01*
X68665277Y-109375175D02*
X68855753Y-109327556D01*
X68855753Y-109327556D02*
X69093848Y-109327556D01*
X69093848Y-109327556D02*
X69284324Y-109375175D01*
X69284324Y-109375175D02*
X69379562Y-109422794D01*
X69379562Y-109422794D02*
X69427182Y-109470413D01*
X69427182Y-109470413D02*
X69474801Y-109565651D01*
X69474801Y-109565651D02*
X69474801Y-109660889D01*
X69474801Y-109660889D02*
X69427182Y-109756127D01*
X69427182Y-109756127D02*
X69379562Y-109803746D01*
X69379562Y-109803746D02*
X69284324Y-109851365D01*
X69284324Y-109851365D02*
X69093848Y-109898984D01*
X69093848Y-109898984D02*
X68855753Y-109898984D01*
X68855753Y-109898984D02*
X68665277Y-109851365D01*
X68665277Y-109851365D02*
X68570039Y-109803746D01*
X68570039Y-109803746D02*
X68522420Y-109756127D01*
X68522420Y-109756127D02*
X68474801Y-109660889D01*
X97454819Y-110928094D02*
X96454819Y-110928094D01*
X96454819Y-110928094D02*
X96454819Y-110689999D01*
X96454819Y-110689999D02*
X96502438Y-110547142D01*
X96502438Y-110547142D02*
X96597676Y-110451904D01*
X96597676Y-110451904D02*
X96692914Y-110404285D01*
X96692914Y-110404285D02*
X96883390Y-110356666D01*
X96883390Y-110356666D02*
X97026247Y-110356666D01*
X97026247Y-110356666D02*
X97216723Y-110404285D01*
X97216723Y-110404285D02*
X97311961Y-110451904D01*
X97311961Y-110451904D02*
X97407200Y-110547142D01*
X97407200Y-110547142D02*
X97454819Y-110689999D01*
X97454819Y-110689999D02*
X97454819Y-110928094D01*
X96454819Y-110023332D02*
X96454819Y-109404285D01*
X96454819Y-109404285D02*
X96835771Y-109737618D01*
X96835771Y-109737618D02*
X96835771Y-109594761D01*
X96835771Y-109594761D02*
X96883390Y-109499523D01*
X96883390Y-109499523D02*
X96931009Y-109451904D01*
X96931009Y-109451904D02*
X97026247Y-109404285D01*
X97026247Y-109404285D02*
X97264342Y-109404285D01*
X97264342Y-109404285D02*
X97359580Y-109451904D01*
X97359580Y-109451904D02*
X97407200Y-109499523D01*
X97407200Y-109499523D02*
X97454819Y-109594761D01*
X97454819Y-109594761D02*
X97454819Y-109880475D01*
X97454819Y-109880475D02*
X97407200Y-109975713D01*
X97407200Y-109975713D02*
X97359580Y-110023332D01*
X63454819Y-111238094D02*
X62454819Y-111238094D01*
X62454819Y-111238094D02*
X62454819Y-110999999D01*
X62454819Y-110999999D02*
X62502438Y-110857142D01*
X62502438Y-110857142D02*
X62597676Y-110761904D01*
X62597676Y-110761904D02*
X62692914Y-110714285D01*
X62692914Y-110714285D02*
X62883390Y-110666666D01*
X62883390Y-110666666D02*
X63026247Y-110666666D01*
X63026247Y-110666666D02*
X63216723Y-110714285D01*
X63216723Y-110714285D02*
X63311961Y-110761904D01*
X63311961Y-110761904D02*
X63407200Y-110857142D01*
X63407200Y-110857142D02*
X63454819Y-110999999D01*
X63454819Y-110999999D02*
X63454819Y-111238094D01*
X62883390Y-110095237D02*
X62835771Y-110190475D01*
X62835771Y-110190475D02*
X62788152Y-110238094D01*
X62788152Y-110238094D02*
X62692914Y-110285713D01*
X62692914Y-110285713D02*
X62645295Y-110285713D01*
X62645295Y-110285713D02*
X62550057Y-110238094D01*
X62550057Y-110238094D02*
X62502438Y-110190475D01*
X62502438Y-110190475D02*
X62454819Y-110095237D01*
X62454819Y-110095237D02*
X62454819Y-109904761D01*
X62454819Y-109904761D02*
X62502438Y-109809523D01*
X62502438Y-109809523D02*
X62550057Y-109761904D01*
X62550057Y-109761904D02*
X62645295Y-109714285D01*
X62645295Y-109714285D02*
X62692914Y-109714285D01*
X62692914Y-109714285D02*
X62788152Y-109761904D01*
X62788152Y-109761904D02*
X62835771Y-109809523D01*
X62835771Y-109809523D02*
X62883390Y-109904761D01*
X62883390Y-109904761D02*
X62883390Y-110095237D01*
X62883390Y-110095237D02*
X62931009Y-110190475D01*
X62931009Y-110190475D02*
X62978628Y-110238094D01*
X62978628Y-110238094D02*
X63073866Y-110285713D01*
X63073866Y-110285713D02*
X63264342Y-110285713D01*
X63264342Y-110285713D02*
X63359580Y-110238094D01*
X63359580Y-110238094D02*
X63407200Y-110190475D01*
X63407200Y-110190475D02*
X63454819Y-110095237D01*
X63454819Y-110095237D02*
X63454819Y-109904761D01*
X63454819Y-109904761D02*
X63407200Y-109809523D01*
X63407200Y-109809523D02*
X63359580Y-109761904D01*
X63359580Y-109761904D02*
X63264342Y-109714285D01*
X63264342Y-109714285D02*
X63073866Y-109714285D01*
X63073866Y-109714285D02*
X62978628Y-109761904D01*
X62978628Y-109761904D02*
X62931009Y-109809523D01*
X62931009Y-109809523D02*
X62883390Y-109904761D01*
X56704819Y-126666666D02*
X56228628Y-126999999D01*
X56704819Y-127238094D02*
X55704819Y-127238094D01*
X55704819Y-127238094D02*
X55704819Y-126857142D01*
X55704819Y-126857142D02*
X55752438Y-126761904D01*
X55752438Y-126761904D02*
X55800057Y-126714285D01*
X55800057Y-126714285D02*
X55895295Y-126666666D01*
X55895295Y-126666666D02*
X56038152Y-126666666D01*
X56038152Y-126666666D02*
X56133390Y-126714285D01*
X56133390Y-126714285D02*
X56181009Y-126761904D01*
X56181009Y-126761904D02*
X56228628Y-126857142D01*
X56228628Y-126857142D02*
X56228628Y-127238094D01*
X55704819Y-126333332D02*
X55704819Y-125714285D01*
X55704819Y-125714285D02*
X56085771Y-126047618D01*
X56085771Y-126047618D02*
X56085771Y-125904761D01*
X56085771Y-125904761D02*
X56133390Y-125809523D01*
X56133390Y-125809523D02*
X56181009Y-125761904D01*
X56181009Y-125761904D02*
X56276247Y-125714285D01*
X56276247Y-125714285D02*
X56514342Y-125714285D01*
X56514342Y-125714285D02*
X56609580Y-125761904D01*
X56609580Y-125761904D02*
X56657200Y-125809523D01*
X56657200Y-125809523D02*
X56704819Y-125904761D01*
X56704819Y-125904761D02*
X56704819Y-126190475D01*
X56704819Y-126190475D02*
X56657200Y-126285713D01*
X56657200Y-126285713D02*
X56609580Y-126333332D01*
X107800000Y-136454819D02*
X107990476Y-136454819D01*
X107990476Y-136454819D02*
X108085714Y-136502438D01*
X108085714Y-136502438D02*
X108180952Y-136597676D01*
X108180952Y-136597676D02*
X108228571Y-136788152D01*
X108228571Y-136788152D02*
X108228571Y-137121485D01*
X108228571Y-137121485D02*
X108180952Y-137311961D01*
X108180952Y-137311961D02*
X108085714Y-137407200D01*
X108085714Y-137407200D02*
X107990476Y-137454819D01*
X107990476Y-137454819D02*
X107800000Y-137454819D01*
X107800000Y-137454819D02*
X107704762Y-137407200D01*
X107704762Y-137407200D02*
X107609524Y-137311961D01*
X107609524Y-137311961D02*
X107561905Y-137121485D01*
X107561905Y-137121485D02*
X107561905Y-136788152D01*
X107561905Y-136788152D02*
X107609524Y-136597676D01*
X107609524Y-136597676D02*
X107704762Y-136502438D01*
X107704762Y-136502438D02*
X107800000Y-136454819D01*
X108657143Y-136454819D02*
X108657143Y-137264342D01*
X108657143Y-137264342D02*
X108704762Y-137359580D01*
X108704762Y-137359580D02*
X108752381Y-137407200D01*
X108752381Y-137407200D02*
X108847619Y-137454819D01*
X108847619Y-137454819D02*
X109038095Y-137454819D01*
X109038095Y-137454819D02*
X109133333Y-137407200D01*
X109133333Y-137407200D02*
X109180952Y-137359580D01*
X109180952Y-137359580D02*
X109228571Y-137264342D01*
X109228571Y-137264342D02*
X109228571Y-136454819D01*
X109561905Y-136454819D02*
X110133333Y-136454819D01*
X109847619Y-137454819D02*
X109847619Y-136454819D01*
X92357142Y-85109580D02*
X92309523Y-85157200D01*
X92309523Y-85157200D02*
X92166666Y-85204819D01*
X92166666Y-85204819D02*
X92071428Y-85204819D01*
X92071428Y-85204819D02*
X91928571Y-85157200D01*
X91928571Y-85157200D02*
X91833333Y-85061961D01*
X91833333Y-85061961D02*
X91785714Y-84966723D01*
X91785714Y-84966723D02*
X91738095Y-84776247D01*
X91738095Y-84776247D02*
X91738095Y-84633390D01*
X91738095Y-84633390D02*
X91785714Y-84442914D01*
X91785714Y-84442914D02*
X91833333Y-84347676D01*
X91833333Y-84347676D02*
X91928571Y-84252438D01*
X91928571Y-84252438D02*
X92071428Y-84204819D01*
X92071428Y-84204819D02*
X92166666Y-84204819D01*
X92166666Y-84204819D02*
X92309523Y-84252438D01*
X92309523Y-84252438D02*
X92357142Y-84300057D01*
X93309523Y-85204819D02*
X92738095Y-85204819D01*
X93023809Y-85204819D02*
X93023809Y-84204819D01*
X93023809Y-84204819D02*
X92928571Y-84347676D01*
X92928571Y-84347676D02*
X92833333Y-84442914D01*
X92833333Y-84442914D02*
X92738095Y-84490533D01*
X93690476Y-84300057D02*
X93738095Y-84252438D01*
X93738095Y-84252438D02*
X93833333Y-84204819D01*
X93833333Y-84204819D02*
X94071428Y-84204819D01*
X94071428Y-84204819D02*
X94166666Y-84252438D01*
X94166666Y-84252438D02*
X94214285Y-84300057D01*
X94214285Y-84300057D02*
X94261904Y-84395295D01*
X94261904Y-84395295D02*
X94261904Y-84490533D01*
X94261904Y-84490533D02*
X94214285Y-84633390D01*
X94214285Y-84633390D02*
X93642857Y-85204819D01*
X93642857Y-85204819D02*
X94261904Y-85204819D01*
X94454819Y-110892857D02*
X93978628Y-111226190D01*
X94454819Y-111464285D02*
X93454819Y-111464285D01*
X93454819Y-111464285D02*
X93454819Y-111083333D01*
X93454819Y-111083333D02*
X93502438Y-110988095D01*
X93502438Y-110988095D02*
X93550057Y-110940476D01*
X93550057Y-110940476D02*
X93645295Y-110892857D01*
X93645295Y-110892857D02*
X93788152Y-110892857D01*
X93788152Y-110892857D02*
X93883390Y-110940476D01*
X93883390Y-110940476D02*
X93931009Y-110988095D01*
X93931009Y-110988095D02*
X93978628Y-111083333D01*
X93978628Y-111083333D02*
X93978628Y-111464285D01*
X94454819Y-109940476D02*
X94454819Y-110511904D01*
X94454819Y-110226190D02*
X93454819Y-110226190D01*
X93454819Y-110226190D02*
X93597676Y-110321428D01*
X93597676Y-110321428D02*
X93692914Y-110416666D01*
X93692914Y-110416666D02*
X93740533Y-110511904D01*
X93454819Y-109083333D02*
X93454819Y-109273809D01*
X93454819Y-109273809D02*
X93502438Y-109369047D01*
X93502438Y-109369047D02*
X93550057Y-109416666D01*
X93550057Y-109416666D02*
X93692914Y-109511904D01*
X93692914Y-109511904D02*
X93883390Y-109559523D01*
X93883390Y-109559523D02*
X94264342Y-109559523D01*
X94264342Y-109559523D02*
X94359580Y-109511904D01*
X94359580Y-109511904D02*
X94407200Y-109464285D01*
X94407200Y-109464285D02*
X94454819Y-109369047D01*
X94454819Y-109369047D02*
X94454819Y-109178571D01*
X94454819Y-109178571D02*
X94407200Y-109083333D01*
X94407200Y-109083333D02*
X94359580Y-109035714D01*
X94359580Y-109035714D02*
X94264342Y-108988095D01*
X94264342Y-108988095D02*
X94026247Y-108988095D01*
X94026247Y-108988095D02*
X93931009Y-109035714D01*
X93931009Y-109035714D02*
X93883390Y-109083333D01*
X93883390Y-109083333D02*
X93835771Y-109178571D01*
X93835771Y-109178571D02*
X93835771Y-109369047D01*
X93835771Y-109369047D02*
X93883390Y-109464285D01*
X93883390Y-109464285D02*
X93931009Y-109511904D01*
X93931009Y-109511904D02*
X94026247Y-109559523D01*
X110204819Y-126666666D02*
X109728628Y-126999999D01*
X110204819Y-127238094D02*
X109204819Y-127238094D01*
X109204819Y-127238094D02*
X109204819Y-126857142D01*
X109204819Y-126857142D02*
X109252438Y-126761904D01*
X109252438Y-126761904D02*
X109300057Y-126714285D01*
X109300057Y-126714285D02*
X109395295Y-126666666D01*
X109395295Y-126666666D02*
X109538152Y-126666666D01*
X109538152Y-126666666D02*
X109633390Y-126714285D01*
X109633390Y-126714285D02*
X109681009Y-126761904D01*
X109681009Y-126761904D02*
X109728628Y-126857142D01*
X109728628Y-126857142D02*
X109728628Y-127238094D01*
X110204819Y-126190475D02*
X110204819Y-125999999D01*
X110204819Y-125999999D02*
X110157200Y-125904761D01*
X110157200Y-125904761D02*
X110109580Y-125857142D01*
X110109580Y-125857142D02*
X109966723Y-125761904D01*
X109966723Y-125761904D02*
X109776247Y-125714285D01*
X109776247Y-125714285D02*
X109395295Y-125714285D01*
X109395295Y-125714285D02*
X109300057Y-125761904D01*
X109300057Y-125761904D02*
X109252438Y-125809523D01*
X109252438Y-125809523D02*
X109204819Y-125904761D01*
X109204819Y-125904761D02*
X109204819Y-126095237D01*
X109204819Y-126095237D02*
X109252438Y-126190475D01*
X109252438Y-126190475D02*
X109300057Y-126238094D01*
X109300057Y-126238094D02*
X109395295Y-126285713D01*
X109395295Y-126285713D02*
X109633390Y-126285713D01*
X109633390Y-126285713D02*
X109728628Y-126238094D01*
X109728628Y-126238094D02*
X109776247Y-126190475D01*
X109776247Y-126190475D02*
X109823866Y-126095237D01*
X109823866Y-126095237D02*
X109823866Y-125904761D01*
X109823866Y-125904761D02*
X109776247Y-125809523D01*
X109776247Y-125809523D02*
X109728628Y-125761904D01*
X109728628Y-125761904D02*
X109633390Y-125714285D01*
X60454819Y-110738094D02*
X59454819Y-110738094D01*
X59454819Y-110738094D02*
X59454819Y-110499999D01*
X59454819Y-110499999D02*
X59502438Y-110357142D01*
X59502438Y-110357142D02*
X59597676Y-110261904D01*
X59597676Y-110261904D02*
X59692914Y-110214285D01*
X59692914Y-110214285D02*
X59883390Y-110166666D01*
X59883390Y-110166666D02*
X60026247Y-110166666D01*
X60026247Y-110166666D02*
X60216723Y-110214285D01*
X60216723Y-110214285D02*
X60311961Y-110261904D01*
X60311961Y-110261904D02*
X60407200Y-110357142D01*
X60407200Y-110357142D02*
X60454819Y-110499999D01*
X60454819Y-110499999D02*
X60454819Y-110738094D01*
X59454819Y-109833332D02*
X59454819Y-109166666D01*
X59454819Y-109166666D02*
X60454819Y-109595237D01*
X104538095Y-136502438D02*
X104442857Y-136454819D01*
X104442857Y-136454819D02*
X104300000Y-136454819D01*
X104300000Y-136454819D02*
X104157143Y-136502438D01*
X104157143Y-136502438D02*
X104061905Y-136597676D01*
X104061905Y-136597676D02*
X104014286Y-136692914D01*
X104014286Y-136692914D02*
X103966667Y-136883390D01*
X103966667Y-136883390D02*
X103966667Y-137026247D01*
X103966667Y-137026247D02*
X104014286Y-137216723D01*
X104014286Y-137216723D02*
X104061905Y-137311961D01*
X104061905Y-137311961D02*
X104157143Y-137407200D01*
X104157143Y-137407200D02*
X104300000Y-137454819D01*
X104300000Y-137454819D02*
X104395238Y-137454819D01*
X104395238Y-137454819D02*
X104538095Y-137407200D01*
X104538095Y-137407200D02*
X104585714Y-137359580D01*
X104585714Y-137359580D02*
X104585714Y-137026247D01*
X104585714Y-137026247D02*
X104395238Y-137026247D01*
X105014286Y-137454819D02*
X105014286Y-136454819D01*
X105014286Y-136454819D02*
X105585714Y-137454819D01*
X105585714Y-137454819D02*
X105585714Y-136454819D01*
X106061905Y-137454819D02*
X106061905Y-136454819D01*
X106061905Y-136454819D02*
X106300000Y-136454819D01*
X106300000Y-136454819D02*
X106442857Y-136502438D01*
X106442857Y-136502438D02*
X106538095Y-136597676D01*
X106538095Y-136597676D02*
X106585714Y-136692914D01*
X106585714Y-136692914D02*
X106633333Y-136883390D01*
X106633333Y-136883390D02*
X106633333Y-137026247D01*
X106633333Y-137026247D02*
X106585714Y-137216723D01*
X106585714Y-137216723D02*
X106538095Y-137311961D01*
X106538095Y-137311961D02*
X106442857Y-137407200D01*
X106442857Y-137407200D02*
X106300000Y-137454819D01*
X106300000Y-137454819D02*
X106061905Y-137454819D01*
X85857142Y-122609580D02*
X85809523Y-122657200D01*
X85809523Y-122657200D02*
X85666666Y-122704819D01*
X85666666Y-122704819D02*
X85571428Y-122704819D01*
X85571428Y-122704819D02*
X85428571Y-122657200D01*
X85428571Y-122657200D02*
X85333333Y-122561961D01*
X85333333Y-122561961D02*
X85285714Y-122466723D01*
X85285714Y-122466723D02*
X85238095Y-122276247D01*
X85238095Y-122276247D02*
X85238095Y-122133390D01*
X85238095Y-122133390D02*
X85285714Y-121942914D01*
X85285714Y-121942914D02*
X85333333Y-121847676D01*
X85333333Y-121847676D02*
X85428571Y-121752438D01*
X85428571Y-121752438D02*
X85571428Y-121704819D01*
X85571428Y-121704819D02*
X85666666Y-121704819D01*
X85666666Y-121704819D02*
X85809523Y-121752438D01*
X85809523Y-121752438D02*
X85857142Y-121800057D01*
X86809523Y-122704819D02*
X86238095Y-122704819D01*
X86523809Y-122704819D02*
X86523809Y-121704819D01*
X86523809Y-121704819D02*
X86428571Y-121847676D01*
X86428571Y-121847676D02*
X86333333Y-121942914D01*
X86333333Y-121942914D02*
X86238095Y-121990533D01*
X87428571Y-121704819D02*
X87523809Y-121704819D01*
X87523809Y-121704819D02*
X87619047Y-121752438D01*
X87619047Y-121752438D02*
X87666666Y-121800057D01*
X87666666Y-121800057D02*
X87714285Y-121895295D01*
X87714285Y-121895295D02*
X87761904Y-122085771D01*
X87761904Y-122085771D02*
X87761904Y-122323866D01*
X87761904Y-122323866D02*
X87714285Y-122514342D01*
X87714285Y-122514342D02*
X87666666Y-122609580D01*
X87666666Y-122609580D02*
X87619047Y-122657200D01*
X87619047Y-122657200D02*
X87523809Y-122704819D01*
X87523809Y-122704819D02*
X87428571Y-122704819D01*
X87428571Y-122704819D02*
X87333333Y-122657200D01*
X87333333Y-122657200D02*
X87285714Y-122609580D01*
X87285714Y-122609580D02*
X87238095Y-122514342D01*
X87238095Y-122514342D02*
X87190476Y-122323866D01*
X87190476Y-122323866D02*
X87190476Y-122085771D01*
X87190476Y-122085771D02*
X87238095Y-121895295D01*
X87238095Y-121895295D02*
X87285714Y-121800057D01*
X87285714Y-121800057D02*
X87333333Y-121752438D01*
X87333333Y-121752438D02*
X87428571Y-121704819D01*
X78357142Y-102454819D02*
X78023809Y-101978628D01*
X77785714Y-102454819D02*
X77785714Y-101454819D01*
X77785714Y-101454819D02*
X78166666Y-101454819D01*
X78166666Y-101454819D02*
X78261904Y-101502438D01*
X78261904Y-101502438D02*
X78309523Y-101550057D01*
X78309523Y-101550057D02*
X78357142Y-101645295D01*
X78357142Y-101645295D02*
X78357142Y-101788152D01*
X78357142Y-101788152D02*
X78309523Y-101883390D01*
X78309523Y-101883390D02*
X78261904Y-101931009D01*
X78261904Y-101931009D02*
X78166666Y-101978628D01*
X78166666Y-101978628D02*
X77785714Y-101978628D01*
X79309523Y-102454819D02*
X78738095Y-102454819D01*
X79023809Y-102454819D02*
X79023809Y-101454819D01*
X79023809Y-101454819D02*
X78928571Y-101597676D01*
X78928571Y-101597676D02*
X78833333Y-101692914D01*
X78833333Y-101692914D02*
X78738095Y-101740533D01*
X79880952Y-101883390D02*
X79785714Y-101835771D01*
X79785714Y-101835771D02*
X79738095Y-101788152D01*
X79738095Y-101788152D02*
X79690476Y-101692914D01*
X79690476Y-101692914D02*
X79690476Y-101645295D01*
X79690476Y-101645295D02*
X79738095Y-101550057D01*
X79738095Y-101550057D02*
X79785714Y-101502438D01*
X79785714Y-101502438D02*
X79880952Y-101454819D01*
X79880952Y-101454819D02*
X80071428Y-101454819D01*
X80071428Y-101454819D02*
X80166666Y-101502438D01*
X80166666Y-101502438D02*
X80214285Y-101550057D01*
X80214285Y-101550057D02*
X80261904Y-101645295D01*
X80261904Y-101645295D02*
X80261904Y-101692914D01*
X80261904Y-101692914D02*
X80214285Y-101788152D01*
X80214285Y-101788152D02*
X80166666Y-101835771D01*
X80166666Y-101835771D02*
X80071428Y-101883390D01*
X80071428Y-101883390D02*
X79880952Y-101883390D01*
X79880952Y-101883390D02*
X79785714Y-101931009D01*
X79785714Y-101931009D02*
X79738095Y-101978628D01*
X79738095Y-101978628D02*
X79690476Y-102073866D01*
X79690476Y-102073866D02*
X79690476Y-102264342D01*
X79690476Y-102264342D02*
X79738095Y-102359580D01*
X79738095Y-102359580D02*
X79785714Y-102407200D01*
X79785714Y-102407200D02*
X79880952Y-102454819D01*
X79880952Y-102454819D02*
X80071428Y-102454819D01*
X80071428Y-102454819D02*
X80166666Y-102407200D01*
X80166666Y-102407200D02*
X80214285Y-102359580D01*
X80214285Y-102359580D02*
X80261904Y-102264342D01*
X80261904Y-102264342D02*
X80261904Y-102073866D01*
X80261904Y-102073866D02*
X80214285Y-101978628D01*
X80214285Y-101978628D02*
X80166666Y-101931009D01*
X80166666Y-101931009D02*
X80071428Y-101883390D01*
X56704819Y-119666666D02*
X56228628Y-119999999D01*
X56704819Y-120238094D02*
X55704819Y-120238094D01*
X55704819Y-120238094D02*
X55704819Y-119857142D01*
X55704819Y-119857142D02*
X55752438Y-119761904D01*
X55752438Y-119761904D02*
X55800057Y-119714285D01*
X55800057Y-119714285D02*
X55895295Y-119666666D01*
X55895295Y-119666666D02*
X56038152Y-119666666D01*
X56038152Y-119666666D02*
X56133390Y-119714285D01*
X56133390Y-119714285D02*
X56181009Y-119761904D01*
X56181009Y-119761904D02*
X56228628Y-119857142D01*
X56228628Y-119857142D02*
X56228628Y-120238094D01*
X56038152Y-118809523D02*
X56704819Y-118809523D01*
X55657200Y-119047618D02*
X56371485Y-119285713D01*
X56371485Y-119285713D02*
X56371485Y-118666666D01*
X109454819Y-110642857D02*
X108978628Y-110976190D01*
X109454819Y-111214285D02*
X108454819Y-111214285D01*
X108454819Y-111214285D02*
X108454819Y-110833333D01*
X108454819Y-110833333D02*
X108502438Y-110738095D01*
X108502438Y-110738095D02*
X108550057Y-110690476D01*
X108550057Y-110690476D02*
X108645295Y-110642857D01*
X108645295Y-110642857D02*
X108788152Y-110642857D01*
X108788152Y-110642857D02*
X108883390Y-110690476D01*
X108883390Y-110690476D02*
X108931009Y-110738095D01*
X108931009Y-110738095D02*
X108978628Y-110833333D01*
X108978628Y-110833333D02*
X108978628Y-111214285D01*
X109454819Y-109690476D02*
X109454819Y-110261904D01*
X109454819Y-109976190D02*
X108454819Y-109976190D01*
X108454819Y-109976190D02*
X108597676Y-110071428D01*
X108597676Y-110071428D02*
X108692914Y-110166666D01*
X108692914Y-110166666D02*
X108740533Y-110261904D01*
X108454819Y-108785714D02*
X108454819Y-109261904D01*
X108454819Y-109261904D02*
X108931009Y-109309523D01*
X108931009Y-109309523D02*
X108883390Y-109261904D01*
X108883390Y-109261904D02*
X108835771Y-109166666D01*
X108835771Y-109166666D02*
X108835771Y-108928571D01*
X108835771Y-108928571D02*
X108883390Y-108833333D01*
X108883390Y-108833333D02*
X108931009Y-108785714D01*
X108931009Y-108785714D02*
X109026247Y-108738095D01*
X109026247Y-108738095D02*
X109264342Y-108738095D01*
X109264342Y-108738095D02*
X109359580Y-108785714D01*
X109359580Y-108785714D02*
X109407200Y-108833333D01*
X109407200Y-108833333D02*
X109454819Y-108928571D01*
X109454819Y-108928571D02*
X109454819Y-109166666D01*
X109454819Y-109166666D02*
X109407200Y-109261904D01*
X109407200Y-109261904D02*
X109359580Y-109309523D01*
X77083333Y-109859580D02*
X77035714Y-109907200D01*
X77035714Y-109907200D02*
X76892857Y-109954819D01*
X76892857Y-109954819D02*
X76797619Y-109954819D01*
X76797619Y-109954819D02*
X76654762Y-109907200D01*
X76654762Y-109907200D02*
X76559524Y-109811961D01*
X76559524Y-109811961D02*
X76511905Y-109716723D01*
X76511905Y-109716723D02*
X76464286Y-109526247D01*
X76464286Y-109526247D02*
X76464286Y-109383390D01*
X76464286Y-109383390D02*
X76511905Y-109192914D01*
X76511905Y-109192914D02*
X76559524Y-109097676D01*
X76559524Y-109097676D02*
X76654762Y-109002438D01*
X76654762Y-109002438D02*
X76797619Y-108954819D01*
X76797619Y-108954819D02*
X76892857Y-108954819D01*
X76892857Y-108954819D02*
X77035714Y-109002438D01*
X77035714Y-109002438D02*
X77083333Y-109050057D01*
X77988095Y-108954819D02*
X77511905Y-108954819D01*
X77511905Y-108954819D02*
X77464286Y-109431009D01*
X77464286Y-109431009D02*
X77511905Y-109383390D01*
X77511905Y-109383390D02*
X77607143Y-109335771D01*
X77607143Y-109335771D02*
X77845238Y-109335771D01*
X77845238Y-109335771D02*
X77940476Y-109383390D01*
X77940476Y-109383390D02*
X77988095Y-109431009D01*
X77988095Y-109431009D02*
X78035714Y-109526247D01*
X78035714Y-109526247D02*
X78035714Y-109764342D01*
X78035714Y-109764342D02*
X77988095Y-109859580D01*
X77988095Y-109859580D02*
X77940476Y-109907200D01*
X77940476Y-109907200D02*
X77845238Y-109954819D01*
X77845238Y-109954819D02*
X77607143Y-109954819D01*
X77607143Y-109954819D02*
X77511905Y-109907200D01*
X77511905Y-109907200D02*
X77464286Y-109859580D01*
X86357142Y-102454819D02*
X86023809Y-101978628D01*
X85785714Y-102454819D02*
X85785714Y-101454819D01*
X85785714Y-101454819D02*
X86166666Y-101454819D01*
X86166666Y-101454819D02*
X86261904Y-101502438D01*
X86261904Y-101502438D02*
X86309523Y-101550057D01*
X86309523Y-101550057D02*
X86357142Y-101645295D01*
X86357142Y-101645295D02*
X86357142Y-101788152D01*
X86357142Y-101788152D02*
X86309523Y-101883390D01*
X86309523Y-101883390D02*
X86261904Y-101931009D01*
X86261904Y-101931009D02*
X86166666Y-101978628D01*
X86166666Y-101978628D02*
X85785714Y-101978628D01*
X87309523Y-102454819D02*
X86738095Y-102454819D01*
X87023809Y-102454819D02*
X87023809Y-101454819D01*
X87023809Y-101454819D02*
X86928571Y-101597676D01*
X86928571Y-101597676D02*
X86833333Y-101692914D01*
X86833333Y-101692914D02*
X86738095Y-101740533D01*
X87690476Y-101550057D02*
X87738095Y-101502438D01*
X87738095Y-101502438D02*
X87833333Y-101454819D01*
X87833333Y-101454819D02*
X88071428Y-101454819D01*
X88071428Y-101454819D02*
X88166666Y-101502438D01*
X88166666Y-101502438D02*
X88214285Y-101550057D01*
X88214285Y-101550057D02*
X88261904Y-101645295D01*
X88261904Y-101645295D02*
X88261904Y-101740533D01*
X88261904Y-101740533D02*
X88214285Y-101883390D01*
X88214285Y-101883390D02*
X87642857Y-102454819D01*
X87642857Y-102454819D02*
X88261904Y-102454819D01*
X110204819Y-123642857D02*
X109728628Y-123976190D01*
X110204819Y-124214285D02*
X109204819Y-124214285D01*
X109204819Y-124214285D02*
X109204819Y-123833333D01*
X109204819Y-123833333D02*
X109252438Y-123738095D01*
X109252438Y-123738095D02*
X109300057Y-123690476D01*
X109300057Y-123690476D02*
X109395295Y-123642857D01*
X109395295Y-123642857D02*
X109538152Y-123642857D01*
X109538152Y-123642857D02*
X109633390Y-123690476D01*
X109633390Y-123690476D02*
X109681009Y-123738095D01*
X109681009Y-123738095D02*
X109728628Y-123833333D01*
X109728628Y-123833333D02*
X109728628Y-124214285D01*
X110204819Y-122690476D02*
X110204819Y-123261904D01*
X110204819Y-122976190D02*
X109204819Y-122976190D01*
X109204819Y-122976190D02*
X109347676Y-123071428D01*
X109347676Y-123071428D02*
X109442914Y-123166666D01*
X109442914Y-123166666D02*
X109490533Y-123261904D01*
X109204819Y-122357142D02*
X109204819Y-121690476D01*
X109204819Y-121690476D02*
X110204819Y-122119047D01*
X72454819Y-110892857D02*
X71978628Y-111226190D01*
X72454819Y-111464285D02*
X71454819Y-111464285D01*
X71454819Y-111464285D02*
X71454819Y-111083333D01*
X71454819Y-111083333D02*
X71502438Y-110988095D01*
X71502438Y-110988095D02*
X71550057Y-110940476D01*
X71550057Y-110940476D02*
X71645295Y-110892857D01*
X71645295Y-110892857D02*
X71788152Y-110892857D01*
X71788152Y-110892857D02*
X71883390Y-110940476D01*
X71883390Y-110940476D02*
X71931009Y-110988095D01*
X71931009Y-110988095D02*
X71978628Y-111083333D01*
X71978628Y-111083333D02*
X71978628Y-111464285D01*
X72454819Y-109940476D02*
X72454819Y-110511904D01*
X72454819Y-110226190D02*
X71454819Y-110226190D01*
X71454819Y-110226190D02*
X71597676Y-110321428D01*
X71597676Y-110321428D02*
X71692914Y-110416666D01*
X71692914Y-110416666D02*
X71740533Y-110511904D01*
X71454819Y-109607142D02*
X71454819Y-108988095D01*
X71454819Y-108988095D02*
X71835771Y-109321428D01*
X71835771Y-109321428D02*
X71835771Y-109178571D01*
X71835771Y-109178571D02*
X71883390Y-109083333D01*
X71883390Y-109083333D02*
X71931009Y-109035714D01*
X71931009Y-109035714D02*
X72026247Y-108988095D01*
X72026247Y-108988095D02*
X72264342Y-108988095D01*
X72264342Y-108988095D02*
X72359580Y-109035714D01*
X72359580Y-109035714D02*
X72407200Y-109083333D01*
X72407200Y-109083333D02*
X72454819Y-109178571D01*
X72454819Y-109178571D02*
X72454819Y-109464285D01*
X72454819Y-109464285D02*
X72407200Y-109559523D01*
X72407200Y-109559523D02*
X72359580Y-109607142D01*
X68109580Y-130916666D02*
X68157200Y-130964285D01*
X68157200Y-130964285D02*
X68204819Y-131107142D01*
X68204819Y-131107142D02*
X68204819Y-131202380D01*
X68204819Y-131202380D02*
X68157200Y-131345237D01*
X68157200Y-131345237D02*
X68061961Y-131440475D01*
X68061961Y-131440475D02*
X67966723Y-131488094D01*
X67966723Y-131488094D02*
X67776247Y-131535713D01*
X67776247Y-131535713D02*
X67633390Y-131535713D01*
X67633390Y-131535713D02*
X67442914Y-131488094D01*
X67442914Y-131488094D02*
X67347676Y-131440475D01*
X67347676Y-131440475D02*
X67252438Y-131345237D01*
X67252438Y-131345237D02*
X67204819Y-131202380D01*
X67204819Y-131202380D02*
X67204819Y-131107142D01*
X67204819Y-131107142D02*
X67252438Y-130964285D01*
X67252438Y-130964285D02*
X67300057Y-130916666D01*
X67300057Y-130535713D02*
X67252438Y-130488094D01*
X67252438Y-130488094D02*
X67204819Y-130392856D01*
X67204819Y-130392856D02*
X67204819Y-130154761D01*
X67204819Y-130154761D02*
X67252438Y-130059523D01*
X67252438Y-130059523D02*
X67300057Y-130011904D01*
X67300057Y-130011904D02*
X67395295Y-129964285D01*
X67395295Y-129964285D02*
X67490533Y-129964285D01*
X67490533Y-129964285D02*
X67633390Y-130011904D01*
X67633390Y-130011904D02*
X68204819Y-130583332D01*
X68204819Y-130583332D02*
X68204819Y-129964285D01*
X56704819Y-133666666D02*
X56228628Y-133999999D01*
X56704819Y-134238094D02*
X55704819Y-134238094D01*
X55704819Y-134238094D02*
X55704819Y-133857142D01*
X55704819Y-133857142D02*
X55752438Y-133761904D01*
X55752438Y-133761904D02*
X55800057Y-133714285D01*
X55800057Y-133714285D02*
X55895295Y-133666666D01*
X55895295Y-133666666D02*
X56038152Y-133666666D01*
X56038152Y-133666666D02*
X56133390Y-133714285D01*
X56133390Y-133714285D02*
X56181009Y-133761904D01*
X56181009Y-133761904D02*
X56228628Y-133857142D01*
X56228628Y-133857142D02*
X56228628Y-134238094D01*
X56704819Y-132714285D02*
X56704819Y-133285713D01*
X56704819Y-132999999D02*
X55704819Y-132999999D01*
X55704819Y-132999999D02*
X55847676Y-133095237D01*
X55847676Y-133095237D02*
X55942914Y-133190475D01*
X55942914Y-133190475D02*
X55990533Y-133285713D01*
X83738095Y-137454819D02*
X83261905Y-137454819D01*
X83261905Y-137454819D02*
X83261905Y-136454819D01*
X84071429Y-136931009D02*
X84404762Y-136931009D01*
X84547619Y-137454819D02*
X84071429Y-137454819D01*
X84071429Y-137454819D02*
X84071429Y-136454819D01*
X84071429Y-136454819D02*
X84547619Y-136454819D01*
X84976191Y-137454819D02*
X84976191Y-136454819D01*
X84976191Y-136454819D02*
X85214286Y-136454819D01*
X85214286Y-136454819D02*
X85357143Y-136502438D01*
X85357143Y-136502438D02*
X85452381Y-136597676D01*
X85452381Y-136597676D02*
X85500000Y-136692914D01*
X85500000Y-136692914D02*
X85547619Y-136883390D01*
X85547619Y-136883390D02*
X85547619Y-137026247D01*
X85547619Y-137026247D02*
X85500000Y-137216723D01*
X85500000Y-137216723D02*
X85452381Y-137311961D01*
X85452381Y-137311961D02*
X85357143Y-137407200D01*
X85357143Y-137407200D02*
X85214286Y-137454819D01*
X85214286Y-137454819D02*
X84976191Y-137454819D01*
X85976191Y-137073866D02*
X86738096Y-137073866D01*
X82833333Y-121609580D02*
X82785714Y-121657200D01*
X82785714Y-121657200D02*
X82642857Y-121704819D01*
X82642857Y-121704819D02*
X82547619Y-121704819D01*
X82547619Y-121704819D02*
X82404762Y-121657200D01*
X82404762Y-121657200D02*
X82309524Y-121561961D01*
X82309524Y-121561961D02*
X82261905Y-121466723D01*
X82261905Y-121466723D02*
X82214286Y-121276247D01*
X82214286Y-121276247D02*
X82214286Y-121133390D01*
X82214286Y-121133390D02*
X82261905Y-120942914D01*
X82261905Y-120942914D02*
X82309524Y-120847676D01*
X82309524Y-120847676D02*
X82404762Y-120752438D01*
X82404762Y-120752438D02*
X82547619Y-120704819D01*
X82547619Y-120704819D02*
X82642857Y-120704819D01*
X82642857Y-120704819D02*
X82785714Y-120752438D01*
X82785714Y-120752438D02*
X82833333Y-120800057D01*
X83166667Y-120704819D02*
X83785714Y-120704819D01*
X83785714Y-120704819D02*
X83452381Y-121085771D01*
X83452381Y-121085771D02*
X83595238Y-121085771D01*
X83595238Y-121085771D02*
X83690476Y-121133390D01*
X83690476Y-121133390D02*
X83738095Y-121181009D01*
X83738095Y-121181009D02*
X83785714Y-121276247D01*
X83785714Y-121276247D02*
X83785714Y-121514342D01*
X83785714Y-121514342D02*
X83738095Y-121609580D01*
X83738095Y-121609580D02*
X83690476Y-121657200D01*
X83690476Y-121657200D02*
X83595238Y-121704819D01*
X83595238Y-121704819D02*
X83309524Y-121704819D01*
X83309524Y-121704819D02*
X83214286Y-121657200D01*
X83214286Y-121657200D02*
X83166667Y-121609580D01*
X110204819Y-130166666D02*
X109728628Y-130499999D01*
X110204819Y-130738094D02*
X109204819Y-130738094D01*
X109204819Y-130738094D02*
X109204819Y-130357142D01*
X109204819Y-130357142D02*
X109252438Y-130261904D01*
X109252438Y-130261904D02*
X109300057Y-130214285D01*
X109300057Y-130214285D02*
X109395295Y-130166666D01*
X109395295Y-130166666D02*
X109538152Y-130166666D01*
X109538152Y-130166666D02*
X109633390Y-130214285D01*
X109633390Y-130214285D02*
X109681009Y-130261904D01*
X109681009Y-130261904D02*
X109728628Y-130357142D01*
X109728628Y-130357142D02*
X109728628Y-130738094D01*
X109633390Y-129595237D02*
X109585771Y-129690475D01*
X109585771Y-129690475D02*
X109538152Y-129738094D01*
X109538152Y-129738094D02*
X109442914Y-129785713D01*
X109442914Y-129785713D02*
X109395295Y-129785713D01*
X109395295Y-129785713D02*
X109300057Y-129738094D01*
X109300057Y-129738094D02*
X109252438Y-129690475D01*
X109252438Y-129690475D02*
X109204819Y-129595237D01*
X109204819Y-129595237D02*
X109204819Y-129404761D01*
X109204819Y-129404761D02*
X109252438Y-129309523D01*
X109252438Y-129309523D02*
X109300057Y-129261904D01*
X109300057Y-129261904D02*
X109395295Y-129214285D01*
X109395295Y-129214285D02*
X109442914Y-129214285D01*
X109442914Y-129214285D02*
X109538152Y-129261904D01*
X109538152Y-129261904D02*
X109585771Y-129309523D01*
X109585771Y-129309523D02*
X109633390Y-129404761D01*
X109633390Y-129404761D02*
X109633390Y-129595237D01*
X109633390Y-129595237D02*
X109681009Y-129690475D01*
X109681009Y-129690475D02*
X109728628Y-129738094D01*
X109728628Y-129738094D02*
X109823866Y-129785713D01*
X109823866Y-129785713D02*
X110014342Y-129785713D01*
X110014342Y-129785713D02*
X110109580Y-129738094D01*
X110109580Y-129738094D02*
X110157200Y-129690475D01*
X110157200Y-129690475D02*
X110204819Y-129595237D01*
X110204819Y-129595237D02*
X110204819Y-129404761D01*
X110204819Y-129404761D02*
X110157200Y-129309523D01*
X110157200Y-129309523D02*
X110109580Y-129261904D01*
X110109580Y-129261904D02*
X110014342Y-129214285D01*
X110014342Y-129214285D02*
X109823866Y-129214285D01*
X109823866Y-129214285D02*
X109728628Y-129261904D01*
X109728628Y-129261904D02*
X109681009Y-129309523D01*
X109681009Y-129309523D02*
X109633390Y-129404761D01*
X99109580Y-130916666D02*
X99157200Y-130964285D01*
X99157200Y-130964285D02*
X99204819Y-131107142D01*
X99204819Y-131107142D02*
X99204819Y-131202380D01*
X99204819Y-131202380D02*
X99157200Y-131345237D01*
X99157200Y-131345237D02*
X99061961Y-131440475D01*
X99061961Y-131440475D02*
X98966723Y-131488094D01*
X98966723Y-131488094D02*
X98776247Y-131535713D01*
X98776247Y-131535713D02*
X98633390Y-131535713D01*
X98633390Y-131535713D02*
X98442914Y-131488094D01*
X98442914Y-131488094D02*
X98347676Y-131440475D01*
X98347676Y-131440475D02*
X98252438Y-131345237D01*
X98252438Y-131345237D02*
X98204819Y-131202380D01*
X98204819Y-131202380D02*
X98204819Y-131107142D01*
X98204819Y-131107142D02*
X98252438Y-130964285D01*
X98252438Y-130964285D02*
X98300057Y-130916666D01*
X98633390Y-130345237D02*
X98585771Y-130440475D01*
X98585771Y-130440475D02*
X98538152Y-130488094D01*
X98538152Y-130488094D02*
X98442914Y-130535713D01*
X98442914Y-130535713D02*
X98395295Y-130535713D01*
X98395295Y-130535713D02*
X98300057Y-130488094D01*
X98300057Y-130488094D02*
X98252438Y-130440475D01*
X98252438Y-130440475D02*
X98204819Y-130345237D01*
X98204819Y-130345237D02*
X98204819Y-130154761D01*
X98204819Y-130154761D02*
X98252438Y-130059523D01*
X98252438Y-130059523D02*
X98300057Y-130011904D01*
X98300057Y-130011904D02*
X98395295Y-129964285D01*
X98395295Y-129964285D02*
X98442914Y-129964285D01*
X98442914Y-129964285D02*
X98538152Y-130011904D01*
X98538152Y-130011904D02*
X98585771Y-130059523D01*
X98585771Y-130059523D02*
X98633390Y-130154761D01*
X98633390Y-130154761D02*
X98633390Y-130345237D01*
X98633390Y-130345237D02*
X98681009Y-130440475D01*
X98681009Y-130440475D02*
X98728628Y-130488094D01*
X98728628Y-130488094D02*
X98823866Y-130535713D01*
X98823866Y-130535713D02*
X99014342Y-130535713D01*
X99014342Y-130535713D02*
X99109580Y-130488094D01*
X99109580Y-130488094D02*
X99157200Y-130440475D01*
X99157200Y-130440475D02*
X99204819Y-130345237D01*
X99204819Y-130345237D02*
X99204819Y-130154761D01*
X99204819Y-130154761D02*
X99157200Y-130059523D01*
X99157200Y-130059523D02*
X99109580Y-130011904D01*
X99109580Y-130011904D02*
X99014342Y-129964285D01*
X99014342Y-129964285D02*
X98823866Y-129964285D01*
X98823866Y-129964285D02*
X98728628Y-130011904D01*
X98728628Y-130011904D02*
X98681009Y-130059523D01*
X98681009Y-130059523D02*
X98633390Y-130154761D01*
X80238095Y-136502438D02*
X80142857Y-136454819D01*
X80142857Y-136454819D02*
X80000000Y-136454819D01*
X80000000Y-136454819D02*
X79857143Y-136502438D01*
X79857143Y-136502438D02*
X79761905Y-136597676D01*
X79761905Y-136597676D02*
X79714286Y-136692914D01*
X79714286Y-136692914D02*
X79666667Y-136883390D01*
X79666667Y-136883390D02*
X79666667Y-137026247D01*
X79666667Y-137026247D02*
X79714286Y-137216723D01*
X79714286Y-137216723D02*
X79761905Y-137311961D01*
X79761905Y-137311961D02*
X79857143Y-137407200D01*
X79857143Y-137407200D02*
X80000000Y-137454819D01*
X80000000Y-137454819D02*
X80095238Y-137454819D01*
X80095238Y-137454819D02*
X80238095Y-137407200D01*
X80238095Y-137407200D02*
X80285714Y-137359580D01*
X80285714Y-137359580D02*
X80285714Y-137026247D01*
X80285714Y-137026247D02*
X80095238Y-137026247D01*
X80714286Y-137454819D02*
X80714286Y-136454819D01*
X80714286Y-136454819D02*
X81285714Y-137454819D01*
X81285714Y-137454819D02*
X81285714Y-136454819D01*
X81761905Y-137454819D02*
X81761905Y-136454819D01*
X81761905Y-136454819D02*
X82000000Y-136454819D01*
X82000000Y-136454819D02*
X82142857Y-136502438D01*
X82142857Y-136502438D02*
X82238095Y-136597676D01*
X82238095Y-136597676D02*
X82285714Y-136692914D01*
X82285714Y-136692914D02*
X82333333Y-136883390D01*
X82333333Y-136883390D02*
X82333333Y-137026247D01*
X82333333Y-137026247D02*
X82285714Y-137216723D01*
X82285714Y-137216723D02*
X82238095Y-137311961D01*
X82238095Y-137311961D02*
X82142857Y-137407200D01*
X82142857Y-137407200D02*
X82000000Y-137454819D01*
X82000000Y-137454819D02*
X81761905Y-137454819D01*
X82248095Y-122824819D02*
X82248095Y-123634342D01*
X82248095Y-123634342D02*
X82295714Y-123729580D01*
X82295714Y-123729580D02*
X82343333Y-123777200D01*
X82343333Y-123777200D02*
X82438571Y-123824819D01*
X82438571Y-123824819D02*
X82629047Y-123824819D01*
X82629047Y-123824819D02*
X82724285Y-123777200D01*
X82724285Y-123777200D02*
X82771904Y-123729580D01*
X82771904Y-123729580D02*
X82819523Y-123634342D01*
X82819523Y-123634342D02*
X82819523Y-122824819D01*
X83248095Y-122920057D02*
X83295714Y-122872438D01*
X83295714Y-122872438D02*
X83390952Y-122824819D01*
X83390952Y-122824819D02*
X83629047Y-122824819D01*
X83629047Y-122824819D02*
X83724285Y-122872438D01*
X83724285Y-122872438D02*
X83771904Y-122920057D01*
X83771904Y-122920057D02*
X83819523Y-123015295D01*
X83819523Y-123015295D02*
X83819523Y-123110533D01*
X83819523Y-123110533D02*
X83771904Y-123253390D01*
X83771904Y-123253390D02*
X83200476Y-123824819D01*
X83200476Y-123824819D02*
X83819523Y-123824819D01*
X56704819Y-123116666D02*
X56228628Y-123449999D01*
X56704819Y-123688094D02*
X55704819Y-123688094D01*
X55704819Y-123688094D02*
X55704819Y-123307142D01*
X55704819Y-123307142D02*
X55752438Y-123211904D01*
X55752438Y-123211904D02*
X55800057Y-123164285D01*
X55800057Y-123164285D02*
X55895295Y-123116666D01*
X55895295Y-123116666D02*
X56038152Y-123116666D01*
X56038152Y-123116666D02*
X56133390Y-123164285D01*
X56133390Y-123164285D02*
X56181009Y-123211904D01*
X56181009Y-123211904D02*
X56228628Y-123307142D01*
X56228628Y-123307142D02*
X56228628Y-123688094D01*
X55704819Y-122211904D02*
X55704819Y-122688094D01*
X55704819Y-122688094D02*
X56181009Y-122735713D01*
X56181009Y-122735713D02*
X56133390Y-122688094D01*
X56133390Y-122688094D02*
X56085771Y-122592856D01*
X56085771Y-122592856D02*
X56085771Y-122354761D01*
X56085771Y-122354761D02*
X56133390Y-122259523D01*
X56133390Y-122259523D02*
X56181009Y-122211904D01*
X56181009Y-122211904D02*
X56276247Y-122164285D01*
X56276247Y-122164285D02*
X56514342Y-122164285D01*
X56514342Y-122164285D02*
X56609580Y-122211904D01*
X56609580Y-122211904D02*
X56657200Y-122259523D01*
X56657200Y-122259523D02*
X56704819Y-122354761D01*
X56704819Y-122354761D02*
X56704819Y-122592856D01*
X56704819Y-122592856D02*
X56657200Y-122688094D01*
X56657200Y-122688094D02*
X56609580Y-122735713D01*
X73404762Y-82454819D02*
X73595238Y-82454819D01*
X73595238Y-82454819D02*
X73690476Y-82407200D01*
X73690476Y-82407200D02*
X73738095Y-82359580D01*
X73738095Y-82359580D02*
X73833333Y-82216723D01*
X73833333Y-82216723D02*
X73880952Y-82026247D01*
X73880952Y-82026247D02*
X73880952Y-81645295D01*
X73880952Y-81645295D02*
X73833333Y-81550057D01*
X73833333Y-81550057D02*
X73785714Y-81502438D01*
X73785714Y-81502438D02*
X73690476Y-81454819D01*
X73690476Y-81454819D02*
X73500000Y-81454819D01*
X73500000Y-81454819D02*
X73404762Y-81502438D01*
X73404762Y-81502438D02*
X73357143Y-81550057D01*
X73357143Y-81550057D02*
X73309524Y-81645295D01*
X73309524Y-81645295D02*
X73309524Y-81883390D01*
X73309524Y-81883390D02*
X73357143Y-81978628D01*
X73357143Y-81978628D02*
X73404762Y-82026247D01*
X73404762Y-82026247D02*
X73500000Y-82073866D01*
X73500000Y-82073866D02*
X73690476Y-82073866D01*
X73690476Y-82073866D02*
X73785714Y-82026247D01*
X73785714Y-82026247D02*
X73833333Y-81978628D01*
X73833333Y-81978628D02*
X73880952Y-81883390D01*
X74166667Y-81454819D02*
X74500000Y-82454819D01*
X74500000Y-82454819D02*
X74833333Y-81454819D01*
X75690476Y-82454819D02*
X75119048Y-82454819D01*
X75404762Y-82454819D02*
X75404762Y-81454819D01*
X75404762Y-81454819D02*
X75309524Y-81597676D01*
X75309524Y-81597676D02*
X75214286Y-81692914D01*
X75214286Y-81692914D02*
X75119048Y-81740533D01*
X66454819Y-110738094D02*
X65454819Y-110738094D01*
X65454819Y-110738094D02*
X65454819Y-110499999D01*
X65454819Y-110499999D02*
X65502438Y-110357142D01*
X65502438Y-110357142D02*
X65597676Y-110261904D01*
X65597676Y-110261904D02*
X65692914Y-110214285D01*
X65692914Y-110214285D02*
X65883390Y-110166666D01*
X65883390Y-110166666D02*
X66026247Y-110166666D01*
X66026247Y-110166666D02*
X66216723Y-110214285D01*
X66216723Y-110214285D02*
X66311961Y-110261904D01*
X66311961Y-110261904D02*
X66407200Y-110357142D01*
X66407200Y-110357142D02*
X66454819Y-110499999D01*
X66454819Y-110499999D02*
X66454819Y-110738094D01*
X66454819Y-109690475D02*
X66454819Y-109499999D01*
X66454819Y-109499999D02*
X66407200Y-109404761D01*
X66407200Y-109404761D02*
X66359580Y-109357142D01*
X66359580Y-109357142D02*
X66216723Y-109261904D01*
X66216723Y-109261904D02*
X66026247Y-109214285D01*
X66026247Y-109214285D02*
X65645295Y-109214285D01*
X65645295Y-109214285D02*
X65550057Y-109261904D01*
X65550057Y-109261904D02*
X65502438Y-109309523D01*
X65502438Y-109309523D02*
X65454819Y-109404761D01*
X65454819Y-109404761D02*
X65454819Y-109595237D01*
X65454819Y-109595237D02*
X65502438Y-109690475D01*
X65502438Y-109690475D02*
X65550057Y-109738094D01*
X65550057Y-109738094D02*
X65645295Y-109785713D01*
X65645295Y-109785713D02*
X65883390Y-109785713D01*
X65883390Y-109785713D02*
X65978628Y-109738094D01*
X65978628Y-109738094D02*
X66026247Y-109690475D01*
X66026247Y-109690475D02*
X66073866Y-109595237D01*
X66073866Y-109595237D02*
X66073866Y-109404761D01*
X66073866Y-109404761D02*
X66026247Y-109309523D01*
X66026247Y-109309523D02*
X65978628Y-109261904D01*
X65978628Y-109261904D02*
X65883390Y-109214285D01*
X110204819Y-133666666D02*
X109728628Y-133999999D01*
X110204819Y-134238094D02*
X109204819Y-134238094D01*
X109204819Y-134238094D02*
X109204819Y-133857142D01*
X109204819Y-133857142D02*
X109252438Y-133761904D01*
X109252438Y-133761904D02*
X109300057Y-133714285D01*
X109300057Y-133714285D02*
X109395295Y-133666666D01*
X109395295Y-133666666D02*
X109538152Y-133666666D01*
X109538152Y-133666666D02*
X109633390Y-133714285D01*
X109633390Y-133714285D02*
X109681009Y-133761904D01*
X109681009Y-133761904D02*
X109728628Y-133857142D01*
X109728628Y-133857142D02*
X109728628Y-134238094D01*
X109204819Y-132809523D02*
X109204819Y-132999999D01*
X109204819Y-132999999D02*
X109252438Y-133095237D01*
X109252438Y-133095237D02*
X109300057Y-133142856D01*
X109300057Y-133142856D02*
X109442914Y-133238094D01*
X109442914Y-133238094D02*
X109633390Y-133285713D01*
X109633390Y-133285713D02*
X110014342Y-133285713D01*
X110014342Y-133285713D02*
X110109580Y-133238094D01*
X110109580Y-133238094D02*
X110157200Y-133190475D01*
X110157200Y-133190475D02*
X110204819Y-133095237D01*
X110204819Y-133095237D02*
X110204819Y-132904761D01*
X110204819Y-132904761D02*
X110157200Y-132809523D01*
X110157200Y-132809523D02*
X110109580Y-132761904D01*
X110109580Y-132761904D02*
X110014342Y-132714285D01*
X110014342Y-132714285D02*
X109776247Y-132714285D01*
X109776247Y-132714285D02*
X109681009Y-132761904D01*
X109681009Y-132761904D02*
X109633390Y-132809523D01*
X109633390Y-132809523D02*
X109585771Y-132904761D01*
X109585771Y-132904761D02*
X109585771Y-133095237D01*
X109585771Y-133095237D02*
X109633390Y-133190475D01*
X109633390Y-133190475D02*
X109681009Y-133238094D01*
X109681009Y-133238094D02*
X109776247Y-133285713D01*
X56776191Y-137454819D02*
X56776191Y-136454819D01*
X57252381Y-137454819D02*
X57252381Y-136454819D01*
X57252381Y-136454819D02*
X57823809Y-137454819D01*
X57823809Y-137454819D02*
X57823809Y-136454819D01*
X82357142Y-102359580D02*
X82309523Y-102407200D01*
X82309523Y-102407200D02*
X82166666Y-102454819D01*
X82166666Y-102454819D02*
X82071428Y-102454819D01*
X82071428Y-102454819D02*
X81928571Y-102407200D01*
X81928571Y-102407200D02*
X81833333Y-102311961D01*
X81833333Y-102311961D02*
X81785714Y-102216723D01*
X81785714Y-102216723D02*
X81738095Y-102026247D01*
X81738095Y-102026247D02*
X81738095Y-101883390D01*
X81738095Y-101883390D02*
X81785714Y-101692914D01*
X81785714Y-101692914D02*
X81833333Y-101597676D01*
X81833333Y-101597676D02*
X81928571Y-101502438D01*
X81928571Y-101502438D02*
X82071428Y-101454819D01*
X82071428Y-101454819D02*
X82166666Y-101454819D01*
X82166666Y-101454819D02*
X82309523Y-101502438D01*
X82309523Y-101502438D02*
X82357142Y-101550057D01*
X83309523Y-102454819D02*
X82738095Y-102454819D01*
X83023809Y-102454819D02*
X83023809Y-101454819D01*
X83023809Y-101454819D02*
X82928571Y-101597676D01*
X82928571Y-101597676D02*
X82833333Y-101692914D01*
X82833333Y-101692914D02*
X82738095Y-101740533D01*
X84261904Y-102454819D02*
X83690476Y-102454819D01*
X83976190Y-102454819D02*
X83976190Y-101454819D01*
X83976190Y-101454819D02*
X83880952Y-101597676D01*
X83880952Y-101597676D02*
X83785714Y-101692914D01*
X83785714Y-101692914D02*
X83690476Y-101740533D01*
X102704761Y-83454819D02*
X102371428Y-82978628D01*
X102133333Y-83454819D02*
X102133333Y-82454819D01*
X102133333Y-82454819D02*
X102514285Y-82454819D01*
X102514285Y-82454819D02*
X102609523Y-82502438D01*
X102609523Y-82502438D02*
X102657142Y-82550057D01*
X102657142Y-82550057D02*
X102704761Y-82645295D01*
X102704761Y-82645295D02*
X102704761Y-82788152D01*
X102704761Y-82788152D02*
X102657142Y-82883390D01*
X102657142Y-82883390D02*
X102609523Y-82931009D01*
X102609523Y-82931009D02*
X102514285Y-82978628D01*
X102514285Y-82978628D02*
X102133333Y-82978628D01*
X102990476Y-82454819D02*
X103323809Y-83454819D01*
X103323809Y-83454819D02*
X103657142Y-82454819D01*
X103895238Y-82454819D02*
X104514285Y-82454819D01*
X104514285Y-82454819D02*
X104180952Y-82835771D01*
X104180952Y-82835771D02*
X104323809Y-82835771D01*
X104323809Y-82835771D02*
X104419047Y-82883390D01*
X104419047Y-82883390D02*
X104466666Y-82931009D01*
X104466666Y-82931009D02*
X104514285Y-83026247D01*
X104514285Y-83026247D02*
X104514285Y-83264342D01*
X104514285Y-83264342D02*
X104466666Y-83359580D01*
X104466666Y-83359580D02*
X104419047Y-83407200D01*
X104419047Y-83407200D02*
X104323809Y-83454819D01*
X104323809Y-83454819D02*
X104038095Y-83454819D01*
X104038095Y-83454819D02*
X103942857Y-83407200D01*
X103942857Y-83407200D02*
X103895238Y-83359580D01*
X102276190Y-85454819D02*
X101704762Y-85454819D01*
X101990476Y-85454819D02*
X101990476Y-84454819D01*
X101990476Y-84454819D02*
X101895238Y-84597676D01*
X101895238Y-84597676D02*
X101800000Y-84692914D01*
X101800000Y-84692914D02*
X101704762Y-84740533D01*
X102895238Y-84454819D02*
X102990476Y-84454819D01*
X102990476Y-84454819D02*
X103085714Y-84502438D01*
X103085714Y-84502438D02*
X103133333Y-84550057D01*
X103133333Y-84550057D02*
X103180952Y-84645295D01*
X103180952Y-84645295D02*
X103228571Y-84835771D01*
X103228571Y-84835771D02*
X103228571Y-85073866D01*
X103228571Y-85073866D02*
X103180952Y-85264342D01*
X103180952Y-85264342D02*
X103133333Y-85359580D01*
X103133333Y-85359580D02*
X103085714Y-85407200D01*
X103085714Y-85407200D02*
X102990476Y-85454819D01*
X102990476Y-85454819D02*
X102895238Y-85454819D01*
X102895238Y-85454819D02*
X102800000Y-85407200D01*
X102800000Y-85407200D02*
X102752381Y-85359580D01*
X102752381Y-85359580D02*
X102704762Y-85264342D01*
X102704762Y-85264342D02*
X102657143Y-85073866D01*
X102657143Y-85073866D02*
X102657143Y-84835771D01*
X102657143Y-84835771D02*
X102704762Y-84645295D01*
X102704762Y-84645295D02*
X102752381Y-84550057D01*
X102752381Y-84550057D02*
X102800000Y-84502438D01*
X102800000Y-84502438D02*
X102895238Y-84454819D01*
X103657143Y-85454819D02*
X103657143Y-84454819D01*
X103752381Y-85073866D02*
X104038095Y-85454819D01*
X104038095Y-84788152D02*
X103657143Y-85169104D01*
X104419048Y-85169104D02*
X104895238Y-85169104D01*
X104323810Y-85454819D02*
X104657143Y-84454819D01*
X104657143Y-84454819D02*
X104990476Y-85454819D01*
X106109523Y-86454819D02*
X105776190Y-87454819D01*
X105776190Y-87454819D02*
X105442857Y-86454819D01*
X104919047Y-86454819D02*
X104728571Y-86454819D01*
X104728571Y-86454819D02*
X104633333Y-86502438D01*
X104633333Y-86502438D02*
X104538095Y-86597676D01*
X104538095Y-86597676D02*
X104490476Y-86788152D01*
X104490476Y-86788152D02*
X104490476Y-87121485D01*
X104490476Y-87121485D02*
X104538095Y-87311961D01*
X104538095Y-87311961D02*
X104633333Y-87407200D01*
X104633333Y-87407200D02*
X104728571Y-87454819D01*
X104728571Y-87454819D02*
X104919047Y-87454819D01*
X104919047Y-87454819D02*
X105014285Y-87407200D01*
X105014285Y-87407200D02*
X105109523Y-87311961D01*
X105109523Y-87311961D02*
X105157142Y-87121485D01*
X105157142Y-87121485D02*
X105157142Y-86788152D01*
X105157142Y-86788152D02*
X105109523Y-86597676D01*
X105109523Y-86597676D02*
X105014285Y-86502438D01*
X105014285Y-86502438D02*
X104919047Y-86454819D01*
X103585714Y-87454819D02*
X104061904Y-87454819D01*
X104061904Y-87454819D02*
X104061904Y-86454819D01*
X103252380Y-86454819D02*
X103252380Y-87264342D01*
X103252380Y-87264342D02*
X103204761Y-87359580D01*
X103204761Y-87359580D02*
X103157142Y-87407200D01*
X103157142Y-87407200D02*
X103061904Y-87454819D01*
X103061904Y-87454819D02*
X102871428Y-87454819D01*
X102871428Y-87454819D02*
X102776190Y-87407200D01*
X102776190Y-87407200D02*
X102728571Y-87359580D01*
X102728571Y-87359580D02*
X102680952Y-87264342D01*
X102680952Y-87264342D02*
X102680952Y-86454819D01*
X102204761Y-87454819D02*
X102204761Y-86454819D01*
X102204761Y-86454819D02*
X101871428Y-87169104D01*
X101871428Y-87169104D02*
X101538095Y-86454819D01*
X101538095Y-86454819D02*
X101538095Y-87454819D01*
X101061904Y-86931009D02*
X100728571Y-86931009D01*
X100585714Y-87454819D02*
X101061904Y-87454819D01*
X101061904Y-87454819D02*
X101061904Y-86454819D01*
X101061904Y-86454819D02*
X100585714Y-86454819D01*
X82404761Y-83054819D02*
X82071428Y-82578628D01*
X81833333Y-83054819D02*
X81833333Y-82054819D01*
X81833333Y-82054819D02*
X82214285Y-82054819D01*
X82214285Y-82054819D02*
X82309523Y-82102438D01*
X82309523Y-82102438D02*
X82357142Y-82150057D01*
X82357142Y-82150057D02*
X82404761Y-82245295D01*
X82404761Y-82245295D02*
X82404761Y-82388152D01*
X82404761Y-82388152D02*
X82357142Y-82483390D01*
X82357142Y-82483390D02*
X82309523Y-82531009D01*
X82309523Y-82531009D02*
X82214285Y-82578628D01*
X82214285Y-82578628D02*
X81833333Y-82578628D01*
X82690476Y-82054819D02*
X83023809Y-83054819D01*
X83023809Y-83054819D02*
X83357142Y-82054819D01*
X83642857Y-82150057D02*
X83690476Y-82102438D01*
X83690476Y-82102438D02*
X83785714Y-82054819D01*
X83785714Y-82054819D02*
X84023809Y-82054819D01*
X84023809Y-82054819D02*
X84119047Y-82102438D01*
X84119047Y-82102438D02*
X84166666Y-82150057D01*
X84166666Y-82150057D02*
X84214285Y-82245295D01*
X84214285Y-82245295D02*
X84214285Y-82340533D01*
X84214285Y-82340533D02*
X84166666Y-82483390D01*
X84166666Y-82483390D02*
X83595238Y-83054819D01*
X83595238Y-83054819D02*
X84214285Y-83054819D01*
X81499999Y-85054819D02*
X80928571Y-85054819D01*
X81214285Y-85054819D02*
X81214285Y-84054819D01*
X81214285Y-84054819D02*
X81119047Y-84197676D01*
X81119047Y-84197676D02*
X81023809Y-84292914D01*
X81023809Y-84292914D02*
X80928571Y-84340533D01*
X82119047Y-84054819D02*
X82214285Y-84054819D01*
X82214285Y-84054819D02*
X82309523Y-84102438D01*
X82309523Y-84102438D02*
X82357142Y-84150057D01*
X82357142Y-84150057D02*
X82404761Y-84245295D01*
X82404761Y-84245295D02*
X82452380Y-84435771D01*
X82452380Y-84435771D02*
X82452380Y-84673866D01*
X82452380Y-84673866D02*
X82404761Y-84864342D01*
X82404761Y-84864342D02*
X82357142Y-84959580D01*
X82357142Y-84959580D02*
X82309523Y-85007200D01*
X82309523Y-85007200D02*
X82214285Y-85054819D01*
X82214285Y-85054819D02*
X82119047Y-85054819D01*
X82119047Y-85054819D02*
X82023809Y-85007200D01*
X82023809Y-85007200D02*
X81976190Y-84959580D01*
X81976190Y-84959580D02*
X81928571Y-84864342D01*
X81928571Y-84864342D02*
X81880952Y-84673866D01*
X81880952Y-84673866D02*
X81880952Y-84435771D01*
X81880952Y-84435771D02*
X81928571Y-84245295D01*
X81928571Y-84245295D02*
X81976190Y-84150057D01*
X81976190Y-84150057D02*
X82023809Y-84102438D01*
X82023809Y-84102438D02*
X82119047Y-84054819D01*
X83071428Y-84054819D02*
X83166666Y-84054819D01*
X83166666Y-84054819D02*
X83261904Y-84102438D01*
X83261904Y-84102438D02*
X83309523Y-84150057D01*
X83309523Y-84150057D02*
X83357142Y-84245295D01*
X83357142Y-84245295D02*
X83404761Y-84435771D01*
X83404761Y-84435771D02*
X83404761Y-84673866D01*
X83404761Y-84673866D02*
X83357142Y-84864342D01*
X83357142Y-84864342D02*
X83309523Y-84959580D01*
X83309523Y-84959580D02*
X83261904Y-85007200D01*
X83261904Y-85007200D02*
X83166666Y-85054819D01*
X83166666Y-85054819D02*
X83071428Y-85054819D01*
X83071428Y-85054819D02*
X82976190Y-85007200D01*
X82976190Y-85007200D02*
X82928571Y-84959580D01*
X82928571Y-84959580D02*
X82880952Y-84864342D01*
X82880952Y-84864342D02*
X82833333Y-84673866D01*
X82833333Y-84673866D02*
X82833333Y-84435771D01*
X82833333Y-84435771D02*
X82880952Y-84245295D01*
X82880952Y-84245295D02*
X82928571Y-84150057D01*
X82928571Y-84150057D02*
X82976190Y-84102438D01*
X82976190Y-84102438D02*
X83071428Y-84054819D01*
X83833333Y-85054819D02*
X83833333Y-84054819D01*
X83928571Y-84673866D02*
X84214285Y-85054819D01*
X84214285Y-84388152D02*
X83833333Y-84769104D01*
X84595238Y-84769104D02*
X85071428Y-84769104D01*
X84500000Y-85054819D02*
X84833333Y-84054819D01*
X84833333Y-84054819D02*
X85166666Y-85054819D01*
X84785713Y-86054819D02*
X84214285Y-86054819D01*
X84499999Y-87054819D02*
X84499999Y-86054819D01*
X83690475Y-86054819D02*
X83499999Y-86054819D01*
X83499999Y-86054819D02*
X83404761Y-86102438D01*
X83404761Y-86102438D02*
X83309523Y-86197676D01*
X83309523Y-86197676D02*
X83261904Y-86388152D01*
X83261904Y-86388152D02*
X83261904Y-86721485D01*
X83261904Y-86721485D02*
X83309523Y-86911961D01*
X83309523Y-86911961D02*
X83404761Y-87007200D01*
X83404761Y-87007200D02*
X83499999Y-87054819D01*
X83499999Y-87054819D02*
X83690475Y-87054819D01*
X83690475Y-87054819D02*
X83785713Y-87007200D01*
X83785713Y-87007200D02*
X83880951Y-86911961D01*
X83880951Y-86911961D02*
X83928570Y-86721485D01*
X83928570Y-86721485D02*
X83928570Y-86388152D01*
X83928570Y-86388152D02*
X83880951Y-86197676D01*
X83880951Y-86197676D02*
X83785713Y-86102438D01*
X83785713Y-86102438D02*
X83690475Y-86054819D01*
X82833332Y-87054819D02*
X82833332Y-86054819D01*
X82833332Y-86054819D02*
X82261904Y-87054819D01*
X82261904Y-87054819D02*
X82261904Y-86054819D01*
X81785713Y-86531009D02*
X81452380Y-86531009D01*
X81309523Y-87054819D02*
X81785713Y-87054819D01*
X81785713Y-87054819D02*
X81785713Y-86054819D01*
X81785713Y-86054819D02*
X81309523Y-86054819D01*
X62104761Y-83054819D02*
X61771428Y-82578628D01*
X61533333Y-83054819D02*
X61533333Y-82054819D01*
X61533333Y-82054819D02*
X61914285Y-82054819D01*
X61914285Y-82054819D02*
X62009523Y-82102438D01*
X62009523Y-82102438D02*
X62057142Y-82150057D01*
X62057142Y-82150057D02*
X62104761Y-82245295D01*
X62104761Y-82245295D02*
X62104761Y-82388152D01*
X62104761Y-82388152D02*
X62057142Y-82483390D01*
X62057142Y-82483390D02*
X62009523Y-82531009D01*
X62009523Y-82531009D02*
X61914285Y-82578628D01*
X61914285Y-82578628D02*
X61533333Y-82578628D01*
X62390476Y-82054819D02*
X62723809Y-83054819D01*
X62723809Y-83054819D02*
X63057142Y-82054819D01*
X63914285Y-83054819D02*
X63342857Y-83054819D01*
X63628571Y-83054819D02*
X63628571Y-82054819D01*
X63628571Y-82054819D02*
X63533333Y-82197676D01*
X63533333Y-82197676D02*
X63438095Y-82292914D01*
X63438095Y-82292914D02*
X63342857Y-82340533D01*
X61199999Y-85054819D02*
X60628571Y-85054819D01*
X60914285Y-85054819D02*
X60914285Y-84054819D01*
X60914285Y-84054819D02*
X60819047Y-84197676D01*
X60819047Y-84197676D02*
X60723809Y-84292914D01*
X60723809Y-84292914D02*
X60628571Y-84340533D01*
X61819047Y-84054819D02*
X61914285Y-84054819D01*
X61914285Y-84054819D02*
X62009523Y-84102438D01*
X62009523Y-84102438D02*
X62057142Y-84150057D01*
X62057142Y-84150057D02*
X62104761Y-84245295D01*
X62104761Y-84245295D02*
X62152380Y-84435771D01*
X62152380Y-84435771D02*
X62152380Y-84673866D01*
X62152380Y-84673866D02*
X62104761Y-84864342D01*
X62104761Y-84864342D02*
X62057142Y-84959580D01*
X62057142Y-84959580D02*
X62009523Y-85007200D01*
X62009523Y-85007200D02*
X61914285Y-85054819D01*
X61914285Y-85054819D02*
X61819047Y-85054819D01*
X61819047Y-85054819D02*
X61723809Y-85007200D01*
X61723809Y-85007200D02*
X61676190Y-84959580D01*
X61676190Y-84959580D02*
X61628571Y-84864342D01*
X61628571Y-84864342D02*
X61580952Y-84673866D01*
X61580952Y-84673866D02*
X61580952Y-84435771D01*
X61580952Y-84435771D02*
X61628571Y-84245295D01*
X61628571Y-84245295D02*
X61676190Y-84150057D01*
X61676190Y-84150057D02*
X61723809Y-84102438D01*
X61723809Y-84102438D02*
X61819047Y-84054819D01*
X62771428Y-84054819D02*
X62866666Y-84054819D01*
X62866666Y-84054819D02*
X62961904Y-84102438D01*
X62961904Y-84102438D02*
X63009523Y-84150057D01*
X63009523Y-84150057D02*
X63057142Y-84245295D01*
X63057142Y-84245295D02*
X63104761Y-84435771D01*
X63104761Y-84435771D02*
X63104761Y-84673866D01*
X63104761Y-84673866D02*
X63057142Y-84864342D01*
X63057142Y-84864342D02*
X63009523Y-84959580D01*
X63009523Y-84959580D02*
X62961904Y-85007200D01*
X62961904Y-85007200D02*
X62866666Y-85054819D01*
X62866666Y-85054819D02*
X62771428Y-85054819D01*
X62771428Y-85054819D02*
X62676190Y-85007200D01*
X62676190Y-85007200D02*
X62628571Y-84959580D01*
X62628571Y-84959580D02*
X62580952Y-84864342D01*
X62580952Y-84864342D02*
X62533333Y-84673866D01*
X62533333Y-84673866D02*
X62533333Y-84435771D01*
X62533333Y-84435771D02*
X62580952Y-84245295D01*
X62580952Y-84245295D02*
X62628571Y-84150057D01*
X62628571Y-84150057D02*
X62676190Y-84102438D01*
X62676190Y-84102438D02*
X62771428Y-84054819D01*
X63533333Y-85054819D02*
X63533333Y-84054819D01*
X63628571Y-84673866D02*
X63914285Y-85054819D01*
X63914285Y-84388152D02*
X63533333Y-84769104D01*
X64295238Y-84769104D02*
X64771428Y-84769104D01*
X64200000Y-85054819D02*
X64533333Y-84054819D01*
X64533333Y-84054819D02*
X64866666Y-85054819D01*
X63628571Y-86102438D02*
X63723809Y-86054819D01*
X63723809Y-86054819D02*
X63866666Y-86054819D01*
X63866666Y-86054819D02*
X64009523Y-86102438D01*
X64009523Y-86102438D02*
X64104761Y-86197676D01*
X64104761Y-86197676D02*
X64152380Y-86292914D01*
X64152380Y-86292914D02*
X64199999Y-86483390D01*
X64199999Y-86483390D02*
X64199999Y-86626247D01*
X64199999Y-86626247D02*
X64152380Y-86816723D01*
X64152380Y-86816723D02*
X64104761Y-86911961D01*
X64104761Y-86911961D02*
X64009523Y-87007200D01*
X64009523Y-87007200D02*
X63866666Y-87054819D01*
X63866666Y-87054819D02*
X63771428Y-87054819D01*
X63771428Y-87054819D02*
X63628571Y-87007200D01*
X63628571Y-87007200D02*
X63580952Y-86959580D01*
X63580952Y-86959580D02*
X63580952Y-86626247D01*
X63580952Y-86626247D02*
X63771428Y-86626247D01*
X63199999Y-86769104D02*
X62723809Y-86769104D01*
X63295237Y-87054819D02*
X62961904Y-86054819D01*
X62961904Y-86054819D02*
X62628571Y-87054819D01*
X62295237Y-87054819D02*
X62295237Y-86054819D01*
X61819047Y-87054819D02*
X61819047Y-86054819D01*
X61819047Y-86054819D02*
X61247619Y-87054819D01*
X61247619Y-87054819D02*
X61247619Y-86054819D01*
%TO.C,P8*%
X59600000Y-137800000D02*
X59600000Y-140200000D01*
X59600000Y-140200000D02*
X62000000Y-140200000D01*
X62000000Y-137800000D02*
X59600000Y-137800000D01*
X62000000Y-137800000D02*
X62000000Y-140200000D01*
D13*
%TO.C,D6*%
X104880000Y-108190000D02*
X104880000Y-112430000D01*
X104880000Y-112430000D02*
X107120000Y-112430000D01*
X106000000Y-107540000D02*
X106000000Y-108190000D01*
X106000000Y-113080000D02*
X106000000Y-112430000D01*
X107120000Y-108190000D02*
X104880000Y-108190000D01*
X107120000Y-108790000D02*
X104880000Y-108790000D01*
X107120000Y-108910000D02*
X104880000Y-108910000D01*
X107120000Y-109030000D02*
X104880000Y-109030000D01*
X107120000Y-112430000D02*
X107120000Y-108190000D01*
D10*
%TO.C,P3*%
X69800000Y-82800000D02*
X69800000Y-85200000D01*
X69800000Y-85200000D02*
X72200000Y-85200000D01*
X72200000Y-82800000D02*
X69800000Y-82800000D01*
X72200000Y-82800000D02*
X72200000Y-85200000D01*
D13*
%TO.C,R10*%
X74130000Y-92980000D02*
X74130000Y-99520000D01*
X74130000Y-99520000D02*
X74460000Y-99520000D01*
X74460000Y-92980000D02*
X74130000Y-92980000D01*
X76540000Y-92980000D02*
X76870000Y-92980000D01*
X76870000Y-92980000D02*
X76870000Y-99520000D01*
X76870000Y-99520000D02*
X76540000Y-99520000D01*
%TO.C,Q1*%
X92200000Y-126960000D02*
X95800000Y-126960000D01*
X91643601Y-124011193D02*
G75*
G02*
X94000000Y-122510001I2356399J-1098807D01*
G01*
X92200001Y-126959999D02*
G75*
G02*
X91675817Y-126232795I1799999J1849999D01*
G01*
X94000000Y-122510000D02*
G75*
G02*
X96356400Y-124011193I0J-2600000D01*
G01*
X96324183Y-126232795D02*
G75*
G02*
X95799999Y-126959999I-2324183J1122795D01*
G01*
%TO.C,C1*%
X68780000Y-137370000D02*
X68780000Y-134130000D01*
X76220000Y-134130000D02*
X68780000Y-134130000D01*
X76220000Y-137370000D02*
X68780000Y-137370000D01*
X76220000Y-137370000D02*
X76220000Y-134130000D01*
%TO.C,R14*%
X55630000Y-106980000D02*
X55960000Y-106980000D01*
X55630000Y-113520000D02*
X55630000Y-106980000D01*
X55960000Y-113520000D02*
X55630000Y-113520000D01*
X58040000Y-113520000D02*
X58370000Y-113520000D01*
X58370000Y-106980000D02*
X58040000Y-106980000D01*
X58370000Y-113520000D02*
X58370000Y-106980000D01*
%TO.C,R11*%
X89130000Y-92980000D02*
X89130000Y-99520000D01*
X89130000Y-99520000D02*
X89460000Y-99520000D01*
X89460000Y-92980000D02*
X89130000Y-92980000D01*
X91540000Y-92980000D02*
X91870000Y-92980000D01*
X91870000Y-92980000D02*
X91870000Y-99520000D01*
X91870000Y-99520000D02*
X91540000Y-99520000D01*
%TO.C,D2*%
X70530000Y-93280000D02*
X70530000Y-98720000D01*
X70530000Y-97700000D02*
X73470000Y-97700000D01*
X70530000Y-97820000D02*
X73470000Y-97820000D01*
X70530000Y-97940000D02*
X73470000Y-97940000D01*
X70530000Y-98720000D02*
X73470000Y-98720000D01*
X72000000Y-92260000D02*
X72000000Y-93280000D01*
X72000000Y-99740000D02*
X72000000Y-98720000D01*
X73470000Y-93280000D02*
X70530000Y-93280000D01*
X73470000Y-98720000D02*
X73470000Y-93280000D01*
%TO.C,R2*%
X58480000Y-128630000D02*
X58480000Y-128960000D01*
X58480000Y-131370000D02*
X58480000Y-131040000D01*
X65020000Y-128630000D02*
X58480000Y-128630000D01*
X65020000Y-128960000D02*
X65020000Y-128630000D01*
X65020000Y-131040000D02*
X65020000Y-131370000D01*
X65020000Y-131370000D02*
X58480000Y-131370000D01*
%TO.C,R7*%
X100980000Y-118130000D02*
X100980000Y-118460000D01*
X100980000Y-120870000D02*
X100980000Y-120540000D01*
X107520000Y-118130000D02*
X100980000Y-118130000D01*
X107520000Y-118460000D02*
X107520000Y-118130000D01*
X107520000Y-120540000D02*
X107520000Y-120870000D01*
X107520000Y-120870000D02*
X100980000Y-120870000D01*
%TO.C,C6*%
X74445225Y-117525000D02*
X74945225Y-117525000D01*
X74695225Y-117275000D02*
X74695225Y-117775000D01*
X77250000Y-116420000D02*
X77250000Y-121580000D01*
X77290000Y-116420000D02*
X77290000Y-121580000D01*
X77330000Y-116421000D02*
X77330000Y-121579000D01*
X77370000Y-116422000D02*
X77370000Y-121578000D01*
X77410000Y-116424000D02*
X77410000Y-121576000D01*
X77450000Y-116427000D02*
X77450000Y-121573000D01*
X77490000Y-116431000D02*
X77490000Y-117960000D01*
X77490000Y-120040000D02*
X77490000Y-121569000D01*
X77530000Y-116435000D02*
X77530000Y-117960000D01*
X77530000Y-120040000D02*
X77530000Y-121565000D01*
X77570000Y-116439000D02*
X77570000Y-117960000D01*
X77570000Y-120040000D02*
X77570000Y-121561000D01*
X77610000Y-116444000D02*
X77610000Y-117960000D01*
X77610000Y-120040000D02*
X77610000Y-121556000D01*
X77650000Y-116450000D02*
X77650000Y-117960000D01*
X77650000Y-120040000D02*
X77650000Y-121550000D01*
X77690000Y-116457000D02*
X77690000Y-117960000D01*
X77690000Y-120040000D02*
X77690000Y-121543000D01*
X77730000Y-116464000D02*
X77730000Y-117960000D01*
X77730000Y-120040000D02*
X77730000Y-121536000D01*
X77770000Y-116472000D02*
X77770000Y-117960000D01*
X77770000Y-120040000D02*
X77770000Y-121528000D01*
X77810000Y-116480000D02*
X77810000Y-117960000D01*
X77810000Y-120040000D02*
X77810000Y-121520000D01*
X77850000Y-116489000D02*
X77850000Y-117960000D01*
X77850000Y-120040000D02*
X77850000Y-121511000D01*
X77890000Y-116499000D02*
X77890000Y-117960000D01*
X77890000Y-120040000D02*
X77890000Y-121501000D01*
X77930000Y-116509000D02*
X77930000Y-117960000D01*
X77930000Y-120040000D02*
X77930000Y-121491000D01*
X77971000Y-116520000D02*
X77971000Y-117960000D01*
X77971000Y-120040000D02*
X77971000Y-121480000D01*
X78011000Y-116532000D02*
X78011000Y-117960000D01*
X78011000Y-120040000D02*
X78011000Y-121468000D01*
X78051000Y-116545000D02*
X78051000Y-117960000D01*
X78051000Y-120040000D02*
X78051000Y-121455000D01*
X78091000Y-116558000D02*
X78091000Y-117960000D01*
X78091000Y-120040000D02*
X78091000Y-121442000D01*
X78131000Y-116572000D02*
X78131000Y-117960000D01*
X78131000Y-120040000D02*
X78131000Y-121428000D01*
X78171000Y-116586000D02*
X78171000Y-117960000D01*
X78171000Y-120040000D02*
X78171000Y-121414000D01*
X78211000Y-116602000D02*
X78211000Y-117960000D01*
X78211000Y-120040000D02*
X78211000Y-121398000D01*
X78251000Y-116618000D02*
X78251000Y-117960000D01*
X78251000Y-120040000D02*
X78251000Y-121382000D01*
X78291000Y-116635000D02*
X78291000Y-117960000D01*
X78291000Y-120040000D02*
X78291000Y-121365000D01*
X78331000Y-116652000D02*
X78331000Y-117960000D01*
X78331000Y-120040000D02*
X78331000Y-121348000D01*
X78371000Y-116671000D02*
X78371000Y-117960000D01*
X78371000Y-120040000D02*
X78371000Y-121329000D01*
X78411000Y-116690000D02*
X78411000Y-117960000D01*
X78411000Y-120040000D02*
X78411000Y-121310000D01*
X78451000Y-116710000D02*
X78451000Y-117960000D01*
X78451000Y-120040000D02*
X78451000Y-121290000D01*
X78491000Y-116732000D02*
X78491000Y-117960000D01*
X78491000Y-120040000D02*
X78491000Y-121268000D01*
X78531000Y-116753000D02*
X78531000Y-117960000D01*
X78531000Y-120040000D02*
X78531000Y-121247000D01*
X78571000Y-116776000D02*
X78571000Y-117960000D01*
X78571000Y-120040000D02*
X78571000Y-121224000D01*
X78611000Y-116800000D02*
X78611000Y-117960000D01*
X78611000Y-120040000D02*
X78611000Y-121200000D01*
X78651000Y-116825000D02*
X78651000Y-117960000D01*
X78651000Y-120040000D02*
X78651000Y-121175000D01*
X78691000Y-116851000D02*
X78691000Y-117960000D01*
X78691000Y-120040000D02*
X78691000Y-121149000D01*
X78731000Y-116878000D02*
X78731000Y-117960000D01*
X78731000Y-120040000D02*
X78731000Y-121122000D01*
X78771000Y-116905000D02*
X78771000Y-117960000D01*
X78771000Y-120040000D02*
X78771000Y-121095000D01*
X78811000Y-116935000D02*
X78811000Y-117960000D01*
X78811000Y-120040000D02*
X78811000Y-121065000D01*
X78851000Y-116965000D02*
X78851000Y-117960000D01*
X78851000Y-120040000D02*
X78851000Y-121035000D01*
X78891000Y-116996000D02*
X78891000Y-117960000D01*
X78891000Y-120040000D02*
X78891000Y-121004000D01*
X78931000Y-117029000D02*
X78931000Y-117960000D01*
X78931000Y-120040000D02*
X78931000Y-120971000D01*
X78971000Y-117063000D02*
X78971000Y-117960000D01*
X78971000Y-120040000D02*
X78971000Y-120937000D01*
X79011000Y-117099000D02*
X79011000Y-117960000D01*
X79011000Y-120040000D02*
X79011000Y-120901000D01*
X79051000Y-117136000D02*
X79051000Y-117960000D01*
X79051000Y-120040000D02*
X79051000Y-120864000D01*
X79091000Y-117174000D02*
X79091000Y-117960000D01*
X79091000Y-120040000D02*
X79091000Y-120826000D01*
X79131000Y-117215000D02*
X79131000Y-117960000D01*
X79131000Y-120040000D02*
X79131000Y-120785000D01*
X79171000Y-117257000D02*
X79171000Y-117960000D01*
X79171000Y-120040000D02*
X79171000Y-120743000D01*
X79211000Y-117301000D02*
X79211000Y-117960000D01*
X79211000Y-120040000D02*
X79211000Y-120699000D01*
X79251000Y-117347000D02*
X79251000Y-117960000D01*
X79251000Y-120040000D02*
X79251000Y-120653000D01*
X79291000Y-117395000D02*
X79291000Y-117960000D01*
X79291000Y-120040000D02*
X79291000Y-120605000D01*
X79331000Y-117446000D02*
X79331000Y-117960000D01*
X79331000Y-120040000D02*
X79331000Y-120554000D01*
X79371000Y-117500000D02*
X79371000Y-117960000D01*
X79371000Y-120040000D02*
X79371000Y-120500000D01*
X79411000Y-117557000D02*
X79411000Y-117960000D01*
X79411000Y-120040000D02*
X79411000Y-120443000D01*
X79451000Y-117617000D02*
X79451000Y-117960000D01*
X79451000Y-120040000D02*
X79451000Y-120383000D01*
X79491000Y-117681000D02*
X79491000Y-117960000D01*
X79491000Y-120040000D02*
X79491000Y-120319000D01*
X79531000Y-117749000D02*
X79531000Y-117960000D01*
X79531000Y-120040000D02*
X79531000Y-120251000D01*
X79571000Y-117822000D02*
X79571000Y-120178000D01*
X79611000Y-117902000D02*
X79611000Y-120098000D01*
X79651000Y-117989000D02*
X79651000Y-120011000D01*
X79691000Y-118085000D02*
X79691000Y-119915000D01*
X79731000Y-118195000D02*
X79731000Y-119805000D01*
X79771000Y-118323000D02*
X79771000Y-119677000D01*
X79811000Y-118482000D02*
X79811000Y-119518000D01*
X79851000Y-118716000D02*
X79851000Y-119284000D01*
X79870000Y-119000000D02*
G75*
G02*
X74630000Y-119000000I-2620000J0D01*
G01*
X74630000Y-119000000D02*
G75*
G02*
X79870000Y-119000000I2620000J0D01*
G01*
%TO.C,D4*%
X98880000Y-108190000D02*
X98880000Y-112430000D01*
X98880000Y-112430000D02*
X101120000Y-112430000D01*
X100000000Y-107540000D02*
X100000000Y-108190000D01*
X100000000Y-113080000D02*
X100000000Y-112430000D01*
X101120000Y-108190000D02*
X98880000Y-108190000D01*
X101120000Y-108790000D02*
X98880000Y-108790000D01*
X101120000Y-108910000D02*
X98880000Y-108910000D01*
X101120000Y-109030000D02*
X98880000Y-109030000D01*
X101120000Y-112430000D02*
X101120000Y-108190000D01*
%TO.C,C9*%
X90280000Y-134130000D02*
X90280000Y-137370000D01*
X90280000Y-134130000D02*
X97720000Y-134130000D01*
X90280000Y-137370000D02*
X97720000Y-137370000D01*
X97720000Y-134130000D02*
X97720000Y-137370000D01*
%TO.C,C4*%
X68780000Y-122380000D02*
X68780000Y-127120000D01*
X68780000Y-122380000D02*
X76220000Y-122380000D01*
X68780000Y-127120000D02*
X76220000Y-127120000D01*
X76220000Y-122380000D02*
X76220000Y-127120000D01*
%TO.C,C7*%
X85945225Y-111525000D02*
X86445225Y-111525000D01*
X86195225Y-111275000D02*
X86195225Y-111775000D01*
X88750000Y-110420000D02*
X88750000Y-115580000D01*
X88790000Y-110420000D02*
X88790000Y-115580000D01*
X88830000Y-110421000D02*
X88830000Y-115579000D01*
X88870000Y-110422000D02*
X88870000Y-115578000D01*
X88910000Y-110424000D02*
X88910000Y-115576000D01*
X88950000Y-110427000D02*
X88950000Y-115573000D01*
X88990000Y-110431000D02*
X88990000Y-111960000D01*
X88990000Y-114040000D02*
X88990000Y-115569000D01*
X89030000Y-110435000D02*
X89030000Y-111960000D01*
X89030000Y-114040000D02*
X89030000Y-115565000D01*
X89070000Y-110439000D02*
X89070000Y-111960000D01*
X89070000Y-114040000D02*
X89070000Y-115561000D01*
X89110000Y-110444000D02*
X89110000Y-111960000D01*
X89110000Y-114040000D02*
X89110000Y-115556000D01*
X89150000Y-110450000D02*
X89150000Y-111960000D01*
X89150000Y-114040000D02*
X89150000Y-115550000D01*
X89190000Y-110457000D02*
X89190000Y-111960000D01*
X89190000Y-114040000D02*
X89190000Y-115543000D01*
X89230000Y-110464000D02*
X89230000Y-111960000D01*
X89230000Y-114040000D02*
X89230000Y-115536000D01*
X89270000Y-110472000D02*
X89270000Y-111960000D01*
X89270000Y-114040000D02*
X89270000Y-115528000D01*
X89310000Y-110480000D02*
X89310000Y-111960000D01*
X89310000Y-114040000D02*
X89310000Y-115520000D01*
X89350000Y-110489000D02*
X89350000Y-111960000D01*
X89350000Y-114040000D02*
X89350000Y-115511000D01*
X89390000Y-110499000D02*
X89390000Y-111960000D01*
X89390000Y-114040000D02*
X89390000Y-115501000D01*
X89430000Y-110509000D02*
X89430000Y-111960000D01*
X89430000Y-114040000D02*
X89430000Y-115491000D01*
X89471000Y-110520000D02*
X89471000Y-111960000D01*
X89471000Y-114040000D02*
X89471000Y-115480000D01*
X89511000Y-110532000D02*
X89511000Y-111960000D01*
X89511000Y-114040000D02*
X89511000Y-115468000D01*
X89551000Y-110545000D02*
X89551000Y-111960000D01*
X89551000Y-114040000D02*
X89551000Y-115455000D01*
X89591000Y-110558000D02*
X89591000Y-111960000D01*
X89591000Y-114040000D02*
X89591000Y-115442000D01*
X89631000Y-110572000D02*
X89631000Y-111960000D01*
X89631000Y-114040000D02*
X89631000Y-115428000D01*
X89671000Y-110586000D02*
X89671000Y-111960000D01*
X89671000Y-114040000D02*
X89671000Y-115414000D01*
X89711000Y-110602000D02*
X89711000Y-111960000D01*
X89711000Y-114040000D02*
X89711000Y-115398000D01*
X89751000Y-110618000D02*
X89751000Y-111960000D01*
X89751000Y-114040000D02*
X89751000Y-115382000D01*
X89791000Y-110635000D02*
X89791000Y-111960000D01*
X89791000Y-114040000D02*
X89791000Y-115365000D01*
X89831000Y-110652000D02*
X89831000Y-111960000D01*
X89831000Y-114040000D02*
X89831000Y-115348000D01*
X89871000Y-110671000D02*
X89871000Y-111960000D01*
X89871000Y-114040000D02*
X89871000Y-115329000D01*
X89911000Y-110690000D02*
X89911000Y-111960000D01*
X89911000Y-114040000D02*
X89911000Y-115310000D01*
X89951000Y-110710000D02*
X89951000Y-111960000D01*
X89951000Y-114040000D02*
X89951000Y-115290000D01*
X89991000Y-110732000D02*
X89991000Y-111960000D01*
X89991000Y-114040000D02*
X89991000Y-115268000D01*
X90031000Y-110753000D02*
X90031000Y-111960000D01*
X90031000Y-114040000D02*
X90031000Y-115247000D01*
X90071000Y-110776000D02*
X90071000Y-111960000D01*
X90071000Y-114040000D02*
X90071000Y-115224000D01*
X90111000Y-110800000D02*
X90111000Y-111960000D01*
X90111000Y-114040000D02*
X90111000Y-115200000D01*
X90151000Y-110825000D02*
X90151000Y-111960000D01*
X90151000Y-114040000D02*
X90151000Y-115175000D01*
X90191000Y-110851000D02*
X90191000Y-111960000D01*
X90191000Y-114040000D02*
X90191000Y-115149000D01*
X90231000Y-110878000D02*
X90231000Y-111960000D01*
X90231000Y-114040000D02*
X90231000Y-115122000D01*
X90271000Y-110905000D02*
X90271000Y-111960000D01*
X90271000Y-114040000D02*
X90271000Y-115095000D01*
X90311000Y-110935000D02*
X90311000Y-111960000D01*
X90311000Y-114040000D02*
X90311000Y-115065000D01*
X90351000Y-110965000D02*
X90351000Y-111960000D01*
X90351000Y-114040000D02*
X90351000Y-115035000D01*
X90391000Y-110996000D02*
X90391000Y-111960000D01*
X90391000Y-114040000D02*
X90391000Y-115004000D01*
X90431000Y-111029000D02*
X90431000Y-111960000D01*
X90431000Y-114040000D02*
X90431000Y-114971000D01*
X90471000Y-111063000D02*
X90471000Y-111960000D01*
X90471000Y-114040000D02*
X90471000Y-114937000D01*
X90511000Y-111099000D02*
X90511000Y-111960000D01*
X90511000Y-114040000D02*
X90511000Y-114901000D01*
X90551000Y-111136000D02*
X90551000Y-111960000D01*
X90551000Y-114040000D02*
X90551000Y-114864000D01*
X90591000Y-111174000D02*
X90591000Y-111960000D01*
X90591000Y-114040000D02*
X90591000Y-114826000D01*
X90631000Y-111215000D02*
X90631000Y-111960000D01*
X90631000Y-114040000D02*
X90631000Y-114785000D01*
X90671000Y-111257000D02*
X90671000Y-111960000D01*
X90671000Y-114040000D02*
X90671000Y-114743000D01*
X90711000Y-111301000D02*
X90711000Y-111960000D01*
X90711000Y-114040000D02*
X90711000Y-114699000D01*
X90751000Y-111347000D02*
X90751000Y-111960000D01*
X90751000Y-114040000D02*
X90751000Y-114653000D01*
X90791000Y-111395000D02*
X90791000Y-111960000D01*
X90791000Y-114040000D02*
X90791000Y-114605000D01*
X90831000Y-111446000D02*
X90831000Y-111960000D01*
X90831000Y-114040000D02*
X90831000Y-114554000D01*
X90871000Y-111500000D02*
X90871000Y-111960000D01*
X90871000Y-114040000D02*
X90871000Y-114500000D01*
X90911000Y-111557000D02*
X90911000Y-111960000D01*
X90911000Y-114040000D02*
X90911000Y-114443000D01*
X90951000Y-111617000D02*
X90951000Y-111960000D01*
X90951000Y-114040000D02*
X90951000Y-114383000D01*
X90991000Y-111681000D02*
X90991000Y-111960000D01*
X90991000Y-114040000D02*
X90991000Y-114319000D01*
X91031000Y-111749000D02*
X91031000Y-111960000D01*
X91031000Y-114040000D02*
X91031000Y-114251000D01*
X91071000Y-111822000D02*
X91071000Y-114178000D01*
X91111000Y-111902000D02*
X91111000Y-114098000D01*
X91151000Y-111989000D02*
X91151000Y-114011000D01*
X91191000Y-112085000D02*
X91191000Y-113915000D01*
X91231000Y-112195000D02*
X91231000Y-113805000D01*
X91271000Y-112323000D02*
X91271000Y-113677000D01*
X91311000Y-112482000D02*
X91311000Y-113518000D01*
X91351000Y-112716000D02*
X91351000Y-113284000D01*
X91370000Y-113000000D02*
G75*
G02*
X86130000Y-113000000I-2620000J0D01*
G01*
X86130000Y-113000000D02*
G75*
G02*
X91370000Y-113000000I2620000J0D01*
G01*
%TO.C,D5*%
X101880000Y-108070000D02*
X101880000Y-112310000D01*
X101880000Y-111470000D02*
X104120000Y-111470000D01*
X101880000Y-111590000D02*
X104120000Y-111590000D01*
X101880000Y-111710000D02*
X104120000Y-111710000D01*
X101880000Y-112310000D02*
X104120000Y-112310000D01*
X103000000Y-107420000D02*
X103000000Y-108070000D01*
X103000000Y-112960000D02*
X103000000Y-112310000D01*
X104120000Y-108070000D02*
X101880000Y-108070000D01*
X104120000Y-112310000D02*
X104120000Y-108070000D01*
%TO.C,D10*%
X67880000Y-108190000D02*
X67880000Y-112430000D01*
X67880000Y-112430000D02*
X70120000Y-112430000D01*
X69000000Y-107540000D02*
X69000000Y-108190000D01*
X69000000Y-113080000D02*
X69000000Y-112430000D01*
X70120000Y-108190000D02*
X67880000Y-108190000D01*
X70120000Y-108790000D02*
X67880000Y-108790000D01*
X70120000Y-108910000D02*
X67880000Y-108910000D01*
X70120000Y-109030000D02*
X67880000Y-109030000D01*
X70120000Y-112430000D02*
X70120000Y-108190000D01*
%TO.C,D3*%
X95880000Y-108070000D02*
X95880000Y-112310000D01*
X95880000Y-111470000D02*
X98120000Y-111470000D01*
X95880000Y-111590000D02*
X98120000Y-111590000D01*
X95880000Y-111710000D02*
X98120000Y-111710000D01*
X95880000Y-112310000D02*
X98120000Y-112310000D01*
X97000000Y-107420000D02*
X97000000Y-108070000D01*
X97000000Y-112960000D02*
X97000000Y-112310000D01*
X98120000Y-108070000D02*
X95880000Y-108070000D01*
X98120000Y-112310000D02*
X98120000Y-108070000D01*
%TO.C,D8*%
X61880000Y-108190000D02*
X61880000Y-112430000D01*
X61880000Y-112430000D02*
X64120000Y-112430000D01*
X63000000Y-107540000D02*
X63000000Y-108190000D01*
X63000000Y-113080000D02*
X63000000Y-112430000D01*
X64120000Y-108190000D02*
X61880000Y-108190000D01*
X64120000Y-108790000D02*
X61880000Y-108790000D01*
X64120000Y-108910000D02*
X61880000Y-108910000D01*
X64120000Y-109030000D02*
X61880000Y-109030000D01*
X64120000Y-112430000D02*
X64120000Y-108190000D01*
%TO.C,R3*%
X58480000Y-125130000D02*
X65020000Y-125130000D01*
X58480000Y-125460000D02*
X58480000Y-125130000D01*
X58480000Y-127540000D02*
X58480000Y-127870000D01*
X58480000Y-127870000D02*
X65020000Y-127870000D01*
X65020000Y-125130000D02*
X65020000Y-125460000D01*
X65020000Y-127870000D02*
X65020000Y-127540000D01*
D10*
%TO.C,P6*%
X107600000Y-137800000D02*
X107600000Y-140200000D01*
X107600000Y-140200000D02*
X110000000Y-140200000D01*
X110000000Y-137800000D02*
X107600000Y-137800000D01*
X110000000Y-137800000D02*
X110000000Y-140200000D01*
D13*
%TO.C,C12*%
X90420000Y-88415112D02*
X95580000Y-88415112D01*
X90420000Y-88455112D02*
X95580000Y-88455112D01*
X90421000Y-88375112D02*
X95579000Y-88375112D01*
X90422000Y-88335112D02*
X95578000Y-88335112D01*
X90424000Y-88295112D02*
X95576000Y-88295112D01*
X90427000Y-88255112D02*
X95573000Y-88255112D01*
X90431000Y-88215112D02*
X91960000Y-88215112D01*
X90435000Y-88175112D02*
X91960000Y-88175112D01*
X90439000Y-88135112D02*
X91960000Y-88135112D01*
X90444000Y-88095112D02*
X91960000Y-88095112D01*
X90450000Y-88055112D02*
X91960000Y-88055112D01*
X90457000Y-88015112D02*
X91960000Y-88015112D01*
X90464000Y-87975112D02*
X91960000Y-87975112D01*
X90472000Y-87935112D02*
X91960000Y-87935112D01*
X90480000Y-87895112D02*
X91960000Y-87895112D01*
X90489000Y-87855112D02*
X91960000Y-87855112D01*
X90499000Y-87815112D02*
X91960000Y-87815112D01*
X90509000Y-87775112D02*
X91960000Y-87775112D01*
X90520000Y-87734112D02*
X91960000Y-87734112D01*
X90532000Y-87694112D02*
X91960000Y-87694112D01*
X90545000Y-87654112D02*
X91960000Y-87654112D01*
X90558000Y-87614112D02*
X91960000Y-87614112D01*
X90572000Y-87574112D02*
X91960000Y-87574112D01*
X90586000Y-87534112D02*
X91960000Y-87534112D01*
X90602000Y-87494112D02*
X91960000Y-87494112D01*
X90618000Y-87454112D02*
X91960000Y-87454112D01*
X90635000Y-87414112D02*
X91960000Y-87414112D01*
X90652000Y-87374112D02*
X91960000Y-87374112D01*
X90671000Y-87334112D02*
X91960000Y-87334112D01*
X90690000Y-87294112D02*
X91960000Y-87294112D01*
X90710000Y-87254112D02*
X91960000Y-87254112D01*
X90732000Y-87214112D02*
X91960000Y-87214112D01*
X90753000Y-87174112D02*
X91960000Y-87174112D01*
X90776000Y-87134112D02*
X91960000Y-87134112D01*
X90800000Y-87094112D02*
X91960000Y-87094112D01*
X90825000Y-87054112D02*
X91960000Y-87054112D01*
X90851000Y-87014112D02*
X91960000Y-87014112D01*
X90878000Y-86974112D02*
X91960000Y-86974112D01*
X90905000Y-86934112D02*
X91960000Y-86934112D01*
X90935000Y-86894112D02*
X91960000Y-86894112D01*
X90965000Y-86854112D02*
X91960000Y-86854112D01*
X90996000Y-86814112D02*
X91960000Y-86814112D01*
X91029000Y-86774112D02*
X91960000Y-86774112D01*
X91063000Y-86734112D02*
X91960000Y-86734112D01*
X91099000Y-86694112D02*
X91960000Y-86694112D01*
X91136000Y-86654112D02*
X91960000Y-86654112D01*
X91174000Y-86614112D02*
X91960000Y-86614112D01*
X91215000Y-86574112D02*
X91960000Y-86574112D01*
X91257000Y-86534112D02*
X91960000Y-86534112D01*
X91275000Y-91009887D02*
X91775000Y-91009887D01*
X91301000Y-86494112D02*
X91960000Y-86494112D01*
X91347000Y-86454112D02*
X91960000Y-86454112D01*
X91395000Y-86414112D02*
X91960000Y-86414112D01*
X91446000Y-86374112D02*
X91960000Y-86374112D01*
X91500000Y-86334112D02*
X91960000Y-86334112D01*
X91525000Y-91259887D02*
X91525000Y-90759887D01*
X91557000Y-86294112D02*
X91960000Y-86294112D01*
X91617000Y-86254112D02*
X91960000Y-86254112D01*
X91681000Y-86214112D02*
X91960000Y-86214112D01*
X91749000Y-86174112D02*
X91960000Y-86174112D01*
X91822000Y-86134112D02*
X94178000Y-86134112D01*
X91902000Y-86094112D02*
X94098000Y-86094112D01*
X91989000Y-86054112D02*
X94011000Y-86054112D01*
X92085000Y-86014112D02*
X93915000Y-86014112D01*
X92195000Y-85974112D02*
X93805000Y-85974112D01*
X92323000Y-85934112D02*
X93677000Y-85934112D01*
X92482000Y-85894112D02*
X93518000Y-85894112D01*
X92716000Y-85854112D02*
X93284000Y-85854112D01*
X94040000Y-86174112D02*
X94251000Y-86174112D01*
X94040000Y-86214112D02*
X94319000Y-86214112D01*
X94040000Y-86254112D02*
X94383000Y-86254112D01*
X94040000Y-86294112D02*
X94443000Y-86294112D01*
X94040000Y-86334112D02*
X94500000Y-86334112D01*
X94040000Y-86374112D02*
X94554000Y-86374112D01*
X94040000Y-86414112D02*
X94605000Y-86414112D01*
X94040000Y-86454112D02*
X94653000Y-86454112D01*
X94040000Y-86494112D02*
X94699000Y-86494112D01*
X94040000Y-86534112D02*
X94743000Y-86534112D01*
X94040000Y-86574112D02*
X94785000Y-86574112D01*
X94040000Y-86614112D02*
X94826000Y-86614112D01*
X94040000Y-86654112D02*
X94864000Y-86654112D01*
X94040000Y-86694112D02*
X94901000Y-86694112D01*
X94040000Y-86734112D02*
X94937000Y-86734112D01*
X94040000Y-86774112D02*
X94971000Y-86774112D01*
X94040000Y-86814112D02*
X95004000Y-86814112D01*
X94040000Y-86854112D02*
X95035000Y-86854112D01*
X94040000Y-86894112D02*
X95065000Y-86894112D01*
X94040000Y-86934112D02*
X95095000Y-86934112D01*
X94040000Y-86974112D02*
X95122000Y-86974112D01*
X94040000Y-87014112D02*
X95149000Y-87014112D01*
X94040000Y-87054112D02*
X95175000Y-87054112D01*
X94040000Y-87094112D02*
X95200000Y-87094112D01*
X94040000Y-87134112D02*
X95224000Y-87134112D01*
X94040000Y-87174112D02*
X95247000Y-87174112D01*
X94040000Y-87214112D02*
X95268000Y-87214112D01*
X94040000Y-87254112D02*
X95290000Y-87254112D01*
X94040000Y-87294112D02*
X95310000Y-87294112D01*
X94040000Y-87334112D02*
X95329000Y-87334112D01*
X94040000Y-87374112D02*
X95348000Y-87374112D01*
X94040000Y-87414112D02*
X95365000Y-87414112D01*
X94040000Y-87454112D02*
X95382000Y-87454112D01*
X94040000Y-87494112D02*
X95398000Y-87494112D01*
X94040000Y-87534112D02*
X95414000Y-87534112D01*
X94040000Y-87574112D02*
X95428000Y-87574112D01*
X94040000Y-87614112D02*
X95442000Y-87614112D01*
X94040000Y-87654112D02*
X95455000Y-87654112D01*
X94040000Y-87694112D02*
X95468000Y-87694112D01*
X94040000Y-87734112D02*
X95480000Y-87734112D01*
X94040000Y-87775112D02*
X95491000Y-87775112D01*
X94040000Y-87815112D02*
X95501000Y-87815112D01*
X94040000Y-87855112D02*
X95511000Y-87855112D01*
X94040000Y-87895112D02*
X95520000Y-87895112D01*
X94040000Y-87935112D02*
X95528000Y-87935112D01*
X94040000Y-87975112D02*
X95536000Y-87975112D01*
X94040000Y-88015112D02*
X95543000Y-88015112D01*
X94040000Y-88055112D02*
X95550000Y-88055112D01*
X94040000Y-88095112D02*
X95556000Y-88095112D01*
X94040000Y-88135112D02*
X95561000Y-88135112D01*
X94040000Y-88175112D02*
X95565000Y-88175112D01*
X94040000Y-88215112D02*
X95569000Y-88215112D01*
X95620000Y-88455112D02*
G75*
G02*
X90380000Y-88455112I-2620000J0D01*
G01*
X90380000Y-88455112D02*
G75*
G02*
X95620000Y-88455112I2620000J0D01*
G01*
%TO.C,R16*%
X92630000Y-106980000D02*
X92960000Y-106980000D01*
X92630000Y-113520000D02*
X92630000Y-106980000D01*
X92960000Y-113520000D02*
X92630000Y-113520000D01*
X95040000Y-113520000D02*
X95370000Y-113520000D01*
X95370000Y-106980000D02*
X95040000Y-106980000D01*
X95370000Y-113520000D02*
X95370000Y-106980000D01*
%TO.C,R9*%
X100980000Y-125130000D02*
X107520000Y-125130000D01*
X100980000Y-125460000D02*
X100980000Y-125130000D01*
X100980000Y-127540000D02*
X100980000Y-127870000D01*
X100980000Y-127870000D02*
X107520000Y-127870000D01*
X107520000Y-125130000D02*
X107520000Y-125460000D01*
X107520000Y-127870000D02*
X107520000Y-127540000D01*
%TO.C,D7*%
X58880000Y-108070000D02*
X58880000Y-112310000D01*
X58880000Y-111470000D02*
X61120000Y-111470000D01*
X58880000Y-111590000D02*
X61120000Y-111590000D01*
X58880000Y-111710000D02*
X61120000Y-111710000D01*
X58880000Y-112310000D02*
X61120000Y-112310000D01*
X60000000Y-107420000D02*
X60000000Y-108070000D01*
X60000000Y-112960000D02*
X60000000Y-112310000D01*
X61120000Y-108070000D02*
X58880000Y-108070000D01*
X61120000Y-112310000D02*
X61120000Y-108070000D01*
D10*
%TO.C,P5*%
X104100000Y-137800000D02*
X104100000Y-140200000D01*
X104100000Y-140200000D02*
X106500000Y-140200000D01*
X106500000Y-137800000D02*
X104100000Y-137800000D01*
X106500000Y-137800000D02*
X106500000Y-140200000D01*
D13*
%TO.C,C10*%
X85945225Y-117525000D02*
X86445225Y-117525000D01*
X86195225Y-117275000D02*
X86195225Y-117775000D01*
X88750000Y-116420000D02*
X88750000Y-121580000D01*
X88790000Y-116420000D02*
X88790000Y-121580000D01*
X88830000Y-116421000D02*
X88830000Y-121579000D01*
X88870000Y-116422000D02*
X88870000Y-121578000D01*
X88910000Y-116424000D02*
X88910000Y-121576000D01*
X88950000Y-116427000D02*
X88950000Y-121573000D01*
X88990000Y-116431000D02*
X88990000Y-117960000D01*
X88990000Y-120040000D02*
X88990000Y-121569000D01*
X89030000Y-116435000D02*
X89030000Y-117960000D01*
X89030000Y-120040000D02*
X89030000Y-121565000D01*
X89070000Y-116439000D02*
X89070000Y-117960000D01*
X89070000Y-120040000D02*
X89070000Y-121561000D01*
X89110000Y-116444000D02*
X89110000Y-117960000D01*
X89110000Y-120040000D02*
X89110000Y-121556000D01*
X89150000Y-116450000D02*
X89150000Y-117960000D01*
X89150000Y-120040000D02*
X89150000Y-121550000D01*
X89190000Y-116457000D02*
X89190000Y-117960000D01*
X89190000Y-120040000D02*
X89190000Y-121543000D01*
X89230000Y-116464000D02*
X89230000Y-117960000D01*
X89230000Y-120040000D02*
X89230000Y-121536000D01*
X89270000Y-116472000D02*
X89270000Y-117960000D01*
X89270000Y-120040000D02*
X89270000Y-121528000D01*
X89310000Y-116480000D02*
X89310000Y-117960000D01*
X89310000Y-120040000D02*
X89310000Y-121520000D01*
X89350000Y-116489000D02*
X89350000Y-117960000D01*
X89350000Y-120040000D02*
X89350000Y-121511000D01*
X89390000Y-116499000D02*
X89390000Y-117960000D01*
X89390000Y-120040000D02*
X89390000Y-121501000D01*
X89430000Y-116509000D02*
X89430000Y-117960000D01*
X89430000Y-120040000D02*
X89430000Y-121491000D01*
X89471000Y-116520000D02*
X89471000Y-117960000D01*
X89471000Y-120040000D02*
X89471000Y-121480000D01*
X89511000Y-116532000D02*
X89511000Y-117960000D01*
X89511000Y-120040000D02*
X89511000Y-121468000D01*
X89551000Y-116545000D02*
X89551000Y-117960000D01*
X89551000Y-120040000D02*
X89551000Y-121455000D01*
X89591000Y-116558000D02*
X89591000Y-117960000D01*
X89591000Y-120040000D02*
X89591000Y-121442000D01*
X89631000Y-116572000D02*
X89631000Y-117960000D01*
X89631000Y-120040000D02*
X89631000Y-121428000D01*
X89671000Y-116586000D02*
X89671000Y-117960000D01*
X89671000Y-120040000D02*
X89671000Y-121414000D01*
X89711000Y-116602000D02*
X89711000Y-117960000D01*
X89711000Y-120040000D02*
X89711000Y-121398000D01*
X89751000Y-116618000D02*
X89751000Y-117960000D01*
X89751000Y-120040000D02*
X89751000Y-121382000D01*
X89791000Y-116635000D02*
X89791000Y-117960000D01*
X89791000Y-120040000D02*
X89791000Y-121365000D01*
X89831000Y-116652000D02*
X89831000Y-117960000D01*
X89831000Y-120040000D02*
X89831000Y-121348000D01*
X89871000Y-116671000D02*
X89871000Y-117960000D01*
X89871000Y-120040000D02*
X89871000Y-121329000D01*
X89911000Y-116690000D02*
X89911000Y-117960000D01*
X89911000Y-120040000D02*
X89911000Y-121310000D01*
X89951000Y-116710000D02*
X89951000Y-117960000D01*
X89951000Y-120040000D02*
X89951000Y-121290000D01*
X89991000Y-116732000D02*
X89991000Y-117960000D01*
X89991000Y-120040000D02*
X89991000Y-121268000D01*
X90031000Y-116753000D02*
X90031000Y-117960000D01*
X90031000Y-120040000D02*
X90031000Y-121247000D01*
X90071000Y-116776000D02*
X90071000Y-117960000D01*
X90071000Y-120040000D02*
X90071000Y-121224000D01*
X90111000Y-116800000D02*
X90111000Y-117960000D01*
X90111000Y-120040000D02*
X90111000Y-121200000D01*
X90151000Y-116825000D02*
X90151000Y-117960000D01*
X90151000Y-120040000D02*
X90151000Y-121175000D01*
X90191000Y-116851000D02*
X90191000Y-117960000D01*
X90191000Y-120040000D02*
X90191000Y-121149000D01*
X90231000Y-116878000D02*
X90231000Y-117960000D01*
X90231000Y-120040000D02*
X90231000Y-121122000D01*
X90271000Y-116905000D02*
X90271000Y-117960000D01*
X90271000Y-120040000D02*
X90271000Y-121095000D01*
X90311000Y-116935000D02*
X90311000Y-117960000D01*
X90311000Y-120040000D02*
X90311000Y-121065000D01*
X90351000Y-116965000D02*
X90351000Y-117960000D01*
X90351000Y-120040000D02*
X90351000Y-121035000D01*
X90391000Y-116996000D02*
X90391000Y-117960000D01*
X90391000Y-120040000D02*
X90391000Y-121004000D01*
X90431000Y-117029000D02*
X90431000Y-117960000D01*
X90431000Y-120040000D02*
X90431000Y-120971000D01*
X90471000Y-117063000D02*
X90471000Y-117960000D01*
X90471000Y-120040000D02*
X90471000Y-120937000D01*
X90511000Y-117099000D02*
X90511000Y-117960000D01*
X90511000Y-120040000D02*
X90511000Y-120901000D01*
X90551000Y-117136000D02*
X90551000Y-117960000D01*
X90551000Y-120040000D02*
X90551000Y-120864000D01*
X90591000Y-117174000D02*
X90591000Y-117960000D01*
X90591000Y-120040000D02*
X90591000Y-120826000D01*
X90631000Y-117215000D02*
X90631000Y-117960000D01*
X90631000Y-120040000D02*
X90631000Y-120785000D01*
X90671000Y-117257000D02*
X90671000Y-117960000D01*
X90671000Y-120040000D02*
X90671000Y-120743000D01*
X90711000Y-117301000D02*
X90711000Y-117960000D01*
X90711000Y-120040000D02*
X90711000Y-120699000D01*
X90751000Y-117347000D02*
X90751000Y-117960000D01*
X90751000Y-120040000D02*
X90751000Y-120653000D01*
X90791000Y-117395000D02*
X90791000Y-117960000D01*
X90791000Y-120040000D02*
X90791000Y-120605000D01*
X90831000Y-117446000D02*
X90831000Y-117960000D01*
X90831000Y-120040000D02*
X90831000Y-120554000D01*
X90871000Y-117500000D02*
X90871000Y-117960000D01*
X90871000Y-120040000D02*
X90871000Y-120500000D01*
X90911000Y-117557000D02*
X90911000Y-117960000D01*
X90911000Y-120040000D02*
X90911000Y-120443000D01*
X90951000Y-117617000D02*
X90951000Y-117960000D01*
X90951000Y-120040000D02*
X90951000Y-120383000D01*
X90991000Y-117681000D02*
X90991000Y-117960000D01*
X90991000Y-120040000D02*
X90991000Y-120319000D01*
X91031000Y-117749000D02*
X91031000Y-117960000D01*
X91031000Y-120040000D02*
X91031000Y-120251000D01*
X91071000Y-117822000D02*
X91071000Y-120178000D01*
X91111000Y-117902000D02*
X91111000Y-120098000D01*
X91151000Y-117989000D02*
X91151000Y-120011000D01*
X91191000Y-118085000D02*
X91191000Y-119915000D01*
X91231000Y-118195000D02*
X91231000Y-119805000D01*
X91271000Y-118323000D02*
X91271000Y-119677000D01*
X91311000Y-118482000D02*
X91311000Y-119518000D01*
X91351000Y-118716000D02*
X91351000Y-119284000D01*
X91370000Y-119000000D02*
G75*
G02*
X86130000Y-119000000I-2620000J0D01*
G01*
X86130000Y-119000000D02*
G75*
G02*
X91370000Y-119000000I2620000J0D01*
G01*
%TO.C,R18*%
X77630000Y-92980000D02*
X77630000Y-99520000D01*
X77630000Y-99520000D02*
X77960000Y-99520000D01*
X77960000Y-92980000D02*
X77630000Y-92980000D01*
X80040000Y-92980000D02*
X80370000Y-92980000D01*
X80370000Y-92980000D02*
X80370000Y-99520000D01*
X80370000Y-99520000D02*
X80040000Y-99520000D01*
%TO.C,R4*%
X58480000Y-118130000D02*
X58480000Y-118460000D01*
X58480000Y-120870000D02*
X58480000Y-120540000D01*
X65020000Y-118130000D02*
X58480000Y-118130000D01*
X65020000Y-118460000D02*
X65020000Y-118130000D01*
X65020000Y-120540000D02*
X65020000Y-120870000D01*
X65020000Y-120870000D02*
X58480000Y-120870000D01*
%TO.C,R15*%
X107630000Y-106980000D02*
X107960000Y-106980000D01*
X107630000Y-113520000D02*
X107630000Y-106980000D01*
X107960000Y-113520000D02*
X107630000Y-113520000D01*
X110040000Y-113520000D02*
X110370000Y-113520000D01*
X110370000Y-106980000D02*
X110040000Y-106980000D01*
X110370000Y-113520000D02*
X110370000Y-106980000D01*
%TO.C,C5*%
X74445225Y-111525000D02*
X74945225Y-111525000D01*
X74695225Y-111275000D02*
X74695225Y-111775000D01*
X77250000Y-110420000D02*
X77250000Y-115580000D01*
X77290000Y-110420000D02*
X77290000Y-115580000D01*
X77330000Y-110421000D02*
X77330000Y-115579000D01*
X77370000Y-110422000D02*
X77370000Y-115578000D01*
X77410000Y-110424000D02*
X77410000Y-115576000D01*
X77450000Y-110427000D02*
X77450000Y-115573000D01*
X77490000Y-110431000D02*
X77490000Y-111960000D01*
X77490000Y-114040000D02*
X77490000Y-115569000D01*
X77530000Y-110435000D02*
X77530000Y-111960000D01*
X77530000Y-114040000D02*
X77530000Y-115565000D01*
X77570000Y-110439000D02*
X77570000Y-111960000D01*
X77570000Y-114040000D02*
X77570000Y-115561000D01*
X77610000Y-110444000D02*
X77610000Y-111960000D01*
X77610000Y-114040000D02*
X77610000Y-115556000D01*
X77650000Y-110450000D02*
X77650000Y-111960000D01*
X77650000Y-114040000D02*
X77650000Y-115550000D01*
X77690000Y-110457000D02*
X77690000Y-111960000D01*
X77690000Y-114040000D02*
X77690000Y-115543000D01*
X77730000Y-110464000D02*
X77730000Y-111960000D01*
X77730000Y-114040000D02*
X77730000Y-115536000D01*
X77770000Y-110472000D02*
X77770000Y-111960000D01*
X77770000Y-114040000D02*
X77770000Y-115528000D01*
X77810000Y-110480000D02*
X77810000Y-111960000D01*
X77810000Y-114040000D02*
X77810000Y-115520000D01*
X77850000Y-110489000D02*
X77850000Y-111960000D01*
X77850000Y-114040000D02*
X77850000Y-115511000D01*
X77890000Y-110499000D02*
X77890000Y-111960000D01*
X77890000Y-114040000D02*
X77890000Y-115501000D01*
X77930000Y-110509000D02*
X77930000Y-111960000D01*
X77930000Y-114040000D02*
X77930000Y-115491000D01*
X77971000Y-110520000D02*
X77971000Y-111960000D01*
X77971000Y-114040000D02*
X77971000Y-115480000D01*
X78011000Y-110532000D02*
X78011000Y-111960000D01*
X78011000Y-114040000D02*
X78011000Y-115468000D01*
X78051000Y-110545000D02*
X78051000Y-111960000D01*
X78051000Y-114040000D02*
X78051000Y-115455000D01*
X78091000Y-110558000D02*
X78091000Y-111960000D01*
X78091000Y-114040000D02*
X78091000Y-115442000D01*
X78131000Y-110572000D02*
X78131000Y-111960000D01*
X78131000Y-114040000D02*
X78131000Y-115428000D01*
X78171000Y-110586000D02*
X78171000Y-111960000D01*
X78171000Y-114040000D02*
X78171000Y-115414000D01*
X78211000Y-110602000D02*
X78211000Y-111960000D01*
X78211000Y-114040000D02*
X78211000Y-115398000D01*
X78251000Y-110618000D02*
X78251000Y-111960000D01*
X78251000Y-114040000D02*
X78251000Y-115382000D01*
X78291000Y-110635000D02*
X78291000Y-111960000D01*
X78291000Y-114040000D02*
X78291000Y-115365000D01*
X78331000Y-110652000D02*
X78331000Y-111960000D01*
X78331000Y-114040000D02*
X78331000Y-115348000D01*
X78371000Y-110671000D02*
X78371000Y-111960000D01*
X78371000Y-114040000D02*
X78371000Y-115329000D01*
X78411000Y-110690000D02*
X78411000Y-111960000D01*
X78411000Y-114040000D02*
X78411000Y-115310000D01*
X78451000Y-110710000D02*
X78451000Y-111960000D01*
X78451000Y-114040000D02*
X78451000Y-115290000D01*
X78491000Y-110732000D02*
X78491000Y-111960000D01*
X78491000Y-114040000D02*
X78491000Y-115268000D01*
X78531000Y-110753000D02*
X78531000Y-111960000D01*
X78531000Y-114040000D02*
X78531000Y-115247000D01*
X78571000Y-110776000D02*
X78571000Y-111960000D01*
X78571000Y-114040000D02*
X78571000Y-115224000D01*
X78611000Y-110800000D02*
X78611000Y-111960000D01*
X78611000Y-114040000D02*
X78611000Y-115200000D01*
X78651000Y-110825000D02*
X78651000Y-111960000D01*
X78651000Y-114040000D02*
X78651000Y-115175000D01*
X78691000Y-110851000D02*
X78691000Y-111960000D01*
X78691000Y-114040000D02*
X78691000Y-115149000D01*
X78731000Y-110878000D02*
X78731000Y-111960000D01*
X78731000Y-114040000D02*
X78731000Y-115122000D01*
X78771000Y-110905000D02*
X78771000Y-111960000D01*
X78771000Y-114040000D02*
X78771000Y-115095000D01*
X78811000Y-110935000D02*
X78811000Y-111960000D01*
X78811000Y-114040000D02*
X78811000Y-115065000D01*
X78851000Y-110965000D02*
X78851000Y-111960000D01*
X78851000Y-114040000D02*
X78851000Y-115035000D01*
X78891000Y-110996000D02*
X78891000Y-111960000D01*
X78891000Y-114040000D02*
X78891000Y-115004000D01*
X78931000Y-111029000D02*
X78931000Y-111960000D01*
X78931000Y-114040000D02*
X78931000Y-114971000D01*
X78971000Y-111063000D02*
X78971000Y-111960000D01*
X78971000Y-114040000D02*
X78971000Y-114937000D01*
X79011000Y-111099000D02*
X79011000Y-111960000D01*
X79011000Y-114040000D02*
X79011000Y-114901000D01*
X79051000Y-111136000D02*
X79051000Y-111960000D01*
X79051000Y-114040000D02*
X79051000Y-114864000D01*
X79091000Y-111174000D02*
X79091000Y-111960000D01*
X79091000Y-114040000D02*
X79091000Y-114826000D01*
X79131000Y-111215000D02*
X79131000Y-111960000D01*
X79131000Y-114040000D02*
X79131000Y-114785000D01*
X79171000Y-111257000D02*
X79171000Y-111960000D01*
X79171000Y-114040000D02*
X79171000Y-114743000D01*
X79211000Y-111301000D02*
X79211000Y-111960000D01*
X79211000Y-114040000D02*
X79211000Y-114699000D01*
X79251000Y-111347000D02*
X79251000Y-111960000D01*
X79251000Y-114040000D02*
X79251000Y-114653000D01*
X79291000Y-111395000D02*
X79291000Y-111960000D01*
X79291000Y-114040000D02*
X79291000Y-114605000D01*
X79331000Y-111446000D02*
X79331000Y-111960000D01*
X79331000Y-114040000D02*
X79331000Y-114554000D01*
X79371000Y-111500000D02*
X79371000Y-111960000D01*
X79371000Y-114040000D02*
X79371000Y-114500000D01*
X79411000Y-111557000D02*
X79411000Y-111960000D01*
X79411000Y-114040000D02*
X79411000Y-114443000D01*
X79451000Y-111617000D02*
X79451000Y-111960000D01*
X79451000Y-114040000D02*
X79451000Y-114383000D01*
X79491000Y-111681000D02*
X79491000Y-111960000D01*
X79491000Y-114040000D02*
X79491000Y-114319000D01*
X79531000Y-111749000D02*
X79531000Y-111960000D01*
X79531000Y-114040000D02*
X79531000Y-114251000D01*
X79571000Y-111822000D02*
X79571000Y-114178000D01*
X79611000Y-111902000D02*
X79611000Y-114098000D01*
X79651000Y-111989000D02*
X79651000Y-114011000D01*
X79691000Y-112085000D02*
X79691000Y-113915000D01*
X79731000Y-112195000D02*
X79731000Y-113805000D01*
X79771000Y-112323000D02*
X79771000Y-113677000D01*
X79811000Y-112482000D02*
X79811000Y-113518000D01*
X79851000Y-112716000D02*
X79851000Y-113284000D01*
X79870000Y-113000000D02*
G75*
G02*
X74630000Y-113000000I-2620000J0D01*
G01*
X74630000Y-113000000D02*
G75*
G02*
X79870000Y-113000000I2620000J0D01*
G01*
%TO.C,R12*%
X85630000Y-92980000D02*
X85960000Y-92980000D01*
X85630000Y-99520000D02*
X85630000Y-92980000D01*
X85960000Y-99520000D02*
X85630000Y-99520000D01*
X88040000Y-99520000D02*
X88370000Y-99520000D01*
X88370000Y-92980000D02*
X88040000Y-92980000D01*
X88370000Y-99520000D02*
X88370000Y-92980000D01*
%TO.C,R17*%
X100980000Y-121630000D02*
X107520000Y-121630000D01*
X100980000Y-121960000D02*
X100980000Y-121630000D01*
X100980000Y-124040000D02*
X100980000Y-124370000D01*
X100980000Y-124370000D02*
X107520000Y-124370000D01*
X107520000Y-121630000D02*
X107520000Y-121960000D01*
X107520000Y-124370000D02*
X107520000Y-124040000D01*
%TO.C,R13*%
X70630000Y-106980000D02*
X70960000Y-106980000D01*
X70630000Y-113520000D02*
X70630000Y-106980000D01*
X70960000Y-113520000D02*
X70630000Y-113520000D01*
X73040000Y-113520000D02*
X73370000Y-113520000D01*
X73370000Y-106980000D02*
X73040000Y-106980000D01*
X73370000Y-113520000D02*
X73370000Y-106980000D01*
%TO.C,C2*%
X68780000Y-128380000D02*
X68780000Y-133120000D01*
X68780000Y-128380000D02*
X76220000Y-128380000D01*
X68780000Y-133120000D02*
X76220000Y-133120000D01*
X76220000Y-128380000D02*
X76220000Y-133120000D01*
%TO.C,R1*%
X58480000Y-132130000D02*
X65020000Y-132130000D01*
X58480000Y-132460000D02*
X58480000Y-132130000D01*
X58480000Y-134540000D02*
X58480000Y-134870000D01*
X58480000Y-134870000D02*
X65020000Y-134870000D01*
X65020000Y-132130000D02*
X65020000Y-132460000D01*
X65020000Y-134870000D02*
X65020000Y-134540000D01*
D10*
%TO.C,P2*%
X83800000Y-137800000D02*
X83800000Y-140200000D01*
X83800000Y-140200000D02*
X86200000Y-140200000D01*
X86200000Y-137800000D02*
X83800000Y-137800000D01*
X86200000Y-137800000D02*
X86200000Y-140200000D01*
D13*
%TO.C,C3*%
X80630000Y-112780000D02*
X80630000Y-120220000D01*
X85370000Y-112780000D02*
X80630000Y-112780000D01*
X85370000Y-112780000D02*
X85370000Y-120220000D01*
X85370000Y-120220000D02*
X80630000Y-120220000D01*
%TO.C,R8*%
X100980000Y-128630000D02*
X107520000Y-128630000D01*
X100980000Y-128960000D02*
X100980000Y-128630000D01*
X100980000Y-131040000D02*
X100980000Y-131370000D01*
X100980000Y-131370000D02*
X107520000Y-131370000D01*
X107520000Y-128630000D02*
X107520000Y-128960000D01*
X107520000Y-131370000D02*
X107520000Y-131040000D01*
%TO.C,C8*%
X90280000Y-128380000D02*
X90280000Y-133120000D01*
X90280000Y-128380000D02*
X97720000Y-128380000D01*
X90280000Y-133120000D02*
X97720000Y-133120000D01*
X97720000Y-128380000D02*
X97720000Y-133120000D01*
D10*
%TO.C,P7*%
X79800000Y-137800000D02*
X79800000Y-140200000D01*
X79800000Y-140200000D02*
X82200000Y-140200000D01*
X82200000Y-137800000D02*
X79800000Y-137800000D01*
X82200000Y-137800000D02*
X82200000Y-140200000D01*
D13*
%TO.C,U2*%
X77760000Y-124310000D02*
X77760000Y-134710000D01*
X77760000Y-134710000D02*
X88260000Y-134710000D01*
X80760000Y-124370000D02*
X80760000Y-134650000D01*
X80760000Y-134650000D02*
X85260000Y-134650000D01*
X82010000Y-124370000D02*
X80760000Y-124370000D01*
X85260000Y-124370000D02*
X84010000Y-124370000D01*
X85260000Y-134650000D02*
X85260000Y-124370000D01*
X88260000Y-124310000D02*
X77760000Y-124310000D01*
X88260000Y-134710000D02*
X88260000Y-124310000D01*
X84010000Y-124370000D02*
G75*
G02*
X82010000Y-124370000I-1000000J0D01*
G01*
%TO.C,R5*%
X58480000Y-121630000D02*
X58480000Y-121960000D01*
X58480000Y-124370000D02*
X58480000Y-124040000D01*
X65020000Y-121630000D02*
X58480000Y-121630000D01*
X65020000Y-121960000D02*
X65020000Y-121630000D01*
X65020000Y-124040000D02*
X65020000Y-124370000D01*
X65020000Y-124370000D02*
X58480000Y-124370000D01*
D10*
%TO.C,P1*%
X73300000Y-82800000D02*
X73300000Y-85200000D01*
X73300000Y-85200000D02*
X75700000Y-85200000D01*
X75700000Y-82800000D02*
X73300000Y-82800000D01*
X75700000Y-82800000D02*
X75700000Y-85200000D01*
D13*
%TO.C,D9*%
X64880000Y-108070000D02*
X64880000Y-112310000D01*
X64880000Y-111470000D02*
X67120000Y-111470000D01*
X64880000Y-111590000D02*
X67120000Y-111590000D01*
X64880000Y-111710000D02*
X67120000Y-111710000D01*
X64880000Y-112310000D02*
X67120000Y-112310000D01*
X66000000Y-107420000D02*
X66000000Y-108070000D01*
X66000000Y-112960000D02*
X66000000Y-112310000D01*
X67120000Y-108070000D02*
X64880000Y-108070000D01*
X67120000Y-112310000D02*
X67120000Y-108070000D01*
%TO.C,R6*%
X100980000Y-132130000D02*
X107520000Y-132130000D01*
X100980000Y-132460000D02*
X100980000Y-132130000D01*
X100980000Y-134540000D02*
X100980000Y-134870000D01*
X100980000Y-134870000D02*
X107520000Y-134870000D01*
X107520000Y-132130000D02*
X107520000Y-132460000D01*
X107520000Y-134870000D02*
X107520000Y-134540000D01*
D10*
%TO.C,P4*%
X56100000Y-137800000D02*
X56100000Y-140200000D01*
X56100000Y-140200000D02*
X58500000Y-140200000D01*
X58500000Y-137800000D02*
X56100000Y-137800000D01*
X58500000Y-137800000D02*
X58500000Y-140200000D01*
D13*
%TO.C,C11*%
X81960000Y-107818349D02*
X78983000Y-107818349D01*
X81960000Y-107858349D02*
X78990000Y-107858349D01*
X81960000Y-107898349D02*
X78998000Y-107898349D01*
X81960000Y-107938349D02*
X79006000Y-107938349D01*
X81960000Y-107978349D02*
X79015000Y-107978349D01*
X81960000Y-108018349D02*
X79024000Y-108018349D01*
X81960000Y-108058349D02*
X79033000Y-108058349D01*
X81960000Y-108098349D02*
X79043000Y-108098349D01*
X81960000Y-108138349D02*
X79053000Y-108138349D01*
X81960000Y-108178349D02*
X79064000Y-108178349D01*
X81960000Y-108218349D02*
X79075000Y-108218349D01*
X81960000Y-108258349D02*
X79086000Y-108258349D01*
X81960000Y-108298349D02*
X79098000Y-108298349D01*
X81960000Y-108338349D02*
X79111000Y-108338349D01*
X81960000Y-108378349D02*
X79123000Y-108378349D01*
X81960000Y-108418349D02*
X79137000Y-108418349D01*
X81960000Y-108458349D02*
X79150000Y-108458349D01*
X81960000Y-108498349D02*
X79165000Y-108498349D01*
X81960000Y-108538349D02*
X79179000Y-108538349D01*
X81960000Y-108578349D02*
X79195000Y-108578349D01*
X81960000Y-108618349D02*
X79210000Y-108618349D01*
X81960000Y-108658349D02*
X79226000Y-108658349D01*
X81960000Y-108698349D02*
X79243000Y-108698349D01*
X81960000Y-108738349D02*
X79260000Y-108738349D01*
X81960000Y-108778349D02*
X79278000Y-108778349D01*
X81960000Y-108818349D02*
X79296000Y-108818349D01*
X81960000Y-108858349D02*
X79314000Y-108858349D01*
X81960000Y-108898349D02*
X79334000Y-108898349D01*
X81960000Y-108938349D02*
X79353000Y-108938349D01*
X81960000Y-108978349D02*
X79373000Y-108978349D01*
X81960000Y-109018349D02*
X79394000Y-109018349D01*
X81960000Y-109058349D02*
X79416000Y-109058349D01*
X81960000Y-109098349D02*
X79438000Y-109098349D01*
X81960000Y-109138349D02*
X79460000Y-109138349D01*
X81960000Y-109178349D02*
X79483000Y-109178349D01*
X81960000Y-109218349D02*
X79507000Y-109218349D01*
X81960000Y-109258349D02*
X79531000Y-109258349D01*
X81960000Y-109298349D02*
X79556000Y-109298349D01*
X81960000Y-109338349D02*
X79582000Y-109338349D01*
X81960000Y-109378349D02*
X79608000Y-109378349D01*
X81960000Y-109418349D02*
X79635000Y-109418349D01*
X81960000Y-109458349D02*
X79662000Y-109458349D01*
X81960000Y-109498349D02*
X79691000Y-109498349D01*
X81960000Y-109538349D02*
X79720000Y-109538349D01*
X81960000Y-109578349D02*
X79750000Y-109578349D01*
X81960000Y-109618349D02*
X79780000Y-109618349D01*
X81960000Y-109658349D02*
X79811000Y-109658349D01*
X81960000Y-109698349D02*
X79844000Y-109698349D01*
X81960000Y-109738349D02*
X79876000Y-109738349D01*
X81960000Y-109778349D02*
X79910000Y-109778349D01*
X81960000Y-109818349D02*
X79945000Y-109818349D01*
X81960000Y-109858349D02*
X79981000Y-109858349D01*
X83533000Y-111178349D02*
X82467000Y-111178349D01*
X83768000Y-111138349D02*
X82232000Y-111138349D01*
X83948000Y-111098349D02*
X82052000Y-111098349D01*
X84098000Y-111058349D02*
X81902000Y-111058349D01*
X84229000Y-111018349D02*
X81771000Y-111018349D01*
X84346000Y-110978349D02*
X81654000Y-110978349D01*
X84453000Y-110938349D02*
X81547000Y-110938349D01*
X84552000Y-110898349D02*
X81448000Y-110898349D01*
X84645000Y-110858349D02*
X81355000Y-110858349D01*
X84731000Y-110818349D02*
X81269000Y-110818349D01*
X84813000Y-110778349D02*
X81187000Y-110778349D01*
X84890000Y-110738349D02*
X81110000Y-110738349D01*
X84964000Y-110698349D02*
X81036000Y-110698349D01*
X85034000Y-110658349D02*
X80966000Y-110658349D01*
X85102000Y-110618349D02*
X80898000Y-110618349D01*
X85166000Y-110578349D02*
X80834000Y-110578349D01*
X85228000Y-110538349D02*
X80772000Y-110538349D01*
X85287000Y-110498349D02*
X80713000Y-110498349D01*
X85315000Y-102687651D02*
X85315000Y-103487651D01*
X85345000Y-110458349D02*
X80655000Y-110458349D01*
X85400000Y-110418349D02*
X80600000Y-110418349D01*
X85454000Y-110378349D02*
X80546000Y-110378349D01*
X85505000Y-110338349D02*
X80495000Y-110338349D01*
X85556000Y-110298349D02*
X80444000Y-110298349D01*
X85604000Y-110258349D02*
X80396000Y-110258349D01*
X85651000Y-110218349D02*
X80349000Y-110218349D01*
X85697000Y-110178349D02*
X80303000Y-110178349D01*
X85715000Y-103087651D02*
X84915000Y-103087651D01*
X85741000Y-110138349D02*
X80259000Y-110138349D01*
X85784000Y-110098349D02*
X80216000Y-110098349D01*
X85826000Y-110058349D02*
X80174000Y-110058349D01*
X85867000Y-110018349D02*
X80133000Y-110018349D01*
X85907000Y-109978349D02*
X80093000Y-109978349D01*
X85945000Y-109938349D02*
X80055000Y-109938349D01*
X85983000Y-109898349D02*
X80017000Y-109898349D01*
X86019000Y-109858349D02*
X84040000Y-109858349D01*
X86055000Y-109818349D02*
X84040000Y-109818349D01*
X86090000Y-109778349D02*
X84040000Y-109778349D01*
X86124000Y-109738349D02*
X84040000Y-109738349D01*
X86156000Y-109698349D02*
X84040000Y-109698349D01*
X86189000Y-109658349D02*
X84040000Y-109658349D01*
X86220000Y-109618349D02*
X84040000Y-109618349D01*
X86250000Y-109578349D02*
X84040000Y-109578349D01*
X86280000Y-109538349D02*
X84040000Y-109538349D01*
X86309000Y-109498349D02*
X84040000Y-109498349D01*
X86338000Y-109458349D02*
X84040000Y-109458349D01*
X86365000Y-109418349D02*
X84040000Y-109418349D01*
X86392000Y-109378349D02*
X84040000Y-109378349D01*
X86418000Y-109338349D02*
X84040000Y-109338349D01*
X86444000Y-109298349D02*
X84040000Y-109298349D01*
X86469000Y-109258349D02*
X84040000Y-109258349D01*
X86493000Y-109218349D02*
X84040000Y-109218349D01*
X86517000Y-109178349D02*
X84040000Y-109178349D01*
X86540000Y-109138349D02*
X84040000Y-109138349D01*
X86562000Y-109098349D02*
X84040000Y-109098349D01*
X86584000Y-109058349D02*
X84040000Y-109058349D01*
X86606000Y-109018349D02*
X84040000Y-109018349D01*
X86627000Y-108978349D02*
X84040000Y-108978349D01*
X86647000Y-108938349D02*
X84040000Y-108938349D01*
X86666000Y-108898349D02*
X84040000Y-108898349D01*
X86686000Y-108858349D02*
X84040000Y-108858349D01*
X86704000Y-108818349D02*
X84040000Y-108818349D01*
X86722000Y-108778349D02*
X84040000Y-108778349D01*
X86740000Y-108738349D02*
X84040000Y-108738349D01*
X86757000Y-108698349D02*
X84040000Y-108698349D01*
X86774000Y-108658349D02*
X84040000Y-108658349D01*
X86790000Y-108618349D02*
X84040000Y-108618349D01*
X86805000Y-108578349D02*
X84040000Y-108578349D01*
X86821000Y-108538349D02*
X84040000Y-108538349D01*
X86835000Y-108498349D02*
X84040000Y-108498349D01*
X86850000Y-108458349D02*
X84040000Y-108458349D01*
X86863000Y-108418349D02*
X84040000Y-108418349D01*
X86877000Y-108378349D02*
X84040000Y-108378349D01*
X86889000Y-108338349D02*
X84040000Y-108338349D01*
X86902000Y-108298349D02*
X84040000Y-108298349D01*
X86914000Y-108258349D02*
X84040000Y-108258349D01*
X86925000Y-108218349D02*
X84040000Y-108218349D01*
X86936000Y-108178349D02*
X84040000Y-108178349D01*
X86947000Y-108138349D02*
X84040000Y-108138349D01*
X86957000Y-108098349D02*
X84040000Y-108098349D01*
X86967000Y-108058349D02*
X84040000Y-108058349D01*
X86976000Y-108018349D02*
X84040000Y-108018349D01*
X86985000Y-107978349D02*
X84040000Y-107978349D01*
X86994000Y-107938349D02*
X84040000Y-107938349D01*
X87002000Y-107898349D02*
X84040000Y-107898349D01*
X87010000Y-107858349D02*
X84040000Y-107858349D01*
X87017000Y-107818349D02*
X84040000Y-107818349D01*
X87024000Y-107777349D02*
X78976000Y-107777349D01*
X87030000Y-107737349D02*
X78970000Y-107737349D01*
X87037000Y-107697349D02*
X78963000Y-107697349D01*
X87042000Y-107657349D02*
X78958000Y-107657349D01*
X87048000Y-107617349D02*
X78952000Y-107617349D01*
X87052000Y-107577349D02*
X78948000Y-107577349D01*
X87057000Y-107537349D02*
X78943000Y-107537349D01*
X87061000Y-107497349D02*
X78939000Y-107497349D01*
X87065000Y-107457349D02*
X78935000Y-107457349D01*
X87068000Y-107417349D02*
X78932000Y-107417349D01*
X87071000Y-107377349D02*
X78929000Y-107377349D01*
X87074000Y-107337349D02*
X78926000Y-107337349D01*
X87076000Y-107297349D02*
X78924000Y-107297349D01*
X87077000Y-107257349D02*
X78923000Y-107257349D01*
X87079000Y-107217349D02*
X78921000Y-107217349D01*
X87080000Y-107097349D02*
X78920000Y-107097349D01*
X87080000Y-107137349D02*
X78920000Y-107137349D01*
X87080000Y-107177349D02*
X78920000Y-107177349D01*
X87120000Y-107097349D02*
G75*
G02*
X78880000Y-107097349I-4120000J0D01*
G01*
X78880000Y-107097349D02*
G75*
G02*
X87120000Y-107097349I4120000J0D01*
G01*
%TO.C,RV3*%
X96800000Y-91000000D02*
X96800000Y-87500000D01*
X109800000Y-91000000D02*
X96800000Y-91000000D01*
X109800000Y-91000000D02*
X109800000Y-87500000D01*
%TO.C,RV2*%
X76500000Y-90600000D02*
X76500000Y-87100000D01*
X89500000Y-90600000D02*
X76500000Y-90600000D01*
X89500000Y-90600000D02*
X89500000Y-87100000D01*
%TO.C,RV1*%
X56200000Y-90600000D02*
X56200000Y-87100000D01*
X69200000Y-90600000D02*
X56200000Y-90600000D01*
X69200000Y-90600000D02*
X69200000Y-87100000D01*
%TD*%
M02*
