M48
; DRILL file {KiCad 8.0.0} date 2024-04-22T22:36:45-0700
; FORMAT={-:-/ absolute / metric / decimal}
; #@! TF.CreationDate,2024-04-22T22:36:45-07:00
; #@! TF.GenerationSoftware,Kicad,Pcbnew,8.0.0
; #@! TF.FileFunction,Plated,1,4,PTH
FMAT,2
METRIC
; #@! TA.AperFunction,Plated,PTH,ViaDrill
T1C0.300
; #@! TA.AperFunction,Plated,PTH,ComponentDrill
T2C0.800
; #@! TA.AperFunction,Plated,PTH,ComponentDrill
T3C0.900
; #@! TA.AperFunction,Plated,PTH,ComponentDrill
T4C1.000
; #@! TA.AperFunction,Plated,PTH,ComponentDrill
T5C1.100
; #@! TA.AperFunction,Plated,PTH,ComponentDrill
T6C1.200
; #@! TA.AperFunction,Plated,PTH,ComponentDrill
T7C1.300
%
G90
G05
T1
X56.25Y-82.0
X56.75Y-91.25
X56.75Y-93.25
X57.0Y-108.25
X57.0Y-112.25
X57.0Y-116.25
X57.75Y-87.0
X58.0Y-98.0
X58.5Y-110.75
X59.0Y-91.25
X59.75Y-119.5
X59.75Y-123.0
X59.75Y-126.5
X59.75Y-130.0
X59.75Y-133.5
X60.0Y-82.0
X60.0Y-108.25
X60.0Y-112.25
X60.0Y-116.25
X60.455Y-103.295
X63.0Y-108.25
X63.0Y-112.25
X63.0Y-116.25
X63.75Y-119.5
X63.75Y-123.0
X63.75Y-126.5
X63.75Y-130.0
X63.75Y-133.5
X64.75Y-98.0
X65.0Y-82.0
X65.0Y-89.0
X66.0Y-108.25
X66.0Y-112.25
X66.0Y-116.25
X66.0Y-140.0
X67.0Y-125.75
X67.5Y-98.0
X67.75Y-87.0
X68.0Y-82.0
X68.25Y-103.0
X69.0Y-108.25
X69.0Y-112.25
X69.0Y-116.0
X69.0Y-121.0
X69.0Y-127.25
X69.0Y-132.75
X71.0Y-140.0
X72.0Y-108.0
X72.0Y-112.25
X72.0Y-136.5
X72.5Y-121.0
X72.75Y-116.0
X75.0Y-123.0
X76.0Y-105.25
X76.0Y-106.75
X76.0Y-115.25
X76.0Y-117.25
X76.0Y-120.75
X76.0Y-140.0
X77.0Y-127.0
X77.0Y-129.5
X77.0Y-130.75
X77.25Y-136.5
X77.5Y-105.25
X77.5Y-106.75
X78.0Y-82.0
X78.5Y-115.25
X78.5Y-117.25
X79.0Y-105.25
X79.0Y-106.75
X79.25Y-136.0
X80.25Y-121.25
X81.5Y-125.25
X81.5Y-127.0
X81.5Y-129.5
X81.962Y-134.963
X82.0Y-128.25
X82.25Y-116.5
X83.0Y-129.5
X84.037Y-134.963
X84.5Y-125.25
X85.0Y-82.0
X87.25Y-105.5
X87.25Y-107.0
X87.5Y-114.5
X87.5Y-117.5
X88.75Y-105.5
X88.75Y-107.0
X89.0Y-125.75
X89.0Y-128.25
X89.0Y-133.5
X89.0Y-140.0
X90.0Y-114.5
X90.0Y-117.5
X90.25Y-105.5
X90.25Y-107.0
X90.5Y-126.75
X90.5Y-129.5
X91.0Y-82.0
X91.185Y-122.0
X92.25Y-129.5
X92.317Y-122.0
X92.75Y-101.75
X92.75Y-103.25
X92.75Y-104.75
X93.0Y-140.0
X93.25Y-130.75
X93.25Y-135.75
X93.537Y-129.713
X94.0Y-108.25
X94.25Y-120.5
X94.75Y-130.75
X94.75Y-135.75
X95.5Y-123.5
X97.0Y-82.0
X97.0Y-108.25
X97.0Y-116.0
X97.0Y-140.0
X98.25Y-87.5
X98.25Y-125.25
X98.5Y-98.0
X98.75Y-121.25
X100.0Y-108.25
X100.0Y-116.0
X100.75Y-89.5
X101.0Y-98.0
X101.0Y-140.0
X102.25Y-122.75
X102.25Y-126.5
X102.25Y-130.0
X102.25Y-133.5
X102.75Y-104.75
X103.0Y-82.0
X103.0Y-108.25
X103.0Y-116.0
X103.25Y-98.0
X104.5Y-103.25
X105.55Y-119.55
X106.0Y-108.25
X106.0Y-116.0
X106.25Y-122.75
X106.25Y-126.5
X106.25Y-130.0
X106.25Y-133.5
X107.5Y-103.25
X108.0Y-82.0
X108.0Y-98.0
X108.25Y-87.5
X109.0Y-108.25
X109.0Y-112.25
X109.0Y-116.0
X110.0Y-85.0
X110.0Y-91.0
X110.0Y-110.0
X110.0Y-117.0
X110.0Y-121.0
X110.0Y-125.0
X110.0Y-129.0
X110.0Y-133.0
T2
X57.0Y-106.5
X57.0Y-114.0
X58.0Y-119.5
X58.0Y-123.0
X58.0Y-126.5
X58.0Y-130.0
X58.0Y-133.5
X60.0Y-106.38
X60.0Y-114.0
X63.0Y-106.5
X63.0Y-114.12
X65.5Y-119.5
X65.5Y-123.0
X65.5Y-126.5
X65.5Y-130.0
X65.5Y-133.5
X66.0Y-106.38
X66.0Y-114.0
X69.0Y-106.5
X69.0Y-114.12
X70.0Y-124.75
X70.0Y-130.75
X70.0Y-135.75
X72.0Y-106.5
X72.0Y-114.0
X75.0Y-124.75
X75.0Y-130.75
X75.0Y-135.75
X75.5Y-92.5
X75.5Y-100.0
X76.0Y-113.0
X76.0Y-119.0
X78.5Y-113.0
X78.5Y-119.0
X79.0Y-92.5
X79.0Y-100.0
X79.2Y-125.7
X79.2Y-128.24
X79.2Y-130.78
X79.2Y-133.32
X83.0Y-105.347
X83.0Y-108.847
X83.0Y-114.0
X83.0Y-119.0
X86.82Y-125.7
X86.82Y-128.24
X86.82Y-130.78
X86.82Y-133.32
X87.0Y-92.5
X87.0Y-100.0
X87.5Y-113.0
X87.5Y-119.0
X90.0Y-113.0
X90.0Y-119.0
X90.5Y-92.5
X90.5Y-100.0
X91.46Y-125.11
X91.5Y-130.75
X91.5Y-135.75
X93.0Y-87.205
X93.0Y-89.705
X94.0Y-106.5
X94.0Y-114.0
X94.0Y-125.11
X96.5Y-130.75
X96.5Y-135.75
X96.54Y-125.11
X97.0Y-106.38
X97.0Y-114.0
X100.0Y-106.5
X100.0Y-114.12
X100.5Y-119.5
X100.5Y-123.0
X100.5Y-126.5
X100.5Y-130.0
X100.5Y-133.5
X103.0Y-106.38
X103.0Y-114.0
X106.0Y-106.5
X106.0Y-114.12
X108.0Y-119.5
X108.0Y-123.0
X108.0Y-126.5
X108.0Y-130.0
X108.0Y-133.5
X109.0Y-106.5
X109.0Y-114.0
T3
X83.0Y-96.735
X83.0Y-99.275
T4
X57.3Y-139.0
X60.8Y-139.0
X71.0Y-84.0
X74.5Y-84.0
X81.0Y-139.0
X85.0Y-139.0
X105.3Y-139.0
X108.8Y-139.0
T5
X72.0Y-90.92
X72.0Y-101.08
T7
X57.7Y-89.1
X62.7Y-89.1
X67.7Y-89.1
X78.0Y-89.1
X83.0Y-89.1
X88.0Y-89.1
X98.3Y-89.5
X103.3Y-89.5
X108.3Y-89.5
T6
G00X58.0Y-96.185
M15
G01X58.0Y-94.985
M16
G05
G00X58.0Y-101.015
M15
G01X58.0Y-99.815
M16
G05
G00X62.7Y-96.185
M15
G01X62.7Y-94.985
M16
G05
G00X62.7Y-101.015
M15
G01X62.7Y-99.815
M16
G05
G00X67.4Y-96.185
M15
G01X67.4Y-94.985
M16
G05
G00X67.4Y-101.015
M15
G01X67.4Y-99.815
M16
G05
G00X98.6Y-96.185
M15
G01X98.6Y-94.985
M16
G05
G00X98.6Y-101.015
M15
G01X98.6Y-99.815
M16
G05
G00X103.3Y-96.185
M15
G01X103.3Y-94.985
M16
G05
G00X103.3Y-101.015
M15
G01X103.3Y-99.815
M16
G05
G00X108.0Y-96.185
M15
G01X108.0Y-94.985
M16
G05
G00X108.0Y-101.015
M15
G01X108.0Y-99.815
M16
G05
M30
