%TF.GenerationSoftware,KiCad,Pcbnew,8.0.0*%
%TF.CreationDate,2024-04-22T22:36:35-07:00*%
%TF.ProjectId,rat-v2,7261742d-7632-42e6-9b69-6361645f7063,rev?*%
%TF.SameCoordinates,Original*%
%TF.FileFunction,Soldermask,Bot*%
%TF.FilePolarity,Negative*%
%FSLAX46Y46*%
G04 Gerber Fmt 4.6, Leading zero omitted, Abs format (unit mm)*
G04 Created by KiCad (PCBNEW 8.0.0) date 2024-04-22 22:36:35*
%MOMM*%
%LPD*%
G01*
G04 APERTURE LIST*
G04 APERTURE END LIST*
G36*
X57904230Y-138020616D02*
G01*
X57969195Y-138026707D01*
X57985719Y-138032489D01*
X58008428Y-138035798D01*
X58041805Y-138052115D01*
X58077296Y-138064534D01*
X58097085Y-138079139D01*
X58120809Y-138090737D01*
X58143375Y-138113303D01*
X58168300Y-138131699D01*
X58186695Y-138156623D01*
X58209263Y-138179191D01*
X58220861Y-138202915D01*
X58235465Y-138222703D01*
X58247882Y-138258189D01*
X58264202Y-138291572D01*
X58267511Y-138314283D01*
X58273292Y-138330804D01*
X58279381Y-138395753D01*
X58280000Y-138400000D01*
X58280000Y-139600000D01*
X58279380Y-139604249D01*
X58273292Y-139669195D01*
X58267511Y-139685714D01*
X58264202Y-139708428D01*
X58247881Y-139741812D01*
X58235465Y-139777296D01*
X58220862Y-139797081D01*
X58209263Y-139820809D01*
X58186692Y-139843379D01*
X58168300Y-139868300D01*
X58143379Y-139886692D01*
X58120809Y-139909263D01*
X58097081Y-139920862D01*
X58077296Y-139935465D01*
X58041812Y-139947881D01*
X58008428Y-139964202D01*
X57985714Y-139967511D01*
X57969195Y-139973292D01*
X57904247Y-139979381D01*
X57900000Y-139980000D01*
X56700000Y-139980000D01*
X56695752Y-139979381D01*
X56630804Y-139973292D01*
X56614283Y-139967511D01*
X56591572Y-139964202D01*
X56558189Y-139947882D01*
X56522703Y-139935465D01*
X56502915Y-139920861D01*
X56479191Y-139909263D01*
X56456623Y-139886695D01*
X56431699Y-139868300D01*
X56413303Y-139843375D01*
X56390737Y-139820809D01*
X56379139Y-139797085D01*
X56364534Y-139777296D01*
X56352115Y-139741805D01*
X56335798Y-139708428D01*
X56332489Y-139685719D01*
X56326707Y-139669195D01*
X56320616Y-139604228D01*
X56320000Y-139600000D01*
X56320000Y-138400000D01*
X56320616Y-138395771D01*
X56326707Y-138330804D01*
X56332489Y-138314278D01*
X56335798Y-138291572D01*
X56352113Y-138258196D01*
X56364534Y-138222703D01*
X56379140Y-138202911D01*
X56390737Y-138179191D01*
X56413301Y-138156626D01*
X56431699Y-138131699D01*
X56456626Y-138113301D01*
X56479191Y-138090737D01*
X56502911Y-138079140D01*
X56522703Y-138064534D01*
X56558196Y-138052113D01*
X56591572Y-138035798D01*
X56614278Y-138032489D01*
X56630804Y-138026707D01*
X56695773Y-138020615D01*
X56700000Y-138020000D01*
X57900000Y-138020000D01*
X57904230Y-138020616D01*
G37*
G36*
X61404230Y-138020616D02*
G01*
X61469195Y-138026707D01*
X61485719Y-138032489D01*
X61508428Y-138035798D01*
X61541805Y-138052115D01*
X61577296Y-138064534D01*
X61597085Y-138079139D01*
X61620809Y-138090737D01*
X61643375Y-138113303D01*
X61668300Y-138131699D01*
X61686695Y-138156623D01*
X61709263Y-138179191D01*
X61720861Y-138202915D01*
X61735465Y-138222703D01*
X61747882Y-138258189D01*
X61764202Y-138291572D01*
X61767511Y-138314283D01*
X61773292Y-138330804D01*
X61779381Y-138395753D01*
X61780000Y-138400000D01*
X61780000Y-139600000D01*
X61779380Y-139604249D01*
X61773292Y-139669195D01*
X61767511Y-139685714D01*
X61764202Y-139708428D01*
X61747881Y-139741812D01*
X61735465Y-139777296D01*
X61720862Y-139797081D01*
X61709263Y-139820809D01*
X61686692Y-139843379D01*
X61668300Y-139868300D01*
X61643379Y-139886692D01*
X61620809Y-139909263D01*
X61597081Y-139920862D01*
X61577296Y-139935465D01*
X61541812Y-139947881D01*
X61508428Y-139964202D01*
X61485714Y-139967511D01*
X61469195Y-139973292D01*
X61404247Y-139979381D01*
X61400000Y-139980000D01*
X60200000Y-139980000D01*
X60195752Y-139979381D01*
X60130804Y-139973292D01*
X60114283Y-139967511D01*
X60091572Y-139964202D01*
X60058189Y-139947882D01*
X60022703Y-139935465D01*
X60002915Y-139920861D01*
X59979191Y-139909263D01*
X59956623Y-139886695D01*
X59931699Y-139868300D01*
X59913303Y-139843375D01*
X59890737Y-139820809D01*
X59879139Y-139797085D01*
X59864534Y-139777296D01*
X59852115Y-139741805D01*
X59835798Y-139708428D01*
X59832489Y-139685719D01*
X59826707Y-139669195D01*
X59820616Y-139604228D01*
X59820000Y-139600000D01*
X59820000Y-138400000D01*
X59820616Y-138395771D01*
X59826707Y-138330804D01*
X59832489Y-138314278D01*
X59835798Y-138291572D01*
X59852113Y-138258196D01*
X59864534Y-138222703D01*
X59879140Y-138202911D01*
X59890737Y-138179191D01*
X59913301Y-138156626D01*
X59931699Y-138131699D01*
X59956626Y-138113301D01*
X59979191Y-138090737D01*
X60002911Y-138079140D01*
X60022703Y-138064534D01*
X60058196Y-138052113D01*
X60091572Y-138035798D01*
X60114278Y-138032489D01*
X60130804Y-138026707D01*
X60195773Y-138020615D01*
X60200000Y-138020000D01*
X61400000Y-138020000D01*
X61404230Y-138020616D01*
G37*
G36*
X81604230Y-138020616D02*
G01*
X81669195Y-138026707D01*
X81685719Y-138032489D01*
X81708428Y-138035798D01*
X81741805Y-138052115D01*
X81777296Y-138064534D01*
X81797085Y-138079139D01*
X81820809Y-138090737D01*
X81843375Y-138113303D01*
X81868300Y-138131699D01*
X81886695Y-138156623D01*
X81909263Y-138179191D01*
X81920861Y-138202915D01*
X81935465Y-138222703D01*
X81947882Y-138258189D01*
X81964202Y-138291572D01*
X81967511Y-138314283D01*
X81973292Y-138330804D01*
X81979381Y-138395753D01*
X81980000Y-138400000D01*
X81980000Y-139600000D01*
X81979380Y-139604249D01*
X81973292Y-139669195D01*
X81967511Y-139685714D01*
X81964202Y-139708428D01*
X81947881Y-139741812D01*
X81935465Y-139777296D01*
X81920862Y-139797081D01*
X81909263Y-139820809D01*
X81886692Y-139843379D01*
X81868300Y-139868300D01*
X81843379Y-139886692D01*
X81820809Y-139909263D01*
X81797081Y-139920862D01*
X81777296Y-139935465D01*
X81741812Y-139947881D01*
X81708428Y-139964202D01*
X81685714Y-139967511D01*
X81669195Y-139973292D01*
X81604247Y-139979381D01*
X81600000Y-139980000D01*
X80400000Y-139980000D01*
X80395752Y-139979381D01*
X80330804Y-139973292D01*
X80314283Y-139967511D01*
X80291572Y-139964202D01*
X80258189Y-139947882D01*
X80222703Y-139935465D01*
X80202915Y-139920861D01*
X80179191Y-139909263D01*
X80156623Y-139886695D01*
X80131699Y-139868300D01*
X80113303Y-139843375D01*
X80090737Y-139820809D01*
X80079139Y-139797085D01*
X80064534Y-139777296D01*
X80052115Y-139741805D01*
X80035798Y-139708428D01*
X80032489Y-139685719D01*
X80026707Y-139669195D01*
X80020616Y-139604228D01*
X80020000Y-139600000D01*
X80020000Y-138400000D01*
X80020616Y-138395771D01*
X80026707Y-138330804D01*
X80032489Y-138314278D01*
X80035798Y-138291572D01*
X80052113Y-138258196D01*
X80064534Y-138222703D01*
X80079140Y-138202911D01*
X80090737Y-138179191D01*
X80113301Y-138156626D01*
X80131699Y-138131699D01*
X80156626Y-138113301D01*
X80179191Y-138090737D01*
X80202911Y-138079140D01*
X80222703Y-138064534D01*
X80258196Y-138052113D01*
X80291572Y-138035798D01*
X80314278Y-138032489D01*
X80330804Y-138026707D01*
X80395773Y-138020615D01*
X80400000Y-138020000D01*
X81600000Y-138020000D01*
X81604230Y-138020616D01*
G37*
G36*
X85604230Y-138020616D02*
G01*
X85669195Y-138026707D01*
X85685719Y-138032489D01*
X85708428Y-138035798D01*
X85741805Y-138052115D01*
X85777296Y-138064534D01*
X85797085Y-138079139D01*
X85820809Y-138090737D01*
X85843375Y-138113303D01*
X85868300Y-138131699D01*
X85886695Y-138156623D01*
X85909263Y-138179191D01*
X85920861Y-138202915D01*
X85935465Y-138222703D01*
X85947882Y-138258189D01*
X85964202Y-138291572D01*
X85967511Y-138314283D01*
X85973292Y-138330804D01*
X85979381Y-138395753D01*
X85980000Y-138400000D01*
X85980000Y-139600000D01*
X85979380Y-139604249D01*
X85973292Y-139669195D01*
X85967511Y-139685714D01*
X85964202Y-139708428D01*
X85947881Y-139741812D01*
X85935465Y-139777296D01*
X85920862Y-139797081D01*
X85909263Y-139820809D01*
X85886692Y-139843379D01*
X85868300Y-139868300D01*
X85843379Y-139886692D01*
X85820809Y-139909263D01*
X85797081Y-139920862D01*
X85777296Y-139935465D01*
X85741812Y-139947881D01*
X85708428Y-139964202D01*
X85685714Y-139967511D01*
X85669195Y-139973292D01*
X85604247Y-139979381D01*
X85600000Y-139980000D01*
X84400000Y-139980000D01*
X84395752Y-139979381D01*
X84330804Y-139973292D01*
X84314283Y-139967511D01*
X84291572Y-139964202D01*
X84258189Y-139947882D01*
X84222703Y-139935465D01*
X84202915Y-139920861D01*
X84179191Y-139909263D01*
X84156623Y-139886695D01*
X84131699Y-139868300D01*
X84113303Y-139843375D01*
X84090737Y-139820809D01*
X84079139Y-139797085D01*
X84064534Y-139777296D01*
X84052115Y-139741805D01*
X84035798Y-139708428D01*
X84032489Y-139685719D01*
X84026707Y-139669195D01*
X84020616Y-139604228D01*
X84020000Y-139600000D01*
X84020000Y-138400000D01*
X84020616Y-138395771D01*
X84026707Y-138330804D01*
X84032489Y-138314278D01*
X84035798Y-138291572D01*
X84052113Y-138258196D01*
X84064534Y-138222703D01*
X84079140Y-138202911D01*
X84090737Y-138179191D01*
X84113301Y-138156626D01*
X84131699Y-138131699D01*
X84156626Y-138113301D01*
X84179191Y-138090737D01*
X84202911Y-138079140D01*
X84222703Y-138064534D01*
X84258196Y-138052113D01*
X84291572Y-138035798D01*
X84314278Y-138032489D01*
X84330804Y-138026707D01*
X84395773Y-138020615D01*
X84400000Y-138020000D01*
X85600000Y-138020000D01*
X85604230Y-138020616D01*
G37*
G36*
X105904230Y-138020616D02*
G01*
X105969195Y-138026707D01*
X105985719Y-138032489D01*
X106008428Y-138035798D01*
X106041805Y-138052115D01*
X106077296Y-138064534D01*
X106097085Y-138079139D01*
X106120809Y-138090737D01*
X106143375Y-138113303D01*
X106168300Y-138131699D01*
X106186695Y-138156623D01*
X106209263Y-138179191D01*
X106220861Y-138202915D01*
X106235465Y-138222703D01*
X106247882Y-138258189D01*
X106264202Y-138291572D01*
X106267511Y-138314283D01*
X106273292Y-138330804D01*
X106279381Y-138395753D01*
X106280000Y-138400000D01*
X106280000Y-139600000D01*
X106279380Y-139604249D01*
X106273292Y-139669195D01*
X106267511Y-139685714D01*
X106264202Y-139708428D01*
X106247881Y-139741812D01*
X106235465Y-139777296D01*
X106220862Y-139797081D01*
X106209263Y-139820809D01*
X106186692Y-139843379D01*
X106168300Y-139868300D01*
X106143379Y-139886692D01*
X106120809Y-139909263D01*
X106097081Y-139920862D01*
X106077296Y-139935465D01*
X106041812Y-139947881D01*
X106008428Y-139964202D01*
X105985714Y-139967511D01*
X105969195Y-139973292D01*
X105904247Y-139979381D01*
X105900000Y-139980000D01*
X104700000Y-139980000D01*
X104695752Y-139979381D01*
X104630804Y-139973292D01*
X104614283Y-139967511D01*
X104591572Y-139964202D01*
X104558189Y-139947882D01*
X104522703Y-139935465D01*
X104502915Y-139920861D01*
X104479191Y-139909263D01*
X104456623Y-139886695D01*
X104431699Y-139868300D01*
X104413303Y-139843375D01*
X104390737Y-139820809D01*
X104379139Y-139797085D01*
X104364534Y-139777296D01*
X104352115Y-139741805D01*
X104335798Y-139708428D01*
X104332489Y-139685719D01*
X104326707Y-139669195D01*
X104320616Y-139604228D01*
X104320000Y-139600000D01*
X104320000Y-138400000D01*
X104320616Y-138395771D01*
X104326707Y-138330804D01*
X104332489Y-138314278D01*
X104335798Y-138291572D01*
X104352113Y-138258196D01*
X104364534Y-138222703D01*
X104379140Y-138202911D01*
X104390737Y-138179191D01*
X104413301Y-138156626D01*
X104431699Y-138131699D01*
X104456626Y-138113301D01*
X104479191Y-138090737D01*
X104502911Y-138079140D01*
X104522703Y-138064534D01*
X104558196Y-138052113D01*
X104591572Y-138035798D01*
X104614278Y-138032489D01*
X104630804Y-138026707D01*
X104695773Y-138020615D01*
X104700000Y-138020000D01*
X105900000Y-138020000D01*
X105904230Y-138020616D01*
G37*
G36*
X109404230Y-138020616D02*
G01*
X109469195Y-138026707D01*
X109485719Y-138032489D01*
X109508428Y-138035798D01*
X109541805Y-138052115D01*
X109577296Y-138064534D01*
X109597085Y-138079139D01*
X109620809Y-138090737D01*
X109643375Y-138113303D01*
X109668300Y-138131699D01*
X109686695Y-138156623D01*
X109709263Y-138179191D01*
X109720861Y-138202915D01*
X109735465Y-138222703D01*
X109747882Y-138258189D01*
X109764202Y-138291572D01*
X109767511Y-138314283D01*
X109773292Y-138330804D01*
X109779381Y-138395753D01*
X109780000Y-138400000D01*
X109780000Y-139600000D01*
X109779380Y-139604249D01*
X109773292Y-139669195D01*
X109767511Y-139685714D01*
X109764202Y-139708428D01*
X109747881Y-139741812D01*
X109735465Y-139777296D01*
X109720862Y-139797081D01*
X109709263Y-139820809D01*
X109686692Y-139843379D01*
X109668300Y-139868300D01*
X109643379Y-139886692D01*
X109620809Y-139909263D01*
X109597081Y-139920862D01*
X109577296Y-139935465D01*
X109541812Y-139947881D01*
X109508428Y-139964202D01*
X109485714Y-139967511D01*
X109469195Y-139973292D01*
X109404247Y-139979381D01*
X109400000Y-139980000D01*
X108200000Y-139980000D01*
X108195752Y-139979381D01*
X108130804Y-139973292D01*
X108114283Y-139967511D01*
X108091572Y-139964202D01*
X108058189Y-139947882D01*
X108022703Y-139935465D01*
X108002915Y-139920861D01*
X107979191Y-139909263D01*
X107956623Y-139886695D01*
X107931699Y-139868300D01*
X107913303Y-139843375D01*
X107890737Y-139820809D01*
X107879139Y-139797085D01*
X107864534Y-139777296D01*
X107852115Y-139741805D01*
X107835798Y-139708428D01*
X107832489Y-139685719D01*
X107826707Y-139669195D01*
X107820616Y-139604228D01*
X107820000Y-139600000D01*
X107820000Y-138400000D01*
X107820616Y-138395771D01*
X107826707Y-138330804D01*
X107832489Y-138314278D01*
X107835798Y-138291572D01*
X107852113Y-138258196D01*
X107864534Y-138222703D01*
X107879140Y-138202911D01*
X107890737Y-138179191D01*
X107913301Y-138156626D01*
X107931699Y-138131699D01*
X107956626Y-138113301D01*
X107979191Y-138090737D01*
X108002911Y-138079140D01*
X108022703Y-138064534D01*
X108058196Y-138052113D01*
X108091572Y-138035798D01*
X108114278Y-138032489D01*
X108130804Y-138026707D01*
X108195773Y-138020615D01*
X108200000Y-138020000D01*
X109400000Y-138020000D01*
X109404230Y-138020616D01*
G37*
G36*
X70271935Y-134913070D02*
G01*
X70440000Y-134987898D01*
X70588835Y-135096033D01*
X70711935Y-135232749D01*
X70803920Y-135392072D01*
X70860770Y-135567038D01*
X70880000Y-135750000D01*
X70860770Y-135932962D01*
X70803920Y-136107928D01*
X70711935Y-136267251D01*
X70588835Y-136403967D01*
X70440000Y-136512102D01*
X70271935Y-136586930D01*
X70091985Y-136625179D01*
X69908015Y-136625179D01*
X69728065Y-136586930D01*
X69560000Y-136512102D01*
X69411165Y-136403967D01*
X69288065Y-136267251D01*
X69196080Y-136107928D01*
X69139230Y-135932962D01*
X69120000Y-135750000D01*
X69139230Y-135567038D01*
X69196080Y-135392072D01*
X69288065Y-135232749D01*
X69411165Y-135096033D01*
X69560000Y-134987898D01*
X69728065Y-134913070D01*
X69908015Y-134874821D01*
X70091985Y-134874821D01*
X70271935Y-134913070D01*
G37*
G36*
X75271935Y-134913070D02*
G01*
X75440000Y-134987898D01*
X75588835Y-135096033D01*
X75711935Y-135232749D01*
X75803920Y-135392072D01*
X75860770Y-135567038D01*
X75880000Y-135750000D01*
X75860770Y-135932962D01*
X75803920Y-136107928D01*
X75711935Y-136267251D01*
X75588835Y-136403967D01*
X75440000Y-136512102D01*
X75271935Y-136586930D01*
X75091985Y-136625179D01*
X74908015Y-136625179D01*
X74728065Y-136586930D01*
X74560000Y-136512102D01*
X74411165Y-136403967D01*
X74288065Y-136267251D01*
X74196080Y-136107928D01*
X74139230Y-135932962D01*
X74120000Y-135750000D01*
X74139230Y-135567038D01*
X74196080Y-135392072D01*
X74288065Y-135232749D01*
X74411165Y-135096033D01*
X74560000Y-134987898D01*
X74728065Y-134913070D01*
X74908015Y-134874821D01*
X75091985Y-134874821D01*
X75271935Y-134913070D01*
G37*
G36*
X91771935Y-134913070D02*
G01*
X91940000Y-134987898D01*
X92088835Y-135096033D01*
X92211935Y-135232749D01*
X92303920Y-135392072D01*
X92360770Y-135567038D01*
X92380000Y-135750000D01*
X92360770Y-135932962D01*
X92303920Y-136107928D01*
X92211935Y-136267251D01*
X92088835Y-136403967D01*
X91940000Y-136512102D01*
X91771935Y-136586930D01*
X91591985Y-136625179D01*
X91408015Y-136625179D01*
X91228065Y-136586930D01*
X91060000Y-136512102D01*
X90911165Y-136403967D01*
X90788065Y-136267251D01*
X90696080Y-136107928D01*
X90639230Y-135932962D01*
X90620000Y-135750000D01*
X90639230Y-135567038D01*
X90696080Y-135392072D01*
X90788065Y-135232749D01*
X90911165Y-135096033D01*
X91060000Y-134987898D01*
X91228065Y-134913070D01*
X91408015Y-134874821D01*
X91591985Y-134874821D01*
X91771935Y-134913070D01*
G37*
G36*
X96771935Y-134913070D02*
G01*
X96940000Y-134987898D01*
X97088835Y-135096033D01*
X97211935Y-135232749D01*
X97303920Y-135392072D01*
X97360770Y-135567038D01*
X97380000Y-135750000D01*
X97360770Y-135932962D01*
X97303920Y-136107928D01*
X97211935Y-136267251D01*
X97088835Y-136403967D01*
X96940000Y-136512102D01*
X96771935Y-136586930D01*
X96591985Y-136625179D01*
X96408015Y-136625179D01*
X96228065Y-136586930D01*
X96060000Y-136512102D01*
X95911165Y-136403967D01*
X95788065Y-136267251D01*
X95696080Y-136107928D01*
X95639230Y-135932962D01*
X95620000Y-135750000D01*
X95639230Y-135567038D01*
X95696080Y-135392072D01*
X95788065Y-135232749D01*
X95911165Y-135096033D01*
X96060000Y-134987898D01*
X96228065Y-134913070D01*
X96408015Y-134874821D01*
X96591985Y-134874821D01*
X96771935Y-134913070D01*
G37*
G36*
X58271935Y-132663070D02*
G01*
X58440000Y-132737898D01*
X58588835Y-132846033D01*
X58711935Y-132982749D01*
X58803920Y-133142072D01*
X58860770Y-133317038D01*
X58880000Y-133500000D01*
X58860770Y-133682962D01*
X58803920Y-133857928D01*
X58711935Y-134017251D01*
X58588835Y-134153967D01*
X58440000Y-134262102D01*
X58271935Y-134336930D01*
X58091985Y-134375179D01*
X57908015Y-134375179D01*
X57728065Y-134336930D01*
X57560000Y-134262102D01*
X57411165Y-134153967D01*
X57288065Y-134017251D01*
X57196080Y-133857928D01*
X57139230Y-133682962D01*
X57120000Y-133500000D01*
X57139230Y-133317038D01*
X57196080Y-133142072D01*
X57288065Y-132982749D01*
X57411165Y-132846033D01*
X57560000Y-132737898D01*
X57728065Y-132663070D01*
X57908015Y-132624821D01*
X58091985Y-132624821D01*
X58271935Y-132663070D01*
G37*
G36*
X65771935Y-132663070D02*
G01*
X65940000Y-132737898D01*
X66088835Y-132846033D01*
X66211935Y-132982749D01*
X66303920Y-133142072D01*
X66360770Y-133317038D01*
X66380000Y-133500000D01*
X66360770Y-133682962D01*
X66303920Y-133857928D01*
X66211935Y-134017251D01*
X66088835Y-134153967D01*
X65940000Y-134262102D01*
X65771935Y-134336930D01*
X65591985Y-134375179D01*
X65408015Y-134375179D01*
X65228065Y-134336930D01*
X65060000Y-134262102D01*
X64911165Y-134153967D01*
X64788065Y-134017251D01*
X64696080Y-133857928D01*
X64639230Y-133682962D01*
X64620000Y-133500000D01*
X64639230Y-133317038D01*
X64696080Y-133142072D01*
X64788065Y-132982749D01*
X64911165Y-132846033D01*
X65060000Y-132737898D01*
X65228065Y-132663070D01*
X65408015Y-132624821D01*
X65591985Y-132624821D01*
X65771935Y-132663070D01*
G37*
G36*
X100771935Y-132663070D02*
G01*
X100940000Y-132737898D01*
X101088835Y-132846033D01*
X101211935Y-132982749D01*
X101303920Y-133142072D01*
X101360770Y-133317038D01*
X101380000Y-133500000D01*
X101360770Y-133682962D01*
X101303920Y-133857928D01*
X101211935Y-134017251D01*
X101088835Y-134153967D01*
X100940000Y-134262102D01*
X100771935Y-134336930D01*
X100591985Y-134375179D01*
X100408015Y-134375179D01*
X100228065Y-134336930D01*
X100060000Y-134262102D01*
X99911165Y-134153967D01*
X99788065Y-134017251D01*
X99696080Y-133857928D01*
X99639230Y-133682962D01*
X99620000Y-133500000D01*
X99639230Y-133317038D01*
X99696080Y-133142072D01*
X99788065Y-132982749D01*
X99911165Y-132846033D01*
X100060000Y-132737898D01*
X100228065Y-132663070D01*
X100408015Y-132624821D01*
X100591985Y-132624821D01*
X100771935Y-132663070D01*
G37*
G36*
X108271935Y-132663070D02*
G01*
X108440000Y-132737898D01*
X108588835Y-132846033D01*
X108711935Y-132982749D01*
X108803920Y-133142072D01*
X108860770Y-133317038D01*
X108880000Y-133500000D01*
X108860770Y-133682962D01*
X108803920Y-133857928D01*
X108711935Y-134017251D01*
X108588835Y-134153967D01*
X108440000Y-134262102D01*
X108271935Y-134336930D01*
X108091985Y-134375179D01*
X107908015Y-134375179D01*
X107728065Y-134336930D01*
X107560000Y-134262102D01*
X107411165Y-134153967D01*
X107288065Y-134017251D01*
X107196080Y-133857928D01*
X107139230Y-133682962D01*
X107120000Y-133500000D01*
X107139230Y-133317038D01*
X107196080Y-133142072D01*
X107288065Y-132982749D01*
X107411165Y-132846033D01*
X107560000Y-132737898D01*
X107728065Y-132663070D01*
X107908015Y-132624821D01*
X108091985Y-132624821D01*
X108271935Y-132663070D01*
G37*
G36*
X79686255Y-132444237D02*
G01*
X79855451Y-132477893D01*
X80014829Y-132543909D01*
X80158266Y-132639751D01*
X80280249Y-132761734D01*
X80376091Y-132905171D01*
X80442107Y-133064549D01*
X80475763Y-133233745D01*
X80475763Y-133406255D01*
X80442107Y-133575451D01*
X80376091Y-133734829D01*
X80280249Y-133878266D01*
X80158266Y-134000249D01*
X80014829Y-134096091D01*
X79855451Y-134162107D01*
X79686255Y-134195763D01*
X78800000Y-134200000D01*
X78713745Y-134195763D01*
X78544549Y-134162107D01*
X78385171Y-134096091D01*
X78241734Y-134000249D01*
X78119751Y-133878266D01*
X78023909Y-133734829D01*
X77957893Y-133575451D01*
X77924237Y-133406255D01*
X77924237Y-133233745D01*
X77957893Y-133064549D01*
X78023909Y-132905171D01*
X78119751Y-132761734D01*
X78241734Y-132639751D01*
X78385171Y-132543909D01*
X78544549Y-132477893D01*
X78713745Y-132444237D01*
X79597571Y-132440011D01*
X79598887Y-132440005D01*
X79598892Y-132440005D01*
X79600000Y-132440000D01*
X79686255Y-132444237D01*
G37*
G36*
X87306255Y-132444237D02*
G01*
X87475451Y-132477893D01*
X87634829Y-132543909D01*
X87778266Y-132639751D01*
X87900249Y-132761734D01*
X87996091Y-132905171D01*
X88062107Y-133064549D01*
X88095763Y-133233745D01*
X88095763Y-133406255D01*
X88062107Y-133575451D01*
X87996091Y-133734829D01*
X87900249Y-133878266D01*
X87778266Y-134000249D01*
X87634829Y-134096091D01*
X87475451Y-134162107D01*
X87306255Y-134195763D01*
X86420000Y-134200000D01*
X86333745Y-134195763D01*
X86164549Y-134162107D01*
X86005171Y-134096091D01*
X85861734Y-134000249D01*
X85739751Y-133878266D01*
X85643909Y-133734829D01*
X85577893Y-133575451D01*
X85544237Y-133406255D01*
X85544237Y-133233745D01*
X85577893Y-133064549D01*
X85643909Y-132905171D01*
X85739751Y-132761734D01*
X85861734Y-132639751D01*
X86005171Y-132543909D01*
X86164549Y-132477893D01*
X86333745Y-132444237D01*
X87217571Y-132440011D01*
X87218887Y-132440005D01*
X87218892Y-132440005D01*
X87220000Y-132440000D01*
X87306255Y-132444237D01*
G37*
G36*
X82385410Y-132456244D02*
G01*
X82390800Y-132458757D01*
X82393487Y-132459149D01*
X82431689Y-132477824D01*
X82489280Y-132504680D01*
X82570320Y-132585720D01*
X82597185Y-132643333D01*
X82615850Y-132681512D01*
X82616241Y-132684197D01*
X82618756Y-132689590D01*
X82630000Y-132775000D01*
X82630000Y-133725000D01*
X82618756Y-133810410D01*
X82616240Y-133815803D01*
X82615850Y-133818487D01*
X82597195Y-133856645D01*
X82570320Y-133914280D01*
X82489280Y-133995320D01*
X82431645Y-134022195D01*
X82393487Y-134040850D01*
X82390803Y-134041240D01*
X82385410Y-134043756D01*
X82300000Y-134055000D01*
X81625000Y-134055000D01*
X81539590Y-134043756D01*
X81534197Y-134041241D01*
X81531512Y-134040850D01*
X81493333Y-134022185D01*
X81435720Y-133995320D01*
X81354680Y-133914280D01*
X81327824Y-133856689D01*
X81309149Y-133818487D01*
X81308757Y-133815800D01*
X81306244Y-133810410D01*
X81295000Y-133725000D01*
X81295000Y-132775000D01*
X81306244Y-132689590D01*
X81308757Y-132684200D01*
X81309149Y-132681512D01*
X81327834Y-132643288D01*
X81354680Y-132585720D01*
X81435720Y-132504680D01*
X81493288Y-132477834D01*
X81531512Y-132459149D01*
X81534200Y-132458757D01*
X81539590Y-132456244D01*
X81625000Y-132445000D01*
X82300000Y-132445000D01*
X82385410Y-132456244D01*
G37*
G36*
X84460410Y-132456244D02*
G01*
X84465800Y-132458757D01*
X84468487Y-132459149D01*
X84506689Y-132477824D01*
X84564280Y-132504680D01*
X84645320Y-132585720D01*
X84672185Y-132643333D01*
X84690850Y-132681512D01*
X84691241Y-132684197D01*
X84693756Y-132689590D01*
X84705000Y-132775000D01*
X84705000Y-133725000D01*
X84693756Y-133810410D01*
X84691240Y-133815803D01*
X84690850Y-133818487D01*
X84672195Y-133856645D01*
X84645320Y-133914280D01*
X84564280Y-133995320D01*
X84506645Y-134022195D01*
X84468487Y-134040850D01*
X84465803Y-134041240D01*
X84460410Y-134043756D01*
X84375000Y-134055000D01*
X83700000Y-134055000D01*
X83614590Y-134043756D01*
X83609197Y-134041241D01*
X83606512Y-134040850D01*
X83568333Y-134022185D01*
X83510720Y-133995320D01*
X83429680Y-133914280D01*
X83402824Y-133856689D01*
X83384149Y-133818487D01*
X83383757Y-133815800D01*
X83381244Y-133810410D01*
X83370000Y-133725000D01*
X83370000Y-132775000D01*
X83381244Y-132689590D01*
X83383757Y-132684200D01*
X83384149Y-132681512D01*
X83402834Y-132643288D01*
X83429680Y-132585720D01*
X83510720Y-132504680D01*
X83568288Y-132477834D01*
X83606512Y-132459149D01*
X83609200Y-132458757D01*
X83614590Y-132456244D01*
X83700000Y-132445000D01*
X84375000Y-132445000D01*
X84460410Y-132456244D01*
G37*
G36*
X79686255Y-129904237D02*
G01*
X79855451Y-129937893D01*
X80014829Y-130003909D01*
X80158266Y-130099751D01*
X80280249Y-130221734D01*
X80376091Y-130365171D01*
X80442107Y-130524549D01*
X80475763Y-130693745D01*
X80475763Y-130866255D01*
X80442107Y-131035451D01*
X80376091Y-131194829D01*
X80280249Y-131338266D01*
X80158266Y-131460249D01*
X80014829Y-131556091D01*
X79855451Y-131622107D01*
X79686255Y-131655763D01*
X78800000Y-131660000D01*
X78713745Y-131655763D01*
X78544549Y-131622107D01*
X78385171Y-131556091D01*
X78241734Y-131460249D01*
X78119751Y-131338266D01*
X78023909Y-131194829D01*
X77957893Y-131035451D01*
X77924237Y-130866255D01*
X77924237Y-130693745D01*
X77957893Y-130524549D01*
X78023909Y-130365171D01*
X78119751Y-130221734D01*
X78241734Y-130099751D01*
X78385171Y-130003909D01*
X78544549Y-129937893D01*
X78713745Y-129904237D01*
X79597571Y-129900011D01*
X79598887Y-129900005D01*
X79598892Y-129900005D01*
X79600000Y-129900000D01*
X79686255Y-129904237D01*
G37*
G36*
X87306255Y-129904237D02*
G01*
X87475451Y-129937893D01*
X87634829Y-130003909D01*
X87778266Y-130099751D01*
X87900249Y-130221734D01*
X87996091Y-130365171D01*
X88062107Y-130524549D01*
X88095763Y-130693745D01*
X88095763Y-130866255D01*
X88062107Y-131035451D01*
X87996091Y-131194829D01*
X87900249Y-131338266D01*
X87778266Y-131460249D01*
X87634829Y-131556091D01*
X87475451Y-131622107D01*
X87306255Y-131655763D01*
X86420000Y-131660000D01*
X86333745Y-131655763D01*
X86164549Y-131622107D01*
X86005171Y-131556091D01*
X85861734Y-131460249D01*
X85739751Y-131338266D01*
X85643909Y-131194829D01*
X85577893Y-131035451D01*
X85544237Y-130866255D01*
X85544237Y-130693745D01*
X85577893Y-130524549D01*
X85643909Y-130365171D01*
X85739751Y-130221734D01*
X85861734Y-130099751D01*
X86005171Y-130003909D01*
X86164549Y-129937893D01*
X86333745Y-129904237D01*
X87217571Y-129900011D01*
X87218887Y-129900005D01*
X87218892Y-129900005D01*
X87220000Y-129900000D01*
X87306255Y-129904237D01*
G37*
G36*
X70271935Y-129913070D02*
G01*
X70440000Y-129987898D01*
X70588835Y-130096033D01*
X70711935Y-130232749D01*
X70803920Y-130392072D01*
X70860770Y-130567038D01*
X70880000Y-130750000D01*
X70860770Y-130932962D01*
X70803920Y-131107928D01*
X70711935Y-131267251D01*
X70588835Y-131403967D01*
X70440000Y-131512102D01*
X70271935Y-131586930D01*
X70091985Y-131625179D01*
X69908015Y-131625179D01*
X69728065Y-131586930D01*
X69560000Y-131512102D01*
X69411165Y-131403967D01*
X69288065Y-131267251D01*
X69196080Y-131107928D01*
X69139230Y-130932962D01*
X69120000Y-130750000D01*
X69139230Y-130567038D01*
X69196080Y-130392072D01*
X69288065Y-130232749D01*
X69411165Y-130096033D01*
X69560000Y-129987898D01*
X69728065Y-129913070D01*
X69908015Y-129874821D01*
X70091985Y-129874821D01*
X70271935Y-129913070D01*
G37*
G36*
X75271935Y-129913070D02*
G01*
X75440000Y-129987898D01*
X75588835Y-130096033D01*
X75711935Y-130232749D01*
X75803920Y-130392072D01*
X75860770Y-130567038D01*
X75880000Y-130750000D01*
X75860770Y-130932962D01*
X75803920Y-131107928D01*
X75711935Y-131267251D01*
X75588835Y-131403967D01*
X75440000Y-131512102D01*
X75271935Y-131586930D01*
X75091985Y-131625179D01*
X74908015Y-131625179D01*
X74728065Y-131586930D01*
X74560000Y-131512102D01*
X74411165Y-131403967D01*
X74288065Y-131267251D01*
X74196080Y-131107928D01*
X74139230Y-130932962D01*
X74120000Y-130750000D01*
X74139230Y-130567038D01*
X74196080Y-130392072D01*
X74288065Y-130232749D01*
X74411165Y-130096033D01*
X74560000Y-129987898D01*
X74728065Y-129913070D01*
X74908015Y-129874821D01*
X75091985Y-129874821D01*
X75271935Y-129913070D01*
G37*
G36*
X91771935Y-129913070D02*
G01*
X91940000Y-129987898D01*
X92088835Y-130096033D01*
X92211935Y-130232749D01*
X92303920Y-130392072D01*
X92360770Y-130567038D01*
X92380000Y-130750000D01*
X92360770Y-130932962D01*
X92303920Y-131107928D01*
X92211935Y-131267251D01*
X92088835Y-131403967D01*
X91940000Y-131512102D01*
X91771935Y-131586930D01*
X91591985Y-131625179D01*
X91408015Y-131625179D01*
X91228065Y-131586930D01*
X91060000Y-131512102D01*
X90911165Y-131403967D01*
X90788065Y-131267251D01*
X90696080Y-131107928D01*
X90639230Y-130932962D01*
X90620000Y-130750000D01*
X90639230Y-130567038D01*
X90696080Y-130392072D01*
X90788065Y-130232749D01*
X90911165Y-130096033D01*
X91060000Y-129987898D01*
X91228065Y-129913070D01*
X91408015Y-129874821D01*
X91591985Y-129874821D01*
X91771935Y-129913070D01*
G37*
G36*
X96771935Y-129913070D02*
G01*
X96940000Y-129987898D01*
X97088835Y-130096033D01*
X97211935Y-130232749D01*
X97303920Y-130392072D01*
X97360770Y-130567038D01*
X97380000Y-130750000D01*
X97360770Y-130932962D01*
X97303920Y-131107928D01*
X97211935Y-131267251D01*
X97088835Y-131403967D01*
X96940000Y-131512102D01*
X96771935Y-131586930D01*
X96591985Y-131625179D01*
X96408015Y-131625179D01*
X96228065Y-131586930D01*
X96060000Y-131512102D01*
X95911165Y-131403967D01*
X95788065Y-131267251D01*
X95696080Y-131107928D01*
X95639230Y-130932962D01*
X95620000Y-130750000D01*
X95639230Y-130567038D01*
X95696080Y-130392072D01*
X95788065Y-130232749D01*
X95911165Y-130096033D01*
X96060000Y-129987898D01*
X96228065Y-129913070D01*
X96408015Y-129874821D01*
X96591985Y-129874821D01*
X96771935Y-129913070D01*
G37*
G36*
X58271935Y-129163070D02*
G01*
X58440000Y-129237898D01*
X58588835Y-129346033D01*
X58711935Y-129482749D01*
X58803920Y-129642072D01*
X58860770Y-129817038D01*
X58880000Y-130000000D01*
X58860770Y-130182962D01*
X58803920Y-130357928D01*
X58711935Y-130517251D01*
X58588835Y-130653967D01*
X58440000Y-130762102D01*
X58271935Y-130836930D01*
X58091985Y-130875179D01*
X57908015Y-130875179D01*
X57728065Y-130836930D01*
X57560000Y-130762102D01*
X57411165Y-130653967D01*
X57288065Y-130517251D01*
X57196080Y-130357928D01*
X57139230Y-130182962D01*
X57120000Y-130000000D01*
X57139230Y-129817038D01*
X57196080Y-129642072D01*
X57288065Y-129482749D01*
X57411165Y-129346033D01*
X57560000Y-129237898D01*
X57728065Y-129163070D01*
X57908015Y-129124821D01*
X58091985Y-129124821D01*
X58271935Y-129163070D01*
G37*
G36*
X65771935Y-129163070D02*
G01*
X65940000Y-129237898D01*
X66088835Y-129346033D01*
X66211935Y-129482749D01*
X66303920Y-129642072D01*
X66360770Y-129817038D01*
X66380000Y-130000000D01*
X66360770Y-130182962D01*
X66303920Y-130357928D01*
X66211935Y-130517251D01*
X66088835Y-130653967D01*
X65940000Y-130762102D01*
X65771935Y-130836930D01*
X65591985Y-130875179D01*
X65408015Y-130875179D01*
X65228065Y-130836930D01*
X65060000Y-130762102D01*
X64911165Y-130653967D01*
X64788065Y-130517251D01*
X64696080Y-130357928D01*
X64639230Y-130182962D01*
X64620000Y-130000000D01*
X64639230Y-129817038D01*
X64696080Y-129642072D01*
X64788065Y-129482749D01*
X64911165Y-129346033D01*
X65060000Y-129237898D01*
X65228065Y-129163070D01*
X65408015Y-129124821D01*
X65591985Y-129124821D01*
X65771935Y-129163070D01*
G37*
G36*
X100771935Y-129163070D02*
G01*
X100940000Y-129237898D01*
X101088835Y-129346033D01*
X101211935Y-129482749D01*
X101303920Y-129642072D01*
X101360770Y-129817038D01*
X101380000Y-130000000D01*
X101360770Y-130182962D01*
X101303920Y-130357928D01*
X101211935Y-130517251D01*
X101088835Y-130653967D01*
X100940000Y-130762102D01*
X100771935Y-130836930D01*
X100591985Y-130875179D01*
X100408015Y-130875179D01*
X100228065Y-130836930D01*
X100060000Y-130762102D01*
X99911165Y-130653967D01*
X99788065Y-130517251D01*
X99696080Y-130357928D01*
X99639230Y-130182962D01*
X99620000Y-130000000D01*
X99639230Y-129817038D01*
X99696080Y-129642072D01*
X99788065Y-129482749D01*
X99911165Y-129346033D01*
X100060000Y-129237898D01*
X100228065Y-129163070D01*
X100408015Y-129124821D01*
X100591985Y-129124821D01*
X100771935Y-129163070D01*
G37*
G36*
X108271935Y-129163070D02*
G01*
X108440000Y-129237898D01*
X108588835Y-129346033D01*
X108711935Y-129482749D01*
X108803920Y-129642072D01*
X108860770Y-129817038D01*
X108880000Y-130000000D01*
X108860770Y-130182962D01*
X108803920Y-130357928D01*
X108711935Y-130517251D01*
X108588835Y-130653967D01*
X108440000Y-130762102D01*
X108271935Y-130836930D01*
X108091985Y-130875179D01*
X107908015Y-130875179D01*
X107728065Y-130836930D01*
X107560000Y-130762102D01*
X107411165Y-130653967D01*
X107288065Y-130517251D01*
X107196080Y-130357928D01*
X107139230Y-130182962D01*
X107120000Y-130000000D01*
X107139230Y-129817038D01*
X107196080Y-129642072D01*
X107288065Y-129482749D01*
X107411165Y-129346033D01*
X107560000Y-129237898D01*
X107728065Y-129163070D01*
X107908015Y-129124821D01*
X108091985Y-129124821D01*
X108271935Y-129163070D01*
G37*
G36*
X79686255Y-127364237D02*
G01*
X79855451Y-127397893D01*
X80014829Y-127463909D01*
X80158266Y-127559751D01*
X80280249Y-127681734D01*
X80376091Y-127825171D01*
X80442107Y-127984549D01*
X80475763Y-128153745D01*
X80475763Y-128326255D01*
X80442107Y-128495451D01*
X80376091Y-128654829D01*
X80280249Y-128798266D01*
X80158266Y-128920249D01*
X80014829Y-129016091D01*
X79855451Y-129082107D01*
X79686255Y-129115763D01*
X78800000Y-129120000D01*
X78713745Y-129115763D01*
X78544549Y-129082107D01*
X78385171Y-129016091D01*
X78241734Y-128920249D01*
X78119751Y-128798266D01*
X78023909Y-128654829D01*
X77957893Y-128495451D01*
X77924237Y-128326255D01*
X77924237Y-128153745D01*
X77957893Y-127984549D01*
X78023909Y-127825171D01*
X78119751Y-127681734D01*
X78241734Y-127559751D01*
X78385171Y-127463909D01*
X78544549Y-127397893D01*
X78713745Y-127364237D01*
X79597571Y-127360011D01*
X79598887Y-127360005D01*
X79598892Y-127360005D01*
X79600000Y-127360000D01*
X79686255Y-127364237D01*
G37*
G36*
X87306255Y-127364237D02*
G01*
X87475451Y-127397893D01*
X87634829Y-127463909D01*
X87778266Y-127559751D01*
X87900249Y-127681734D01*
X87996091Y-127825171D01*
X88062107Y-127984549D01*
X88095763Y-128153745D01*
X88095763Y-128326255D01*
X88062107Y-128495451D01*
X87996091Y-128654829D01*
X87900249Y-128798266D01*
X87778266Y-128920249D01*
X87634829Y-129016091D01*
X87475451Y-129082107D01*
X87306255Y-129115763D01*
X86420000Y-129120000D01*
X86333745Y-129115763D01*
X86164549Y-129082107D01*
X86005171Y-129016091D01*
X85861734Y-128920249D01*
X85739751Y-128798266D01*
X85643909Y-128654829D01*
X85577893Y-128495451D01*
X85544237Y-128326255D01*
X85544237Y-128153745D01*
X85577893Y-127984549D01*
X85643909Y-127825171D01*
X85739751Y-127681734D01*
X85861734Y-127559751D01*
X86005171Y-127463909D01*
X86164549Y-127397893D01*
X86333745Y-127364237D01*
X87217571Y-127360011D01*
X87218887Y-127360005D01*
X87218892Y-127360005D01*
X87220000Y-127360000D01*
X87306255Y-127364237D01*
G37*
G36*
X91885410Y-127206244D02*
G01*
X91890800Y-127208757D01*
X91893487Y-127209149D01*
X91931689Y-127227824D01*
X91989280Y-127254680D01*
X92070320Y-127335720D01*
X92097185Y-127393333D01*
X92115850Y-127431512D01*
X92116241Y-127434197D01*
X92118756Y-127439590D01*
X92130000Y-127525000D01*
X92130000Y-128475000D01*
X92118756Y-128560410D01*
X92116240Y-128565803D01*
X92115850Y-128568487D01*
X92097195Y-128606645D01*
X92070320Y-128664280D01*
X91989280Y-128745320D01*
X91931645Y-128772195D01*
X91893487Y-128790850D01*
X91890803Y-128791240D01*
X91885410Y-128793756D01*
X91800000Y-128805000D01*
X91125000Y-128805000D01*
X91039590Y-128793756D01*
X91034197Y-128791241D01*
X91031512Y-128790850D01*
X90993333Y-128772185D01*
X90935720Y-128745320D01*
X90854680Y-128664280D01*
X90827824Y-128606689D01*
X90809149Y-128568487D01*
X90808757Y-128565800D01*
X90806244Y-128560410D01*
X90795000Y-128475000D01*
X90795000Y-127525000D01*
X90806244Y-127439590D01*
X90808757Y-127434200D01*
X90809149Y-127431512D01*
X90827834Y-127393288D01*
X90854680Y-127335720D01*
X90935720Y-127254680D01*
X90993288Y-127227834D01*
X91031512Y-127209149D01*
X91034200Y-127208757D01*
X91039590Y-127206244D01*
X91125000Y-127195000D01*
X91800000Y-127195000D01*
X91885410Y-127206244D01*
G37*
G36*
X93960410Y-127206244D02*
G01*
X93965800Y-127208757D01*
X93968487Y-127209149D01*
X94006689Y-127227824D01*
X94064280Y-127254680D01*
X94145320Y-127335720D01*
X94172185Y-127393333D01*
X94190850Y-127431512D01*
X94191241Y-127434197D01*
X94193756Y-127439590D01*
X94205000Y-127525000D01*
X94205000Y-128475000D01*
X94193756Y-128560410D01*
X94191240Y-128565803D01*
X94190850Y-128568487D01*
X94172195Y-128606645D01*
X94145320Y-128664280D01*
X94064280Y-128745320D01*
X94006645Y-128772195D01*
X93968487Y-128790850D01*
X93965803Y-128791240D01*
X93960410Y-128793756D01*
X93875000Y-128805000D01*
X93200000Y-128805000D01*
X93114590Y-128793756D01*
X93109197Y-128791241D01*
X93106512Y-128790850D01*
X93068333Y-128772185D01*
X93010720Y-128745320D01*
X92929680Y-128664280D01*
X92902824Y-128606689D01*
X92884149Y-128568487D01*
X92883757Y-128565800D01*
X92881244Y-128560410D01*
X92870000Y-128475000D01*
X92870000Y-127525000D01*
X92881244Y-127439590D01*
X92883757Y-127434200D01*
X92884149Y-127431512D01*
X92902834Y-127393288D01*
X92929680Y-127335720D01*
X93010720Y-127254680D01*
X93068288Y-127227834D01*
X93106512Y-127209149D01*
X93109200Y-127208757D01*
X93114590Y-127206244D01*
X93200000Y-127195000D01*
X93875000Y-127195000D01*
X93960410Y-127206244D01*
G37*
G36*
X83399047Y-127860805D02*
G01*
X83446974Y-127866365D01*
X83463348Y-127873594D01*
X83484931Y-127877888D01*
X83508037Y-127893327D01*
X83527316Y-127901840D01*
X83540483Y-127915007D01*
X83561170Y-127928830D01*
X83574992Y-127949516D01*
X83588159Y-127962683D01*
X83596670Y-127981959D01*
X83612112Y-128005069D01*
X83616405Y-128026654D01*
X83623634Y-128043025D01*
X83629192Y-128090942D01*
X83630000Y-128095000D01*
X83630000Y-128405000D01*
X83629192Y-128409059D01*
X83623634Y-128456974D01*
X83616405Y-128473344D01*
X83612112Y-128494931D01*
X83596669Y-128518042D01*
X83588159Y-128537316D01*
X83574994Y-128550480D01*
X83561170Y-128571170D01*
X83540480Y-128584994D01*
X83527316Y-128598159D01*
X83508042Y-128606669D01*
X83484931Y-128622112D01*
X83463344Y-128626405D01*
X83446974Y-128633634D01*
X83399059Y-128639192D01*
X83395000Y-128640000D01*
X82970000Y-128640000D01*
X82965942Y-128639192D01*
X82918025Y-128633634D01*
X82901654Y-128626405D01*
X82880069Y-128622112D01*
X82856959Y-128606670D01*
X82837683Y-128598159D01*
X82824516Y-128584992D01*
X82803830Y-128571170D01*
X82790007Y-128550483D01*
X82776840Y-128537316D01*
X82768327Y-128518037D01*
X82752888Y-128494931D01*
X82748594Y-128473348D01*
X82741365Y-128456974D01*
X82735805Y-128409047D01*
X82735000Y-128405000D01*
X82735000Y-128095000D01*
X82735804Y-128090954D01*
X82741365Y-128043025D01*
X82748595Y-128026650D01*
X82752888Y-128005069D01*
X82768326Y-127981964D01*
X82776840Y-127962683D01*
X82790009Y-127949513D01*
X82803830Y-127928830D01*
X82824513Y-127915009D01*
X82837683Y-127901840D01*
X82856964Y-127893326D01*
X82880069Y-127877888D01*
X82901650Y-127873595D01*
X82918025Y-127866365D01*
X82965954Y-127860804D01*
X82970000Y-127860000D01*
X83395000Y-127860000D01*
X83399047Y-127860805D01*
G37*
G36*
X84534047Y-127860805D02*
G01*
X84581974Y-127866365D01*
X84598348Y-127873594D01*
X84619931Y-127877888D01*
X84643037Y-127893327D01*
X84662316Y-127901840D01*
X84675483Y-127915007D01*
X84696170Y-127928830D01*
X84709992Y-127949516D01*
X84723159Y-127962683D01*
X84731670Y-127981959D01*
X84747112Y-128005069D01*
X84751405Y-128026654D01*
X84758634Y-128043025D01*
X84764192Y-128090942D01*
X84765000Y-128095000D01*
X84765000Y-128405000D01*
X84764192Y-128409059D01*
X84758634Y-128456974D01*
X84751405Y-128473344D01*
X84747112Y-128494931D01*
X84731669Y-128518042D01*
X84723159Y-128537316D01*
X84709994Y-128550480D01*
X84696170Y-128571170D01*
X84675480Y-128584994D01*
X84662316Y-128598159D01*
X84643042Y-128606669D01*
X84619931Y-128622112D01*
X84598344Y-128626405D01*
X84581974Y-128633634D01*
X84534059Y-128639192D01*
X84530000Y-128640000D01*
X84105000Y-128640000D01*
X84100942Y-128639192D01*
X84053025Y-128633634D01*
X84036654Y-128626405D01*
X84015069Y-128622112D01*
X83991959Y-128606670D01*
X83972683Y-128598159D01*
X83959516Y-128584992D01*
X83938830Y-128571170D01*
X83925007Y-128550483D01*
X83911840Y-128537316D01*
X83903327Y-128518037D01*
X83887888Y-128494931D01*
X83883594Y-128473348D01*
X83876365Y-128456974D01*
X83870805Y-128409047D01*
X83870000Y-128405000D01*
X83870000Y-128095000D01*
X83870804Y-128090954D01*
X83876365Y-128043025D01*
X83883595Y-128026650D01*
X83887888Y-128005069D01*
X83903326Y-127981964D01*
X83911840Y-127962683D01*
X83925009Y-127949513D01*
X83938830Y-127928830D01*
X83959513Y-127915009D01*
X83972683Y-127901840D01*
X83991964Y-127893326D01*
X84015069Y-127877888D01*
X84036650Y-127873595D01*
X84053025Y-127866365D01*
X84100954Y-127860804D01*
X84105000Y-127860000D01*
X84530000Y-127860000D01*
X84534047Y-127860805D01*
G37*
G36*
X58271935Y-125663070D02*
G01*
X58440000Y-125737898D01*
X58588835Y-125846033D01*
X58711935Y-125982749D01*
X58803920Y-126142072D01*
X58860770Y-126317038D01*
X58880000Y-126500000D01*
X58860770Y-126682962D01*
X58803920Y-126857928D01*
X58711935Y-127017251D01*
X58588835Y-127153967D01*
X58440000Y-127262102D01*
X58271935Y-127336930D01*
X58091985Y-127375179D01*
X57908015Y-127375179D01*
X57728065Y-127336930D01*
X57560000Y-127262102D01*
X57411165Y-127153967D01*
X57288065Y-127017251D01*
X57196080Y-126857928D01*
X57139230Y-126682962D01*
X57120000Y-126500000D01*
X57139230Y-126317038D01*
X57196080Y-126142072D01*
X57288065Y-125982749D01*
X57411165Y-125846033D01*
X57560000Y-125737898D01*
X57728065Y-125663070D01*
X57908015Y-125624821D01*
X58091985Y-125624821D01*
X58271935Y-125663070D01*
G37*
G36*
X65771935Y-125663070D02*
G01*
X65940000Y-125737898D01*
X66088835Y-125846033D01*
X66211935Y-125982749D01*
X66303920Y-126142072D01*
X66360770Y-126317038D01*
X66380000Y-126500000D01*
X66360770Y-126682962D01*
X66303920Y-126857928D01*
X66211935Y-127017251D01*
X66088835Y-127153967D01*
X65940000Y-127262102D01*
X65771935Y-127336930D01*
X65591985Y-127375179D01*
X65408015Y-127375179D01*
X65228065Y-127336930D01*
X65060000Y-127262102D01*
X64911165Y-127153967D01*
X64788065Y-127017251D01*
X64696080Y-126857928D01*
X64639230Y-126682962D01*
X64620000Y-126500000D01*
X64639230Y-126317038D01*
X64696080Y-126142072D01*
X64788065Y-125982749D01*
X64911165Y-125846033D01*
X65060000Y-125737898D01*
X65228065Y-125663070D01*
X65408015Y-125624821D01*
X65591985Y-125624821D01*
X65771935Y-125663070D01*
G37*
G36*
X100771935Y-125663070D02*
G01*
X100940000Y-125737898D01*
X101088835Y-125846033D01*
X101211935Y-125982749D01*
X101303920Y-126142072D01*
X101360770Y-126317038D01*
X101380000Y-126500000D01*
X101360770Y-126682962D01*
X101303920Y-126857928D01*
X101211935Y-127017251D01*
X101088835Y-127153967D01*
X100940000Y-127262102D01*
X100771935Y-127336930D01*
X100591985Y-127375179D01*
X100408015Y-127375179D01*
X100228065Y-127336930D01*
X100060000Y-127262102D01*
X99911165Y-127153967D01*
X99788065Y-127017251D01*
X99696080Y-126857928D01*
X99639230Y-126682962D01*
X99620000Y-126500000D01*
X99639230Y-126317038D01*
X99696080Y-126142072D01*
X99788065Y-125982749D01*
X99911165Y-125846033D01*
X100060000Y-125737898D01*
X100228065Y-125663070D01*
X100408015Y-125624821D01*
X100591985Y-125624821D01*
X100771935Y-125663070D01*
G37*
G36*
X108271935Y-125663070D02*
G01*
X108440000Y-125737898D01*
X108588835Y-125846033D01*
X108711935Y-125982749D01*
X108803920Y-126142072D01*
X108860770Y-126317038D01*
X108880000Y-126500000D01*
X108860770Y-126682962D01*
X108803920Y-126857928D01*
X108711935Y-127017251D01*
X108588835Y-127153967D01*
X108440000Y-127262102D01*
X108271935Y-127336930D01*
X108091985Y-127375179D01*
X107908015Y-127375179D01*
X107728065Y-127336930D01*
X107560000Y-127262102D01*
X107411165Y-127153967D01*
X107288065Y-127017251D01*
X107196080Y-126857928D01*
X107139230Y-126682962D01*
X107120000Y-126500000D01*
X107139230Y-126317038D01*
X107196080Y-126142072D01*
X107288065Y-125982749D01*
X107411165Y-125846033D01*
X107560000Y-125737898D01*
X107728065Y-125663070D01*
X107908015Y-125624821D01*
X108091985Y-125624821D01*
X108271935Y-125663070D01*
G37*
G36*
X80430615Y-124826090D02*
G01*
X80456569Y-124843431D01*
X80473910Y-124869385D01*
X80480000Y-124900000D01*
X80480000Y-126500000D01*
X80473910Y-126530615D01*
X80456569Y-126556569D01*
X80430615Y-126573910D01*
X80400000Y-126580000D01*
X78000000Y-126580000D01*
X77969385Y-126573910D01*
X77943431Y-126556569D01*
X77926090Y-126530615D01*
X77920000Y-126500000D01*
X77920000Y-124900000D01*
X77926090Y-124869385D01*
X77943431Y-124843431D01*
X77969385Y-124826090D01*
X78000000Y-124820000D01*
X80400000Y-124820000D01*
X80430615Y-124826090D01*
G37*
G36*
X87306255Y-124824237D02*
G01*
X87475451Y-124857893D01*
X87634829Y-124923909D01*
X87778266Y-125019751D01*
X87900249Y-125141734D01*
X87996091Y-125285171D01*
X88062107Y-125444549D01*
X88095763Y-125613745D01*
X88095763Y-125786255D01*
X88062107Y-125955451D01*
X87996091Y-126114829D01*
X87900249Y-126258266D01*
X87778266Y-126380249D01*
X87634829Y-126476091D01*
X87475451Y-126542107D01*
X87306255Y-126575763D01*
X86420000Y-126580000D01*
X86333745Y-126575763D01*
X86164549Y-126542107D01*
X86005171Y-126476091D01*
X85861734Y-126380249D01*
X85739751Y-126258266D01*
X85643909Y-126114829D01*
X85577893Y-125955451D01*
X85544237Y-125786255D01*
X85544237Y-125613745D01*
X85577893Y-125444549D01*
X85643909Y-125285171D01*
X85739751Y-125141734D01*
X85861734Y-125019751D01*
X86005171Y-124923909D01*
X86164549Y-124857893D01*
X86333745Y-124824237D01*
X87217571Y-124820011D01*
X87218887Y-124820005D01*
X87218892Y-124820005D01*
X87220000Y-124820000D01*
X87306255Y-124824237D01*
G37*
G36*
X92240615Y-124286090D02*
G01*
X92266569Y-124303431D01*
X92283910Y-124329385D01*
X92290000Y-124360000D01*
X92290000Y-125860000D01*
X92283910Y-125890615D01*
X92266569Y-125916569D01*
X92240615Y-125933910D01*
X92210000Y-125940000D01*
X90710000Y-125940000D01*
X90679385Y-125933910D01*
X90653431Y-125916569D01*
X90636090Y-125890615D01*
X90630000Y-125860000D01*
X90630000Y-124360000D01*
X90636090Y-124329385D01*
X90653431Y-124303431D01*
X90679385Y-124286090D01*
X90710000Y-124280000D01*
X92210000Y-124280000D01*
X92240615Y-124286090D01*
G37*
G36*
X94256484Y-124320623D02*
G01*
X94415000Y-124391199D01*
X94555378Y-124493190D01*
X94671484Y-124622138D01*
X94758243Y-124772409D01*
X94811863Y-124937433D01*
X94830000Y-125110000D01*
X94811863Y-125282567D01*
X94758243Y-125447591D01*
X94671484Y-125597862D01*
X94555378Y-125726810D01*
X94415000Y-125828801D01*
X94256484Y-125899377D01*
X94086759Y-125935453D01*
X93913241Y-125935453D01*
X93743516Y-125899377D01*
X93585000Y-125828801D01*
X93444622Y-125726810D01*
X93328516Y-125597862D01*
X93241757Y-125447591D01*
X93188137Y-125282567D01*
X93170000Y-125110000D01*
X93188137Y-124937433D01*
X93241757Y-124772409D01*
X93328516Y-124622138D01*
X93444622Y-124493190D01*
X93585000Y-124391199D01*
X93743516Y-124320623D01*
X93913241Y-124284547D01*
X94086759Y-124284547D01*
X94256484Y-124320623D01*
G37*
G36*
X96796484Y-124320623D02*
G01*
X96955000Y-124391199D01*
X97095378Y-124493190D01*
X97211484Y-124622138D01*
X97298243Y-124772409D01*
X97351863Y-124937433D01*
X97370000Y-125110000D01*
X97351863Y-125282567D01*
X97298243Y-125447591D01*
X97211484Y-125597862D01*
X97095378Y-125726810D01*
X96955000Y-125828801D01*
X96796484Y-125899377D01*
X96626759Y-125935453D01*
X96453241Y-125935453D01*
X96283516Y-125899377D01*
X96125000Y-125828801D01*
X95984622Y-125726810D01*
X95868516Y-125597862D01*
X95781757Y-125447591D01*
X95728137Y-125282567D01*
X95710000Y-125110000D01*
X95728137Y-124937433D01*
X95781757Y-124772409D01*
X95868516Y-124622138D01*
X95984622Y-124493190D01*
X96125000Y-124391199D01*
X96283516Y-124320623D01*
X96453241Y-124284547D01*
X96626759Y-124284547D01*
X96796484Y-124320623D01*
G37*
G36*
X70271935Y-123913070D02*
G01*
X70440000Y-123987898D01*
X70588835Y-124096033D01*
X70711935Y-124232749D01*
X70803920Y-124392072D01*
X70860770Y-124567038D01*
X70880000Y-124750000D01*
X70860770Y-124932962D01*
X70803920Y-125107928D01*
X70711935Y-125267251D01*
X70588835Y-125403967D01*
X70440000Y-125512102D01*
X70271935Y-125586930D01*
X70091985Y-125625179D01*
X69908015Y-125625179D01*
X69728065Y-125586930D01*
X69560000Y-125512102D01*
X69411165Y-125403967D01*
X69288065Y-125267251D01*
X69196080Y-125107928D01*
X69139230Y-124932962D01*
X69120000Y-124750000D01*
X69139230Y-124567038D01*
X69196080Y-124392072D01*
X69288065Y-124232749D01*
X69411165Y-124096033D01*
X69560000Y-123987898D01*
X69728065Y-123913070D01*
X69908015Y-123874821D01*
X70091985Y-123874821D01*
X70271935Y-123913070D01*
G37*
G36*
X75271935Y-123913070D02*
G01*
X75440000Y-123987898D01*
X75588835Y-124096033D01*
X75711935Y-124232749D01*
X75803920Y-124392072D01*
X75860770Y-124567038D01*
X75880000Y-124750000D01*
X75860770Y-124932962D01*
X75803920Y-125107928D01*
X75711935Y-125267251D01*
X75588835Y-125403967D01*
X75440000Y-125512102D01*
X75271935Y-125586930D01*
X75091985Y-125625179D01*
X74908015Y-125625179D01*
X74728065Y-125586930D01*
X74560000Y-125512102D01*
X74411165Y-125403967D01*
X74288065Y-125267251D01*
X74196080Y-125107928D01*
X74139230Y-124932962D01*
X74120000Y-124750000D01*
X74139230Y-124567038D01*
X74196080Y-124392072D01*
X74288065Y-124232749D01*
X74411165Y-124096033D01*
X74560000Y-123987898D01*
X74728065Y-123913070D01*
X74908015Y-123874821D01*
X75091985Y-123874821D01*
X75271935Y-123913070D01*
G37*
G36*
X58271935Y-122163070D02*
G01*
X58440000Y-122237898D01*
X58588835Y-122346033D01*
X58711935Y-122482749D01*
X58803920Y-122642072D01*
X58860770Y-122817038D01*
X58880000Y-123000000D01*
X58860770Y-123182962D01*
X58803920Y-123357928D01*
X58711935Y-123517251D01*
X58588835Y-123653967D01*
X58440000Y-123762102D01*
X58271935Y-123836930D01*
X58091985Y-123875179D01*
X57908015Y-123875179D01*
X57728065Y-123836930D01*
X57560000Y-123762102D01*
X57411165Y-123653967D01*
X57288065Y-123517251D01*
X57196080Y-123357928D01*
X57139230Y-123182962D01*
X57120000Y-123000000D01*
X57139230Y-122817038D01*
X57196080Y-122642072D01*
X57288065Y-122482749D01*
X57411165Y-122346033D01*
X57560000Y-122237898D01*
X57728065Y-122163070D01*
X57908015Y-122124821D01*
X58091985Y-122124821D01*
X58271935Y-122163070D01*
G37*
G36*
X65771935Y-122163070D02*
G01*
X65940000Y-122237898D01*
X66088835Y-122346033D01*
X66211935Y-122482749D01*
X66303920Y-122642072D01*
X66360770Y-122817038D01*
X66380000Y-123000000D01*
X66360770Y-123182962D01*
X66303920Y-123357928D01*
X66211935Y-123517251D01*
X66088835Y-123653967D01*
X65940000Y-123762102D01*
X65771935Y-123836930D01*
X65591985Y-123875179D01*
X65408015Y-123875179D01*
X65228065Y-123836930D01*
X65060000Y-123762102D01*
X64911165Y-123653967D01*
X64788065Y-123517251D01*
X64696080Y-123357928D01*
X64639230Y-123182962D01*
X64620000Y-123000000D01*
X64639230Y-122817038D01*
X64696080Y-122642072D01*
X64788065Y-122482749D01*
X64911165Y-122346033D01*
X65060000Y-122237898D01*
X65228065Y-122163070D01*
X65408015Y-122124821D01*
X65591985Y-122124821D01*
X65771935Y-122163070D01*
G37*
G36*
X100771935Y-122163070D02*
G01*
X100940000Y-122237898D01*
X101088835Y-122346033D01*
X101211935Y-122482749D01*
X101303920Y-122642072D01*
X101360770Y-122817038D01*
X101380000Y-123000000D01*
X101360770Y-123182962D01*
X101303920Y-123357928D01*
X101211935Y-123517251D01*
X101088835Y-123653967D01*
X100940000Y-123762102D01*
X100771935Y-123836930D01*
X100591985Y-123875179D01*
X100408015Y-123875179D01*
X100228065Y-123836930D01*
X100060000Y-123762102D01*
X99911165Y-123653967D01*
X99788065Y-123517251D01*
X99696080Y-123357928D01*
X99639230Y-123182962D01*
X99620000Y-123000000D01*
X99639230Y-122817038D01*
X99696080Y-122642072D01*
X99788065Y-122482749D01*
X99911165Y-122346033D01*
X100060000Y-122237898D01*
X100228065Y-122163070D01*
X100408015Y-122124821D01*
X100591985Y-122124821D01*
X100771935Y-122163070D01*
G37*
G36*
X108271935Y-122163070D02*
G01*
X108440000Y-122237898D01*
X108588835Y-122346033D01*
X108711935Y-122482749D01*
X108803920Y-122642072D01*
X108860770Y-122817038D01*
X108880000Y-123000000D01*
X108860770Y-123182962D01*
X108803920Y-123357928D01*
X108711935Y-123517251D01*
X108588835Y-123653967D01*
X108440000Y-123762102D01*
X108271935Y-123836930D01*
X108091985Y-123875179D01*
X107908015Y-123875179D01*
X107728065Y-123836930D01*
X107560000Y-123762102D01*
X107411165Y-123653967D01*
X107288065Y-123517251D01*
X107196080Y-123357928D01*
X107139230Y-123182962D01*
X107120000Y-123000000D01*
X107139230Y-122817038D01*
X107196080Y-122642072D01*
X107288065Y-122482749D01*
X107411165Y-122346033D01*
X107560000Y-122237898D01*
X107728065Y-122163070D01*
X107908015Y-122124821D01*
X108091985Y-122124821D01*
X108271935Y-122163070D01*
G37*
G36*
X91399047Y-122610805D02*
G01*
X91446974Y-122616365D01*
X91463348Y-122623594D01*
X91484931Y-122627888D01*
X91508037Y-122643327D01*
X91527316Y-122651840D01*
X91540483Y-122665007D01*
X91561170Y-122678830D01*
X91574992Y-122699516D01*
X91588159Y-122712683D01*
X91596670Y-122731959D01*
X91612112Y-122755069D01*
X91616405Y-122776654D01*
X91623634Y-122793025D01*
X91629192Y-122840942D01*
X91630000Y-122845000D01*
X91630000Y-123155000D01*
X91629192Y-123159059D01*
X91623634Y-123206974D01*
X91616405Y-123223344D01*
X91612112Y-123244931D01*
X91596669Y-123268042D01*
X91588159Y-123287316D01*
X91574994Y-123300480D01*
X91561170Y-123321170D01*
X91540480Y-123334994D01*
X91527316Y-123348159D01*
X91508042Y-123356669D01*
X91484931Y-123372112D01*
X91463344Y-123376405D01*
X91446974Y-123383634D01*
X91399059Y-123389192D01*
X91395000Y-123390000D01*
X90970000Y-123390000D01*
X90965942Y-123389192D01*
X90918025Y-123383634D01*
X90901654Y-123376405D01*
X90880069Y-123372112D01*
X90856959Y-123356670D01*
X90837683Y-123348159D01*
X90824516Y-123334992D01*
X90803830Y-123321170D01*
X90790007Y-123300483D01*
X90776840Y-123287316D01*
X90768327Y-123268037D01*
X90752888Y-123244931D01*
X90748594Y-123223348D01*
X90741365Y-123206974D01*
X90735805Y-123159047D01*
X90735000Y-123155000D01*
X90735000Y-122845000D01*
X90735804Y-122840954D01*
X90741365Y-122793025D01*
X90748595Y-122776650D01*
X90752888Y-122755069D01*
X90768326Y-122731964D01*
X90776840Y-122712683D01*
X90790009Y-122699513D01*
X90803830Y-122678830D01*
X90824513Y-122665009D01*
X90837683Y-122651840D01*
X90856964Y-122643326D01*
X90880069Y-122627888D01*
X90901650Y-122623595D01*
X90918025Y-122616365D01*
X90965954Y-122610804D01*
X90970000Y-122610000D01*
X91395000Y-122610000D01*
X91399047Y-122610805D01*
G37*
G36*
X92534047Y-122610805D02*
G01*
X92581974Y-122616365D01*
X92598348Y-122623594D01*
X92619931Y-122627888D01*
X92643037Y-122643327D01*
X92662316Y-122651840D01*
X92675483Y-122665007D01*
X92696170Y-122678830D01*
X92709992Y-122699516D01*
X92723159Y-122712683D01*
X92731670Y-122731959D01*
X92747112Y-122755069D01*
X92751405Y-122776654D01*
X92758634Y-122793025D01*
X92764192Y-122840942D01*
X92765000Y-122845000D01*
X92765000Y-123155000D01*
X92764192Y-123159059D01*
X92758634Y-123206974D01*
X92751405Y-123223344D01*
X92747112Y-123244931D01*
X92731669Y-123268042D01*
X92723159Y-123287316D01*
X92709994Y-123300480D01*
X92696170Y-123321170D01*
X92675480Y-123334994D01*
X92662316Y-123348159D01*
X92643042Y-123356669D01*
X92619931Y-123372112D01*
X92598344Y-123376405D01*
X92581974Y-123383634D01*
X92534059Y-123389192D01*
X92530000Y-123390000D01*
X92105000Y-123390000D01*
X92100942Y-123389192D01*
X92053025Y-123383634D01*
X92036654Y-123376405D01*
X92015069Y-123372112D01*
X91991959Y-123356670D01*
X91972683Y-123348159D01*
X91959516Y-123334992D01*
X91938830Y-123321170D01*
X91925007Y-123300483D01*
X91911840Y-123287316D01*
X91903327Y-123268037D01*
X91887888Y-123244931D01*
X91883594Y-123223348D01*
X91876365Y-123206974D01*
X91870805Y-123159047D01*
X91870000Y-123155000D01*
X91870000Y-122845000D01*
X91870804Y-122840954D01*
X91876365Y-122793025D01*
X91883595Y-122776650D01*
X91887888Y-122755069D01*
X91903326Y-122731964D01*
X91911840Y-122712683D01*
X91925009Y-122699513D01*
X91938830Y-122678830D01*
X91959513Y-122665009D01*
X91972683Y-122651840D01*
X91991964Y-122643326D01*
X92015069Y-122627888D01*
X92036650Y-122623595D01*
X92053025Y-122616365D01*
X92100954Y-122610804D01*
X92105000Y-122610000D01*
X92530000Y-122610000D01*
X92534047Y-122610805D01*
G37*
G36*
X58271935Y-118663070D02*
G01*
X58440000Y-118737898D01*
X58588835Y-118846033D01*
X58711935Y-118982749D01*
X58803920Y-119142072D01*
X58860770Y-119317038D01*
X58880000Y-119500000D01*
X58860770Y-119682962D01*
X58803920Y-119857928D01*
X58711935Y-120017251D01*
X58588835Y-120153967D01*
X58440000Y-120262102D01*
X58271935Y-120336930D01*
X58091985Y-120375179D01*
X57908015Y-120375179D01*
X57728065Y-120336930D01*
X57560000Y-120262102D01*
X57411165Y-120153967D01*
X57288065Y-120017251D01*
X57196080Y-119857928D01*
X57139230Y-119682962D01*
X57120000Y-119500000D01*
X57139230Y-119317038D01*
X57196080Y-119142072D01*
X57288065Y-118982749D01*
X57411165Y-118846033D01*
X57560000Y-118737898D01*
X57728065Y-118663070D01*
X57908015Y-118624821D01*
X58091985Y-118624821D01*
X58271935Y-118663070D01*
G37*
G36*
X65771935Y-118663070D02*
G01*
X65940000Y-118737898D01*
X66088835Y-118846033D01*
X66211935Y-118982749D01*
X66303920Y-119142072D01*
X66360770Y-119317038D01*
X66380000Y-119500000D01*
X66360770Y-119682962D01*
X66303920Y-119857928D01*
X66211935Y-120017251D01*
X66088835Y-120153967D01*
X65940000Y-120262102D01*
X65771935Y-120336930D01*
X65591985Y-120375179D01*
X65408015Y-120375179D01*
X65228065Y-120336930D01*
X65060000Y-120262102D01*
X64911165Y-120153967D01*
X64788065Y-120017251D01*
X64696080Y-119857928D01*
X64639230Y-119682962D01*
X64620000Y-119500000D01*
X64639230Y-119317038D01*
X64696080Y-119142072D01*
X64788065Y-118982749D01*
X64911165Y-118846033D01*
X65060000Y-118737898D01*
X65228065Y-118663070D01*
X65408015Y-118624821D01*
X65591985Y-118624821D01*
X65771935Y-118663070D01*
G37*
G36*
X100771935Y-118663070D02*
G01*
X100940000Y-118737898D01*
X101088835Y-118846033D01*
X101211935Y-118982749D01*
X101303920Y-119142072D01*
X101360770Y-119317038D01*
X101380000Y-119500000D01*
X101360770Y-119682962D01*
X101303920Y-119857928D01*
X101211935Y-120017251D01*
X101088835Y-120153967D01*
X100940000Y-120262102D01*
X100771935Y-120336930D01*
X100591985Y-120375179D01*
X100408015Y-120375179D01*
X100228065Y-120336930D01*
X100060000Y-120262102D01*
X99911165Y-120153967D01*
X99788065Y-120017251D01*
X99696080Y-119857928D01*
X99639230Y-119682962D01*
X99620000Y-119500000D01*
X99639230Y-119317038D01*
X99696080Y-119142072D01*
X99788065Y-118982749D01*
X99911165Y-118846033D01*
X100060000Y-118737898D01*
X100228065Y-118663070D01*
X100408015Y-118624821D01*
X100591985Y-118624821D01*
X100771935Y-118663070D01*
G37*
G36*
X108271935Y-118663070D02*
G01*
X108440000Y-118737898D01*
X108588835Y-118846033D01*
X108711935Y-118982749D01*
X108803920Y-119142072D01*
X108860770Y-119317038D01*
X108880000Y-119500000D01*
X108860770Y-119682962D01*
X108803920Y-119857928D01*
X108711935Y-120017251D01*
X108588835Y-120153967D01*
X108440000Y-120262102D01*
X108271935Y-120336930D01*
X108091985Y-120375179D01*
X107908015Y-120375179D01*
X107728065Y-120336930D01*
X107560000Y-120262102D01*
X107411165Y-120153967D01*
X107288065Y-120017251D01*
X107196080Y-119857928D01*
X107139230Y-119682962D01*
X107120000Y-119500000D01*
X107139230Y-119317038D01*
X107196080Y-119142072D01*
X107288065Y-118982749D01*
X107411165Y-118846033D01*
X107560000Y-118737898D01*
X107728065Y-118663070D01*
X107908015Y-118624821D01*
X108091985Y-118624821D01*
X108271935Y-118663070D01*
G37*
G36*
X76830615Y-118126090D02*
G01*
X76856569Y-118143431D01*
X76873910Y-118169385D01*
X76880000Y-118200000D01*
X76880000Y-119800000D01*
X76873910Y-119830615D01*
X76856569Y-119856569D01*
X76830615Y-119873910D01*
X76800000Y-119880000D01*
X75200000Y-119880000D01*
X75169385Y-119873910D01*
X75143431Y-119856569D01*
X75126090Y-119830615D01*
X75120000Y-119800000D01*
X75120000Y-118200000D01*
X75126090Y-118169385D01*
X75143431Y-118143431D01*
X75169385Y-118126090D01*
X75200000Y-118120000D01*
X76800000Y-118120000D01*
X76830615Y-118126090D01*
G37*
G36*
X88330615Y-118126090D02*
G01*
X88356569Y-118143431D01*
X88373910Y-118169385D01*
X88380000Y-118200000D01*
X88380000Y-119800000D01*
X88373910Y-119830615D01*
X88356569Y-119856569D01*
X88330615Y-119873910D01*
X88300000Y-119880000D01*
X86700000Y-119880000D01*
X86669385Y-119873910D01*
X86643431Y-119856569D01*
X86626090Y-119830615D01*
X86620000Y-119800000D01*
X86620000Y-118200000D01*
X86626090Y-118169385D01*
X86643431Y-118143431D01*
X86669385Y-118126090D01*
X86700000Y-118120000D01*
X88300000Y-118120000D01*
X88330615Y-118126090D01*
G37*
G36*
X78771935Y-118163070D02*
G01*
X78940000Y-118237898D01*
X79088835Y-118346033D01*
X79211935Y-118482749D01*
X79303920Y-118642072D01*
X79360770Y-118817038D01*
X79380000Y-119000000D01*
X79360770Y-119182962D01*
X79303920Y-119357928D01*
X79211935Y-119517251D01*
X79088835Y-119653967D01*
X78940000Y-119762102D01*
X78771935Y-119836930D01*
X78591985Y-119875179D01*
X78408015Y-119875179D01*
X78228065Y-119836930D01*
X78060000Y-119762102D01*
X77911165Y-119653967D01*
X77788065Y-119517251D01*
X77696080Y-119357928D01*
X77639230Y-119182962D01*
X77620000Y-119000000D01*
X77639230Y-118817038D01*
X77696080Y-118642072D01*
X77788065Y-118482749D01*
X77911165Y-118346033D01*
X78060000Y-118237898D01*
X78228065Y-118163070D01*
X78408015Y-118124821D01*
X78591985Y-118124821D01*
X78771935Y-118163070D01*
G37*
G36*
X83271935Y-118163070D02*
G01*
X83440000Y-118237898D01*
X83588835Y-118346033D01*
X83711935Y-118482749D01*
X83803920Y-118642072D01*
X83860770Y-118817038D01*
X83880000Y-119000000D01*
X83860770Y-119182962D01*
X83803920Y-119357928D01*
X83711935Y-119517251D01*
X83588835Y-119653967D01*
X83440000Y-119762102D01*
X83271935Y-119836930D01*
X83091985Y-119875179D01*
X82908015Y-119875179D01*
X82728065Y-119836930D01*
X82560000Y-119762102D01*
X82411165Y-119653967D01*
X82288065Y-119517251D01*
X82196080Y-119357928D01*
X82139230Y-119182962D01*
X82120000Y-119000000D01*
X82139230Y-118817038D01*
X82196080Y-118642072D01*
X82288065Y-118482749D01*
X82411165Y-118346033D01*
X82560000Y-118237898D01*
X82728065Y-118163070D01*
X82908015Y-118124821D01*
X83091985Y-118124821D01*
X83271935Y-118163070D01*
G37*
G36*
X90271935Y-118163070D02*
G01*
X90440000Y-118237898D01*
X90588835Y-118346033D01*
X90711935Y-118482749D01*
X90803920Y-118642072D01*
X90860770Y-118817038D01*
X90880000Y-119000000D01*
X90860770Y-119182962D01*
X90803920Y-119357928D01*
X90711935Y-119517251D01*
X90588835Y-119653967D01*
X90440000Y-119762102D01*
X90271935Y-119836930D01*
X90091985Y-119875179D01*
X89908015Y-119875179D01*
X89728065Y-119836930D01*
X89560000Y-119762102D01*
X89411165Y-119653967D01*
X89288065Y-119517251D01*
X89196080Y-119357928D01*
X89139230Y-119182962D01*
X89120000Y-119000000D01*
X89139230Y-118817038D01*
X89196080Y-118642072D01*
X89288065Y-118482749D01*
X89411165Y-118346033D01*
X89560000Y-118237898D01*
X89728065Y-118163070D01*
X89908015Y-118124821D01*
X90091985Y-118124821D01*
X90271935Y-118163070D01*
G37*
G36*
X63271935Y-113283070D02*
G01*
X63440000Y-113357898D01*
X63588835Y-113466033D01*
X63711935Y-113602749D01*
X63803920Y-113762072D01*
X63860770Y-113937038D01*
X63880000Y-114120000D01*
X63860770Y-114302962D01*
X63803920Y-114477928D01*
X63711935Y-114637251D01*
X63588835Y-114773967D01*
X63440000Y-114882102D01*
X63271935Y-114956930D01*
X63091985Y-114995179D01*
X62908015Y-114995179D01*
X62728065Y-114956930D01*
X62560000Y-114882102D01*
X62411165Y-114773967D01*
X62288065Y-114637251D01*
X62196080Y-114477928D01*
X62139230Y-114302962D01*
X62120000Y-114120000D01*
X62139230Y-113937038D01*
X62196080Y-113762072D01*
X62288065Y-113602749D01*
X62411165Y-113466033D01*
X62560000Y-113357898D01*
X62728065Y-113283070D01*
X62908015Y-113244821D01*
X63091985Y-113244821D01*
X63271935Y-113283070D01*
G37*
G36*
X69271935Y-113283070D02*
G01*
X69440000Y-113357898D01*
X69588835Y-113466033D01*
X69711935Y-113602749D01*
X69803920Y-113762072D01*
X69860770Y-113937038D01*
X69880000Y-114120000D01*
X69860770Y-114302962D01*
X69803920Y-114477928D01*
X69711935Y-114637251D01*
X69588835Y-114773967D01*
X69440000Y-114882102D01*
X69271935Y-114956930D01*
X69091985Y-114995179D01*
X68908015Y-114995179D01*
X68728065Y-114956930D01*
X68560000Y-114882102D01*
X68411165Y-114773967D01*
X68288065Y-114637251D01*
X68196080Y-114477928D01*
X68139230Y-114302962D01*
X68120000Y-114120000D01*
X68139230Y-113937038D01*
X68196080Y-113762072D01*
X68288065Y-113602749D01*
X68411165Y-113466033D01*
X68560000Y-113357898D01*
X68728065Y-113283070D01*
X68908015Y-113244821D01*
X69091985Y-113244821D01*
X69271935Y-113283070D01*
G37*
G36*
X100271935Y-113283070D02*
G01*
X100440000Y-113357898D01*
X100588835Y-113466033D01*
X100711935Y-113602749D01*
X100803920Y-113762072D01*
X100860770Y-113937038D01*
X100880000Y-114120000D01*
X100860770Y-114302962D01*
X100803920Y-114477928D01*
X100711935Y-114637251D01*
X100588835Y-114773967D01*
X100440000Y-114882102D01*
X100271935Y-114956930D01*
X100091985Y-114995179D01*
X99908015Y-114995179D01*
X99728065Y-114956930D01*
X99560000Y-114882102D01*
X99411165Y-114773967D01*
X99288065Y-114637251D01*
X99196080Y-114477928D01*
X99139230Y-114302962D01*
X99120000Y-114120000D01*
X99139230Y-113937038D01*
X99196080Y-113762072D01*
X99288065Y-113602749D01*
X99411165Y-113466033D01*
X99560000Y-113357898D01*
X99728065Y-113283070D01*
X99908015Y-113244821D01*
X100091985Y-113244821D01*
X100271935Y-113283070D01*
G37*
G36*
X106271935Y-113283070D02*
G01*
X106440000Y-113357898D01*
X106588835Y-113466033D01*
X106711935Y-113602749D01*
X106803920Y-113762072D01*
X106860770Y-113937038D01*
X106880000Y-114120000D01*
X106860770Y-114302962D01*
X106803920Y-114477928D01*
X106711935Y-114637251D01*
X106588835Y-114773967D01*
X106440000Y-114882102D01*
X106271935Y-114956930D01*
X106091985Y-114995179D01*
X105908015Y-114995179D01*
X105728065Y-114956930D01*
X105560000Y-114882102D01*
X105411165Y-114773967D01*
X105288065Y-114637251D01*
X105196080Y-114477928D01*
X105139230Y-114302962D01*
X105120000Y-114120000D01*
X105139230Y-113937038D01*
X105196080Y-113762072D01*
X105288065Y-113602749D01*
X105411165Y-113466033D01*
X105560000Y-113357898D01*
X105728065Y-113283070D01*
X105908015Y-113244821D01*
X106091985Y-113244821D01*
X106271935Y-113283070D01*
G37*
G36*
X60830615Y-113126090D02*
G01*
X60856569Y-113143431D01*
X60873910Y-113169385D01*
X60880000Y-113200000D01*
X60880000Y-114800000D01*
X60873910Y-114830615D01*
X60856569Y-114856569D01*
X60830615Y-114873910D01*
X60800000Y-114880000D01*
X59200000Y-114880000D01*
X59169385Y-114873910D01*
X59143431Y-114856569D01*
X59126090Y-114830615D01*
X59120000Y-114800000D01*
X59120000Y-113200000D01*
X59126090Y-113169385D01*
X59143431Y-113143431D01*
X59169385Y-113126090D01*
X59200000Y-113120000D01*
X60800000Y-113120000D01*
X60830615Y-113126090D01*
G37*
G36*
X66830615Y-113126090D02*
G01*
X66856569Y-113143431D01*
X66873910Y-113169385D01*
X66880000Y-113200000D01*
X66880000Y-114800000D01*
X66873910Y-114830615D01*
X66856569Y-114856569D01*
X66830615Y-114873910D01*
X66800000Y-114880000D01*
X65200000Y-114880000D01*
X65169385Y-114873910D01*
X65143431Y-114856569D01*
X65126090Y-114830615D01*
X65120000Y-114800000D01*
X65120000Y-113200000D01*
X65126090Y-113169385D01*
X65143431Y-113143431D01*
X65169385Y-113126090D01*
X65200000Y-113120000D01*
X66800000Y-113120000D01*
X66830615Y-113126090D01*
G37*
G36*
X97830615Y-113126090D02*
G01*
X97856569Y-113143431D01*
X97873910Y-113169385D01*
X97880000Y-113200000D01*
X97880000Y-114800000D01*
X97873910Y-114830615D01*
X97856569Y-114856569D01*
X97830615Y-114873910D01*
X97800000Y-114880000D01*
X96200000Y-114880000D01*
X96169385Y-114873910D01*
X96143431Y-114856569D01*
X96126090Y-114830615D01*
X96120000Y-114800000D01*
X96120000Y-113200000D01*
X96126090Y-113169385D01*
X96143431Y-113143431D01*
X96169385Y-113126090D01*
X96200000Y-113120000D01*
X97800000Y-113120000D01*
X97830615Y-113126090D01*
G37*
G36*
X103830615Y-113126090D02*
G01*
X103856569Y-113143431D01*
X103873910Y-113169385D01*
X103880000Y-113200000D01*
X103880000Y-114800000D01*
X103873910Y-114830615D01*
X103856569Y-114856569D01*
X103830615Y-114873910D01*
X103800000Y-114880000D01*
X102200000Y-114880000D01*
X102169385Y-114873910D01*
X102143431Y-114856569D01*
X102126090Y-114830615D01*
X102120000Y-114800000D01*
X102120000Y-113200000D01*
X102126090Y-113169385D01*
X102143431Y-113143431D01*
X102169385Y-113126090D01*
X102200000Y-113120000D01*
X103800000Y-113120000D01*
X103830615Y-113126090D01*
G37*
G36*
X57271935Y-113163070D02*
G01*
X57440000Y-113237898D01*
X57588835Y-113346033D01*
X57711935Y-113482749D01*
X57803920Y-113642072D01*
X57860770Y-113817038D01*
X57880000Y-114000000D01*
X57860770Y-114182962D01*
X57803920Y-114357928D01*
X57711935Y-114517251D01*
X57588835Y-114653967D01*
X57440000Y-114762102D01*
X57271935Y-114836930D01*
X57091985Y-114875179D01*
X56908015Y-114875179D01*
X56728065Y-114836930D01*
X56560000Y-114762102D01*
X56411165Y-114653967D01*
X56288065Y-114517251D01*
X56196080Y-114357928D01*
X56139230Y-114182962D01*
X56120000Y-114000000D01*
X56139230Y-113817038D01*
X56196080Y-113642072D01*
X56288065Y-113482749D01*
X56411165Y-113346033D01*
X56560000Y-113237898D01*
X56728065Y-113163070D01*
X56908015Y-113124821D01*
X57091985Y-113124821D01*
X57271935Y-113163070D01*
G37*
G36*
X72271935Y-113163070D02*
G01*
X72440000Y-113237898D01*
X72588835Y-113346033D01*
X72711935Y-113482749D01*
X72803920Y-113642072D01*
X72860770Y-113817038D01*
X72880000Y-114000000D01*
X72860770Y-114182962D01*
X72803920Y-114357928D01*
X72711935Y-114517251D01*
X72588835Y-114653967D01*
X72440000Y-114762102D01*
X72271935Y-114836930D01*
X72091985Y-114875179D01*
X71908015Y-114875179D01*
X71728065Y-114836930D01*
X71560000Y-114762102D01*
X71411165Y-114653967D01*
X71288065Y-114517251D01*
X71196080Y-114357928D01*
X71139230Y-114182962D01*
X71120000Y-114000000D01*
X71139230Y-113817038D01*
X71196080Y-113642072D01*
X71288065Y-113482749D01*
X71411165Y-113346033D01*
X71560000Y-113237898D01*
X71728065Y-113163070D01*
X71908015Y-113124821D01*
X72091985Y-113124821D01*
X72271935Y-113163070D01*
G37*
G36*
X83271935Y-113163070D02*
G01*
X83440000Y-113237898D01*
X83588835Y-113346033D01*
X83711935Y-113482749D01*
X83803920Y-113642072D01*
X83860770Y-113817038D01*
X83880000Y-114000000D01*
X83860770Y-114182962D01*
X83803920Y-114357928D01*
X83711935Y-114517251D01*
X83588835Y-114653967D01*
X83440000Y-114762102D01*
X83271935Y-114836930D01*
X83091985Y-114875179D01*
X82908015Y-114875179D01*
X82728065Y-114836930D01*
X82560000Y-114762102D01*
X82411165Y-114653967D01*
X82288065Y-114517251D01*
X82196080Y-114357928D01*
X82139230Y-114182962D01*
X82120000Y-114000000D01*
X82139230Y-113817038D01*
X82196080Y-113642072D01*
X82288065Y-113482749D01*
X82411165Y-113346033D01*
X82560000Y-113237898D01*
X82728065Y-113163070D01*
X82908015Y-113124821D01*
X83091985Y-113124821D01*
X83271935Y-113163070D01*
G37*
G36*
X94271935Y-113163070D02*
G01*
X94440000Y-113237898D01*
X94588835Y-113346033D01*
X94711935Y-113482749D01*
X94803920Y-113642072D01*
X94860770Y-113817038D01*
X94880000Y-114000000D01*
X94860770Y-114182962D01*
X94803920Y-114357928D01*
X94711935Y-114517251D01*
X94588835Y-114653967D01*
X94440000Y-114762102D01*
X94271935Y-114836930D01*
X94091985Y-114875179D01*
X93908015Y-114875179D01*
X93728065Y-114836930D01*
X93560000Y-114762102D01*
X93411165Y-114653967D01*
X93288065Y-114517251D01*
X93196080Y-114357928D01*
X93139230Y-114182962D01*
X93120000Y-114000000D01*
X93139230Y-113817038D01*
X93196080Y-113642072D01*
X93288065Y-113482749D01*
X93411165Y-113346033D01*
X93560000Y-113237898D01*
X93728065Y-113163070D01*
X93908015Y-113124821D01*
X94091985Y-113124821D01*
X94271935Y-113163070D01*
G37*
G36*
X109271935Y-113163070D02*
G01*
X109440000Y-113237898D01*
X109588835Y-113346033D01*
X109711935Y-113482749D01*
X109803920Y-113642072D01*
X109860770Y-113817038D01*
X109880000Y-114000000D01*
X109860770Y-114182962D01*
X109803920Y-114357928D01*
X109711935Y-114517251D01*
X109588835Y-114653967D01*
X109440000Y-114762102D01*
X109271935Y-114836930D01*
X109091985Y-114875179D01*
X108908015Y-114875179D01*
X108728065Y-114836930D01*
X108560000Y-114762102D01*
X108411165Y-114653967D01*
X108288065Y-114517251D01*
X108196080Y-114357928D01*
X108139230Y-114182962D01*
X108120000Y-114000000D01*
X108139230Y-113817038D01*
X108196080Y-113642072D01*
X108288065Y-113482749D01*
X108411165Y-113346033D01*
X108560000Y-113237898D01*
X108728065Y-113163070D01*
X108908015Y-113124821D01*
X109091985Y-113124821D01*
X109271935Y-113163070D01*
G37*
G36*
X76830615Y-112126090D02*
G01*
X76856569Y-112143431D01*
X76873910Y-112169385D01*
X76880000Y-112200000D01*
X76880000Y-113800000D01*
X76873910Y-113830615D01*
X76856569Y-113856569D01*
X76830615Y-113873910D01*
X76800000Y-113880000D01*
X75200000Y-113880000D01*
X75169385Y-113873910D01*
X75143431Y-113856569D01*
X75126090Y-113830615D01*
X75120000Y-113800000D01*
X75120000Y-112200000D01*
X75126090Y-112169385D01*
X75143431Y-112143431D01*
X75169385Y-112126090D01*
X75200000Y-112120000D01*
X76800000Y-112120000D01*
X76830615Y-112126090D01*
G37*
G36*
X88330615Y-112126090D02*
G01*
X88356569Y-112143431D01*
X88373910Y-112169385D01*
X88380000Y-112200000D01*
X88380000Y-113800000D01*
X88373910Y-113830615D01*
X88356569Y-113856569D01*
X88330615Y-113873910D01*
X88300000Y-113880000D01*
X86700000Y-113880000D01*
X86669385Y-113873910D01*
X86643431Y-113856569D01*
X86626090Y-113830615D01*
X86620000Y-113800000D01*
X86620000Y-112200000D01*
X86626090Y-112169385D01*
X86643431Y-112143431D01*
X86669385Y-112126090D01*
X86700000Y-112120000D01*
X88300000Y-112120000D01*
X88330615Y-112126090D01*
G37*
G36*
X78771935Y-112163070D02*
G01*
X78940000Y-112237898D01*
X79088835Y-112346033D01*
X79211935Y-112482749D01*
X79303920Y-112642072D01*
X79360770Y-112817038D01*
X79380000Y-113000000D01*
X79360770Y-113182962D01*
X79303920Y-113357928D01*
X79211935Y-113517251D01*
X79088835Y-113653967D01*
X78940000Y-113762102D01*
X78771935Y-113836930D01*
X78591985Y-113875179D01*
X78408015Y-113875179D01*
X78228065Y-113836930D01*
X78060000Y-113762102D01*
X77911165Y-113653967D01*
X77788065Y-113517251D01*
X77696080Y-113357928D01*
X77639230Y-113182962D01*
X77620000Y-113000000D01*
X77639230Y-112817038D01*
X77696080Y-112642072D01*
X77788065Y-112482749D01*
X77911165Y-112346033D01*
X78060000Y-112237898D01*
X78228065Y-112163070D01*
X78408015Y-112124821D01*
X78591985Y-112124821D01*
X78771935Y-112163070D01*
G37*
G36*
X90271935Y-112163070D02*
G01*
X90440000Y-112237898D01*
X90588835Y-112346033D01*
X90711935Y-112482749D01*
X90803920Y-112642072D01*
X90860770Y-112817038D01*
X90880000Y-113000000D01*
X90860770Y-113182962D01*
X90803920Y-113357928D01*
X90711935Y-113517251D01*
X90588835Y-113653967D01*
X90440000Y-113762102D01*
X90271935Y-113836930D01*
X90091985Y-113875179D01*
X89908015Y-113875179D01*
X89728065Y-113836930D01*
X89560000Y-113762102D01*
X89411165Y-113653967D01*
X89288065Y-113517251D01*
X89196080Y-113357928D01*
X89139230Y-113182962D01*
X89120000Y-113000000D01*
X89139230Y-112817038D01*
X89196080Y-112642072D01*
X89288065Y-112482749D01*
X89411165Y-112346033D01*
X89560000Y-112237898D01*
X89728065Y-112163070D01*
X89908015Y-112124821D01*
X90091985Y-112124821D01*
X90271935Y-112163070D01*
G37*
G36*
X83271935Y-108010419D02*
G01*
X83440000Y-108085247D01*
X83588835Y-108193382D01*
X83711935Y-108330098D01*
X83803920Y-108489421D01*
X83860770Y-108664387D01*
X83880000Y-108847349D01*
X83860770Y-109030311D01*
X83803920Y-109205277D01*
X83711935Y-109364600D01*
X83588835Y-109501316D01*
X83440000Y-109609451D01*
X83271935Y-109684279D01*
X83091985Y-109722528D01*
X82908015Y-109722528D01*
X82728065Y-109684279D01*
X82560000Y-109609451D01*
X82411165Y-109501316D01*
X82288065Y-109364600D01*
X82196080Y-109205277D01*
X82139230Y-109030311D01*
X82120000Y-108847349D01*
X82139230Y-108664387D01*
X82196080Y-108489421D01*
X82288065Y-108330098D01*
X82411165Y-108193382D01*
X82560000Y-108085247D01*
X82728065Y-108010419D01*
X82908015Y-107972170D01*
X83091985Y-107972170D01*
X83271935Y-108010419D01*
G37*
G36*
X80035411Y-107581244D02*
G01*
X80040798Y-107583756D01*
X80043488Y-107584148D01*
X80081717Y-107602837D01*
X80139281Y-107629680D01*
X80220320Y-107710719D01*
X80247173Y-107768304D01*
X80265851Y-107806511D01*
X80266242Y-107809199D01*
X80268756Y-107814589D01*
X80279999Y-107900000D01*
X80279999Y-107903617D01*
X80280000Y-107903624D01*
X80280000Y-108664387D01*
X80280000Y-109375001D01*
X80268756Y-109460411D01*
X80266242Y-109465801D01*
X80265851Y-109468488D01*
X80247183Y-109506673D01*
X80220320Y-109564281D01*
X80139281Y-109645320D01*
X80081673Y-109672183D01*
X80043488Y-109690851D01*
X80040801Y-109691242D01*
X80035411Y-109693756D01*
X79950000Y-109704999D01*
X79946382Y-109704999D01*
X79946376Y-109705000D01*
X75053624Y-109705000D01*
X75053623Y-109704999D01*
X75049999Y-109705000D01*
X74964589Y-109693756D01*
X74959199Y-109691242D01*
X74956511Y-109690851D01*
X74918304Y-109672173D01*
X74860719Y-109645320D01*
X74779680Y-109564281D01*
X74752837Y-109506717D01*
X74734148Y-109468488D01*
X74733756Y-109465798D01*
X74731244Y-109460411D01*
X74720001Y-109375000D01*
X74720000Y-109371381D01*
X74720000Y-109371375D01*
X74720000Y-107903624D01*
X74720000Y-107903623D01*
X74720000Y-107899999D01*
X74731244Y-107814589D01*
X74733755Y-107809202D01*
X74734148Y-107806511D01*
X74752847Y-107768260D01*
X74779680Y-107710719D01*
X74860719Y-107629680D01*
X74918260Y-107602847D01*
X74956511Y-107584148D01*
X74959202Y-107583755D01*
X74964589Y-107581244D01*
X75050000Y-107570001D01*
X75053617Y-107570000D01*
X75053624Y-107570000D01*
X79946376Y-107570000D01*
X79950001Y-107570000D01*
X80035411Y-107581244D01*
G37*
G36*
X91285411Y-107581244D02*
G01*
X91290798Y-107583756D01*
X91293488Y-107584148D01*
X91331717Y-107602837D01*
X91389281Y-107629680D01*
X91470320Y-107710719D01*
X91497173Y-107768304D01*
X91515851Y-107806511D01*
X91516242Y-107809199D01*
X91518756Y-107814589D01*
X91529999Y-107900000D01*
X91529999Y-107903617D01*
X91530000Y-107903624D01*
X91530000Y-108664387D01*
X91530000Y-109375001D01*
X91518756Y-109460411D01*
X91516242Y-109465801D01*
X91515851Y-109468488D01*
X91497183Y-109506673D01*
X91470320Y-109564281D01*
X91389281Y-109645320D01*
X91331673Y-109672183D01*
X91293488Y-109690851D01*
X91290801Y-109691242D01*
X91285411Y-109693756D01*
X91200000Y-109704999D01*
X91196382Y-109704999D01*
X91196376Y-109705000D01*
X86303624Y-109705000D01*
X86303623Y-109704999D01*
X86299999Y-109705000D01*
X86214589Y-109693756D01*
X86209199Y-109691242D01*
X86206511Y-109690851D01*
X86168304Y-109672173D01*
X86110719Y-109645320D01*
X86029680Y-109564281D01*
X86002837Y-109506717D01*
X85984148Y-109468488D01*
X85983756Y-109465798D01*
X85981244Y-109460411D01*
X85970001Y-109375000D01*
X85970000Y-109371381D01*
X85970000Y-109371375D01*
X85970000Y-107903624D01*
X85970000Y-107903623D01*
X85970000Y-107899999D01*
X85981244Y-107814589D01*
X85983755Y-107809202D01*
X85984148Y-107806511D01*
X86002847Y-107768260D01*
X86029680Y-107710719D01*
X86110719Y-107629680D01*
X86168260Y-107602847D01*
X86206511Y-107584148D01*
X86209202Y-107583755D01*
X86214589Y-107581244D01*
X86300000Y-107570001D01*
X86303617Y-107570000D01*
X86303624Y-107570000D01*
X91196376Y-107570000D01*
X91200001Y-107570000D01*
X91285411Y-107581244D01*
G37*
G36*
X63830615Y-105626090D02*
G01*
X63856569Y-105643431D01*
X63873910Y-105669385D01*
X63880000Y-105700000D01*
X63880000Y-107300000D01*
X63873910Y-107330615D01*
X63856569Y-107356569D01*
X63830615Y-107373910D01*
X63800000Y-107380000D01*
X62200000Y-107380000D01*
X62169385Y-107373910D01*
X62143431Y-107356569D01*
X62126090Y-107330615D01*
X62120000Y-107300000D01*
X62120000Y-105700000D01*
X62126090Y-105669385D01*
X62143431Y-105643431D01*
X62169385Y-105626090D01*
X62200000Y-105620000D01*
X63800000Y-105620000D01*
X63830615Y-105626090D01*
G37*
G36*
X69830615Y-105626090D02*
G01*
X69856569Y-105643431D01*
X69873910Y-105669385D01*
X69880000Y-105700000D01*
X69880000Y-107300000D01*
X69873910Y-107330615D01*
X69856569Y-107356569D01*
X69830615Y-107373910D01*
X69800000Y-107380000D01*
X68200000Y-107380000D01*
X68169385Y-107373910D01*
X68143431Y-107356569D01*
X68126090Y-107330615D01*
X68120000Y-107300000D01*
X68120000Y-105700000D01*
X68126090Y-105669385D01*
X68143431Y-105643431D01*
X68169385Y-105626090D01*
X68200000Y-105620000D01*
X69800000Y-105620000D01*
X69830615Y-105626090D01*
G37*
G36*
X100830615Y-105626090D02*
G01*
X100856569Y-105643431D01*
X100873910Y-105669385D01*
X100880000Y-105700000D01*
X100880000Y-107300000D01*
X100873910Y-107330615D01*
X100856569Y-107356569D01*
X100830615Y-107373910D01*
X100800000Y-107380000D01*
X99200000Y-107380000D01*
X99169385Y-107373910D01*
X99143431Y-107356569D01*
X99126090Y-107330615D01*
X99120000Y-107300000D01*
X99120000Y-105700000D01*
X99126090Y-105669385D01*
X99143431Y-105643431D01*
X99169385Y-105626090D01*
X99200000Y-105620000D01*
X100800000Y-105620000D01*
X100830615Y-105626090D01*
G37*
G36*
X106830615Y-105626090D02*
G01*
X106856569Y-105643431D01*
X106873910Y-105669385D01*
X106880000Y-105700000D01*
X106880000Y-107300000D01*
X106873910Y-107330615D01*
X106856569Y-107356569D01*
X106830615Y-107373910D01*
X106800000Y-107380000D01*
X105200000Y-107380000D01*
X105169385Y-107373910D01*
X105143431Y-107356569D01*
X105126090Y-107330615D01*
X105120000Y-107300000D01*
X105120000Y-105700000D01*
X105126090Y-105669385D01*
X105143431Y-105643431D01*
X105169385Y-105626090D01*
X105200000Y-105620000D01*
X106800000Y-105620000D01*
X106830615Y-105626090D01*
G37*
G36*
X57271935Y-105663070D02*
G01*
X57440000Y-105737898D01*
X57588835Y-105846033D01*
X57711935Y-105982749D01*
X57803920Y-106142072D01*
X57860770Y-106317038D01*
X57880000Y-106500000D01*
X57860770Y-106682962D01*
X57803920Y-106857928D01*
X57711935Y-107017251D01*
X57588835Y-107153967D01*
X57440000Y-107262102D01*
X57271935Y-107336930D01*
X57091985Y-107375179D01*
X56908015Y-107375179D01*
X56728065Y-107336930D01*
X56560000Y-107262102D01*
X56411165Y-107153967D01*
X56288065Y-107017251D01*
X56196080Y-106857928D01*
X56139230Y-106682962D01*
X56120000Y-106500000D01*
X56139230Y-106317038D01*
X56196080Y-106142072D01*
X56288065Y-105982749D01*
X56411165Y-105846033D01*
X56560000Y-105737898D01*
X56728065Y-105663070D01*
X56908015Y-105624821D01*
X57091985Y-105624821D01*
X57271935Y-105663070D01*
G37*
G36*
X72271935Y-105663070D02*
G01*
X72440000Y-105737898D01*
X72588835Y-105846033D01*
X72711935Y-105982749D01*
X72803920Y-106142072D01*
X72860770Y-106317038D01*
X72880000Y-106500000D01*
X72860770Y-106682962D01*
X72803920Y-106857928D01*
X72711935Y-107017251D01*
X72588835Y-107153967D01*
X72440000Y-107262102D01*
X72271935Y-107336930D01*
X72091985Y-107375179D01*
X71908015Y-107375179D01*
X71728065Y-107336930D01*
X71560000Y-107262102D01*
X71411165Y-107153967D01*
X71288065Y-107017251D01*
X71196080Y-106857928D01*
X71139230Y-106682962D01*
X71120000Y-106500000D01*
X71139230Y-106317038D01*
X71196080Y-106142072D01*
X71288065Y-105982749D01*
X71411165Y-105846033D01*
X71560000Y-105737898D01*
X71728065Y-105663070D01*
X71908015Y-105624821D01*
X72091985Y-105624821D01*
X72271935Y-105663070D01*
G37*
G36*
X94271935Y-105663070D02*
G01*
X94440000Y-105737898D01*
X94588835Y-105846033D01*
X94711935Y-105982749D01*
X94803920Y-106142072D01*
X94860770Y-106317038D01*
X94880000Y-106500000D01*
X94860770Y-106682962D01*
X94803920Y-106857928D01*
X94711935Y-107017251D01*
X94588835Y-107153967D01*
X94440000Y-107262102D01*
X94271935Y-107336930D01*
X94091985Y-107375179D01*
X93908015Y-107375179D01*
X93728065Y-107336930D01*
X93560000Y-107262102D01*
X93411165Y-107153967D01*
X93288065Y-107017251D01*
X93196080Y-106857928D01*
X93139230Y-106682962D01*
X93120000Y-106500000D01*
X93139230Y-106317038D01*
X93196080Y-106142072D01*
X93288065Y-105982749D01*
X93411165Y-105846033D01*
X93560000Y-105737898D01*
X93728065Y-105663070D01*
X93908015Y-105624821D01*
X94091985Y-105624821D01*
X94271935Y-105663070D01*
G37*
G36*
X109271935Y-105663070D02*
G01*
X109440000Y-105737898D01*
X109588835Y-105846033D01*
X109711935Y-105982749D01*
X109803920Y-106142072D01*
X109860770Y-106317038D01*
X109880000Y-106500000D01*
X109860770Y-106682962D01*
X109803920Y-106857928D01*
X109711935Y-107017251D01*
X109588835Y-107153967D01*
X109440000Y-107262102D01*
X109271935Y-107336930D01*
X109091985Y-107375179D01*
X108908015Y-107375179D01*
X108728065Y-107336930D01*
X108560000Y-107262102D01*
X108411165Y-107153967D01*
X108288065Y-107017251D01*
X108196080Y-106857928D01*
X108139230Y-106682962D01*
X108120000Y-106500000D01*
X108139230Y-106317038D01*
X108196080Y-106142072D01*
X108288065Y-105982749D01*
X108411165Y-105846033D01*
X108560000Y-105737898D01*
X108728065Y-105663070D01*
X108908015Y-105624821D01*
X109091985Y-105624821D01*
X109271935Y-105663070D01*
G37*
G36*
X60271935Y-105543070D02*
G01*
X60440000Y-105617898D01*
X60588835Y-105726033D01*
X60711935Y-105862749D01*
X60803920Y-106022072D01*
X60860770Y-106197038D01*
X60880000Y-106380000D01*
X60860770Y-106562962D01*
X60803920Y-106737928D01*
X60711935Y-106897251D01*
X60588835Y-107033967D01*
X60440000Y-107142102D01*
X60271935Y-107216930D01*
X60091985Y-107255179D01*
X59908015Y-107255179D01*
X59728065Y-107216930D01*
X59560000Y-107142102D01*
X59411165Y-107033967D01*
X59288065Y-106897251D01*
X59196080Y-106737928D01*
X59139230Y-106562962D01*
X59120000Y-106380000D01*
X59139230Y-106197038D01*
X59196080Y-106022072D01*
X59288065Y-105862749D01*
X59411165Y-105726033D01*
X59560000Y-105617898D01*
X59728065Y-105543070D01*
X59908015Y-105504821D01*
X60091985Y-105504821D01*
X60271935Y-105543070D01*
G37*
G36*
X66271935Y-105543070D02*
G01*
X66440000Y-105617898D01*
X66588835Y-105726033D01*
X66711935Y-105862749D01*
X66803920Y-106022072D01*
X66860770Y-106197038D01*
X66880000Y-106380000D01*
X66860770Y-106562962D01*
X66803920Y-106737928D01*
X66711935Y-106897251D01*
X66588835Y-107033967D01*
X66440000Y-107142102D01*
X66271935Y-107216930D01*
X66091985Y-107255179D01*
X65908015Y-107255179D01*
X65728065Y-107216930D01*
X65560000Y-107142102D01*
X65411165Y-107033967D01*
X65288065Y-106897251D01*
X65196080Y-106737928D01*
X65139230Y-106562962D01*
X65120000Y-106380000D01*
X65139230Y-106197038D01*
X65196080Y-106022072D01*
X65288065Y-105862749D01*
X65411165Y-105726033D01*
X65560000Y-105617898D01*
X65728065Y-105543070D01*
X65908015Y-105504821D01*
X66091985Y-105504821D01*
X66271935Y-105543070D01*
G37*
G36*
X97271935Y-105543070D02*
G01*
X97440000Y-105617898D01*
X97588835Y-105726033D01*
X97711935Y-105862749D01*
X97803920Y-106022072D01*
X97860770Y-106197038D01*
X97880000Y-106380000D01*
X97860770Y-106562962D01*
X97803920Y-106737928D01*
X97711935Y-106897251D01*
X97588835Y-107033967D01*
X97440000Y-107142102D01*
X97271935Y-107216930D01*
X97091985Y-107255179D01*
X96908015Y-107255179D01*
X96728065Y-107216930D01*
X96560000Y-107142102D01*
X96411165Y-107033967D01*
X96288065Y-106897251D01*
X96196080Y-106737928D01*
X96139230Y-106562962D01*
X96120000Y-106380000D01*
X96139230Y-106197038D01*
X96196080Y-106022072D01*
X96288065Y-105862749D01*
X96411165Y-105726033D01*
X96560000Y-105617898D01*
X96728065Y-105543070D01*
X96908015Y-105504821D01*
X97091985Y-105504821D01*
X97271935Y-105543070D01*
G37*
G36*
X103271935Y-105543070D02*
G01*
X103440000Y-105617898D01*
X103588835Y-105726033D01*
X103711935Y-105862749D01*
X103803920Y-106022072D01*
X103860770Y-106197038D01*
X103880000Y-106380000D01*
X103860770Y-106562962D01*
X103803920Y-106737928D01*
X103711935Y-106897251D01*
X103588835Y-107033967D01*
X103440000Y-107142102D01*
X103271935Y-107216930D01*
X103091985Y-107255179D01*
X102908015Y-107255179D01*
X102728065Y-107216930D01*
X102560000Y-107142102D01*
X102411165Y-107033967D01*
X102288065Y-106897251D01*
X102196080Y-106737928D01*
X102139230Y-106562962D01*
X102120000Y-106380000D01*
X102139230Y-106197038D01*
X102196080Y-106022072D01*
X102288065Y-105862749D01*
X102411165Y-105726033D01*
X102560000Y-105617898D01*
X102728065Y-105543070D01*
X102908015Y-105504821D01*
X103091985Y-105504821D01*
X103271935Y-105543070D01*
G37*
G36*
X83830615Y-104473439D02*
G01*
X83856569Y-104490780D01*
X83873910Y-104516734D01*
X83880000Y-104547349D01*
X83880000Y-106147349D01*
X83873910Y-106177964D01*
X83856569Y-106203918D01*
X83830615Y-106221259D01*
X83800000Y-106227349D01*
X82200000Y-106227349D01*
X82169385Y-106221259D01*
X82143431Y-106203918D01*
X82126090Y-106177964D01*
X82120000Y-106147349D01*
X82120000Y-104547349D01*
X82126090Y-104516734D01*
X82143431Y-104490780D01*
X82169385Y-104473439D01*
X82200000Y-104467349D01*
X83800000Y-104467349D01*
X83830615Y-104473439D01*
G37*
G36*
X80035411Y-102306244D02*
G01*
X80040798Y-102308756D01*
X80043488Y-102309148D01*
X80081717Y-102327837D01*
X80139281Y-102354680D01*
X80220320Y-102435719D01*
X80247173Y-102493304D01*
X80265851Y-102531511D01*
X80266242Y-102534199D01*
X80268756Y-102539589D01*
X80279999Y-102625000D01*
X80279999Y-102628617D01*
X80280000Y-102628624D01*
X80280000Y-104096375D01*
X80280000Y-104100001D01*
X80268756Y-104185411D01*
X80266242Y-104190801D01*
X80265851Y-104193488D01*
X80247183Y-104231673D01*
X80220320Y-104289281D01*
X80139281Y-104370320D01*
X80081673Y-104397183D01*
X80043488Y-104415851D01*
X80040801Y-104416242D01*
X80035411Y-104418756D01*
X79950000Y-104429999D01*
X79946382Y-104429999D01*
X79946376Y-104430000D01*
X75053624Y-104430000D01*
X75053623Y-104429999D01*
X75049999Y-104430000D01*
X74964589Y-104418756D01*
X74959199Y-104416242D01*
X74956511Y-104415851D01*
X74918304Y-104397173D01*
X74860719Y-104370320D01*
X74779680Y-104289281D01*
X74752837Y-104231717D01*
X74734148Y-104193488D01*
X74733756Y-104190798D01*
X74731244Y-104185411D01*
X74720001Y-104100000D01*
X74720000Y-104096381D01*
X74720000Y-104096375D01*
X74720000Y-102628624D01*
X74720000Y-102628623D01*
X74720000Y-102624999D01*
X74731244Y-102539589D01*
X74733755Y-102534202D01*
X74734148Y-102531511D01*
X74752847Y-102493260D01*
X74779680Y-102435719D01*
X74860719Y-102354680D01*
X74918260Y-102327847D01*
X74956511Y-102309148D01*
X74959202Y-102308755D01*
X74964589Y-102306244D01*
X75050000Y-102295001D01*
X75053617Y-102295000D01*
X75053624Y-102295000D01*
X79946376Y-102295000D01*
X79950001Y-102295000D01*
X80035411Y-102306244D01*
G37*
G36*
X91285411Y-102306244D02*
G01*
X91290798Y-102308756D01*
X91293488Y-102309148D01*
X91331717Y-102327837D01*
X91389281Y-102354680D01*
X91470320Y-102435719D01*
X91497173Y-102493304D01*
X91515851Y-102531511D01*
X91516242Y-102534199D01*
X91518756Y-102539589D01*
X91529999Y-102625000D01*
X91529999Y-102628617D01*
X91530000Y-102628624D01*
X91530000Y-104096375D01*
X91530000Y-104100001D01*
X91518756Y-104185411D01*
X91516242Y-104190801D01*
X91515851Y-104193488D01*
X91497183Y-104231673D01*
X91470320Y-104289281D01*
X91389281Y-104370320D01*
X91331673Y-104397183D01*
X91293488Y-104415851D01*
X91290801Y-104416242D01*
X91285411Y-104418756D01*
X91200000Y-104429999D01*
X91196382Y-104429999D01*
X91196376Y-104430000D01*
X86303624Y-104430000D01*
X86303623Y-104429999D01*
X86299999Y-104430000D01*
X86214589Y-104418756D01*
X86209199Y-104416242D01*
X86206511Y-104415851D01*
X86168304Y-104397173D01*
X86110719Y-104370320D01*
X86029680Y-104289281D01*
X86002837Y-104231717D01*
X85984148Y-104193488D01*
X85983756Y-104190798D01*
X85981244Y-104185411D01*
X85970001Y-104100000D01*
X85970000Y-104096381D01*
X85970000Y-104096375D01*
X85970000Y-102628624D01*
X85970000Y-102628623D01*
X85970000Y-102624999D01*
X85981244Y-102539589D01*
X85983755Y-102534202D01*
X85984148Y-102531511D01*
X86002847Y-102493260D01*
X86029680Y-102435719D01*
X86110719Y-102354680D01*
X86168260Y-102327847D01*
X86206511Y-102309148D01*
X86209202Y-102308755D01*
X86214589Y-102306244D01*
X86300000Y-102295001D01*
X86303617Y-102295000D01*
X86303624Y-102295000D01*
X91196376Y-102295000D01*
X91200001Y-102295000D01*
X91285411Y-102306244D01*
G37*
G36*
X73130615Y-99906090D02*
G01*
X73156569Y-99923431D01*
X73173910Y-99949385D01*
X73180000Y-99980000D01*
X73180000Y-102180000D01*
X73173910Y-102210615D01*
X73156569Y-102236569D01*
X73130615Y-102253910D01*
X73100000Y-102260000D01*
X70900000Y-102260000D01*
X70869385Y-102253910D01*
X70843431Y-102236569D01*
X70826090Y-102210615D01*
X70820000Y-102180000D01*
X70820000Y-99980000D01*
X70826090Y-99949385D01*
X70843431Y-99923431D01*
X70869385Y-99906090D01*
X70900000Y-99900000D01*
X73100000Y-99900000D01*
X73130615Y-99906090D01*
G37*
G36*
X58575485Y-98850069D02*
G01*
X58582649Y-98852894D01*
X58587061Y-98853475D01*
X58645424Y-98877649D01*
X58709758Y-98903020D01*
X58713470Y-98905835D01*
X58714783Y-98906379D01*
X58764878Y-98944818D01*
X58824767Y-98990233D01*
X58870201Y-99050147D01*
X58908620Y-99100216D01*
X58909163Y-99101527D01*
X58911980Y-99105242D01*
X58937361Y-99169604D01*
X58961524Y-99227938D01*
X58962104Y-99232347D01*
X58964931Y-99239515D01*
X58980000Y-99365000D01*
X58980000Y-101465000D01*
X58964931Y-101590485D01*
X58962104Y-101597652D01*
X58961524Y-101602061D01*
X58937369Y-101660374D01*
X58911980Y-101724758D01*
X58909162Y-101728473D01*
X58908620Y-101729783D01*
X58870265Y-101779767D01*
X58824767Y-101839767D01*
X58764767Y-101885265D01*
X58714783Y-101923620D01*
X58713473Y-101924162D01*
X58709758Y-101926980D01*
X58645374Y-101952369D01*
X58587061Y-101976524D01*
X58582652Y-101977104D01*
X58575485Y-101979931D01*
X58450000Y-101995000D01*
X57550000Y-101995000D01*
X57424515Y-101979931D01*
X57417347Y-101977104D01*
X57412938Y-101976524D01*
X57354604Y-101952361D01*
X57290242Y-101926980D01*
X57286527Y-101924163D01*
X57285216Y-101923620D01*
X57235147Y-101885201D01*
X57175233Y-101839767D01*
X57129818Y-101779878D01*
X57091379Y-101729783D01*
X57090835Y-101728470D01*
X57088020Y-101724758D01*
X57062649Y-101660424D01*
X57038475Y-101602061D01*
X57037894Y-101597649D01*
X57035069Y-101590485D01*
X57020000Y-101465000D01*
X57020000Y-99365000D01*
X57035069Y-99239515D01*
X57037893Y-99232351D01*
X57038475Y-99227938D01*
X57062658Y-99169554D01*
X57088020Y-99105242D01*
X57090834Y-99101530D01*
X57091379Y-99100216D01*
X57129883Y-99050036D01*
X57175233Y-98990233D01*
X57235036Y-98944883D01*
X57285216Y-98906379D01*
X57286530Y-98905834D01*
X57290242Y-98903020D01*
X57354554Y-98877658D01*
X57412938Y-98853475D01*
X57417351Y-98852893D01*
X57424515Y-98850069D01*
X57550000Y-98835000D01*
X58450000Y-98835000D01*
X58575485Y-98850069D01*
G37*
G36*
X63275485Y-98850069D02*
G01*
X63282649Y-98852894D01*
X63287061Y-98853475D01*
X63345424Y-98877649D01*
X63409758Y-98903020D01*
X63413470Y-98905835D01*
X63414783Y-98906379D01*
X63464878Y-98944818D01*
X63524767Y-98990233D01*
X63570201Y-99050147D01*
X63608620Y-99100216D01*
X63609163Y-99101527D01*
X63611980Y-99105242D01*
X63637361Y-99169604D01*
X63661524Y-99227938D01*
X63662104Y-99232347D01*
X63664931Y-99239515D01*
X63680000Y-99365000D01*
X63680000Y-101465000D01*
X63664931Y-101590485D01*
X63662104Y-101597652D01*
X63661524Y-101602061D01*
X63637369Y-101660374D01*
X63611980Y-101724758D01*
X63609162Y-101728473D01*
X63608620Y-101729783D01*
X63570265Y-101779767D01*
X63524767Y-101839767D01*
X63464767Y-101885265D01*
X63414783Y-101923620D01*
X63413473Y-101924162D01*
X63409758Y-101926980D01*
X63345374Y-101952369D01*
X63287061Y-101976524D01*
X63282652Y-101977104D01*
X63275485Y-101979931D01*
X63150000Y-101995000D01*
X62250000Y-101995000D01*
X62124515Y-101979931D01*
X62117347Y-101977104D01*
X62112938Y-101976524D01*
X62054604Y-101952361D01*
X61990242Y-101926980D01*
X61986527Y-101924163D01*
X61985216Y-101923620D01*
X61935147Y-101885201D01*
X61875233Y-101839767D01*
X61829818Y-101779878D01*
X61791379Y-101729783D01*
X61790835Y-101728470D01*
X61788020Y-101724758D01*
X61762649Y-101660424D01*
X61738475Y-101602061D01*
X61737894Y-101597649D01*
X61735069Y-101590485D01*
X61720000Y-101465000D01*
X61720000Y-99365000D01*
X61735069Y-99239515D01*
X61737893Y-99232351D01*
X61738475Y-99227938D01*
X61762658Y-99169554D01*
X61788020Y-99105242D01*
X61790834Y-99101530D01*
X61791379Y-99100216D01*
X61829883Y-99050036D01*
X61875233Y-98990233D01*
X61935036Y-98944883D01*
X61985216Y-98906379D01*
X61986530Y-98905834D01*
X61990242Y-98903020D01*
X62054554Y-98877658D01*
X62112938Y-98853475D01*
X62117351Y-98852893D01*
X62124515Y-98850069D01*
X62250000Y-98835000D01*
X63150000Y-98835000D01*
X63275485Y-98850069D01*
G37*
G36*
X67975485Y-98850069D02*
G01*
X67982649Y-98852894D01*
X67987061Y-98853475D01*
X68045424Y-98877649D01*
X68109758Y-98903020D01*
X68113470Y-98905835D01*
X68114783Y-98906379D01*
X68164878Y-98944818D01*
X68224767Y-98990233D01*
X68270201Y-99050147D01*
X68308620Y-99100216D01*
X68309163Y-99101527D01*
X68311980Y-99105242D01*
X68337361Y-99169604D01*
X68361524Y-99227938D01*
X68362104Y-99232347D01*
X68364931Y-99239515D01*
X68380000Y-99365000D01*
X68380000Y-101465000D01*
X68364931Y-101590485D01*
X68362104Y-101597652D01*
X68361524Y-101602061D01*
X68337369Y-101660374D01*
X68311980Y-101724758D01*
X68309162Y-101728473D01*
X68308620Y-101729783D01*
X68270265Y-101779767D01*
X68224767Y-101839767D01*
X68164767Y-101885265D01*
X68114783Y-101923620D01*
X68113473Y-101924162D01*
X68109758Y-101926980D01*
X68045374Y-101952369D01*
X67987061Y-101976524D01*
X67982652Y-101977104D01*
X67975485Y-101979931D01*
X67850000Y-101995000D01*
X66950000Y-101995000D01*
X66824515Y-101979931D01*
X66817347Y-101977104D01*
X66812938Y-101976524D01*
X66754604Y-101952361D01*
X66690242Y-101926980D01*
X66686527Y-101924163D01*
X66685216Y-101923620D01*
X66635147Y-101885201D01*
X66575233Y-101839767D01*
X66529818Y-101779878D01*
X66491379Y-101729783D01*
X66490835Y-101728470D01*
X66488020Y-101724758D01*
X66462649Y-101660424D01*
X66438475Y-101602061D01*
X66437894Y-101597649D01*
X66435069Y-101590485D01*
X66420000Y-101465000D01*
X66420000Y-99365000D01*
X66435069Y-99239515D01*
X66437893Y-99232351D01*
X66438475Y-99227938D01*
X66462658Y-99169554D01*
X66488020Y-99105242D01*
X66490834Y-99101530D01*
X66491379Y-99100216D01*
X66529883Y-99050036D01*
X66575233Y-98990233D01*
X66635036Y-98944883D01*
X66685216Y-98906379D01*
X66686530Y-98905834D01*
X66690242Y-98903020D01*
X66754554Y-98877658D01*
X66812938Y-98853475D01*
X66817351Y-98852893D01*
X66824515Y-98850069D01*
X66950000Y-98835000D01*
X67850000Y-98835000D01*
X67975485Y-98850069D01*
G37*
G36*
X99175485Y-98850069D02*
G01*
X99182649Y-98852894D01*
X99187061Y-98853475D01*
X99245424Y-98877649D01*
X99309758Y-98903020D01*
X99313470Y-98905835D01*
X99314783Y-98906379D01*
X99364878Y-98944818D01*
X99424767Y-98990233D01*
X99470201Y-99050147D01*
X99508620Y-99100216D01*
X99509163Y-99101527D01*
X99511980Y-99105242D01*
X99537361Y-99169604D01*
X99561524Y-99227938D01*
X99562104Y-99232347D01*
X99564931Y-99239515D01*
X99580000Y-99365000D01*
X99580000Y-101465000D01*
X99564931Y-101590485D01*
X99562104Y-101597652D01*
X99561524Y-101602061D01*
X99537369Y-101660374D01*
X99511980Y-101724758D01*
X99509162Y-101728473D01*
X99508620Y-101729783D01*
X99470265Y-101779767D01*
X99424767Y-101839767D01*
X99364767Y-101885265D01*
X99314783Y-101923620D01*
X99313473Y-101924162D01*
X99309758Y-101926980D01*
X99245374Y-101952369D01*
X99187061Y-101976524D01*
X99182652Y-101977104D01*
X99175485Y-101979931D01*
X99050000Y-101995000D01*
X98150000Y-101995000D01*
X98024515Y-101979931D01*
X98017347Y-101977104D01*
X98012938Y-101976524D01*
X97954604Y-101952361D01*
X97890242Y-101926980D01*
X97886527Y-101924163D01*
X97885216Y-101923620D01*
X97835147Y-101885201D01*
X97775233Y-101839767D01*
X97729818Y-101779878D01*
X97691379Y-101729783D01*
X97690835Y-101728470D01*
X97688020Y-101724758D01*
X97662649Y-101660424D01*
X97638475Y-101602061D01*
X97637894Y-101597649D01*
X97635069Y-101590485D01*
X97620000Y-101465000D01*
X97620000Y-99365000D01*
X97635069Y-99239515D01*
X97637893Y-99232351D01*
X97638475Y-99227938D01*
X97662658Y-99169554D01*
X97688020Y-99105242D01*
X97690834Y-99101530D01*
X97691379Y-99100216D01*
X97729883Y-99050036D01*
X97775233Y-98990233D01*
X97835036Y-98944883D01*
X97885216Y-98906379D01*
X97886530Y-98905834D01*
X97890242Y-98903020D01*
X97954554Y-98877658D01*
X98012938Y-98853475D01*
X98017351Y-98852893D01*
X98024515Y-98850069D01*
X98150000Y-98835000D01*
X99050000Y-98835000D01*
X99175485Y-98850069D01*
G37*
G36*
X103875485Y-98850069D02*
G01*
X103882649Y-98852894D01*
X103887061Y-98853475D01*
X103945424Y-98877649D01*
X104009758Y-98903020D01*
X104013470Y-98905835D01*
X104014783Y-98906379D01*
X104064878Y-98944818D01*
X104124767Y-98990233D01*
X104170201Y-99050147D01*
X104208620Y-99100216D01*
X104209163Y-99101527D01*
X104211980Y-99105242D01*
X104237361Y-99169604D01*
X104261524Y-99227938D01*
X104262104Y-99232347D01*
X104264931Y-99239515D01*
X104280000Y-99365000D01*
X104280000Y-101465000D01*
X104264931Y-101590485D01*
X104262104Y-101597652D01*
X104261524Y-101602061D01*
X104237369Y-101660374D01*
X104211980Y-101724758D01*
X104209162Y-101728473D01*
X104208620Y-101729783D01*
X104170265Y-101779767D01*
X104124767Y-101839767D01*
X104064767Y-101885265D01*
X104014783Y-101923620D01*
X104013473Y-101924162D01*
X104009758Y-101926980D01*
X103945374Y-101952369D01*
X103887061Y-101976524D01*
X103882652Y-101977104D01*
X103875485Y-101979931D01*
X103750000Y-101995000D01*
X102850000Y-101995000D01*
X102724515Y-101979931D01*
X102717347Y-101977104D01*
X102712938Y-101976524D01*
X102654604Y-101952361D01*
X102590242Y-101926980D01*
X102586527Y-101924163D01*
X102585216Y-101923620D01*
X102535147Y-101885201D01*
X102475233Y-101839767D01*
X102429818Y-101779878D01*
X102391379Y-101729783D01*
X102390835Y-101728470D01*
X102388020Y-101724758D01*
X102362649Y-101660424D01*
X102338475Y-101602061D01*
X102337894Y-101597649D01*
X102335069Y-101590485D01*
X102320000Y-101465000D01*
X102320000Y-99365000D01*
X102335069Y-99239515D01*
X102337893Y-99232351D01*
X102338475Y-99227938D01*
X102362658Y-99169554D01*
X102388020Y-99105242D01*
X102390834Y-99101530D01*
X102391379Y-99100216D01*
X102429883Y-99050036D01*
X102475233Y-98990233D01*
X102535036Y-98944883D01*
X102585216Y-98906379D01*
X102586530Y-98905834D01*
X102590242Y-98903020D01*
X102654554Y-98877658D01*
X102712938Y-98853475D01*
X102717351Y-98852893D01*
X102724515Y-98850069D01*
X102850000Y-98835000D01*
X103750000Y-98835000D01*
X103875485Y-98850069D01*
G37*
G36*
X108575485Y-98850069D02*
G01*
X108582649Y-98852894D01*
X108587061Y-98853475D01*
X108645424Y-98877649D01*
X108709758Y-98903020D01*
X108713470Y-98905835D01*
X108714783Y-98906379D01*
X108764878Y-98944818D01*
X108824767Y-98990233D01*
X108870201Y-99050147D01*
X108908620Y-99100216D01*
X108909163Y-99101527D01*
X108911980Y-99105242D01*
X108937361Y-99169604D01*
X108961524Y-99227938D01*
X108962104Y-99232347D01*
X108964931Y-99239515D01*
X108980000Y-99365000D01*
X108980000Y-101465000D01*
X108964931Y-101590485D01*
X108962104Y-101597652D01*
X108961524Y-101602061D01*
X108937369Y-101660374D01*
X108911980Y-101724758D01*
X108909162Y-101728473D01*
X108908620Y-101729783D01*
X108870265Y-101779767D01*
X108824767Y-101839767D01*
X108764767Y-101885265D01*
X108714783Y-101923620D01*
X108713473Y-101924162D01*
X108709758Y-101926980D01*
X108645374Y-101952369D01*
X108587061Y-101976524D01*
X108582652Y-101977104D01*
X108575485Y-101979931D01*
X108450000Y-101995000D01*
X107550000Y-101995000D01*
X107424515Y-101979931D01*
X107417347Y-101977104D01*
X107412938Y-101976524D01*
X107354604Y-101952361D01*
X107290242Y-101926980D01*
X107286527Y-101924163D01*
X107285216Y-101923620D01*
X107235147Y-101885201D01*
X107175233Y-101839767D01*
X107129818Y-101779878D01*
X107091379Y-101729783D01*
X107090835Y-101728470D01*
X107088020Y-101724758D01*
X107062649Y-101660424D01*
X107038475Y-101602061D01*
X107037894Y-101597649D01*
X107035069Y-101590485D01*
X107020000Y-101465000D01*
X107020000Y-99365000D01*
X107035069Y-99239515D01*
X107037893Y-99232351D01*
X107038475Y-99227938D01*
X107062658Y-99169554D01*
X107088020Y-99105242D01*
X107090834Y-99101530D01*
X107091379Y-99100216D01*
X107129883Y-99050036D01*
X107175233Y-98990233D01*
X107235036Y-98944883D01*
X107285216Y-98906379D01*
X107286530Y-98905834D01*
X107290242Y-98903020D01*
X107354554Y-98877658D01*
X107412938Y-98853475D01*
X107417351Y-98852893D01*
X107424515Y-98850069D01*
X107550000Y-98835000D01*
X108450000Y-98835000D01*
X108575485Y-98850069D01*
G37*
G36*
X75771935Y-99163070D02*
G01*
X75940000Y-99237898D01*
X76088835Y-99346033D01*
X76211935Y-99482749D01*
X76303920Y-99642072D01*
X76360770Y-99817038D01*
X76380000Y-100000000D01*
X76360770Y-100182962D01*
X76303920Y-100357928D01*
X76211935Y-100517251D01*
X76088835Y-100653967D01*
X75940000Y-100762102D01*
X75771935Y-100836930D01*
X75591985Y-100875179D01*
X75408015Y-100875179D01*
X75228065Y-100836930D01*
X75060000Y-100762102D01*
X74911165Y-100653967D01*
X74788065Y-100517251D01*
X74696080Y-100357928D01*
X74639230Y-100182962D01*
X74620000Y-100000000D01*
X74639230Y-99817038D01*
X74696080Y-99642072D01*
X74788065Y-99482749D01*
X74911165Y-99346033D01*
X75060000Y-99237898D01*
X75228065Y-99163070D01*
X75408015Y-99124821D01*
X75591985Y-99124821D01*
X75771935Y-99163070D01*
G37*
G36*
X79271935Y-99163070D02*
G01*
X79440000Y-99237898D01*
X79588835Y-99346033D01*
X79711935Y-99482749D01*
X79803920Y-99642072D01*
X79860770Y-99817038D01*
X79880000Y-100000000D01*
X79860770Y-100182962D01*
X79803920Y-100357928D01*
X79711935Y-100517251D01*
X79588835Y-100653967D01*
X79440000Y-100762102D01*
X79271935Y-100836930D01*
X79091985Y-100875179D01*
X78908015Y-100875179D01*
X78728065Y-100836930D01*
X78560000Y-100762102D01*
X78411165Y-100653967D01*
X78288065Y-100517251D01*
X78196080Y-100357928D01*
X78139230Y-100182962D01*
X78120000Y-100000000D01*
X78139230Y-99817038D01*
X78196080Y-99642072D01*
X78288065Y-99482749D01*
X78411165Y-99346033D01*
X78560000Y-99237898D01*
X78728065Y-99163070D01*
X78908015Y-99124821D01*
X79091985Y-99124821D01*
X79271935Y-99163070D01*
G37*
G36*
X87271935Y-99163070D02*
G01*
X87440000Y-99237898D01*
X87588835Y-99346033D01*
X87711935Y-99482749D01*
X87803920Y-99642072D01*
X87860770Y-99817038D01*
X87880000Y-100000000D01*
X87860770Y-100182962D01*
X87803920Y-100357928D01*
X87711935Y-100517251D01*
X87588835Y-100653967D01*
X87440000Y-100762102D01*
X87271935Y-100836930D01*
X87091985Y-100875179D01*
X86908015Y-100875179D01*
X86728065Y-100836930D01*
X86560000Y-100762102D01*
X86411165Y-100653967D01*
X86288065Y-100517251D01*
X86196080Y-100357928D01*
X86139230Y-100182962D01*
X86120000Y-100000000D01*
X86139230Y-99817038D01*
X86196080Y-99642072D01*
X86288065Y-99482749D01*
X86411165Y-99346033D01*
X86560000Y-99237898D01*
X86728065Y-99163070D01*
X86908015Y-99124821D01*
X87091985Y-99124821D01*
X87271935Y-99163070D01*
G37*
G36*
X90771935Y-99163070D02*
G01*
X90940000Y-99237898D01*
X91088835Y-99346033D01*
X91211935Y-99482749D01*
X91303920Y-99642072D01*
X91360770Y-99817038D01*
X91380000Y-100000000D01*
X91360770Y-100182962D01*
X91303920Y-100357928D01*
X91211935Y-100517251D01*
X91088835Y-100653967D01*
X90940000Y-100762102D01*
X90771935Y-100836930D01*
X90591985Y-100875179D01*
X90408015Y-100875179D01*
X90228065Y-100836930D01*
X90060000Y-100762102D01*
X89911165Y-100653967D01*
X89788065Y-100517251D01*
X89696080Y-100357928D01*
X89639230Y-100182962D01*
X89620000Y-100000000D01*
X89639230Y-99817038D01*
X89696080Y-99642072D01*
X89788065Y-99482749D01*
X89911165Y-99346033D01*
X90060000Y-99237898D01*
X90228065Y-99163070D01*
X90408015Y-99124821D01*
X90591985Y-99124821D01*
X90771935Y-99163070D01*
G37*
G36*
X83930615Y-98301090D02*
G01*
X83956569Y-98318431D01*
X83973910Y-98344385D01*
X83980000Y-98375000D01*
X83980000Y-100175000D01*
X83973910Y-100205615D01*
X83956569Y-100231569D01*
X83930615Y-100248910D01*
X83900000Y-100255000D01*
X82100000Y-100255000D01*
X82069385Y-100248910D01*
X82043431Y-100231569D01*
X82026090Y-100205615D01*
X82020000Y-100175000D01*
X82020000Y-98375000D01*
X82026090Y-98344385D01*
X82043431Y-98318431D01*
X82069385Y-98301090D01*
X82100000Y-98295000D01*
X83900000Y-98295000D01*
X83930615Y-98301090D01*
G37*
G36*
X83191189Y-95773830D02*
G01*
X83375030Y-95829598D01*
X83544459Y-95920160D01*
X83692965Y-96042035D01*
X83814840Y-96190541D01*
X83905402Y-96359970D01*
X83961170Y-96543811D01*
X83980000Y-96735000D01*
X83961170Y-96926189D01*
X83905402Y-97110030D01*
X83814840Y-97279459D01*
X83692965Y-97427965D01*
X83544459Y-97549840D01*
X83375030Y-97640402D01*
X83191189Y-97696170D01*
X83000000Y-97715000D01*
X82808811Y-97696170D01*
X82624970Y-97640402D01*
X82455541Y-97549840D01*
X82307035Y-97427965D01*
X82185160Y-97279459D01*
X82094598Y-97110030D01*
X82038830Y-96926189D01*
X82020000Y-96735000D01*
X82038830Y-96543811D01*
X82094598Y-96359970D01*
X82185160Y-96190541D01*
X82307035Y-96042035D01*
X82455541Y-95920160D01*
X82624970Y-95829598D01*
X82808811Y-95773830D01*
X83000000Y-95755000D01*
X83191189Y-95773830D01*
G37*
G36*
X58575485Y-94020069D02*
G01*
X58582649Y-94022894D01*
X58587061Y-94023475D01*
X58645424Y-94047649D01*
X58709758Y-94073020D01*
X58713470Y-94075835D01*
X58714783Y-94076379D01*
X58764878Y-94114818D01*
X58824767Y-94160233D01*
X58870201Y-94220147D01*
X58908620Y-94270216D01*
X58909163Y-94271527D01*
X58911980Y-94275242D01*
X58937361Y-94339604D01*
X58961524Y-94397938D01*
X58962104Y-94402347D01*
X58964931Y-94409515D01*
X58980000Y-94535000D01*
X58980000Y-96635000D01*
X58964931Y-96760485D01*
X58962104Y-96767652D01*
X58961524Y-96772061D01*
X58937369Y-96830374D01*
X58911980Y-96894758D01*
X58909162Y-96898473D01*
X58908620Y-96899783D01*
X58870265Y-96949767D01*
X58824767Y-97009767D01*
X58764767Y-97055265D01*
X58714783Y-97093620D01*
X58713473Y-97094162D01*
X58709758Y-97096980D01*
X58645374Y-97122369D01*
X58587061Y-97146524D01*
X58582652Y-97147104D01*
X58575485Y-97149931D01*
X58450000Y-97165000D01*
X57550000Y-97165000D01*
X57424515Y-97149931D01*
X57417347Y-97147104D01*
X57412938Y-97146524D01*
X57354604Y-97122361D01*
X57290242Y-97096980D01*
X57286527Y-97094163D01*
X57285216Y-97093620D01*
X57235147Y-97055201D01*
X57175233Y-97009767D01*
X57129818Y-96949878D01*
X57091379Y-96899783D01*
X57090835Y-96898470D01*
X57088020Y-96894758D01*
X57062649Y-96830424D01*
X57038475Y-96772061D01*
X57037894Y-96767649D01*
X57035069Y-96760485D01*
X57020000Y-96635000D01*
X57020000Y-94535000D01*
X57035069Y-94409515D01*
X57037893Y-94402351D01*
X57038475Y-94397938D01*
X57062658Y-94339554D01*
X57088020Y-94275242D01*
X57090834Y-94271530D01*
X57091379Y-94270216D01*
X57129883Y-94220036D01*
X57175233Y-94160233D01*
X57235036Y-94114883D01*
X57285216Y-94076379D01*
X57286530Y-94075834D01*
X57290242Y-94073020D01*
X57354554Y-94047658D01*
X57412938Y-94023475D01*
X57417351Y-94022893D01*
X57424515Y-94020069D01*
X57550000Y-94005000D01*
X58450000Y-94005000D01*
X58575485Y-94020069D01*
G37*
G36*
X63275485Y-94020069D02*
G01*
X63282649Y-94022894D01*
X63287061Y-94023475D01*
X63345424Y-94047649D01*
X63409758Y-94073020D01*
X63413470Y-94075835D01*
X63414783Y-94076379D01*
X63464878Y-94114818D01*
X63524767Y-94160233D01*
X63570201Y-94220147D01*
X63608620Y-94270216D01*
X63609163Y-94271527D01*
X63611980Y-94275242D01*
X63637361Y-94339604D01*
X63661524Y-94397938D01*
X63662104Y-94402347D01*
X63664931Y-94409515D01*
X63680000Y-94535000D01*
X63680000Y-96635000D01*
X63664931Y-96760485D01*
X63662104Y-96767652D01*
X63661524Y-96772061D01*
X63637369Y-96830374D01*
X63611980Y-96894758D01*
X63609162Y-96898473D01*
X63608620Y-96899783D01*
X63570265Y-96949767D01*
X63524767Y-97009767D01*
X63464767Y-97055265D01*
X63414783Y-97093620D01*
X63413473Y-97094162D01*
X63409758Y-97096980D01*
X63345374Y-97122369D01*
X63287061Y-97146524D01*
X63282652Y-97147104D01*
X63275485Y-97149931D01*
X63150000Y-97165000D01*
X62250000Y-97165000D01*
X62124515Y-97149931D01*
X62117347Y-97147104D01*
X62112938Y-97146524D01*
X62054604Y-97122361D01*
X61990242Y-97096980D01*
X61986527Y-97094163D01*
X61985216Y-97093620D01*
X61935147Y-97055201D01*
X61875233Y-97009767D01*
X61829818Y-96949878D01*
X61791379Y-96899783D01*
X61790835Y-96898470D01*
X61788020Y-96894758D01*
X61762649Y-96830424D01*
X61738475Y-96772061D01*
X61737894Y-96767649D01*
X61735069Y-96760485D01*
X61720000Y-96635000D01*
X61720000Y-94535000D01*
X61735069Y-94409515D01*
X61737893Y-94402351D01*
X61738475Y-94397938D01*
X61762658Y-94339554D01*
X61788020Y-94275242D01*
X61790834Y-94271530D01*
X61791379Y-94270216D01*
X61829883Y-94220036D01*
X61875233Y-94160233D01*
X61935036Y-94114883D01*
X61985216Y-94076379D01*
X61986530Y-94075834D01*
X61990242Y-94073020D01*
X62054554Y-94047658D01*
X62112938Y-94023475D01*
X62117351Y-94022893D01*
X62124515Y-94020069D01*
X62250000Y-94005000D01*
X63150000Y-94005000D01*
X63275485Y-94020069D01*
G37*
G36*
X67975485Y-94020069D02*
G01*
X67982649Y-94022894D01*
X67987061Y-94023475D01*
X68045424Y-94047649D01*
X68109758Y-94073020D01*
X68113470Y-94075835D01*
X68114783Y-94076379D01*
X68164878Y-94114818D01*
X68224767Y-94160233D01*
X68270201Y-94220147D01*
X68308620Y-94270216D01*
X68309163Y-94271527D01*
X68311980Y-94275242D01*
X68337361Y-94339604D01*
X68361524Y-94397938D01*
X68362104Y-94402347D01*
X68364931Y-94409515D01*
X68380000Y-94535000D01*
X68380000Y-96635000D01*
X68364931Y-96760485D01*
X68362104Y-96767652D01*
X68361524Y-96772061D01*
X68337369Y-96830374D01*
X68311980Y-96894758D01*
X68309162Y-96898473D01*
X68308620Y-96899783D01*
X68270265Y-96949767D01*
X68224767Y-97009767D01*
X68164767Y-97055265D01*
X68114783Y-97093620D01*
X68113473Y-97094162D01*
X68109758Y-97096980D01*
X68045374Y-97122369D01*
X67987061Y-97146524D01*
X67982652Y-97147104D01*
X67975485Y-97149931D01*
X67850000Y-97165000D01*
X66950000Y-97165000D01*
X66824515Y-97149931D01*
X66817347Y-97147104D01*
X66812938Y-97146524D01*
X66754604Y-97122361D01*
X66690242Y-97096980D01*
X66686527Y-97094163D01*
X66685216Y-97093620D01*
X66635147Y-97055201D01*
X66575233Y-97009767D01*
X66529818Y-96949878D01*
X66491379Y-96899783D01*
X66490835Y-96898470D01*
X66488020Y-96894758D01*
X66462649Y-96830424D01*
X66438475Y-96772061D01*
X66437894Y-96767649D01*
X66435069Y-96760485D01*
X66420000Y-96635000D01*
X66420000Y-94535000D01*
X66435069Y-94409515D01*
X66437893Y-94402351D01*
X66438475Y-94397938D01*
X66462658Y-94339554D01*
X66488020Y-94275242D01*
X66490834Y-94271530D01*
X66491379Y-94270216D01*
X66529883Y-94220036D01*
X66575233Y-94160233D01*
X66635036Y-94114883D01*
X66685216Y-94076379D01*
X66686530Y-94075834D01*
X66690242Y-94073020D01*
X66754554Y-94047658D01*
X66812938Y-94023475D01*
X66817351Y-94022893D01*
X66824515Y-94020069D01*
X66950000Y-94005000D01*
X67850000Y-94005000D01*
X67975485Y-94020069D01*
G37*
G36*
X99175485Y-94020069D02*
G01*
X99182649Y-94022894D01*
X99187061Y-94023475D01*
X99245424Y-94047649D01*
X99309758Y-94073020D01*
X99313470Y-94075835D01*
X99314783Y-94076379D01*
X99364878Y-94114818D01*
X99424767Y-94160233D01*
X99470201Y-94220147D01*
X99508620Y-94270216D01*
X99509163Y-94271527D01*
X99511980Y-94275242D01*
X99537361Y-94339604D01*
X99561524Y-94397938D01*
X99562104Y-94402347D01*
X99564931Y-94409515D01*
X99580000Y-94535000D01*
X99580000Y-96635000D01*
X99564931Y-96760485D01*
X99562104Y-96767652D01*
X99561524Y-96772061D01*
X99537369Y-96830374D01*
X99511980Y-96894758D01*
X99509162Y-96898473D01*
X99508620Y-96899783D01*
X99470265Y-96949767D01*
X99424767Y-97009767D01*
X99364767Y-97055265D01*
X99314783Y-97093620D01*
X99313473Y-97094162D01*
X99309758Y-97096980D01*
X99245374Y-97122369D01*
X99187061Y-97146524D01*
X99182652Y-97147104D01*
X99175485Y-97149931D01*
X99050000Y-97165000D01*
X98150000Y-97165000D01*
X98024515Y-97149931D01*
X98017347Y-97147104D01*
X98012938Y-97146524D01*
X97954604Y-97122361D01*
X97890242Y-97096980D01*
X97886527Y-97094163D01*
X97885216Y-97093620D01*
X97835147Y-97055201D01*
X97775233Y-97009767D01*
X97729818Y-96949878D01*
X97691379Y-96899783D01*
X97690835Y-96898470D01*
X97688020Y-96894758D01*
X97662649Y-96830424D01*
X97638475Y-96772061D01*
X97637894Y-96767649D01*
X97635069Y-96760485D01*
X97620000Y-96635000D01*
X97620000Y-94535000D01*
X97635069Y-94409515D01*
X97637893Y-94402351D01*
X97638475Y-94397938D01*
X97662658Y-94339554D01*
X97688020Y-94275242D01*
X97690834Y-94271530D01*
X97691379Y-94270216D01*
X97729883Y-94220036D01*
X97775233Y-94160233D01*
X97835036Y-94114883D01*
X97885216Y-94076379D01*
X97886530Y-94075834D01*
X97890242Y-94073020D01*
X97954554Y-94047658D01*
X98012938Y-94023475D01*
X98017351Y-94022893D01*
X98024515Y-94020069D01*
X98150000Y-94005000D01*
X99050000Y-94005000D01*
X99175485Y-94020069D01*
G37*
G36*
X103875485Y-94020069D02*
G01*
X103882649Y-94022894D01*
X103887061Y-94023475D01*
X103945424Y-94047649D01*
X104009758Y-94073020D01*
X104013470Y-94075835D01*
X104014783Y-94076379D01*
X104064878Y-94114818D01*
X104124767Y-94160233D01*
X104170201Y-94220147D01*
X104208620Y-94270216D01*
X104209163Y-94271527D01*
X104211980Y-94275242D01*
X104237361Y-94339604D01*
X104261524Y-94397938D01*
X104262104Y-94402347D01*
X104264931Y-94409515D01*
X104280000Y-94535000D01*
X104280000Y-96635000D01*
X104264931Y-96760485D01*
X104262104Y-96767652D01*
X104261524Y-96772061D01*
X104237369Y-96830374D01*
X104211980Y-96894758D01*
X104209162Y-96898473D01*
X104208620Y-96899783D01*
X104170265Y-96949767D01*
X104124767Y-97009767D01*
X104064767Y-97055265D01*
X104014783Y-97093620D01*
X104013473Y-97094162D01*
X104009758Y-97096980D01*
X103945374Y-97122369D01*
X103887061Y-97146524D01*
X103882652Y-97147104D01*
X103875485Y-97149931D01*
X103750000Y-97165000D01*
X102850000Y-97165000D01*
X102724515Y-97149931D01*
X102717347Y-97147104D01*
X102712938Y-97146524D01*
X102654604Y-97122361D01*
X102590242Y-97096980D01*
X102586527Y-97094163D01*
X102585216Y-97093620D01*
X102535147Y-97055201D01*
X102475233Y-97009767D01*
X102429818Y-96949878D01*
X102391379Y-96899783D01*
X102390835Y-96898470D01*
X102388020Y-96894758D01*
X102362649Y-96830424D01*
X102338475Y-96772061D01*
X102337894Y-96767649D01*
X102335069Y-96760485D01*
X102320000Y-96635000D01*
X102320000Y-94535000D01*
X102335069Y-94409515D01*
X102337893Y-94402351D01*
X102338475Y-94397938D01*
X102362658Y-94339554D01*
X102388020Y-94275242D01*
X102390834Y-94271530D01*
X102391379Y-94270216D01*
X102429883Y-94220036D01*
X102475233Y-94160233D01*
X102535036Y-94114883D01*
X102585216Y-94076379D01*
X102586530Y-94075834D01*
X102590242Y-94073020D01*
X102654554Y-94047658D01*
X102712938Y-94023475D01*
X102717351Y-94022893D01*
X102724515Y-94020069D01*
X102850000Y-94005000D01*
X103750000Y-94005000D01*
X103875485Y-94020069D01*
G37*
G36*
X108575485Y-94020069D02*
G01*
X108582649Y-94022894D01*
X108587061Y-94023475D01*
X108645424Y-94047649D01*
X108709758Y-94073020D01*
X108713470Y-94075835D01*
X108714783Y-94076379D01*
X108764878Y-94114818D01*
X108824767Y-94160233D01*
X108870201Y-94220147D01*
X108908620Y-94270216D01*
X108909163Y-94271527D01*
X108911980Y-94275242D01*
X108937361Y-94339604D01*
X108961524Y-94397938D01*
X108962104Y-94402347D01*
X108964931Y-94409515D01*
X108980000Y-94535000D01*
X108980000Y-96635000D01*
X108964931Y-96760485D01*
X108962104Y-96767652D01*
X108961524Y-96772061D01*
X108937369Y-96830374D01*
X108911980Y-96894758D01*
X108909162Y-96898473D01*
X108908620Y-96899783D01*
X108870265Y-96949767D01*
X108824767Y-97009767D01*
X108764767Y-97055265D01*
X108714783Y-97093620D01*
X108713473Y-97094162D01*
X108709758Y-97096980D01*
X108645374Y-97122369D01*
X108587061Y-97146524D01*
X108582652Y-97147104D01*
X108575485Y-97149931D01*
X108450000Y-97165000D01*
X107550000Y-97165000D01*
X107424515Y-97149931D01*
X107417347Y-97147104D01*
X107412938Y-97146524D01*
X107354604Y-97122361D01*
X107290242Y-97096980D01*
X107286527Y-97094163D01*
X107285216Y-97093620D01*
X107235147Y-97055201D01*
X107175233Y-97009767D01*
X107129818Y-96949878D01*
X107091379Y-96899783D01*
X107090835Y-96898470D01*
X107088020Y-96894758D01*
X107062649Y-96830424D01*
X107038475Y-96772061D01*
X107037894Y-96767649D01*
X107035069Y-96760485D01*
X107020000Y-96635000D01*
X107020000Y-94535000D01*
X107035069Y-94409515D01*
X107037893Y-94402351D01*
X107038475Y-94397938D01*
X107062658Y-94339554D01*
X107088020Y-94275242D01*
X107090834Y-94271530D01*
X107091379Y-94270216D01*
X107129883Y-94220036D01*
X107175233Y-94160233D01*
X107235036Y-94114883D01*
X107285216Y-94076379D01*
X107286530Y-94075834D01*
X107290242Y-94073020D01*
X107354554Y-94047658D01*
X107412938Y-94023475D01*
X107417351Y-94022893D01*
X107424515Y-94020069D01*
X107550000Y-94005000D01*
X108450000Y-94005000D01*
X108575485Y-94020069D01*
G37*
G36*
X75771935Y-91663070D02*
G01*
X75940000Y-91737898D01*
X76088835Y-91846033D01*
X76211935Y-91982749D01*
X76303920Y-92142072D01*
X76360770Y-92317038D01*
X76380000Y-92500000D01*
X76360770Y-92682962D01*
X76303920Y-92857928D01*
X76211935Y-93017251D01*
X76088835Y-93153967D01*
X75940000Y-93262102D01*
X75771935Y-93336930D01*
X75591985Y-93375179D01*
X75408015Y-93375179D01*
X75228065Y-93336930D01*
X75060000Y-93262102D01*
X74911165Y-93153967D01*
X74788065Y-93017251D01*
X74696080Y-92857928D01*
X74639230Y-92682962D01*
X74620000Y-92500000D01*
X74639230Y-92317038D01*
X74696080Y-92142072D01*
X74788065Y-91982749D01*
X74911165Y-91846033D01*
X75060000Y-91737898D01*
X75228065Y-91663070D01*
X75408015Y-91624821D01*
X75591985Y-91624821D01*
X75771935Y-91663070D01*
G37*
G36*
X79271935Y-91663070D02*
G01*
X79440000Y-91737898D01*
X79588835Y-91846033D01*
X79711935Y-91982749D01*
X79803920Y-92142072D01*
X79860770Y-92317038D01*
X79880000Y-92500000D01*
X79860770Y-92682962D01*
X79803920Y-92857928D01*
X79711935Y-93017251D01*
X79588835Y-93153967D01*
X79440000Y-93262102D01*
X79271935Y-93336930D01*
X79091985Y-93375179D01*
X78908015Y-93375179D01*
X78728065Y-93336930D01*
X78560000Y-93262102D01*
X78411165Y-93153967D01*
X78288065Y-93017251D01*
X78196080Y-92857928D01*
X78139230Y-92682962D01*
X78120000Y-92500000D01*
X78139230Y-92317038D01*
X78196080Y-92142072D01*
X78288065Y-91982749D01*
X78411165Y-91846033D01*
X78560000Y-91737898D01*
X78728065Y-91663070D01*
X78908015Y-91624821D01*
X79091985Y-91624821D01*
X79271935Y-91663070D01*
G37*
G36*
X87271935Y-91663070D02*
G01*
X87440000Y-91737898D01*
X87588835Y-91846033D01*
X87711935Y-91982749D01*
X87803920Y-92142072D01*
X87860770Y-92317038D01*
X87880000Y-92500000D01*
X87860770Y-92682962D01*
X87803920Y-92857928D01*
X87711935Y-93017251D01*
X87588835Y-93153967D01*
X87440000Y-93262102D01*
X87271935Y-93336930D01*
X87091985Y-93375179D01*
X86908015Y-93375179D01*
X86728065Y-93336930D01*
X86560000Y-93262102D01*
X86411165Y-93153967D01*
X86288065Y-93017251D01*
X86196080Y-92857928D01*
X86139230Y-92682962D01*
X86120000Y-92500000D01*
X86139230Y-92317038D01*
X86196080Y-92142072D01*
X86288065Y-91982749D01*
X86411165Y-91846033D01*
X86560000Y-91737898D01*
X86728065Y-91663070D01*
X86908015Y-91624821D01*
X87091985Y-91624821D01*
X87271935Y-91663070D01*
G37*
G36*
X90771935Y-91663070D02*
G01*
X90940000Y-91737898D01*
X91088835Y-91846033D01*
X91211935Y-91982749D01*
X91303920Y-92142072D01*
X91360770Y-92317038D01*
X91380000Y-92500000D01*
X91360770Y-92682962D01*
X91303920Y-92857928D01*
X91211935Y-93017251D01*
X91088835Y-93153967D01*
X90940000Y-93262102D01*
X90771935Y-93336930D01*
X90591985Y-93375179D01*
X90408015Y-93375179D01*
X90228065Y-93336930D01*
X90060000Y-93262102D01*
X89911165Y-93153967D01*
X89788065Y-93017251D01*
X89696080Y-92857928D01*
X89639230Y-92682962D01*
X89620000Y-92500000D01*
X89639230Y-92317038D01*
X89696080Y-92142072D01*
X89788065Y-91982749D01*
X89911165Y-91846033D01*
X90060000Y-91737898D01*
X90228065Y-91663070D01*
X90408015Y-91624821D01*
X90591985Y-91624821D01*
X90771935Y-91663070D01*
G37*
G36*
X72055356Y-89745034D02*
G01*
X72108877Y-89745034D01*
X72155962Y-89753835D01*
X72204874Y-89758115D01*
X72264910Y-89774201D01*
X72322922Y-89785046D01*
X72362267Y-89800288D01*
X72403520Y-89811342D01*
X72465966Y-89840461D01*
X72525971Y-89863707D01*
X72556944Y-89882885D01*
X72589901Y-89898253D01*
X72652073Y-89941786D01*
X72711109Y-89978340D01*
X72733736Y-89998967D01*
X72758364Y-90016212D01*
X72817270Y-90075118D01*
X72872031Y-90125039D01*
X72886959Y-90144807D01*
X72903787Y-90161635D01*
X72956283Y-90236607D01*
X73003256Y-90298810D01*
X73011671Y-90315710D01*
X73021745Y-90330097D01*
X73064643Y-90422092D01*
X73100317Y-90493735D01*
X73103863Y-90506200D01*
X73108658Y-90516482D01*
X73138868Y-90629231D01*
X73159908Y-90703176D01*
X73160555Y-90710168D01*
X73161884Y-90715125D01*
X73176563Y-90882916D01*
X73180000Y-90920000D01*
X73176563Y-90957086D01*
X73161884Y-91124874D01*
X73160556Y-91129829D01*
X73159908Y-91136824D01*
X73138862Y-91210790D01*
X73108657Y-91323520D01*
X73103863Y-91333798D01*
X73100317Y-91346265D01*
X73064643Y-91417907D01*
X73021746Y-91509901D01*
X73011672Y-91524287D01*
X73003256Y-91541190D01*
X72956275Y-91603402D01*
X72903787Y-91678364D01*
X72886962Y-91695188D01*
X72872031Y-91714961D01*
X72817258Y-91764892D01*
X72758364Y-91823787D01*
X72733741Y-91841027D01*
X72711109Y-91861660D01*
X72652061Y-91898220D01*
X72589901Y-91941746D01*
X72556951Y-91957110D01*
X72525971Y-91976293D01*
X72465953Y-91999543D01*
X72403520Y-92028657D01*
X72362276Y-92039708D01*
X72322922Y-92054954D01*
X72264898Y-92065800D01*
X72204874Y-92081884D01*
X72155972Y-92086162D01*
X72108877Y-92094966D01*
X72055345Y-92094966D01*
X72000000Y-92099808D01*
X71944655Y-92094966D01*
X71891123Y-92094966D01*
X71844027Y-92086162D01*
X71795125Y-92081884D01*
X71735098Y-92065799D01*
X71677078Y-92054954D01*
X71637726Y-92039709D01*
X71596479Y-92028657D01*
X71534040Y-91999541D01*
X71474029Y-91976293D01*
X71443051Y-91957112D01*
X71410098Y-91941746D01*
X71347930Y-91898215D01*
X71288891Y-91861660D01*
X71266261Y-91841030D01*
X71241635Y-91823787D01*
X71182729Y-91764881D01*
X71127969Y-91714961D01*
X71113040Y-91695192D01*
X71096212Y-91678364D01*
X71043710Y-91603384D01*
X70996744Y-91541190D01*
X70988330Y-91524292D01*
X70978253Y-91509901D01*
X70935340Y-91417875D01*
X70899683Y-91346265D01*
X70896137Y-91333804D01*
X70891342Y-91323520D01*
X70861119Y-91210729D01*
X70840092Y-91136824D01*
X70839444Y-91129835D01*
X70838115Y-91124874D01*
X70823418Y-90956893D01*
X70820000Y-90920000D01*
X70823418Y-90883109D01*
X70838115Y-90715125D01*
X70839444Y-90710163D01*
X70840092Y-90703176D01*
X70861113Y-90629291D01*
X70891341Y-90516482D01*
X70896137Y-90506195D01*
X70899683Y-90493735D01*
X70935340Y-90422124D01*
X70978254Y-90330097D01*
X70988331Y-90315705D01*
X70996744Y-90298810D01*
X71043702Y-90236626D01*
X71096212Y-90161635D01*
X71113044Y-90144802D01*
X71127969Y-90125039D01*
X71182718Y-90075128D01*
X71241635Y-90016212D01*
X71266266Y-89998965D01*
X71288891Y-89978340D01*
X71347920Y-89941790D01*
X71410097Y-89898254D01*
X71443054Y-89882885D01*
X71474029Y-89863707D01*
X71534033Y-89840461D01*
X71596482Y-89811341D01*
X71637735Y-89800287D01*
X71677078Y-89785046D01*
X71735085Y-89774202D01*
X71795125Y-89758115D01*
X71844037Y-89753835D01*
X71891123Y-89745034D01*
X71944644Y-89745034D01*
X72000000Y-89740191D01*
X72055356Y-89745034D01*
G37*
G36*
X93830615Y-88831202D02*
G01*
X93856569Y-88848543D01*
X93873910Y-88874497D01*
X93880000Y-88905112D01*
X93880000Y-90505112D01*
X93873910Y-90535727D01*
X93856569Y-90561681D01*
X93830615Y-90579022D01*
X93800000Y-90585112D01*
X92200000Y-90585112D01*
X92169385Y-90579022D01*
X92143431Y-90561681D01*
X92126090Y-90535727D01*
X92120000Y-90505112D01*
X92120000Y-88905112D01*
X92126090Y-88874497D01*
X92143431Y-88848543D01*
X92169385Y-88831202D01*
X92200000Y-88825112D01*
X93800000Y-88825112D01*
X93830615Y-88831202D01*
G37*
G36*
X98802922Y-88420384D02*
G01*
X98889522Y-88427199D01*
X98918391Y-88435586D01*
X98950115Y-88439763D01*
X98990867Y-88456643D01*
X99030191Y-88468068D01*
X99057639Y-88484300D01*
X99090000Y-88497705D01*
X99122591Y-88522713D01*
X99155239Y-88542021D01*
X99179924Y-88566706D01*
X99210122Y-88589878D01*
X99233293Y-88620075D01*
X99257978Y-88644760D01*
X99277284Y-88677406D01*
X99302295Y-88710000D01*
X99315700Y-88742363D01*
X99331931Y-88769808D01*
X99343354Y-88809126D01*
X99360237Y-88849885D01*
X99364414Y-88881613D01*
X99372800Y-88910477D01*
X99379613Y-88997061D01*
X99380000Y-89000000D01*
X99380000Y-90000000D01*
X99379612Y-90002941D01*
X99372800Y-90089522D01*
X99364414Y-90118385D01*
X99360237Y-90150115D01*
X99343353Y-90190876D01*
X99331931Y-90230191D01*
X99315701Y-90257633D01*
X99302295Y-90290000D01*
X99277282Y-90322597D01*
X99257978Y-90355239D01*
X99233296Y-90379920D01*
X99210122Y-90410122D01*
X99179920Y-90433296D01*
X99155239Y-90457978D01*
X99122597Y-90477282D01*
X99090000Y-90502295D01*
X99057633Y-90515701D01*
X99030191Y-90531931D01*
X98990876Y-90543353D01*
X98950115Y-90560237D01*
X98918385Y-90564414D01*
X98889522Y-90572800D01*
X98802939Y-90579612D01*
X98800000Y-90580000D01*
X97800000Y-90580000D01*
X97797060Y-90579612D01*
X97710477Y-90572800D01*
X97681613Y-90564414D01*
X97649885Y-90560237D01*
X97609126Y-90543354D01*
X97569808Y-90531931D01*
X97542363Y-90515700D01*
X97510000Y-90502295D01*
X97477406Y-90477284D01*
X97444760Y-90457978D01*
X97420075Y-90433293D01*
X97389878Y-90410122D01*
X97366706Y-90379924D01*
X97342021Y-90355239D01*
X97322713Y-90322591D01*
X97297705Y-90290000D01*
X97284300Y-90257639D01*
X97268068Y-90230191D01*
X97256643Y-90190867D01*
X97239763Y-90150115D01*
X97235586Y-90118391D01*
X97227199Y-90089522D01*
X97220384Y-90002920D01*
X97220000Y-90000000D01*
X97220000Y-89000000D01*
X97220384Y-88997079D01*
X97227199Y-88910477D01*
X97235586Y-88881606D01*
X97239763Y-88849885D01*
X97256642Y-88809134D01*
X97268068Y-88769808D01*
X97284302Y-88742357D01*
X97297705Y-88710000D01*
X97322710Y-88677411D01*
X97342021Y-88644760D01*
X97366710Y-88620070D01*
X97389878Y-88589878D01*
X97420070Y-88566710D01*
X97444760Y-88542021D01*
X97477411Y-88522710D01*
X97510000Y-88497705D01*
X97542357Y-88484302D01*
X97569808Y-88468068D01*
X97609134Y-88456642D01*
X97649885Y-88439763D01*
X97681606Y-88435586D01*
X97710477Y-88427199D01*
X97797080Y-88420384D01*
X97800000Y-88420000D01*
X98800000Y-88420000D01*
X98802922Y-88420384D01*
G37*
G36*
X103802922Y-88420384D02*
G01*
X103889522Y-88427199D01*
X103918391Y-88435586D01*
X103950115Y-88439763D01*
X103990867Y-88456643D01*
X104030191Y-88468068D01*
X104057639Y-88484300D01*
X104090000Y-88497705D01*
X104122591Y-88522713D01*
X104155239Y-88542021D01*
X104179924Y-88566706D01*
X104210122Y-88589878D01*
X104233293Y-88620075D01*
X104257978Y-88644760D01*
X104277284Y-88677406D01*
X104302295Y-88710000D01*
X104315700Y-88742363D01*
X104331931Y-88769808D01*
X104343354Y-88809126D01*
X104360237Y-88849885D01*
X104364414Y-88881613D01*
X104372800Y-88910477D01*
X104379613Y-88997061D01*
X104380000Y-89000000D01*
X104380000Y-90000000D01*
X104379612Y-90002941D01*
X104372800Y-90089522D01*
X104364414Y-90118385D01*
X104360237Y-90150115D01*
X104343353Y-90190876D01*
X104331931Y-90230191D01*
X104315701Y-90257633D01*
X104302295Y-90290000D01*
X104277282Y-90322597D01*
X104257978Y-90355239D01*
X104233296Y-90379920D01*
X104210122Y-90410122D01*
X104179920Y-90433296D01*
X104155239Y-90457978D01*
X104122597Y-90477282D01*
X104090000Y-90502295D01*
X104057633Y-90515701D01*
X104030191Y-90531931D01*
X103990876Y-90543353D01*
X103950115Y-90560237D01*
X103918385Y-90564414D01*
X103889522Y-90572800D01*
X103802939Y-90579612D01*
X103800000Y-90580000D01*
X102800000Y-90580000D01*
X102797060Y-90579612D01*
X102710477Y-90572800D01*
X102681613Y-90564414D01*
X102649885Y-90560237D01*
X102609126Y-90543354D01*
X102569808Y-90531931D01*
X102542363Y-90515700D01*
X102510000Y-90502295D01*
X102477406Y-90477284D01*
X102444760Y-90457978D01*
X102420075Y-90433293D01*
X102389878Y-90410122D01*
X102366706Y-90379924D01*
X102342021Y-90355239D01*
X102322713Y-90322591D01*
X102297705Y-90290000D01*
X102284300Y-90257639D01*
X102268068Y-90230191D01*
X102256643Y-90190867D01*
X102239763Y-90150115D01*
X102235586Y-90118391D01*
X102227199Y-90089522D01*
X102220384Y-90002920D01*
X102220000Y-90000000D01*
X102220000Y-89000000D01*
X102220384Y-88997079D01*
X102227199Y-88910477D01*
X102235586Y-88881606D01*
X102239763Y-88849885D01*
X102256642Y-88809134D01*
X102268068Y-88769808D01*
X102284302Y-88742357D01*
X102297705Y-88710000D01*
X102322710Y-88677411D01*
X102342021Y-88644760D01*
X102366710Y-88620070D01*
X102389878Y-88589878D01*
X102420070Y-88566710D01*
X102444760Y-88542021D01*
X102477411Y-88522710D01*
X102510000Y-88497705D01*
X102542357Y-88484302D01*
X102569808Y-88468068D01*
X102609134Y-88456642D01*
X102649885Y-88439763D01*
X102681606Y-88435586D01*
X102710477Y-88427199D01*
X102797080Y-88420384D01*
X102800000Y-88420000D01*
X103800000Y-88420000D01*
X103802922Y-88420384D01*
G37*
G36*
X108802922Y-88420384D02*
G01*
X108889522Y-88427199D01*
X108918391Y-88435586D01*
X108950115Y-88439763D01*
X108990867Y-88456643D01*
X109030191Y-88468068D01*
X109057639Y-88484300D01*
X109090000Y-88497705D01*
X109122591Y-88522713D01*
X109155239Y-88542021D01*
X109179924Y-88566706D01*
X109210122Y-88589878D01*
X109233293Y-88620075D01*
X109257978Y-88644760D01*
X109277284Y-88677406D01*
X109302295Y-88710000D01*
X109315700Y-88742363D01*
X109331931Y-88769808D01*
X109343354Y-88809126D01*
X109360237Y-88849885D01*
X109364414Y-88881613D01*
X109372800Y-88910477D01*
X109379613Y-88997061D01*
X109380000Y-89000000D01*
X109380000Y-90000000D01*
X109379612Y-90002941D01*
X109372800Y-90089522D01*
X109364414Y-90118385D01*
X109360237Y-90150115D01*
X109343353Y-90190876D01*
X109331931Y-90230191D01*
X109315701Y-90257633D01*
X109302295Y-90290000D01*
X109277282Y-90322597D01*
X109257978Y-90355239D01*
X109233296Y-90379920D01*
X109210122Y-90410122D01*
X109179920Y-90433296D01*
X109155239Y-90457978D01*
X109122597Y-90477282D01*
X109090000Y-90502295D01*
X109057633Y-90515701D01*
X109030191Y-90531931D01*
X108990876Y-90543353D01*
X108950115Y-90560237D01*
X108918385Y-90564414D01*
X108889522Y-90572800D01*
X108802939Y-90579612D01*
X108800000Y-90580000D01*
X107800000Y-90580000D01*
X107797060Y-90579612D01*
X107710477Y-90572800D01*
X107681613Y-90564414D01*
X107649885Y-90560237D01*
X107609126Y-90543354D01*
X107569808Y-90531931D01*
X107542363Y-90515700D01*
X107510000Y-90502295D01*
X107477406Y-90477284D01*
X107444760Y-90457978D01*
X107420075Y-90433293D01*
X107389878Y-90410122D01*
X107366706Y-90379924D01*
X107342021Y-90355239D01*
X107322713Y-90322591D01*
X107297705Y-90290000D01*
X107284300Y-90257639D01*
X107268068Y-90230191D01*
X107256643Y-90190867D01*
X107239763Y-90150115D01*
X107235586Y-90118391D01*
X107227199Y-90089522D01*
X107220384Y-90002920D01*
X107220000Y-90000000D01*
X107220000Y-89000000D01*
X107220384Y-88997079D01*
X107227199Y-88910477D01*
X107235586Y-88881606D01*
X107239763Y-88849885D01*
X107256642Y-88809134D01*
X107268068Y-88769808D01*
X107284302Y-88742357D01*
X107297705Y-88710000D01*
X107322710Y-88677411D01*
X107342021Y-88644760D01*
X107366710Y-88620070D01*
X107389878Y-88589878D01*
X107420070Y-88566710D01*
X107444760Y-88542021D01*
X107477411Y-88522710D01*
X107510000Y-88497705D01*
X107542357Y-88484302D01*
X107569808Y-88468068D01*
X107609134Y-88456642D01*
X107649885Y-88439763D01*
X107681606Y-88435586D01*
X107710477Y-88427199D01*
X107797080Y-88420384D01*
X107800000Y-88420000D01*
X108800000Y-88420000D01*
X108802922Y-88420384D01*
G37*
G36*
X58202922Y-88020384D02*
G01*
X58289522Y-88027199D01*
X58318391Y-88035586D01*
X58350115Y-88039763D01*
X58390867Y-88056643D01*
X58430191Y-88068068D01*
X58457639Y-88084300D01*
X58490000Y-88097705D01*
X58522591Y-88122713D01*
X58555239Y-88142021D01*
X58579924Y-88166706D01*
X58610122Y-88189878D01*
X58633293Y-88220075D01*
X58657978Y-88244760D01*
X58677284Y-88277406D01*
X58702295Y-88310000D01*
X58715700Y-88342363D01*
X58731931Y-88369808D01*
X58743354Y-88409126D01*
X58760237Y-88449885D01*
X58764414Y-88481613D01*
X58772800Y-88510477D01*
X58779613Y-88597061D01*
X58780000Y-88600000D01*
X58780000Y-89600000D01*
X58779612Y-89602941D01*
X58772800Y-89689522D01*
X58764414Y-89718385D01*
X58760237Y-89750115D01*
X58743353Y-89790876D01*
X58731931Y-89830191D01*
X58715701Y-89857633D01*
X58702295Y-89890000D01*
X58677282Y-89922597D01*
X58657978Y-89955239D01*
X58633296Y-89979920D01*
X58610122Y-90010122D01*
X58579920Y-90033296D01*
X58555239Y-90057978D01*
X58522597Y-90077282D01*
X58490000Y-90102295D01*
X58457633Y-90115701D01*
X58430191Y-90131931D01*
X58390876Y-90143353D01*
X58350115Y-90160237D01*
X58318385Y-90164414D01*
X58289522Y-90172800D01*
X58202939Y-90179612D01*
X58200000Y-90180000D01*
X57200000Y-90180000D01*
X57197060Y-90179612D01*
X57110477Y-90172800D01*
X57081613Y-90164414D01*
X57049885Y-90160237D01*
X57009126Y-90143354D01*
X56969808Y-90131931D01*
X56942363Y-90115700D01*
X56910000Y-90102295D01*
X56877406Y-90077284D01*
X56844760Y-90057978D01*
X56820075Y-90033293D01*
X56789878Y-90010122D01*
X56766706Y-89979924D01*
X56742021Y-89955239D01*
X56722713Y-89922591D01*
X56697705Y-89890000D01*
X56684300Y-89857639D01*
X56668068Y-89830191D01*
X56656643Y-89790867D01*
X56639763Y-89750115D01*
X56635586Y-89718391D01*
X56627199Y-89689522D01*
X56620384Y-89602920D01*
X56620000Y-89600000D01*
X56620000Y-88600000D01*
X56620384Y-88597079D01*
X56627199Y-88510477D01*
X56635586Y-88481606D01*
X56639763Y-88449885D01*
X56656642Y-88409134D01*
X56668068Y-88369808D01*
X56684302Y-88342357D01*
X56697705Y-88310000D01*
X56722710Y-88277411D01*
X56742021Y-88244760D01*
X56766710Y-88220070D01*
X56789878Y-88189878D01*
X56820070Y-88166710D01*
X56844760Y-88142021D01*
X56877411Y-88122710D01*
X56910000Y-88097705D01*
X56942357Y-88084302D01*
X56969808Y-88068068D01*
X57009134Y-88056642D01*
X57049885Y-88039763D01*
X57081606Y-88035586D01*
X57110477Y-88027199D01*
X57197080Y-88020384D01*
X57200000Y-88020000D01*
X58200000Y-88020000D01*
X58202922Y-88020384D01*
G37*
G36*
X63202922Y-88020384D02*
G01*
X63289522Y-88027199D01*
X63318391Y-88035586D01*
X63350115Y-88039763D01*
X63390867Y-88056643D01*
X63430191Y-88068068D01*
X63457639Y-88084300D01*
X63490000Y-88097705D01*
X63522591Y-88122713D01*
X63555239Y-88142021D01*
X63579924Y-88166706D01*
X63610122Y-88189878D01*
X63633293Y-88220075D01*
X63657978Y-88244760D01*
X63677284Y-88277406D01*
X63702295Y-88310000D01*
X63715700Y-88342363D01*
X63731931Y-88369808D01*
X63743354Y-88409126D01*
X63760237Y-88449885D01*
X63764414Y-88481613D01*
X63772800Y-88510477D01*
X63779613Y-88597061D01*
X63780000Y-88600000D01*
X63780000Y-89600000D01*
X63779612Y-89602941D01*
X63772800Y-89689522D01*
X63764414Y-89718385D01*
X63760237Y-89750115D01*
X63743353Y-89790876D01*
X63731931Y-89830191D01*
X63715701Y-89857633D01*
X63702295Y-89890000D01*
X63677282Y-89922597D01*
X63657978Y-89955239D01*
X63633296Y-89979920D01*
X63610122Y-90010122D01*
X63579920Y-90033296D01*
X63555239Y-90057978D01*
X63522597Y-90077282D01*
X63490000Y-90102295D01*
X63457633Y-90115701D01*
X63430191Y-90131931D01*
X63390876Y-90143353D01*
X63350115Y-90160237D01*
X63318385Y-90164414D01*
X63289522Y-90172800D01*
X63202939Y-90179612D01*
X63200000Y-90180000D01*
X62200000Y-90180000D01*
X62197060Y-90179612D01*
X62110477Y-90172800D01*
X62081613Y-90164414D01*
X62049885Y-90160237D01*
X62009126Y-90143354D01*
X61969808Y-90131931D01*
X61942363Y-90115700D01*
X61910000Y-90102295D01*
X61877406Y-90077284D01*
X61844760Y-90057978D01*
X61820075Y-90033293D01*
X61789878Y-90010122D01*
X61766706Y-89979924D01*
X61742021Y-89955239D01*
X61722713Y-89922591D01*
X61697705Y-89890000D01*
X61684300Y-89857639D01*
X61668068Y-89830191D01*
X61656643Y-89790867D01*
X61639763Y-89750115D01*
X61635586Y-89718391D01*
X61627199Y-89689522D01*
X61620384Y-89602920D01*
X61620000Y-89600000D01*
X61620000Y-88600000D01*
X61620384Y-88597079D01*
X61627199Y-88510477D01*
X61635586Y-88481606D01*
X61639763Y-88449885D01*
X61656642Y-88409134D01*
X61668068Y-88369808D01*
X61684302Y-88342357D01*
X61697705Y-88310000D01*
X61722710Y-88277411D01*
X61742021Y-88244760D01*
X61766710Y-88220070D01*
X61789878Y-88189878D01*
X61820070Y-88166710D01*
X61844760Y-88142021D01*
X61877411Y-88122710D01*
X61910000Y-88097705D01*
X61942357Y-88084302D01*
X61969808Y-88068068D01*
X62009134Y-88056642D01*
X62049885Y-88039763D01*
X62081606Y-88035586D01*
X62110477Y-88027199D01*
X62197080Y-88020384D01*
X62200000Y-88020000D01*
X63200000Y-88020000D01*
X63202922Y-88020384D01*
G37*
G36*
X68202922Y-88020384D02*
G01*
X68289522Y-88027199D01*
X68318391Y-88035586D01*
X68350115Y-88039763D01*
X68390867Y-88056643D01*
X68430191Y-88068068D01*
X68457639Y-88084300D01*
X68490000Y-88097705D01*
X68522591Y-88122713D01*
X68555239Y-88142021D01*
X68579924Y-88166706D01*
X68610122Y-88189878D01*
X68633293Y-88220075D01*
X68657978Y-88244760D01*
X68677284Y-88277406D01*
X68702295Y-88310000D01*
X68715700Y-88342363D01*
X68731931Y-88369808D01*
X68743354Y-88409126D01*
X68760237Y-88449885D01*
X68764414Y-88481613D01*
X68772800Y-88510477D01*
X68779613Y-88597061D01*
X68780000Y-88600000D01*
X68780000Y-89600000D01*
X68779612Y-89602941D01*
X68772800Y-89689522D01*
X68764414Y-89718385D01*
X68760237Y-89750115D01*
X68743353Y-89790876D01*
X68731931Y-89830191D01*
X68715701Y-89857633D01*
X68702295Y-89890000D01*
X68677282Y-89922597D01*
X68657978Y-89955239D01*
X68633296Y-89979920D01*
X68610122Y-90010122D01*
X68579920Y-90033296D01*
X68555239Y-90057978D01*
X68522597Y-90077282D01*
X68490000Y-90102295D01*
X68457633Y-90115701D01*
X68430191Y-90131931D01*
X68390876Y-90143353D01*
X68350115Y-90160237D01*
X68318385Y-90164414D01*
X68289522Y-90172800D01*
X68202939Y-90179612D01*
X68200000Y-90180000D01*
X67200000Y-90180000D01*
X67197060Y-90179612D01*
X67110477Y-90172800D01*
X67081613Y-90164414D01*
X67049885Y-90160237D01*
X67009126Y-90143354D01*
X66969808Y-90131931D01*
X66942363Y-90115700D01*
X66910000Y-90102295D01*
X66877406Y-90077284D01*
X66844760Y-90057978D01*
X66820075Y-90033293D01*
X66789878Y-90010122D01*
X66766706Y-89979924D01*
X66742021Y-89955239D01*
X66722713Y-89922591D01*
X66697705Y-89890000D01*
X66684300Y-89857639D01*
X66668068Y-89830191D01*
X66656643Y-89790867D01*
X66639763Y-89750115D01*
X66635586Y-89718391D01*
X66627199Y-89689522D01*
X66620384Y-89602920D01*
X66620000Y-89600000D01*
X66620000Y-88600000D01*
X66620384Y-88597079D01*
X66627199Y-88510477D01*
X66635586Y-88481606D01*
X66639763Y-88449885D01*
X66656642Y-88409134D01*
X66668068Y-88369808D01*
X66684302Y-88342357D01*
X66697705Y-88310000D01*
X66722710Y-88277411D01*
X66742021Y-88244760D01*
X66766710Y-88220070D01*
X66789878Y-88189878D01*
X66820070Y-88166710D01*
X66844760Y-88142021D01*
X66877411Y-88122710D01*
X66910000Y-88097705D01*
X66942357Y-88084302D01*
X66969808Y-88068068D01*
X67009134Y-88056642D01*
X67049885Y-88039763D01*
X67081606Y-88035586D01*
X67110477Y-88027199D01*
X67197080Y-88020384D01*
X67200000Y-88020000D01*
X68200000Y-88020000D01*
X68202922Y-88020384D01*
G37*
G36*
X78502922Y-88020384D02*
G01*
X78589522Y-88027199D01*
X78618391Y-88035586D01*
X78650115Y-88039763D01*
X78690867Y-88056643D01*
X78730191Y-88068068D01*
X78757639Y-88084300D01*
X78790000Y-88097705D01*
X78822591Y-88122713D01*
X78855239Y-88142021D01*
X78879924Y-88166706D01*
X78910122Y-88189878D01*
X78933293Y-88220075D01*
X78957978Y-88244760D01*
X78977284Y-88277406D01*
X79002295Y-88310000D01*
X79015700Y-88342363D01*
X79031931Y-88369808D01*
X79043354Y-88409126D01*
X79060237Y-88449885D01*
X79064414Y-88481613D01*
X79072800Y-88510477D01*
X79079613Y-88597061D01*
X79080000Y-88600000D01*
X79080000Y-89600000D01*
X79079612Y-89602941D01*
X79072800Y-89689522D01*
X79064414Y-89718385D01*
X79060237Y-89750115D01*
X79043353Y-89790876D01*
X79031931Y-89830191D01*
X79015701Y-89857633D01*
X79002295Y-89890000D01*
X78977282Y-89922597D01*
X78957978Y-89955239D01*
X78933296Y-89979920D01*
X78910122Y-90010122D01*
X78879920Y-90033296D01*
X78855239Y-90057978D01*
X78822597Y-90077282D01*
X78790000Y-90102295D01*
X78757633Y-90115701D01*
X78730191Y-90131931D01*
X78690876Y-90143353D01*
X78650115Y-90160237D01*
X78618385Y-90164414D01*
X78589522Y-90172800D01*
X78502939Y-90179612D01*
X78500000Y-90180000D01*
X77500000Y-90180000D01*
X77497060Y-90179612D01*
X77410477Y-90172800D01*
X77381613Y-90164414D01*
X77349885Y-90160237D01*
X77309126Y-90143354D01*
X77269808Y-90131931D01*
X77242363Y-90115700D01*
X77210000Y-90102295D01*
X77177406Y-90077284D01*
X77144760Y-90057978D01*
X77120075Y-90033293D01*
X77089878Y-90010122D01*
X77066706Y-89979924D01*
X77042021Y-89955239D01*
X77022713Y-89922591D01*
X76997705Y-89890000D01*
X76984300Y-89857639D01*
X76968068Y-89830191D01*
X76956643Y-89790867D01*
X76939763Y-89750115D01*
X76935586Y-89718391D01*
X76927199Y-89689522D01*
X76920384Y-89602920D01*
X76920000Y-89600000D01*
X76920000Y-88600000D01*
X76920384Y-88597079D01*
X76927199Y-88510477D01*
X76935586Y-88481606D01*
X76939763Y-88449885D01*
X76956642Y-88409134D01*
X76968068Y-88369808D01*
X76984302Y-88342357D01*
X76997705Y-88310000D01*
X77022710Y-88277411D01*
X77042021Y-88244760D01*
X77066710Y-88220070D01*
X77089878Y-88189878D01*
X77120070Y-88166710D01*
X77144760Y-88142021D01*
X77177411Y-88122710D01*
X77210000Y-88097705D01*
X77242357Y-88084302D01*
X77269808Y-88068068D01*
X77309134Y-88056642D01*
X77349885Y-88039763D01*
X77381606Y-88035586D01*
X77410477Y-88027199D01*
X77497080Y-88020384D01*
X77500000Y-88020000D01*
X78500000Y-88020000D01*
X78502922Y-88020384D01*
G37*
G36*
X83502922Y-88020384D02*
G01*
X83589522Y-88027199D01*
X83618391Y-88035586D01*
X83650115Y-88039763D01*
X83690867Y-88056643D01*
X83730191Y-88068068D01*
X83757639Y-88084300D01*
X83790000Y-88097705D01*
X83822591Y-88122713D01*
X83855239Y-88142021D01*
X83879924Y-88166706D01*
X83910122Y-88189878D01*
X83933293Y-88220075D01*
X83957978Y-88244760D01*
X83977284Y-88277406D01*
X84002295Y-88310000D01*
X84015700Y-88342363D01*
X84031931Y-88369808D01*
X84043354Y-88409126D01*
X84060237Y-88449885D01*
X84064414Y-88481613D01*
X84072800Y-88510477D01*
X84079613Y-88597061D01*
X84080000Y-88600000D01*
X84080000Y-89600000D01*
X84079612Y-89602941D01*
X84072800Y-89689522D01*
X84064414Y-89718385D01*
X84060237Y-89750115D01*
X84043353Y-89790876D01*
X84031931Y-89830191D01*
X84015701Y-89857633D01*
X84002295Y-89890000D01*
X83977282Y-89922597D01*
X83957978Y-89955239D01*
X83933296Y-89979920D01*
X83910122Y-90010122D01*
X83879920Y-90033296D01*
X83855239Y-90057978D01*
X83822597Y-90077282D01*
X83790000Y-90102295D01*
X83757633Y-90115701D01*
X83730191Y-90131931D01*
X83690876Y-90143353D01*
X83650115Y-90160237D01*
X83618385Y-90164414D01*
X83589522Y-90172800D01*
X83502939Y-90179612D01*
X83500000Y-90180000D01*
X82500000Y-90180000D01*
X82497060Y-90179612D01*
X82410477Y-90172800D01*
X82381613Y-90164414D01*
X82349885Y-90160237D01*
X82309126Y-90143354D01*
X82269808Y-90131931D01*
X82242363Y-90115700D01*
X82210000Y-90102295D01*
X82177406Y-90077284D01*
X82144760Y-90057978D01*
X82120075Y-90033293D01*
X82089878Y-90010122D01*
X82066706Y-89979924D01*
X82042021Y-89955239D01*
X82022713Y-89922591D01*
X81997705Y-89890000D01*
X81984300Y-89857639D01*
X81968068Y-89830191D01*
X81956643Y-89790867D01*
X81939763Y-89750115D01*
X81935586Y-89718391D01*
X81927199Y-89689522D01*
X81920384Y-89602920D01*
X81920000Y-89600000D01*
X81920000Y-88600000D01*
X81920384Y-88597079D01*
X81927199Y-88510477D01*
X81935586Y-88481606D01*
X81939763Y-88449885D01*
X81956642Y-88409134D01*
X81968068Y-88369808D01*
X81984302Y-88342357D01*
X81997705Y-88310000D01*
X82022710Y-88277411D01*
X82042021Y-88244760D01*
X82066710Y-88220070D01*
X82089878Y-88189878D01*
X82120070Y-88166710D01*
X82144760Y-88142021D01*
X82177411Y-88122710D01*
X82210000Y-88097705D01*
X82242357Y-88084302D01*
X82269808Y-88068068D01*
X82309134Y-88056642D01*
X82349885Y-88039763D01*
X82381606Y-88035586D01*
X82410477Y-88027199D01*
X82497080Y-88020384D01*
X82500000Y-88020000D01*
X83500000Y-88020000D01*
X83502922Y-88020384D01*
G37*
G36*
X88502922Y-88020384D02*
G01*
X88589522Y-88027199D01*
X88618391Y-88035586D01*
X88650115Y-88039763D01*
X88690867Y-88056643D01*
X88730191Y-88068068D01*
X88757639Y-88084300D01*
X88790000Y-88097705D01*
X88822591Y-88122713D01*
X88855239Y-88142021D01*
X88879924Y-88166706D01*
X88910122Y-88189878D01*
X88933293Y-88220075D01*
X88957978Y-88244760D01*
X88977284Y-88277406D01*
X89002295Y-88310000D01*
X89015700Y-88342363D01*
X89031931Y-88369808D01*
X89043354Y-88409126D01*
X89060237Y-88449885D01*
X89064414Y-88481613D01*
X89072800Y-88510477D01*
X89079613Y-88597061D01*
X89080000Y-88600000D01*
X89080000Y-89600000D01*
X89079612Y-89602941D01*
X89072800Y-89689522D01*
X89064414Y-89718385D01*
X89060237Y-89750115D01*
X89043353Y-89790876D01*
X89031931Y-89830191D01*
X89015701Y-89857633D01*
X89002295Y-89890000D01*
X88977282Y-89922597D01*
X88957978Y-89955239D01*
X88933296Y-89979920D01*
X88910122Y-90010122D01*
X88879920Y-90033296D01*
X88855239Y-90057978D01*
X88822597Y-90077282D01*
X88790000Y-90102295D01*
X88757633Y-90115701D01*
X88730191Y-90131931D01*
X88690876Y-90143353D01*
X88650115Y-90160237D01*
X88618385Y-90164414D01*
X88589522Y-90172800D01*
X88502939Y-90179612D01*
X88500000Y-90180000D01*
X87500000Y-90180000D01*
X87497060Y-90179612D01*
X87410477Y-90172800D01*
X87381613Y-90164414D01*
X87349885Y-90160237D01*
X87309126Y-90143354D01*
X87269808Y-90131931D01*
X87242363Y-90115700D01*
X87210000Y-90102295D01*
X87177406Y-90077284D01*
X87144760Y-90057978D01*
X87120075Y-90033293D01*
X87089878Y-90010122D01*
X87066706Y-89979924D01*
X87042021Y-89955239D01*
X87022713Y-89922591D01*
X86997705Y-89890000D01*
X86984300Y-89857639D01*
X86968068Y-89830191D01*
X86956643Y-89790867D01*
X86939763Y-89750115D01*
X86935586Y-89718391D01*
X86927199Y-89689522D01*
X86920384Y-89602920D01*
X86920000Y-89600000D01*
X86920000Y-88600000D01*
X86920384Y-88597079D01*
X86927199Y-88510477D01*
X86935586Y-88481606D01*
X86939763Y-88449885D01*
X86956642Y-88409134D01*
X86968068Y-88369808D01*
X86984302Y-88342357D01*
X86997705Y-88310000D01*
X87022710Y-88277411D01*
X87042021Y-88244760D01*
X87066710Y-88220070D01*
X87089878Y-88189878D01*
X87120070Y-88166710D01*
X87144760Y-88142021D01*
X87177411Y-88122710D01*
X87210000Y-88097705D01*
X87242357Y-88084302D01*
X87269808Y-88068068D01*
X87309134Y-88056642D01*
X87349885Y-88039763D01*
X87381606Y-88035586D01*
X87410477Y-88027199D01*
X87497080Y-88020384D01*
X87500000Y-88020000D01*
X88500000Y-88020000D01*
X88502922Y-88020384D01*
G37*
G36*
X93271935Y-86368182D02*
G01*
X93440000Y-86443010D01*
X93588835Y-86551145D01*
X93711935Y-86687861D01*
X93803920Y-86847184D01*
X93860770Y-87022150D01*
X93880000Y-87205112D01*
X93860770Y-87388074D01*
X93803920Y-87563040D01*
X93711935Y-87722363D01*
X93588835Y-87859079D01*
X93440000Y-87967214D01*
X93271935Y-88042042D01*
X93091985Y-88080291D01*
X92908015Y-88080291D01*
X92728065Y-88042042D01*
X92560000Y-87967214D01*
X92411165Y-87859079D01*
X92288065Y-87722363D01*
X92196080Y-87563040D01*
X92139230Y-87388074D01*
X92120000Y-87205112D01*
X92139230Y-87022150D01*
X92196080Y-86847184D01*
X92288065Y-86687861D01*
X92411165Y-86551145D01*
X92560000Y-86443010D01*
X92728065Y-86368182D01*
X92908015Y-86329933D01*
X93091985Y-86329933D01*
X93271935Y-86368182D01*
G37*
G36*
X71604230Y-83020616D02*
G01*
X71669195Y-83026707D01*
X71685719Y-83032489D01*
X71708428Y-83035798D01*
X71741805Y-83052115D01*
X71777296Y-83064534D01*
X71797085Y-83079139D01*
X71820809Y-83090737D01*
X71843375Y-83113303D01*
X71868300Y-83131699D01*
X71886695Y-83156623D01*
X71909263Y-83179191D01*
X71920861Y-83202915D01*
X71935465Y-83222703D01*
X71947882Y-83258189D01*
X71964202Y-83291572D01*
X71967511Y-83314283D01*
X71973292Y-83330804D01*
X71979381Y-83395753D01*
X71980000Y-83400000D01*
X71980000Y-84600000D01*
X71979380Y-84604249D01*
X71973292Y-84669195D01*
X71967511Y-84685714D01*
X71964202Y-84708428D01*
X71947881Y-84741812D01*
X71935465Y-84777296D01*
X71920862Y-84797081D01*
X71909263Y-84820809D01*
X71886692Y-84843379D01*
X71868300Y-84868300D01*
X71843379Y-84886692D01*
X71820809Y-84909263D01*
X71797081Y-84920862D01*
X71777296Y-84935465D01*
X71741812Y-84947881D01*
X71708428Y-84964202D01*
X71685714Y-84967511D01*
X71669195Y-84973292D01*
X71604247Y-84979381D01*
X71600000Y-84980000D01*
X70400000Y-84980000D01*
X70395752Y-84979381D01*
X70330804Y-84973292D01*
X70314283Y-84967511D01*
X70291572Y-84964202D01*
X70258189Y-84947882D01*
X70222703Y-84935465D01*
X70202915Y-84920861D01*
X70179191Y-84909263D01*
X70156623Y-84886695D01*
X70131699Y-84868300D01*
X70113303Y-84843375D01*
X70090737Y-84820809D01*
X70079139Y-84797085D01*
X70064534Y-84777296D01*
X70052115Y-84741805D01*
X70035798Y-84708428D01*
X70032489Y-84685719D01*
X70026707Y-84669195D01*
X70020616Y-84604228D01*
X70020000Y-84600000D01*
X70020000Y-83400000D01*
X70020616Y-83395771D01*
X70026707Y-83330804D01*
X70032489Y-83314278D01*
X70035798Y-83291572D01*
X70052113Y-83258196D01*
X70064534Y-83222703D01*
X70079140Y-83202911D01*
X70090737Y-83179191D01*
X70113301Y-83156626D01*
X70131699Y-83131699D01*
X70156626Y-83113301D01*
X70179191Y-83090737D01*
X70202911Y-83079140D01*
X70222703Y-83064534D01*
X70258196Y-83052113D01*
X70291572Y-83035798D01*
X70314278Y-83032489D01*
X70330804Y-83026707D01*
X70395773Y-83020615D01*
X70400000Y-83020000D01*
X71600000Y-83020000D01*
X71604230Y-83020616D01*
G37*
G36*
X75104230Y-83020616D02*
G01*
X75169195Y-83026707D01*
X75185719Y-83032489D01*
X75208428Y-83035798D01*
X75241805Y-83052115D01*
X75277296Y-83064534D01*
X75297085Y-83079139D01*
X75320809Y-83090737D01*
X75343375Y-83113303D01*
X75368300Y-83131699D01*
X75386695Y-83156623D01*
X75409263Y-83179191D01*
X75420861Y-83202915D01*
X75435465Y-83222703D01*
X75447882Y-83258189D01*
X75464202Y-83291572D01*
X75467511Y-83314283D01*
X75473292Y-83330804D01*
X75479381Y-83395753D01*
X75480000Y-83400000D01*
X75480000Y-84600000D01*
X75479380Y-84604249D01*
X75473292Y-84669195D01*
X75467511Y-84685714D01*
X75464202Y-84708428D01*
X75447881Y-84741812D01*
X75435465Y-84777296D01*
X75420862Y-84797081D01*
X75409263Y-84820809D01*
X75386692Y-84843379D01*
X75368300Y-84868300D01*
X75343379Y-84886692D01*
X75320809Y-84909263D01*
X75297081Y-84920862D01*
X75277296Y-84935465D01*
X75241812Y-84947881D01*
X75208428Y-84964202D01*
X75185714Y-84967511D01*
X75169195Y-84973292D01*
X75104247Y-84979381D01*
X75100000Y-84980000D01*
X73900000Y-84980000D01*
X73895752Y-84979381D01*
X73830804Y-84973292D01*
X73814283Y-84967511D01*
X73791572Y-84964202D01*
X73758189Y-84947882D01*
X73722703Y-84935465D01*
X73702915Y-84920861D01*
X73679191Y-84909263D01*
X73656623Y-84886695D01*
X73631699Y-84868300D01*
X73613303Y-84843375D01*
X73590737Y-84820809D01*
X73579139Y-84797085D01*
X73564534Y-84777296D01*
X73552115Y-84741805D01*
X73535798Y-84708428D01*
X73532489Y-84685719D01*
X73526707Y-84669195D01*
X73520616Y-84604228D01*
X73520000Y-84600000D01*
X73520000Y-83400000D01*
X73520616Y-83395771D01*
X73526707Y-83330804D01*
X73532489Y-83314278D01*
X73535798Y-83291572D01*
X73552113Y-83258196D01*
X73564534Y-83222703D01*
X73579140Y-83202911D01*
X73590737Y-83179191D01*
X73613301Y-83156626D01*
X73631699Y-83131699D01*
X73656626Y-83113301D01*
X73679191Y-83090737D01*
X73702911Y-83079140D01*
X73722703Y-83064534D01*
X73758196Y-83052113D01*
X73791572Y-83035798D01*
X73814278Y-83032489D01*
X73830804Y-83026707D01*
X73895773Y-83020615D01*
X73900000Y-83020000D01*
X75100000Y-83020000D01*
X75104230Y-83020616D01*
G37*
M02*
