%TF.GenerationSoftware,KiCad,Pcbnew,8.0.0*%
%TF.CreationDate,2024-04-22T22:36:35-07:00*%
%TF.ProjectId,rat-v2,7261742d-7632-42e6-9b69-6361645f7063,rev?*%
%TF.SameCoordinates,Original*%
%TF.FileFunction,Legend,Bot*%
%TF.FilePolarity,Positive*%
%FSLAX46Y46*%
G04 Gerber Fmt 4.6, Leading zero omitted, Abs format (unit mm)*
G04 Created by KiCad (PCBNEW 8.0.0) date 2024-04-22 22:36:35*
%MOMM*%
%LPD*%
G01*
G04 APERTURE LIST*
%ADD10C,0.150000*%
%ADD11C,0.120000*%
%ADD12C,0.100000*%
G04 APERTURE END LIST*
D10*
X85459580Y-105357142D02*
X85507200Y-105309523D01*
X85507200Y-105309523D02*
X85554819Y-105166666D01*
X85554819Y-105166666D02*
X85554819Y-105071428D01*
X85554819Y-105071428D02*
X85507200Y-104928571D01*
X85507200Y-104928571D02*
X85411961Y-104833333D01*
X85411961Y-104833333D02*
X85316723Y-104785714D01*
X85316723Y-104785714D02*
X85126247Y-104738095D01*
X85126247Y-104738095D02*
X84983390Y-104738095D01*
X84983390Y-104738095D02*
X84792914Y-104785714D01*
X84792914Y-104785714D02*
X84697676Y-104833333D01*
X84697676Y-104833333D02*
X84602438Y-104928571D01*
X84602438Y-104928571D02*
X84554819Y-105071428D01*
X84554819Y-105071428D02*
X84554819Y-105166666D01*
X84554819Y-105166666D02*
X84602438Y-105309523D01*
X84602438Y-105309523D02*
X84650057Y-105357142D01*
X85554819Y-106309523D02*
X85554819Y-105738095D01*
X85554819Y-106023809D02*
X84554819Y-106023809D01*
X84554819Y-106023809D02*
X84697676Y-105928571D01*
X84697676Y-105928571D02*
X84792914Y-105833333D01*
X84792914Y-105833333D02*
X84840533Y-105738095D01*
X84983390Y-106880952D02*
X84935771Y-106785714D01*
X84935771Y-106785714D02*
X84888152Y-106738095D01*
X84888152Y-106738095D02*
X84792914Y-106690476D01*
X84792914Y-106690476D02*
X84745295Y-106690476D01*
X84745295Y-106690476D02*
X84650057Y-106738095D01*
X84650057Y-106738095D02*
X84602438Y-106785714D01*
X84602438Y-106785714D02*
X84554819Y-106880952D01*
X84554819Y-106880952D02*
X84554819Y-107071428D01*
X84554819Y-107071428D02*
X84602438Y-107166666D01*
X84602438Y-107166666D02*
X84650057Y-107214285D01*
X84650057Y-107214285D02*
X84745295Y-107261904D01*
X84745295Y-107261904D02*
X84792914Y-107261904D01*
X84792914Y-107261904D02*
X84888152Y-107214285D01*
X84888152Y-107214285D02*
X84935771Y-107166666D01*
X84935771Y-107166666D02*
X84983390Y-107071428D01*
X84983390Y-107071428D02*
X84983390Y-106880952D01*
X84983390Y-106880952D02*
X85031009Y-106785714D01*
X85031009Y-106785714D02*
X85078628Y-106738095D01*
X85078628Y-106738095D02*
X85173866Y-106690476D01*
X85173866Y-106690476D02*
X85364342Y-106690476D01*
X85364342Y-106690476D02*
X85459580Y-106738095D01*
X85459580Y-106738095D02*
X85507200Y-106785714D01*
X85507200Y-106785714D02*
X85554819Y-106880952D01*
X85554819Y-106880952D02*
X85554819Y-107071428D01*
X85554819Y-107071428D02*
X85507200Y-107166666D01*
X85507200Y-107166666D02*
X85459580Y-107214285D01*
X85459580Y-107214285D02*
X85364342Y-107261904D01*
X85364342Y-107261904D02*
X85173866Y-107261904D01*
X85173866Y-107261904D02*
X85078628Y-107214285D01*
X85078628Y-107214285D02*
X85031009Y-107166666D01*
X85031009Y-107166666D02*
X84983390Y-107071428D01*
X74209580Y-105357142D02*
X74257200Y-105309523D01*
X74257200Y-105309523D02*
X74304819Y-105166666D01*
X74304819Y-105166666D02*
X74304819Y-105071428D01*
X74304819Y-105071428D02*
X74257200Y-104928571D01*
X74257200Y-104928571D02*
X74161961Y-104833333D01*
X74161961Y-104833333D02*
X74066723Y-104785714D01*
X74066723Y-104785714D02*
X73876247Y-104738095D01*
X73876247Y-104738095D02*
X73733390Y-104738095D01*
X73733390Y-104738095D02*
X73542914Y-104785714D01*
X73542914Y-104785714D02*
X73447676Y-104833333D01*
X73447676Y-104833333D02*
X73352438Y-104928571D01*
X73352438Y-104928571D02*
X73304819Y-105071428D01*
X73304819Y-105071428D02*
X73304819Y-105166666D01*
X73304819Y-105166666D02*
X73352438Y-105309523D01*
X73352438Y-105309523D02*
X73400057Y-105357142D01*
X74304819Y-106309523D02*
X74304819Y-105738095D01*
X74304819Y-106023809D02*
X73304819Y-106023809D01*
X73304819Y-106023809D02*
X73447676Y-105928571D01*
X73447676Y-105928571D02*
X73542914Y-105833333D01*
X73542914Y-105833333D02*
X73590533Y-105738095D01*
X73304819Y-106642857D02*
X73304819Y-107309523D01*
X73304819Y-107309523D02*
X74304819Y-106880952D01*
X96392857Y-128359580D02*
X96440476Y-128407200D01*
X96440476Y-128407200D02*
X96583333Y-128454819D01*
X96583333Y-128454819D02*
X96678571Y-128454819D01*
X96678571Y-128454819D02*
X96821428Y-128407200D01*
X96821428Y-128407200D02*
X96916666Y-128311961D01*
X96916666Y-128311961D02*
X96964285Y-128216723D01*
X96964285Y-128216723D02*
X97011904Y-128026247D01*
X97011904Y-128026247D02*
X97011904Y-127883390D01*
X97011904Y-127883390D02*
X96964285Y-127692914D01*
X96964285Y-127692914D02*
X96916666Y-127597676D01*
X96916666Y-127597676D02*
X96821428Y-127502438D01*
X96821428Y-127502438D02*
X96678571Y-127454819D01*
X96678571Y-127454819D02*
X96583333Y-127454819D01*
X96583333Y-127454819D02*
X96440476Y-127502438D01*
X96440476Y-127502438D02*
X96392857Y-127550057D01*
X95440476Y-128454819D02*
X96011904Y-128454819D01*
X95726190Y-128454819D02*
X95726190Y-127454819D01*
X95726190Y-127454819D02*
X95821428Y-127597676D01*
X95821428Y-127597676D02*
X95916666Y-127692914D01*
X95916666Y-127692914D02*
X96011904Y-127740533D01*
X94583333Y-127788152D02*
X94583333Y-128454819D01*
X94821428Y-127407200D02*
X95059523Y-128121485D01*
X95059523Y-128121485D02*
X94440476Y-128121485D01*
X84392857Y-127449580D02*
X84440476Y-127497200D01*
X84440476Y-127497200D02*
X84583333Y-127544819D01*
X84583333Y-127544819D02*
X84678571Y-127544819D01*
X84678571Y-127544819D02*
X84821428Y-127497200D01*
X84821428Y-127497200D02*
X84916666Y-127401961D01*
X84916666Y-127401961D02*
X84964285Y-127306723D01*
X84964285Y-127306723D02*
X85011904Y-127116247D01*
X85011904Y-127116247D02*
X85011904Y-126973390D01*
X85011904Y-126973390D02*
X84964285Y-126782914D01*
X84964285Y-126782914D02*
X84916666Y-126687676D01*
X84916666Y-126687676D02*
X84821428Y-126592438D01*
X84821428Y-126592438D02*
X84678571Y-126544819D01*
X84678571Y-126544819D02*
X84583333Y-126544819D01*
X84583333Y-126544819D02*
X84440476Y-126592438D01*
X84440476Y-126592438D02*
X84392857Y-126640057D01*
X83440476Y-127544819D02*
X84011904Y-127544819D01*
X83726190Y-127544819D02*
X83726190Y-126544819D01*
X83726190Y-126544819D02*
X83821428Y-126687676D01*
X83821428Y-126687676D02*
X83916666Y-126782914D01*
X83916666Y-126782914D02*
X84011904Y-126830533D01*
X82535714Y-126544819D02*
X83011904Y-126544819D01*
X83011904Y-126544819D02*
X83059523Y-127021009D01*
X83059523Y-127021009D02*
X83011904Y-126973390D01*
X83011904Y-126973390D02*
X82916666Y-126925771D01*
X82916666Y-126925771D02*
X82678571Y-126925771D01*
X82678571Y-126925771D02*
X82583333Y-126973390D01*
X82583333Y-126973390D02*
X82535714Y-127021009D01*
X82535714Y-127021009D02*
X82488095Y-127116247D01*
X82488095Y-127116247D02*
X82488095Y-127354342D01*
X82488095Y-127354342D02*
X82535714Y-127449580D01*
X82535714Y-127449580D02*
X82583333Y-127497200D01*
X82583333Y-127497200D02*
X82678571Y-127544819D01*
X82678571Y-127544819D02*
X82916666Y-127544819D01*
X82916666Y-127544819D02*
X83011904Y-127497200D01*
X83011904Y-127497200D02*
X83059523Y-127449580D01*
X94892857Y-123359580D02*
X94940476Y-123407200D01*
X94940476Y-123407200D02*
X95083333Y-123454819D01*
X95083333Y-123454819D02*
X95178571Y-123454819D01*
X95178571Y-123454819D02*
X95321428Y-123407200D01*
X95321428Y-123407200D02*
X95416666Y-123311961D01*
X95416666Y-123311961D02*
X95464285Y-123216723D01*
X95464285Y-123216723D02*
X95511904Y-123026247D01*
X95511904Y-123026247D02*
X95511904Y-122883390D01*
X95511904Y-122883390D02*
X95464285Y-122692914D01*
X95464285Y-122692914D02*
X95416666Y-122597676D01*
X95416666Y-122597676D02*
X95321428Y-122502438D01*
X95321428Y-122502438D02*
X95178571Y-122454819D01*
X95178571Y-122454819D02*
X95083333Y-122454819D01*
X95083333Y-122454819D02*
X94940476Y-122502438D01*
X94940476Y-122502438D02*
X94892857Y-122550057D01*
X93940476Y-123454819D02*
X94511904Y-123454819D01*
X94226190Y-123454819D02*
X94226190Y-122454819D01*
X94226190Y-122454819D02*
X94321428Y-122597676D01*
X94321428Y-122597676D02*
X94416666Y-122692914D01*
X94416666Y-122692914D02*
X94511904Y-122740533D01*
X93083333Y-122454819D02*
X93273809Y-122454819D01*
X93273809Y-122454819D02*
X93369047Y-122502438D01*
X93369047Y-122502438D02*
X93416666Y-122550057D01*
X93416666Y-122550057D02*
X93511904Y-122692914D01*
X93511904Y-122692914D02*
X93559523Y-122883390D01*
X93559523Y-122883390D02*
X93559523Y-123264342D01*
X93559523Y-123264342D02*
X93511904Y-123359580D01*
X93511904Y-123359580D02*
X93464285Y-123407200D01*
X93464285Y-123407200D02*
X93369047Y-123454819D01*
X93369047Y-123454819D02*
X93178571Y-123454819D01*
X93178571Y-123454819D02*
X93083333Y-123407200D01*
X93083333Y-123407200D02*
X93035714Y-123359580D01*
X93035714Y-123359580D02*
X92988095Y-123264342D01*
X92988095Y-123264342D02*
X92988095Y-123026247D01*
X92988095Y-123026247D02*
X93035714Y-122931009D01*
X93035714Y-122931009D02*
X93083333Y-122883390D01*
X93083333Y-122883390D02*
X93178571Y-122835771D01*
X93178571Y-122835771D02*
X93369047Y-122835771D01*
X93369047Y-122835771D02*
X93464285Y-122883390D01*
X93464285Y-122883390D02*
X93511904Y-122931009D01*
X93511904Y-122931009D02*
X93559523Y-123026247D01*
X83642857Y-131929580D02*
X83690476Y-131977200D01*
X83690476Y-131977200D02*
X83833333Y-132024819D01*
X83833333Y-132024819D02*
X83928571Y-132024819D01*
X83928571Y-132024819D02*
X84071428Y-131977200D01*
X84071428Y-131977200D02*
X84166666Y-131881961D01*
X84166666Y-131881961D02*
X84214285Y-131786723D01*
X84214285Y-131786723D02*
X84261904Y-131596247D01*
X84261904Y-131596247D02*
X84261904Y-131453390D01*
X84261904Y-131453390D02*
X84214285Y-131262914D01*
X84214285Y-131262914D02*
X84166666Y-131167676D01*
X84166666Y-131167676D02*
X84071428Y-131072438D01*
X84071428Y-131072438D02*
X83928571Y-131024819D01*
X83928571Y-131024819D02*
X83833333Y-131024819D01*
X83833333Y-131024819D02*
X83690476Y-131072438D01*
X83690476Y-131072438D02*
X83642857Y-131120057D01*
X82690476Y-132024819D02*
X83261904Y-132024819D01*
X82976190Y-132024819D02*
X82976190Y-131024819D01*
X82976190Y-131024819D02*
X83071428Y-131167676D01*
X83071428Y-131167676D02*
X83166666Y-131262914D01*
X83166666Y-131262914D02*
X83261904Y-131310533D01*
X82357142Y-131024819D02*
X81738095Y-131024819D01*
X81738095Y-131024819D02*
X82071428Y-131405771D01*
X82071428Y-131405771D02*
X81928571Y-131405771D01*
X81928571Y-131405771D02*
X81833333Y-131453390D01*
X81833333Y-131453390D02*
X81785714Y-131501009D01*
X81785714Y-131501009D02*
X81738095Y-131596247D01*
X81738095Y-131596247D02*
X81738095Y-131834342D01*
X81738095Y-131834342D02*
X81785714Y-131929580D01*
X81785714Y-131929580D02*
X81833333Y-131977200D01*
X81833333Y-131977200D02*
X81928571Y-132024819D01*
X81928571Y-132024819D02*
X82214285Y-132024819D01*
X82214285Y-132024819D02*
X82309523Y-131977200D01*
X82309523Y-131977200D02*
X82357142Y-131929580D01*
X104633332Y-98407200D02*
X104490475Y-98454819D01*
X104490475Y-98454819D02*
X104252380Y-98454819D01*
X104252380Y-98454819D02*
X104157142Y-98407200D01*
X104157142Y-98407200D02*
X104109523Y-98359580D01*
X104109523Y-98359580D02*
X104061904Y-98264342D01*
X104061904Y-98264342D02*
X104061904Y-98169104D01*
X104061904Y-98169104D02*
X104109523Y-98073866D01*
X104109523Y-98073866D02*
X104157142Y-98026247D01*
X104157142Y-98026247D02*
X104252380Y-97978628D01*
X104252380Y-97978628D02*
X104442856Y-97931009D01*
X104442856Y-97931009D02*
X104538094Y-97883390D01*
X104538094Y-97883390D02*
X104585713Y-97835771D01*
X104585713Y-97835771D02*
X104633332Y-97740533D01*
X104633332Y-97740533D02*
X104633332Y-97645295D01*
X104633332Y-97645295D02*
X104585713Y-97550057D01*
X104585713Y-97550057D02*
X104538094Y-97502438D01*
X104538094Y-97502438D02*
X104442856Y-97454819D01*
X104442856Y-97454819D02*
X104204761Y-97454819D01*
X104204761Y-97454819D02*
X104061904Y-97502438D01*
X103728570Y-97454819D02*
X103490475Y-98454819D01*
X103490475Y-98454819D02*
X103299999Y-97740533D01*
X103299999Y-97740533D02*
X103109523Y-98454819D01*
X103109523Y-98454819D02*
X102871428Y-97454819D01*
X101966666Y-98454819D02*
X102538094Y-98454819D01*
X102252380Y-98454819D02*
X102252380Y-97454819D01*
X102252380Y-97454819D02*
X102347618Y-97597676D01*
X102347618Y-97597676D02*
X102442856Y-97692914D01*
X102442856Y-97692914D02*
X102538094Y-97740533D01*
X107739411Y-103269819D02*
X108310839Y-103269819D01*
X108025125Y-103269819D02*
X108025125Y-102269819D01*
X108025125Y-102269819D02*
X108120363Y-102412676D01*
X108120363Y-102412676D02*
X108215601Y-102507914D01*
X108215601Y-102507914D02*
X108310839Y-102555533D01*
X98334649Y-92769819D02*
X98525125Y-92769819D01*
X98525125Y-92769819D02*
X98620363Y-92817438D01*
X98620363Y-92817438D02*
X98667982Y-92865057D01*
X98667982Y-92865057D02*
X98763220Y-93007914D01*
X98763220Y-93007914D02*
X98810839Y-93198390D01*
X98810839Y-93198390D02*
X98810839Y-93579342D01*
X98810839Y-93579342D02*
X98763220Y-93674580D01*
X98763220Y-93674580D02*
X98715601Y-93722200D01*
X98715601Y-93722200D02*
X98620363Y-93769819D01*
X98620363Y-93769819D02*
X98429887Y-93769819D01*
X98429887Y-93769819D02*
X98334649Y-93722200D01*
X98334649Y-93722200D02*
X98287030Y-93674580D01*
X98287030Y-93674580D02*
X98239411Y-93579342D01*
X98239411Y-93579342D02*
X98239411Y-93341247D01*
X98239411Y-93341247D02*
X98287030Y-93246009D01*
X98287030Y-93246009D02*
X98334649Y-93198390D01*
X98334649Y-93198390D02*
X98429887Y-93150771D01*
X98429887Y-93150771D02*
X98620363Y-93150771D01*
X98620363Y-93150771D02*
X98715601Y-93198390D01*
X98715601Y-93198390D02*
X98763220Y-93246009D01*
X98763220Y-93246009D02*
X98810839Y-93341247D01*
X103610839Y-102365057D02*
X103563220Y-102317438D01*
X103563220Y-102317438D02*
X103467982Y-102269819D01*
X103467982Y-102269819D02*
X103229887Y-102269819D01*
X103229887Y-102269819D02*
X103134649Y-102317438D01*
X103134649Y-102317438D02*
X103087030Y-102365057D01*
X103087030Y-102365057D02*
X103039411Y-102460295D01*
X103039411Y-102460295D02*
X103039411Y-102555533D01*
X103039411Y-102555533D02*
X103087030Y-102698390D01*
X103087030Y-102698390D02*
X103658458Y-103269819D01*
X103658458Y-103269819D02*
X103039411Y-103269819D01*
X102987030Y-92769819D02*
X103463220Y-92769819D01*
X103463220Y-92769819D02*
X103510839Y-93246009D01*
X103510839Y-93246009D02*
X103463220Y-93198390D01*
X103463220Y-93198390D02*
X103367982Y-93150771D01*
X103367982Y-93150771D02*
X103129887Y-93150771D01*
X103129887Y-93150771D02*
X103034649Y-93198390D01*
X103034649Y-93198390D02*
X102987030Y-93246009D01*
X102987030Y-93246009D02*
X102939411Y-93341247D01*
X102939411Y-93341247D02*
X102939411Y-93579342D01*
X102939411Y-93579342D02*
X102987030Y-93674580D01*
X102987030Y-93674580D02*
X103034649Y-93722200D01*
X103034649Y-93722200D02*
X103129887Y-93769819D01*
X103129887Y-93769819D02*
X103367982Y-93769819D01*
X103367982Y-93769819D02*
X103463220Y-93722200D01*
X103463220Y-93722200D02*
X103510839Y-93674580D01*
X107734649Y-93103152D02*
X107734649Y-93769819D01*
X107972744Y-92722200D02*
X108210839Y-93436485D01*
X108210839Y-93436485D02*
X107591792Y-93436485D01*
X98958458Y-102269819D02*
X98339411Y-102269819D01*
X98339411Y-102269819D02*
X98672744Y-102650771D01*
X98672744Y-102650771D02*
X98529887Y-102650771D01*
X98529887Y-102650771D02*
X98434649Y-102698390D01*
X98434649Y-102698390D02*
X98387030Y-102746009D01*
X98387030Y-102746009D02*
X98339411Y-102841247D01*
X98339411Y-102841247D02*
X98339411Y-103079342D01*
X98339411Y-103079342D02*
X98387030Y-103174580D01*
X98387030Y-103174580D02*
X98434649Y-103222200D01*
X98434649Y-103222200D02*
X98529887Y-103269819D01*
X98529887Y-103269819D02*
X98815601Y-103269819D01*
X98815601Y-103269819D02*
X98910839Y-103222200D01*
X98910839Y-103222200D02*
X98958458Y-103174580D01*
X64033332Y-98407200D02*
X63890475Y-98454819D01*
X63890475Y-98454819D02*
X63652380Y-98454819D01*
X63652380Y-98454819D02*
X63557142Y-98407200D01*
X63557142Y-98407200D02*
X63509523Y-98359580D01*
X63509523Y-98359580D02*
X63461904Y-98264342D01*
X63461904Y-98264342D02*
X63461904Y-98169104D01*
X63461904Y-98169104D02*
X63509523Y-98073866D01*
X63509523Y-98073866D02*
X63557142Y-98026247D01*
X63557142Y-98026247D02*
X63652380Y-97978628D01*
X63652380Y-97978628D02*
X63842856Y-97931009D01*
X63842856Y-97931009D02*
X63938094Y-97883390D01*
X63938094Y-97883390D02*
X63985713Y-97835771D01*
X63985713Y-97835771D02*
X64033332Y-97740533D01*
X64033332Y-97740533D02*
X64033332Y-97645295D01*
X64033332Y-97645295D02*
X63985713Y-97550057D01*
X63985713Y-97550057D02*
X63938094Y-97502438D01*
X63938094Y-97502438D02*
X63842856Y-97454819D01*
X63842856Y-97454819D02*
X63604761Y-97454819D01*
X63604761Y-97454819D02*
X63461904Y-97502438D01*
X63128570Y-97454819D02*
X62890475Y-98454819D01*
X62890475Y-98454819D02*
X62699999Y-97740533D01*
X62699999Y-97740533D02*
X62509523Y-98454819D01*
X62509523Y-98454819D02*
X62271428Y-97454819D01*
X61938094Y-97550057D02*
X61890475Y-97502438D01*
X61890475Y-97502438D02*
X61795237Y-97454819D01*
X61795237Y-97454819D02*
X61557142Y-97454819D01*
X61557142Y-97454819D02*
X61461904Y-97502438D01*
X61461904Y-97502438D02*
X61414285Y-97550057D01*
X61414285Y-97550057D02*
X61366666Y-97645295D01*
X61366666Y-97645295D02*
X61366666Y-97740533D01*
X61366666Y-97740533D02*
X61414285Y-97883390D01*
X61414285Y-97883390D02*
X61985713Y-98454819D01*
X61985713Y-98454819D02*
X61366666Y-98454819D01*
X67139411Y-103269819D02*
X67710839Y-103269819D01*
X67425125Y-103269819D02*
X67425125Y-102269819D01*
X67425125Y-102269819D02*
X67520363Y-102412676D01*
X67520363Y-102412676D02*
X67615601Y-102507914D01*
X67615601Y-102507914D02*
X67710839Y-102555533D01*
X58358458Y-102269819D02*
X57739411Y-102269819D01*
X57739411Y-102269819D02*
X58072744Y-102650771D01*
X58072744Y-102650771D02*
X57929887Y-102650771D01*
X57929887Y-102650771D02*
X57834649Y-102698390D01*
X57834649Y-102698390D02*
X57787030Y-102746009D01*
X57787030Y-102746009D02*
X57739411Y-102841247D01*
X57739411Y-102841247D02*
X57739411Y-103079342D01*
X57739411Y-103079342D02*
X57787030Y-103174580D01*
X57787030Y-103174580D02*
X57834649Y-103222200D01*
X57834649Y-103222200D02*
X57929887Y-103269819D01*
X57929887Y-103269819D02*
X58215601Y-103269819D01*
X58215601Y-103269819D02*
X58310839Y-103222200D01*
X58310839Y-103222200D02*
X58358458Y-103174580D01*
X67134649Y-93103152D02*
X67134649Y-93769819D01*
X67372744Y-92722200D02*
X67610839Y-93436485D01*
X67610839Y-93436485D02*
X66991792Y-93436485D01*
X57734649Y-92769819D02*
X57925125Y-92769819D01*
X57925125Y-92769819D02*
X58020363Y-92817438D01*
X58020363Y-92817438D02*
X58067982Y-92865057D01*
X58067982Y-92865057D02*
X58163220Y-93007914D01*
X58163220Y-93007914D02*
X58210839Y-93198390D01*
X58210839Y-93198390D02*
X58210839Y-93579342D01*
X58210839Y-93579342D02*
X58163220Y-93674580D01*
X58163220Y-93674580D02*
X58115601Y-93722200D01*
X58115601Y-93722200D02*
X58020363Y-93769819D01*
X58020363Y-93769819D02*
X57829887Y-93769819D01*
X57829887Y-93769819D02*
X57734649Y-93722200D01*
X57734649Y-93722200D02*
X57687030Y-93674580D01*
X57687030Y-93674580D02*
X57639411Y-93579342D01*
X57639411Y-93579342D02*
X57639411Y-93341247D01*
X57639411Y-93341247D02*
X57687030Y-93246009D01*
X57687030Y-93246009D02*
X57734649Y-93198390D01*
X57734649Y-93198390D02*
X57829887Y-93150771D01*
X57829887Y-93150771D02*
X58020363Y-93150771D01*
X58020363Y-93150771D02*
X58115601Y-93198390D01*
X58115601Y-93198390D02*
X58163220Y-93246009D01*
X58163220Y-93246009D02*
X58210839Y-93341247D01*
X63010839Y-102365057D02*
X62963220Y-102317438D01*
X62963220Y-102317438D02*
X62867982Y-102269819D01*
X62867982Y-102269819D02*
X62629887Y-102269819D01*
X62629887Y-102269819D02*
X62534649Y-102317438D01*
X62534649Y-102317438D02*
X62487030Y-102365057D01*
X62487030Y-102365057D02*
X62439411Y-102460295D01*
X62439411Y-102460295D02*
X62439411Y-102555533D01*
X62439411Y-102555533D02*
X62487030Y-102698390D01*
X62487030Y-102698390D02*
X63058458Y-103269819D01*
X63058458Y-103269819D02*
X62439411Y-103269819D01*
X62387030Y-92769819D02*
X62863220Y-92769819D01*
X62863220Y-92769819D02*
X62910839Y-93246009D01*
X62910839Y-93246009D02*
X62863220Y-93198390D01*
X62863220Y-93198390D02*
X62767982Y-93150771D01*
X62767982Y-93150771D02*
X62529887Y-93150771D01*
X62529887Y-93150771D02*
X62434649Y-93198390D01*
X62434649Y-93198390D02*
X62387030Y-93246009D01*
X62387030Y-93246009D02*
X62339411Y-93341247D01*
X62339411Y-93341247D02*
X62339411Y-93579342D01*
X62339411Y-93579342D02*
X62387030Y-93674580D01*
X62387030Y-93674580D02*
X62434649Y-93722200D01*
X62434649Y-93722200D02*
X62529887Y-93769819D01*
X62529887Y-93769819D02*
X62767982Y-93769819D01*
X62767982Y-93769819D02*
X62863220Y-93722200D01*
X62863220Y-93722200D02*
X62910839Y-93674580D01*
X87414819Y-97266905D02*
X86414819Y-97266905D01*
X86414819Y-97266905D02*
X86414819Y-97505000D01*
X86414819Y-97505000D02*
X86462438Y-97647857D01*
X86462438Y-97647857D02*
X86557676Y-97743095D01*
X86557676Y-97743095D02*
X86652914Y-97790714D01*
X86652914Y-97790714D02*
X86843390Y-97838333D01*
X86843390Y-97838333D02*
X86986247Y-97838333D01*
X86986247Y-97838333D02*
X87176723Y-97790714D01*
X87176723Y-97790714D02*
X87271961Y-97743095D01*
X87271961Y-97743095D02*
X87367200Y-97647857D01*
X87367200Y-97647857D02*
X87414819Y-97505000D01*
X87414819Y-97505000D02*
X87414819Y-97266905D01*
X87414819Y-98790714D02*
X87414819Y-98219286D01*
X87414819Y-98505000D02*
X86414819Y-98505000D01*
X86414819Y-98505000D02*
X86557676Y-98409762D01*
X86557676Y-98409762D02*
X86652914Y-98314524D01*
X86652914Y-98314524D02*
X86700533Y-98219286D01*
D11*
%TO.C,C18*%
X86140000Y-107415748D02*
X86140000Y-104584252D01*
X91360000Y-107415748D02*
X91360000Y-104584252D01*
%TO.C,C17*%
X74890000Y-107415748D02*
X74890000Y-104584252D01*
X80110000Y-107415748D02*
X80110000Y-104584252D01*
%TO.C,C14*%
X92238748Y-127265000D02*
X92761252Y-127265000D01*
X92238748Y-128735000D02*
X92761252Y-128735000D01*
%TO.C,C15*%
X83634165Y-127890000D02*
X83865835Y-127890000D01*
X83634165Y-128610000D02*
X83865835Y-128610000D01*
%TO.C,C16*%
X91865835Y-123360000D02*
X91634165Y-123360000D01*
X91865835Y-122640000D02*
X91634165Y-122640000D01*
%TO.C,C13*%
X82738748Y-132515000D02*
X83261252Y-132515000D01*
X82738748Y-133985000D02*
X83261252Y-133985000D01*
D12*
%TO.C,SW1*%
X96900000Y-92300000D02*
X96900000Y-103700000D01*
X96900000Y-92300000D02*
X109700000Y-92300000D01*
X96900000Y-103700000D02*
X109700000Y-103700000D01*
D11*
X109400000Y-103300000D02*
X109400000Y-102300000D01*
D12*
X109700000Y-92300000D02*
X109700000Y-103700000D01*
%TO.C,SW2*%
X56300000Y-92300000D02*
X56300000Y-103700000D01*
X56300000Y-92300000D02*
X69100000Y-92300000D01*
X56300000Y-103700000D02*
X69100000Y-103700000D01*
D11*
X68800000Y-103300000D02*
X68800000Y-102300000D01*
D12*
X69100000Y-92300000D02*
X69100000Y-103700000D01*
D11*
%TO.C,D1*%
X81455000Y-100565000D02*
X84545000Y-100565000D01*
X81455170Y-100564999D02*
G75*
G02*
X83000462Y-95015001I1544830J2559999D01*
G01*
X82999538Y-95015000D02*
G75*
G02*
X84544830Y-100565000I462J-2990000D01*
G01*
X85500000Y-98005000D02*
G75*
G02*
X80500000Y-98005000I-2500000J0D01*
G01*
X80500000Y-98005000D02*
G75*
G02*
X85500000Y-98005000I2500000J0D01*
G01*
%TD*%
M02*
